<?xml version="1.0" encoding="UTF-8" standalone="no"?>
<svg width="800px" height="278px" viewBox="0 0 800 278" version="1.1" xmlns="http://www.w3.org/2000/svg" xmlns:xlink="http://www.w3.org/1999/xlink" xmlns:sketch="http://www.bohemiancoding.com/sketch/ns">
    <!-- Generator: Sketch 3.3.3 (12081) - http://www.bohemiancoding.com/sketch -->
    <title>New Event</title>
    <desc>Create Your Next Event.</desc>
    <defs>
        <path id="path-1" d="M304,107.254 L303.961,107.235 L304,107.184 L304,107.254 L304,107.254 Z"></path>
        <path id="path-3" d="M-0.94,11 L798,11 L798,279 L-0.94,279"></path>
        <path id="path-5" d="M-0.94,0 L799,0 L799,278 L-0.94,278"></path>
    </defs>
    <g id="Page-1" stroke="none" stroke-width="1" fill="none" fill-rule="evenodd" sketch:type="MSPage">
        <g id="Group" sketch:type="MSLayerGroup" transform="translate(400.000000, 139.000000) scale(-1, 1) translate(-400.000000, -139.000000) ">
            <path d="M0,0 L800,0 L800,278 L0,278 L0,0 Z" id="Fill-1" fill="#334E62" sketch:type="MSShapeGroup"></path>
            <mask id="mask-2" sketch:name="Clip 127" fill="white">
                <use xlink:href="#path-1"></use>
            </mask>
            <g id="Clip-127"></g>
            <path d="M303.961,107.184 L304,107.184 L304,107.254 L303.961,107.254 L303.961,107.184 Z" id="Fill-126" fill="#2D4659" sketch:type="MSShapeGroup" mask="url(#mask-2)"></path>
            <path d="M303.923,107.285 L303.852,107.184 L303.961,107.235 L303.923,107.285" id="Fill-129" fill="#2D4659" sketch:type="MSShapeGroup" mask="url(#mask-2)"></path>
            <path d="M367.923,128.267 L367.852,128.184 L367.961,128.227 L367.923,128.267" id="Fill-130" fill="#2D4659" sketch:type="MSShapeGroup" mask="url(#mask-2)"></path>
            <path d="M368,128.242 L367.961,128.227 L368,128.184 L368,128.242" id="Fill-131" fill="#2D4659" sketch:type="MSShapeGroup" mask="url(#mask-2)"></path>
            <mask id="mask-4" sketch:name="Clip 133" fill="white">
                <use xlink:href="#path-3"></use>
            </mask>
            <g id="Clip-133"></g>
            <path d="M798,275.379 C794.527,270.048 782.41,266 768.103,266 L587.873,266 C570.88,266 556.977,260.098 556.977,253 C556.977,245.902 543.073,240 526.08,240 L494.153,240 C477.16,240 463.257,234.289 463.257,227.5 C463.257,220.711 449.354,215 432.36,215 L335.55,215 C318.557,215 304.654,206.109 304.654,195 C304.654,183.891 290.75,175 273.757,175 L231,175 L231,160 L248.63,160 L236.648,137 L244.979,137 L234.998,117 L238.371,117 L269.99,152.512 L287.936,128.358 L292.586,122.35 L303.923,107.285 L319.275,129.01 L340.367,158.713 L348.447,149.665 L348.421,149.662 L363.297,133.274 L367.923,128.267 L386.276,149.831 L386.215,149.833 L403.818,173.423 L421.434,149.833 L421.422,149.831 L439.947,128.184 L440,128.242 L440,128.184 L444.508,133.274 L459.19,149.662 L459.176,149.665 L467.281,158.713 L488.423,129.01 L503.947,107.184 L504,107.254 L504,107.184 L515.238,122.35 L537.708,152.512 L603.685,78.525 L604,78.868 L604,78.762 L648.217,126.937 L665,107.324 L665,107.184 L665.061,107.252 L665.12,107.184 L684.361,128.662 L684.349,128.665 L686.848,131.455 L719.685,96.525 L720,96.851 L720,96.762 L798,196.526 L798,275.379 M223,175 L42,175 L42,155.432 L42.338,155 L52.243,155 L48.681,162 L63,162 L63,175 L70,175 L70,162 L86.093,162 L75.407,141 L82.837,141 L73.936,123 L80.305,123 L74.097,114.494 L88,96.762 L88,96.851 L88.113,96.525 L120.851,131.455 L123.299,128.665 L123.262,128.662 L142.49,107.184 L142.744,107.252 L143,107.184 L143,107.324 L159.783,126.937 L204,78.762 L204,78.868 L204.113,78.525 L224.968,101.947 L213.983,117 L220.313,117 L210.332,137 L218.663,137 L206.681,160 L223,160 L223,175 M32,175 L26.657,175 L32,168.186 L32,175 M59.239,141.253 L59.107,141 L59.367,141 L59.239,141.253" id="Fill-136" fill="#2D4659" sketch:type="MSShapeGroup" mask="url(#mask-4)"></path>
            <path d="M63,151 L70,151 L70,175 L63,175 L63,151 Z" id="Fill-137" fill="#633F39" sketch:type="MSShapeGroup" mask="url(#mask-4)"></path>
            <path d="M67,162 L70,162 L70,175 L67,175 L67,162 Z" id="Fill-138" fill="#4F342E" sketch:type="MSShapeGroup" mask="url(#mask-4)"></path>
            <path d="M82.671,141 L82.837,141 L73.936,123 L80.305,123 L67.749,105.795 L55.192,123 L60.838,123 L51.936,141 L59.367,141 L48.681,162 L86.093,162 L75.407,141 L82.671,141" id="Fill-139" fill="#486330" sketch:type="MSShapeGroup" mask="url(#mask-4)"></path>
            <path d="M86.093,162 L66.816,162 L67.749,105.846 L80.305,123 L73.936,123 L82.837,141 L75.407,141 L86.093,162" id="Fill-140" fill="#41592D" sketch:type="MSShapeGroup" mask="url(#mask-4)"></path>
            <mask id="mask-6" sketch:name="Clip 142" fill="white">
                <use xlink:href="#path-5"></use>
            </mask>
            <g id="Clip-142"></g>
            <path d="M587.873,266 C570.88,266 556.977,260.098 556.977,253 C556.977,245.902 543.073,240 526.08,240 L494.153,240 C477.16,240 463.257,234.289 463.257,227.5 C463.257,220.711 449.354,215 432.36,215 L335.55,215 C318.557,215 304.654,206.109 304.654,195 C304.654,183.891 290.75,175 273.757,175 L5.986,175 C-11.007,175 -25,188.5 -25,205 L-25,260.584 C-25,277.084 -11.007,291 5.986,291 L265.518,291 L300.534,291 L335.55,291 L395.284,291 L444.719,291 L494.153,291 L509.601,291 L548.737,291 L587.873,291 L768.103,291 C785.097,291 799,285.289 799,278.5 C799,271.711 785.097,266 768.103,266 L587.873,266" id="Fill-141" fill="#78BBC7" sketch:type="MSShapeGroup" mask="url(#mask-6)"></path>
            <path d="M584.783,294 C567.79,294 553.887,283.098 553.887,276 C553.887,268.902 539.983,263 522.99,263 L491.064,263 C474.07,263 460.167,262.289 460.167,255.5 C460.167,248.711 446.264,243 429.271,243 L332.461,243 C315.468,243 301.564,234.109 301.564,223 C301.564,211.891 287.661,203 270.667,203 L2.897,203 C-14.097,203 -28,216.5 -28,233 L-28,289 L584.783,294" id="Fill-143" fill="#A8D5D8" sketch:type="MSShapeGroup" mask="url(#mask-6)"></path>
            <path d="M353.059,269 C344.562,269 337.61,266.3 337.61,263 C337.61,259.7 330.659,257 322.162,257 L179.007,257 C170.511,257 163.559,254.75 163.559,252 C163.559,249.25 156.607,247 148.111,247 L-9.462,247 C-17.958,247 -25,253.75 -25,262 L-25,286 C-25,294.25 -17.958,301 -9.462,301 L137.812,301 L158.41,301 L179.007,301 L320.102,301 C328.599,301 335.55,301.45 335.55,302 C335.55,302.55 342.502,303 350.999,303 L476.645,303 C485.142,303 492,296.25 492,288 L492,284 C492,275.75 485.142,269 476.645,269 L353.059,269" id="Fill-144" fill="#649AA8" sketch:type="MSShapeGroup" mask="url(#mask-6)"></path>
            <path d="M36,223.636 C36,225.494 34.494,227 32.636,227 L31.364,227 C29.506,227 28,225.494 28,223.636 L28,209.364 C28,207.506 29.506,206 31.364,206 L32.636,206 C34.494,206 36,207.506 36,209.364 L36,223.636" id="Fill-146" fill="#BEAE86" sketch:type="MSShapeGroup" mask="url(#mask-6)"></path>
            <path d="M243,223.636 C243,225.494 241.494,227 239.636,227 L238.364,227 C236.506,227 235,225.494 235,223.636 L235,209.364 C235,207.506 236.506,206 238.364,206 L239.636,206 C241.494,206 243,207.506 243,209.364 L243,223.636" id="Fill-147" fill="#BEAE86" sketch:type="MSShapeGroup" mask="url(#mask-6)"></path>
            <path d="M133,95 L133,125 C133,126.105 133.895,127 135,127 C136.105,127 137,126.105 137,125 L137,95 C137,93.895 136.105,93 135,93 C133.895,93 133,93.895 133,95" id="Fill-148" fill="#BEAE86" sketch:type="MSShapeGroup" mask="url(#mask-6)"></path>
            <path d="M133,93 L155,93 L155,104 L133,104 L133,93 Z" id="Fill-149" fill="#BE3A3B" sketch:type="MSShapeGroup" mask="url(#mask-6)"></path>
            <path d="M26,218 L245,218 C246.105,218 247,217.105 247,216 C247,214.895 246.105,214 245,214 L26,214 C24.895,214 24,214.895 24,216 C24,217.105 24.895,218 26,218" id="Fill-150" fill="#1F313B" sketch:type="MSShapeGroup" mask="url(#mask-6)"></path>
            <path d="M91,223 L191,223 L191,231 L91,231 L91,223 Z" id="Fill-151" fill="#1F618E" sketch:type="MSShapeGroup" mask="url(#mask-6)"></path>
            <path d="M122,216 L151,216 L151,223 L122,223 L122,216 Z" id="Fill-152" fill="#FFFFFF" sketch:type="MSShapeGroup" mask="url(#mask-6)"></path>
            <path d="M135.5,115.66 L76.126,218 L194.874,218 L135.5,115.66" id="Fill-153" fill="#677033" sketch:type="MSShapeGroup" mask="url(#mask-6)"></path>
            <path d="M135.72,112.409 L208.004,231 L145.413,231 L135.72,112.409" id="Fill-154" fill="#7B8B39" sketch:type="MSShapeGroup" mask="url(#mask-6)"></path>
            <path d="M134.954,112.409 L62.669,231 L125.261,231 L134.954,112.409" id="Fill-155" fill="#9AA93B" sketch:type="MSShapeGroup" mask="url(#mask-6)"></path>
            <path d="M223,148 L231,148 L231,175 L223,175 L223,148 Z" id="Fill-156" fill="#633F39" sketch:type="MSShapeGroup" mask="url(#mask-6)"></path>
            <path d="M227,160 L231,160 L231,175 L227,175 L227,160 Z" id="Fill-157" fill="#4F342E" sketch:type="MSShapeGroup" mask="url(#mask-6)"></path>
            <path d="M244.793,137 L244.979,137 L234.998,117 L242.14,117 L228.061,97.709 L213.983,117 L220.313,117 L210.332,137 L218.663,137 L206.681,160 L248.63,160 L236.648,137 L244.793,137" id="Fill-158" fill="#486330" sketch:type="MSShapeGroup" mask="url(#mask-6)"></path>
            <path d="M242.14,117 L228.061,97.709 L228.056,97.716 L228.061,97.4 L242.14,117" id="Fill-159" fill="#2D4659" sketch:type="MSShapeGroup" mask="url(#mask-6)"></path>
            <path d="M248.63,160 L227.015,160 L228.056,97.716 L228.061,97.709 L242.14,117 L234.998,117 L244.979,137 L236.648,137 L248.63,160" id="Fill-160" fill="#41592D" sketch:type="MSShapeGroup" mask="url(#mask-6)"></path>
            <path d="M32,139 L42,139 L42,175 L32,175 L32,139 Z" id="Fill-161" fill="#633F39" sketch:type="MSShapeGroup" mask="url(#mask-6)"></path>
            <path d="M37,155 L42,155 L42,175 L37,175 L37,155 Z" id="Fill-162" fill="#4F342E" sketch:type="MSShapeGroup" mask="url(#mask-6)"></path>
            <path d="M61.237,124 L61.488,124 L47.986,96 L57.647,96 L38.602,69.904 L19.558,96 L28.121,96 L14.619,124 L25.89,124 L9.681,155 L66.427,155 L50.218,124 L61.237,124" id="Fill-163" fill="#486330" sketch:type="MSShapeGroup" mask="url(#mask-6)"></path>
            <path d="M66.427,155 L37.187,155 L38.602,69.904 L57.647,96 L47.986,96 L61.488,124 L50.218,124 L66.427,155" id="Fill-164" fill="#41592D" sketch:type="MSShapeGroup" mask="url(#mask-6)"></path>
            <path d="M452.124,90.71 C451.896,90.71 451.707,90.71 451.561,90.709 C439.317,90.664 429.484,86.879 429.592,82.016 C429.704,77.18 439.61,73.291 451.761,73.291 L451.961,73.291 C452.563,73.293 453.154,73.312 453.741,73.332 C456.562,69.759 464.967,67.166 474.896,67.166 C485.061,67.166 493.608,69.886 496.225,73.592 C498.034,73.401 499.928,73.291 501.885,73.291 C514.131,73.291 524.055,77.041 524.055,81.904 C524.055,86.767 514.131,90.517 501.885,90.517 C496.972,90.517 458.61,90.71 452.124,90.71" id="Fill-165" fill="#2D4659" sketch:type="MSShapeGroup" mask="url(#mask-6)"></path>
            <path d="M269.134,69.71 C268.902,69.71 268.709,69.709 268.561,69.709 C256.317,69.664 246.484,65.879 246.592,61.016 C246.705,56.18 256.609,52.291 268.761,52.291 L268.961,52.291 C269.564,52.293 270.154,52.313 270.741,52.332 C273.561,48.759 281.967,46.166 291.896,46.166 C302.061,46.166 310.608,48.886 313.225,52.592 C315.034,52.401 316.928,52.291 318.885,52.291 C331.131,52.291 341.055,56.041 341.055,60.904 C341.055,65.768 331.131,69.518 318.885,69.518 C313.975,69.518 275.653,69.71 269.134,69.71" id="Fill-166" fill="#2D4659" sketch:type="MSShapeGroup" mask="url(#mask-6)"></path>
            <path d="M95.699,75 C95.699,76.491 94.491,77.699 93,77.699 C91.509,77.699 90.3,76.491 90.3,75 C90.3,73.509 91.509,72.3 93,72.3 C94.491,72.3 95.699,73.509 95.699,75" id="Fill-167" fill="#FFFFFF" sketch:type="MSShapeGroup" mask="url(#mask-6)"></path>
            <path d="M240.699,67 C240.699,68.491 239.491,69.699 238,69.699 C236.509,69.699 235.3,68.491 235.3,67 C235.3,65.509 236.509,64.3 238,64.3 C239.491,64.3 240.699,65.509 240.699,67" id="Fill-168" fill="#FFFFFF" sketch:type="MSShapeGroup" mask="url(#mask-6)"></path>
            <path d="M458.699,28 C458.699,29.491 457.491,30.699 456,30.699 C454.509,30.699 453.3,29.491 453.3,28 C453.3,26.509 454.509,25.3 456,25.3 C457.491,25.3 458.699,26.509 458.699,28" id="Fill-169" fill="#FFFFFF" sketch:type="MSShapeGroup" mask="url(#mask-6)"></path>
            <path d="M362.699,105 C362.699,106.491 361.491,107.699 360,107.699 C358.509,107.699 357.3,106.491 357.3,105 C357.3,103.509 358.509,102.3 360,102.3 C361.491,102.3 362.699,103.509 362.699,105" id="Fill-170" fill="#FFFFFF" sketch:type="MSShapeGroup" mask="url(#mask-6)"></path>
            <path d="M634.699,44 C634.699,45.491 633.491,46.7 632,46.7 C630.509,46.7 629.3,45.491 629.3,44 C629.3,42.509 630.509,41.3 632,41.3 C633.491,41.3 634.699,42.509 634.699,44" id="Fill-171" fill="#FFFFFF" sketch:type="MSShapeGroup" mask="url(#mask-6)"></path>
            <path d="M748.699,57 C748.699,58.491 747.491,59.699 746,59.699 C744.509,59.699 743.3,58.491 743.3,57 C743.3,55.509 744.509,54.3 746,54.3 C747.491,54.3 748.699,55.509 748.699,57" id="Fill-172" fill="#FFFFFF" sketch:type="MSShapeGroup" mask="url(#mask-6)"></path>
            <path d="M14.699,23 C14.699,24.491 13.491,25.699 12,25.699 C10.509,25.699 9.3,24.491 9.3,23 C9.3,21.509 10.509,20.3 12,20.3 C13.491,20.3 14.699,21.509 14.699,23" id="Fill-173" fill="#FFFFFF" sketch:type="MSShapeGroup" mask="url(#mask-6)"></path>
            <path d="M265.991,246.357 L261.664,243.984 C262.262,246.611 262.82,251.427 262.924,251.465 L279.827,263.113 L282.916,257.97 L265.991,246.357" id="Fill-175" fill="#2D1F1D" sketch:type="MSShapeGroup" mask="url(#mask-6)"></path>
            <path d="M283.086,261.571 C283.94,260.15 283.734,258.462 282.63,257.798 C281.526,257.133 279.938,257.748 279.085,259.169 C278.232,260.589 278.436,262.277 279.54,262.941 C280.645,263.605 282.232,262.991 283.086,261.571" id="Fill-176" fill="#AC8961" sketch:type="MSShapeGroup" mask="url(#mask-6)"></path>
            <path d="M279.827,263.113 L279.705,263.029 L279.706,263.03 L279.827,263.113" id="Fill-177" fill="#54808B" sketch:type="MSShapeGroup" mask="url(#mask-6)"></path>
            <path d="M270.956,257 L270.956,257 L270.257,256.518 L270.956,257" id="Fill-178" fill="#89ADB2" sketch:type="MSShapeGroup" mask="url(#mask-6)"></path>
            <path d="M279.211,262.689 L270.956,257 L279.211,262.688 L279.211,262.689 M283.057,261.619 C283.059,261.615 283.062,261.611 283.065,261.606 C283.062,261.611 283.059,261.615 283.057,261.619" id="Fill-179" fill="#54808B" sketch:type="MSShapeGroup" mask="url(#mask-6)"></path>
            <path d="M279.827,263.113 L279.706,263.03 C279.751,263.051 279.796,263.07 279.843,263.087 L279.827,263.113 M279.211,262.688 L270.956,257 L270.257,256.518 L271.239,255.76 L276.141,257.089 L279.165,259.041 C279.138,259.083 279.111,259.125 279.085,259.169 C278.325,260.433 278.404,261.911 279.211,262.688" id="Fill-180" fill="#221815" sketch:type="MSShapeGroup" mask="url(#mask-6)"></path>
            <path d="M280.541,263.198 C280.303,263.198 280.069,263.158 279.849,263.076 L279.843,263.087 C279.796,263.07 279.751,263.051 279.706,263.03 L279.705,263.029 L279.643,262.986 L279.54,262.941 C279.448,262.886 279.372,262.813 279.293,262.745 L279.211,262.689 C279.211,262.689 279.211,262.689 279.211,262.688 C278.404,261.911 278.325,260.433 279.085,259.169 C279.111,259.125 279.138,259.083 279.165,259.041 L283.086,261.571 C283.079,261.583 283.072,261.595 283.065,261.606 C283.062,261.611 283.059,261.615 283.057,261.619 C282.436,262.619 281.452,263.198 280.541,263.198" id="Fill-181" fill="#8D7051" sketch:type="MSShapeGroup" mask="url(#mask-6)"></path>
            <path d="M274.147,246 L278.339,243.394 C277.885,246.05 277.589,250.889 277.487,250.932 L261.244,263.482 L257.879,258.516 L274.147,246" id="Fill-182" fill="#382725" sketch:type="MSShapeGroup" mask="url(#mask-6)"></path>
            <path d="M257.906,262.12 C256.977,260.748 257.089,259.051 258.155,258.328 C259.222,257.604 260.841,258.132 261.77,259.504 C262.7,260.876 262.587,262.572 261.52,263.296 C260.454,264.02 258.835,263.492 257.906,262.12" id="Fill-183" fill="#AC8961" sketch:type="MSShapeGroup" mask="url(#mask-6)"></path>
            <path d="M261.244,263.482 L261.227,263.458 L261.244,263.482 L261.357,263.395 C261.357,263.394 261.358,263.394 261.358,263.394 L261.244,263.482" id="Fill-184" fill="#54808B" sketch:type="MSShapeGroup" mask="url(#mask-6)"></path>
            <path d="M261.244,263.482 L261.227,263.458 C261.271,263.439 261.314,263.418 261.357,263.395 L261.244,263.482 M261.839,263.022 C262.599,262.201 262.597,260.724 261.77,259.504 C261.73,259.445 261.69,259.388 261.648,259.333 L265.308,256.606 L269.834,255.379 L271.239,255.76 L261.839,263.022" id="Fill-185" fill="#2A1E1C" sketch:type="MSShapeGroup" mask="url(#mask-6)"></path>
            <path d="M260.417,263.61 C259.524,263.61 258.55,263.072 257.906,262.12 L261.648,259.333 C261.69,259.388 261.73,259.445 261.77,259.504 C262.597,260.724 262.599,262.201 261.839,263.022 L261.763,263.081 C261.686,263.156 261.611,263.234 261.52,263.296 L261.418,263.348 L261.358,263.394 C261.358,263.394 261.357,263.394 261.357,263.395 C261.314,263.418 261.271,263.439 261.227,263.458 L261.22,263.447 C260.968,263.557 260.697,263.61 260.417,263.61" id="Fill-186" fill="#8D7051" sketch:type="MSShapeGroup" mask="url(#mask-6)"></path>
            <path d="M263.666,249.167 C263.666,249.167 258.332,250.187 257.5,242.667 C256.5,233.622 260.535,230.167 260.535,230.167 L262.166,232.501 L268.334,215.834 L275.333,227.834 L278,225.001 C278,225.001 281.167,236 279.834,237.334 C278.5,238.668 281.666,239.001 281.666,237.334 C281.666,235.667 286.333,247.088 277.166,249.211 C268,251.334 263.666,249.167 263.666,249.167" id="Fill-187" fill="#CD3C37" sketch:type="MSShapeGroup" mask="url(#mask-6)"></path>
            <path d="M265,247.834 C264.721,247.185 263.333,243.5 263.333,240.667 C263.333,237.834 266,239.501 266,239.501 C266,239.501 268.5,235.334 268.5,233.834 C268.5,232.334 275.5,239.167 274.833,242.834 C274.166,246.501 271.667,248.834 271.667,248.834 C271.667,248.834 265.747,249.576 265,247.834" id="Fill-188" fill="#EE984F" sketch:type="MSShapeGroup" mask="url(#mask-6)"></path>
            <path d="M282.777,240.597 C282.555,238.655 281.92,237.168 281.725,237.168 C281.921,237.169 282.555,238.655 282.777,240.597 M280.354,238.463 L280.346,238.463 L280.354,238.463 M280.358,238.463 C280.962,238.461 281.666,238.12 281.666,237.334 C281.666,238.12 280.962,238.462 280.358,238.463 M281.666,237.334 C281.666,237.221 281.688,237.168 281.725,237.168 C281.688,237.169 281.666,237.221 281.666,237.334" id="Fill-189" fill="#89ADB2" sketch:type="MSShapeGroup" mask="url(#mask-6)"></path>
            <path d="M269.834,249.163 L269.544,249.084 L269.541,248.984 C269.976,248.972 270.38,248.949 270.716,248.924 L269.834,249.163 M271.892,248.605 C272.521,247.934 274.289,245.829 274.833,242.834 C275.393,239.758 270.558,234.455 268.985,233.71 L268.334,215.834 L275.333,227.834 L278,225.001 C278,225.001 280.162,232.509 280.161,235.871 C280.161,236.578 280.065,237.102 279.834,237.334 C279.133,238.035 279.674,238.46 280.346,238.463 L280.354,238.463 L280.358,238.463 C280.962,238.462 281.666,238.12 281.666,237.334 C281.666,237.221 281.688,237.169 281.725,237.168 C281.92,237.168 282.555,238.655 282.777,240.597 C282.964,242.24 282.857,244.209 281.939,245.882 L271.892,248.605" id="Fill-190" fill="#A93430" sketch:type="MSShapeGroup" mask="url(#mask-6)"></path>
            <path d="M269.541,248.984 L268.985,233.71 C270.558,234.455 275.393,239.758 274.833,242.834 C274.289,245.829 272.521,247.934 271.892,248.605 L270.716,248.924 C270.38,248.949 269.976,248.972 269.541,248.984" id="Fill-191" fill="#C67E3D" sketch:type="MSShapeGroup" mask="url(#mask-6)"></path>
            <path d="M287.08,247.596 C286.647,245.996 285.287,244.974 284.043,245.311 C283.933,245.341 283.833,245.392 283.733,245.439 L283.722,245.398 L255.732,252.985 L257.302,258.776 L285.291,251.189 L285.28,251.147 C285.392,251.139 285.503,251.132 285.613,251.101 C286.857,250.765 287.514,249.195 287.08,247.596" id="Fill-192" fill="#47302D" sketch:type="MSShapeGroup" mask="url(#mask-6)"></path>
            <path d="M254.587,256.404 C254.153,254.805 254.81,253.235 256.054,252.898 C257.297,252.561 258.657,253.584 259.091,255.184 C259.524,256.782 258.867,258.352 257.624,258.689 C256.38,259.026 255.02,258.004 254.587,256.404" id="Fill-193" fill="#AC8961" sketch:type="MSShapeGroup" mask="url(#mask-6)"></path>
            <path d="M257.187,258.781 C256.998,258.781 256.805,258.746 256.615,258.681 C256.788,258.729 256.964,258.754 257.14,258.754 C257.191,258.754 257.243,258.752 257.294,258.747 L257.302,258.776 C257.264,258.779 257.225,258.781 257.187,258.781" id="Fill-194" fill="#54808B" sketch:type="MSShapeGroup" mask="url(#mask-6)"></path>
            <path d="M257.302,258.776 L257.294,258.747 C257.388,258.739 257.482,258.724 257.576,258.702 C257.397,258.75 257.302,258.776 257.302,258.776" id="Fill-195" fill="#382624" sketch:type="MSShapeGroup" mask="url(#mask-6)"></path>
            <path d="M285.284,251.161 L285.28,251.147 C285.305,251.145 285.33,251.144 285.354,251.142 C285.332,251.147 285.309,251.154 285.284,251.161" id="Fill-196" fill="#89ADB2" sketch:type="MSShapeGroup" mask="url(#mask-6)"></path>
            <path d="M257.674,258.675 C258.885,258.309 259.518,256.76 259.091,255.184 C259.071,255.112 259.05,255.041 259.027,254.972 L263.743,253.728 L269.808,255.372 C264.276,256.878 259.081,258.292 257.674,258.675 M281.251,252.258 L275.367,250.663 L287.073,247.575 C287.497,249.178 286.811,250.753 285.566,251.084 C285.561,251.085 285.488,251.105 285.354,251.142 C285.33,251.144 285.305,251.145 285.28,251.147 L285.284,251.161 C284.695,251.321 283.225,251.72 281.251,252.258" id="Fill-197" fill="#382624" sketch:type="MSShapeGroup" mask="url(#mask-6)"></path>
            <path d="M254.72,256.807 C254.625,256.602 254.546,256.388 254.488,256.169 L254.528,256.158 C254.545,256.24 254.564,256.322 254.587,256.404 C254.624,256.543 254.669,256.677 254.72,256.807" id="Fill-198" fill="#89ADB2" sketch:type="MSShapeGroup" mask="url(#mask-6)"></path>
            <path d="M257.14,258.754 C256.964,258.754 256.788,258.729 256.615,258.681 C255.859,258.425 255.132,257.699 254.72,256.807 C254.669,256.677 254.624,256.543 254.587,256.404 C254.564,256.322 254.545,256.24 254.528,256.158 L259.027,254.972 C259.05,255.041 259.071,255.112 259.091,255.184 C259.518,256.76 258.885,258.309 257.674,258.675 C257.639,258.685 257.606,258.693 257.576,258.702 C257.482,258.724 257.388,258.739 257.294,258.747 C257.243,258.752 257.191,258.754 257.14,258.754" id="Fill-199" fill="#8D7051" sketch:type="MSShapeGroup" mask="url(#mask-6)"></path>
            <path d="M255.946,245.398 L255.935,245.439 C255.835,245.392 255.735,245.341 255.624,245.311 C254.381,244.974 253.021,245.996 252.587,247.596 C252.154,249.195 252.811,250.765 254.055,251.101 C254.165,251.132 254.276,251.139 254.388,251.147 L254.376,251.189 L282.366,258.776 L283.936,252.985 L255.946,245.398" id="Fill-200" fill="#633F39" sketch:type="MSShapeGroup" mask="url(#mask-6)"></path>
            <path d="M285.082,256.404 C285.515,254.805 284.858,253.235 283.614,252.898 C282.371,252.561 281.011,253.584 280.577,255.184 C280.144,256.782 280.801,258.352 282.044,258.689 C283.288,259.026 284.648,258.004 285.082,256.404" id="Fill-201" fill="#AC8961" sketch:type="MSShapeGroup" mask="url(#mask-6)"></path>
            <path d="M285.009,257 L284.866,257 C284.952,256.812 285.025,256.613 285.082,256.404 C285.083,256.4 285.084,256.396 285.085,256.392 L285.214,256.427 C285.16,256.627 285.091,256.819 285.009,257" id="Fill-202" fill="#89ADB2" sketch:type="MSShapeGroup" mask="url(#mask-6)"></path>
            <path d="M283.376,258.636 C283.367,258.616 283.357,258.597 283.348,258.577 C283.97,258.308 284.525,257.746 284.866,257 L285.009,257 C284.649,257.792 284.045,258.38 283.376,258.636" id="Fill-203" fill="#54808B" sketch:type="MSShapeGroup" mask="url(#mask-6)"></path>
            <path d="M282.64,258.776 C282.55,258.776 282.461,258.77 282.372,258.757 L282.374,258.747 C282.425,258.752 282.477,258.754 282.528,258.754 C282.806,258.754 283.083,258.692 283.348,258.577 C283.357,258.597 283.367,258.616 283.376,258.636 C283.136,258.727 282.888,258.776 282.64,258.776" id="Fill-204" fill="#8D7051" sketch:type="MSShapeGroup" mask="url(#mask-6)"></path>
            <path d="M282.372,258.757 C282.32,258.749 282.268,258.739 282.217,258.727 C282.269,258.736 282.322,258.743 282.374,258.747 L282.372,258.757" id="Fill-205" fill="#4F342E" sketch:type="MSShapeGroup" mask="url(#mask-6)"></path>
            <path d="M254.378,251.182 L254.171,251.126 C254.243,251.137 254.315,251.142 254.388,251.147 L254.378,251.182 M253.901,251.053 L253.844,251.037 L253.845,251.031 C253.864,251.039 253.882,251.046 253.901,251.053" id="Fill-206" fill="#89ADB2" sketch:type="MSShapeGroup" mask="url(#mask-6)"></path>
            <path d="M281.833,258.624 L254.378,251.182 L254.388,251.147 C254.315,251.142 254.243,251.137 254.171,251.126 L253.901,251.053 C253.882,251.046 253.864,251.039 253.845,251.031 L253.855,250.995 C252.82,250.498 252.303,249.037 252.698,247.579 L280.582,255.166 C280.58,255.172 280.579,255.178 280.577,255.184 C280.169,256.69 280.728,258.17 281.835,258.619 L281.833,258.624" id="Fill-207" fill="#4F342E" sketch:type="MSShapeGroup" mask="url(#mask-6)"></path>
            <path d="M282.528,258.754 C282.477,258.754 282.425,258.752 282.374,258.747 C282.322,258.743 282.269,258.736 282.217,258.727 C282.196,258.723 282.176,258.717 282.155,258.712 C282.045,258.682 281.945,258.631 281.845,258.583 L281.835,258.619 C280.728,258.17 280.169,256.69 280.577,255.184 C280.579,255.178 280.58,255.172 280.582,255.166 L285.085,256.392 C285.084,256.396 285.083,256.4 285.082,256.404 C285.025,256.613 284.952,256.812 284.866,257 C284.525,257.746 283.97,258.308 283.348,258.577 C283.083,258.692 282.806,258.754 282.528,258.754" id="Fill-208" fill="#8D7051" sketch:type="MSShapeGroup" mask="url(#mask-6)"></path>
        </g>
        <text id="Create-Your-Next-Eve" sketch:type="MSTextLayer" font-family="Roboto" font-size="48" font-style="condensed" font-weight="260" fill="#FFFFFF">
            <tspan x="27" y="151">Create Your Next Event</tspan>
        </text>
    </g>
</svg>
