<?xml version="1.0" encoding="utf-8"?>
<!-- Generator: Adobe Illustrator 16.0.3, SVG Export Plug-In . SVG Version: 6.00 Build 0)  -->
<!DOCTYPE svg PUBLIC "-//W3C//DTD SVG 1.1//EN" "http://www.w3.org/Graphics/SVG/1.1/DTD/svg11.dtd">
<svg version="1.1" id="Layer_1" xmlns="http://www.w3.org/2000/svg" xmlns:xlink="http://www.w3.org/1999/xlink" x="0px" y="0px"
	 width="512px" height="512px" viewBox="0 0 512 512" enable-background="new 0 0 512 512" xml:space="preserve">
<g>
	<g>
		<g>
			<path fill-rule="evenodd" clip-rule="evenodd" fill="#FCD996" d="M256,1C115.169,1,1,115.17,1,256s114.169,254.992,255,254.992
				c140.823,0,255-114.162,255-254.992S396.823,1,256,1z"/>
		</g>
	</g>
	<g>
		<g>
			<polygon fill="#990000" points="111.12,241.986 111.12,240.864 110.352,240.864 110.352,256.107 111.12,256.107 111.12,248.025 
				117.344,244.998 			"/>
		</g>
	</g>
	<g>
		<g>
			<polygon fill-rule="evenodd" clip-rule="evenodd" fill="#FC7D24" points="110.782,254.248 72.441,327.529 149.138,327.529 			"/>
		</g>
	</g>
	<g>
		<g>
			<polygon fill-rule="evenodd" clip-rule="evenodd" fill="#F7A12E" points="110.782,254.248 72.441,327.529 110.797,327.529 
				110.797,254.279 			"/>
		</g>
	</g>
	<g>
		<g>
			<polygon fill-rule="evenodd" clip-rule="evenodd" fill="#2E0D00" points="110.79,299.002 95.86,327.529 125.703,327.529 			"/>
		</g>
	</g>
	<g>
		<g>
			<rect x="63.613" y="326.784" fill="#2E0D00" width="94.331" height="1.482"/>
		</g>
	</g>
	<g>
		<g>
			<path fill-rule="evenodd" clip-rule="evenodd" fill="#2E0D00" d="M58.749,322.535c-1.875,0-3.411,1.521-3.411,3.396v0.177h6.808
				v-0.177C62.146,324.057,60.616,322.535,58.749,322.535z"/>
		</g>
	</g>
	<g>
		<g>
			<path fill-rule="evenodd" clip-rule="evenodd" fill="#8A2900" d="M64.512,321.951c-3.304,0-6,2.682-6,5.993v0.299h11.994
				c0-0.092,0.008-0.191,0.008-0.299C70.513,324.633,67.816,321.951,64.512,321.951z"/>
		</g>
	</g>
	<g>
		<g>
			<path fill-rule="evenodd" clip-rule="evenodd" fill="#99DBF0" d="M256,1C192.296,1,134.047,24.372,89.337,62.987
				c43.857,45.883,110.588,8.029,149.313,15.451c18.394,3.526,28.106,26.13,42.612,23.364c18.502-3.526,10.227-68.947,72.34-55.594
				c20.738,4.456,38.133,15.282,49.682,1.598C361.679,18.333,310.868,1,256,1z"/>
		</g>
	</g>
	<g>
		<g>
			<path fill-rule="evenodd" clip-rule="evenodd" fill="#85D4ED" d="M256,1c-46.646,0-90.35,12.531-127.969,34.389
				c38.195,7.076,81.115-11.432,109.252-6.039c18.394,3.519,28.114,26.122,42.612,23.372c11.933-2.274,12.732-30.302,28.46-46.329
				C291.452,2.859,273.949,1,256,1z"/>
		</g>
	</g>
	<g>
		<g>
			<path fill-rule="evenodd" clip-rule="evenodd" fill="#663300" d="M222.869,106.35v-4.617h-1.813v4.617h-0.477v0.261
				c0.469,0.008,0.922,0.008,1.383,0.008c0.454,0,0.922,0,1.375-0.008v-0.261H222.869z"/>
		</g>
	</g>
	<g>
		<g>
			<polygon fill-rule="evenodd" clip-rule="evenodd" fill="#006633" points="231.121,101.832 225.719,93.626 228.539,93.626 
				223.683,86.22 225.881,86.22 221.962,80.235 218.028,86.22 220.241,86.22 215.37,93.626 218.189,93.626 212.803,101.832 			"/>
		</g>
	</g>
	<g>
		<g>
			<polygon fill-rule="evenodd" clip-rule="evenodd" fill="#663300" points="280.94,119.488 280.94,112.619 278.229,112.619 
				278.229,119.488 277.537,119.488 277.537,119.887 281.632,119.887 281.632,119.488 			"/>
		</g>
	</g>
	<g>
		<g>
			<polygon fill-rule="evenodd" clip-rule="evenodd" fill="#006633" points="293.188,112.78 285.182,100.595 289.37,100.595 
				282.139,89.585 285.428,89.585 279.588,80.688 273.733,89.585 277.022,89.585 269.8,100.595 273.995,100.595 265.996,112.78 			
				"/>
		</g>
	</g>
	<g>
		<g>
			<polygon fill-rule="evenodd" clip-rule="evenodd" fill="#663300" points="321.586,72.791 321.586,70.009 320.495,70.009 
				320.495,72.791 320.219,72.791 320.219,72.959 321.894,72.959 321.894,72.791 			"/>
		</g>
	</g>
	<g>
		<g>
			<polygon fill-rule="evenodd" clip-rule="evenodd" fill="#006633" points="326.565,70.07 323.323,65.138 325.021,65.138 
				322.093,60.667 323.423,60.667 321.048,57.063 318.682,60.667 320.003,60.667 317.068,65.138 318.79,65.138 315.524,70.07 			"/>
		</g>
	</g>
	<g>
		<g>
			<path fill-rule="evenodd" clip-rule="evenodd" fill="#808080" d="M176.614,43.641c-10.173,0-18.41,8.244-18.41,18.409
				c0,0.308,0,0.615,0.015,0.922h36.773c0.031-0.307,0.031-0.614,0.031-0.922C195.024,51.885,186.771,43.641,176.614,43.641z"/>
		</g>
	</g>
	<g>
		<g>
			<path fill-rule="evenodd" clip-rule="evenodd" fill="#B3B3B3" d="M192.442,51.393c-6.078,0-11.018,4.933-11.018,11.025
				c0,0.185,0,0.376,0.016,0.553h22.021c0.007-0.177,0.015-0.369,0.015-0.553C203.476,56.326,198.527,51.393,192.442,51.393z"/>
		</g>
	</g>
	<g>
		<g>
			<path fill-rule="evenodd" clip-rule="evenodd" fill="#E6E6E6" d="M226.003,103.63c-3.703,0-6.715,3.012-6.715,6.715
				c0,0.107,0,0.215,0.016,0.33h13.392c0-0.115,0.008-0.223,0.008-0.33C232.704,106.642,229.699,103.63,226.003,103.63z"/>
		</g>
	</g>
	<g>
		<g>
			<path fill-rule="evenodd" clip-rule="evenodd" fill="#CCCCCC" d="M231.766,106.458c-2.213,0-4.026,1.798-4.026,4.018v0.208h8.037
				v-0.208C235.777,108.255,233.971,106.458,231.766,106.458z"/>
		</g>
	</g>
	<g>
		<g>
			<path fill-rule="evenodd" clip-rule="evenodd" fill="#E6E6E6" d="M274.687,115.908c-2.152,0-3.903,1.744-3.903,3.903v0.192h7.791
				v-0.192C278.574,117.651,276.83,115.908,274.687,115.908z"/>
		</g>
	</g>
	<g>
		<g>
			<path fill-rule="evenodd" clip-rule="evenodd" fill="#CCCCCC" d="M278.036,117.544c-1.291,0-2.335,1.053-2.335,2.336v0.115h4.656
				c0.016-0.031,0.016-0.062,0.016-0.115C280.372,118.597,279.327,117.544,278.036,117.544z"/>
		</g>
	</g>
	<g>
		<g>
			<path fill-rule="evenodd" clip-rule="evenodd" fill="#E6E6E6" d="M323.139,71.861c-1.199,0-2.167,0.976-2.167,2.159v0.115h4.311
				V74.02C325.282,72.836,324.306,71.861,323.139,71.861z"/>
		</g>
	</g>
	<g>
		<g>
			<path fill-rule="evenodd" clip-rule="evenodd" fill="#CCCCCC" d="M324.982,72.775c-0.707,0-1.291,0.576-1.291,1.291v0.061h2.597
				v-0.061C326.289,73.351,325.705,72.775,324.982,72.775z"/>
		</g>
	</g>
	<g>
		<g>
			<path fill-rule="evenodd" clip-rule="evenodd" fill="#E6E6E6" d="M346.757,86.973c-11.356,0-20.545,9.197-20.545,20.552
				c0,0.346,0.008,0.691,0.023,1.022h41.03c0.031-0.331,0.031-0.676,0.031-1.022C367.295,96.17,358.098,86.973,346.757,86.973z"/>
		</g>
	</g>
	<g>
		<g>
			<path fill-rule="evenodd" clip-rule="evenodd" fill="#CCCCCC" d="M364.43,95.617c-6.808,0-12.317,5.524-12.317,12.316
				c0,0.215,0.016,0.415,0.016,0.615h24.595c0.015-0.2,0.015-0.4,0.015-0.615C376.738,101.141,371.222,95.617,364.43,95.617z"/>
		</g>
	</g>
	<g>
		<g>
			<path fill="#999999" d="M208.885,62.265h-56.458c-0.43,0-0.784,0.354-0.784,0.791c0,0.438,0.354,0.792,0.784,0.792h56.458
				c0.43,0,0.792-0.354,0.792-0.792C209.676,62.618,209.315,62.265,208.885,62.265z"/>
		</g>
	</g>
	<g>
		<g>
			<polygon fill="#990000" points="180.809,90.408 180.809,89.777 180.387,89.777 180.387,98.275 180.809,98.275 180.809,93.765 
				184.282,92.083 			"/>
		</g>
	</g>
	<g>
		<g>
			<polygon fill-rule="evenodd" clip-rule="evenodd" fill="#FC7D24" points="180.64,97.238 159.265,138.05 201.993,138.05 			"/>
		</g>
	</g>
	<g>
		<g>
			<polygon fill-rule="evenodd" clip-rule="evenodd" fill="#F7A12E" points="159.265,138.05 180.64,138.05 180.64,97.238 			"/>
		</g>
	</g>
	<g>
		<g>
			<polygon fill-rule="evenodd" clip-rule="evenodd" fill="#2E0D00" points="180.632,122.162 172.319,138.05 188.954,138.05 			"/>
		</g>
	</g>
	<g>
		<g>
			<rect x="154.355" y="137.643" fill="#2E0D00" width="52.547" height="0.838"/>
		</g>
	</g>
	<g>
		<g>
			<path fill-rule="evenodd" clip-rule="evenodd" fill="#2E0D00" d="M151.643,135.269c-1.06,0-1.905,0.845-1.905,1.906v0.092h3.788
				v-0.092C153.525,136.114,152.688,135.269,151.643,135.269z"/>
		</g>
	</g>
	<g>
		<g>
			<path fill-rule="evenodd" clip-rule="evenodd" fill="#8A2900" d="M154.839,134.946c-1.829,0-3.334,1.49-3.334,3.334v0.169h6.685
				v-0.169C158.189,136.437,156.691,134.946,154.839,134.946z"/>
		</g>
	</g>
	<g>
		<g>
			<path fill-rule="evenodd" clip-rule="evenodd" fill="#FF1F1F" d="M207.271,172.339c-0.507,2.451-2.413,3.727-3.504,2.405
				c-1.429-1.767,0.369-3.411,0.261-5.701c-0.062-1.667-0.907-2.95-2.182-4.042c0.661,2.597-5.286,2.689-5.286,7.115
				c-0.646,0.046-1.022-0.384-0.953-1.176c-3.773,3.327-4.741,8.298-0.984,12.9c3.196,3.896,6.762,3.75,10.511-0.184
				C207.655,181.014,208.286,177.203,207.271,172.339z"/>
		</g>
	</g>
	<g>
		<g>
			<polygon fill="#8A2900" points="208.616,189.111 191.043,192.177 191.428,194.352 209,191.278 			"/>
		</g>
	</g>
	<g>
		<g>
			<polygon fill="#2E0D00" points="191.428,189.111 191.043,191.278 208.624,194.352 209,192.177 			"/>
		</g>
	</g>
	<g>
		<g>
			<path fill-rule="evenodd" clip-rule="evenodd" fill="#DB0000" d="M204.413,170.71c0.077,0.915-0.354,1.391-1.091,1.329
				c0-4.994-6.7-5.101-5.955-8.036c-1.452,1.245-2.39,2.689-2.482,4.563c-0.107,2.582,1.914,4.441,0.285,6.438
				c-1.207,1.498-3.366,0.062-3.95-2.712c-1.145,5.493-0.422,9.811,2.42,12.792c4.241,4.456,8.268,4.602,11.886,0.2
				C209.776,180.099,208.669,174.468,204.413,170.71z"/>
		</g>
	</g>
	<g>
		<g>
			<path fill-rule="evenodd" clip-rule="evenodd" fill="#BA0000" d="M207.702,175.474c-0.2-0.638-0.492-1.268-0.861-1.867
				c-0.784,1.583-2.189,2.198-3.073,1.137c-0.73-0.891-0.615-1.767-0.361-2.689c-0.023,0-0.046-0.008-0.077-0.008
				c0-2.405-1.552-3.68-3.081-4.679c-1.567,1.014-3.688,2.105-3.688,4.748c-0.646,0.046-1.022-0.376-0.953-1.168
				c-0.092,0.077-0.162,0.154-0.261,0.23c0.438,1.368,0.845,2.574-0.177,3.826c-0.661,0.83-1.637,0.761-2.451,0.062
				c-0.968,2.72-0.5,5.824,1.905,8.774c3.196,3.888,6.77,3.757,10.511-0.184C207.087,181.621,207.924,178.862,207.702,175.474z"/>
		</g>
	</g>
	<g>
		<g>
			<path fill-rule="evenodd" clip-rule="evenodd" fill="#990000" d="M200.018,180.23c-2.151,0-3.888,1.744-3.888,3.888
				c0,2.159,1.736,3.903,3.888,3.903s3.903-1.744,3.903-3.903C203.921,181.974,202.169,180.23,200.018,180.23z"/>
		</g>
	</g>
	<g>
		<g>
			<path fill-rule="evenodd" clip-rule="evenodd" fill="#219ED9" d="M338.075,331.109c-27.062-5.147-45.21,37.048-79.517,43.609
				c-59.125,11.309-153.201-33.867-230.282-3.842C70.305,453.992,156.483,511,255.992,511c69.667,0,132.802-27.959,178.818-73.234
				C360.265,430.559,368.179,336.849,338.075,331.109z"/>
		</g>
	</g>
	<g>
		<g>
			<path fill-rule="evenodd" clip-rule="evenodd" fill="#0D57A1" d="M335.524,422.714c-27.062-5.163-45.21,37.04-79.509,43.602
				c-42.674,8.175-103.528-13.092-163.083-14.275c44.211,36.802,101.046,58.952,163.067,58.952c41.406,0,80.485-9.88,115.068-27.39
				C357.215,456.082,352.221,425.888,335.524,422.714z"/>
		</g>
	</g>
	<g>
		<g>
			<path fill-rule="evenodd" clip-rule="evenodd" fill="#663300" d="M78.665,230.2v-8.628h-3.404v8.628h-0.869v0.484
				c0.845,0.007,1.706,0.007,2.566,0.007c0.876,0,1.721,0,2.574-0.007V230.2H78.665z"/>
		</g>
	</g>
	<g>
		<g>
			<polygon fill-rule="evenodd" clip-rule="evenodd" fill="#006633" points="94.047,221.764 83.997,206.452 89.252,206.452 
				80.171,192.63 84.289,192.63 76.959,181.475 69.629,192.63 73.748,192.63 64.673,206.452 69.944,206.452 59.878,221.764 			"/>
		</g>
	</g>
	<g>
		<g>
			<polygon fill-rule="evenodd" clip-rule="evenodd" fill="#663300" points="349.462,219.283 349.462,206.491 344.406,206.491 
				344.406,219.283 343.116,219.283 343.116,220.028 350.753,220.028 350.753,219.283 			"/>
		</g>
	</g>
	<g>
		<g>
			<polygon fill-rule="evenodd" clip-rule="evenodd" fill="#006633" points="372.313,206.767 357.376,184.01 365.198,184.01 
				351.721,163.489 357.837,163.489 346.934,146.886 336.031,163.489 342.147,163.489 328.67,184.01 336.508,184.01 
				321.556,206.767 			"/>
		</g>
	</g>
	<g>
		<g>
			<polygon fill-rule="evenodd" clip-rule="evenodd" fill="#663300" points="196.253,232.397 196.253,227.204 194.202,227.204 
				194.202,232.397 193.671,232.397 193.671,232.705 196.768,232.705 196.768,232.397 			"/>
		</g>
	</g>
	<g>
		<g>
			<polygon fill-rule="evenodd" clip-rule="evenodd" fill="#006633" points="205.52,227.327 199.449,218.092 202.638,218.092 
				197.152,209.764 199.649,209.764 195.224,203.033 190.806,209.764 193.287,209.764 187.824,218.092 190.998,218.092 
				184.928,227.327 			"/>
		</g>
	</g>
	<g>
		<g>
			<path fill-rule="evenodd" clip-rule="evenodd" fill="#E6E6E6" d="M84.504,225.137c-6.915,0-12.509,5.593-12.509,12.493
				c0,0.215,0,0.438,0.015,0.638h24.972c0.015-0.2,0.015-0.422,0.015-0.638C96.998,230.73,91.404,225.137,84.504,225.137z"/>
		</g>
	</g>
	<g>
		<g>
			<path fill-rule="evenodd" clip-rule="evenodd" fill="#CCCCCC" d="M95.246,230.4c-4.133,0-7.483,3.35-7.483,7.491v0.376h14.983
				v-0.376C102.745,233.75,99.395,230.4,95.246,230.4z"/>
		</g>
	</g>
	<g>
		<g>
			<path fill-rule="evenodd" clip-rule="evenodd" fill="#E6E6E6" d="M337.768,212.606c-4.003,0-7.253,3.265-7.253,7.268v0.369
				h14.537v-0.369C345.052,215.872,341.802,212.606,337.768,212.606z"/>
		</g>
	</g>
	<g>
		<g>
			<path fill-rule="evenodd" clip-rule="evenodd" fill="#CCCCCC" d="M344.038,215.656c-2.397,0-4.364,1.959-4.364,4.372
				c0,0.062,0,0.139,0.023,0.215h8.698c0-0.077,0.016-0.154,0.016-0.215C348.41,217.616,346.45,215.656,344.038,215.656z"/>
		</g>
	</g>
	<g>
		<g>
			<path fill-rule="evenodd" clip-rule="evenodd" fill="#E6E6E6" d="M199.096,230.661c-2.229,0-4.034,1.798-4.034,4.026v0.207h8.068
				c0.008-0.062,0.008-0.13,0.008-0.207C203.138,232.459,201.339,230.661,199.096,230.661z"/>
		</g>
	</g>
	<g>
		<g>
			<path fill-rule="evenodd" clip-rule="evenodd" fill="#CCCCCC" d="M202.569,232.352c-1.337,0-2.42,1.099-2.42,2.428v0.108h4.841
				v-0.108C204.989,233.45,203.921,232.352,202.569,232.352z"/>
		</g>
	</g>
	<g>
		<g>
			<polygon fill="#990000" points="278.881,240.649 278.881,240.042 278.467,240.042 278.467,248.217 278.881,248.217 
				278.881,243.884 282.216,242.271 			"/>
		</g>
	</g>
	<g>
		<g>
			<polygon fill-rule="evenodd" clip-rule="evenodd" fill="#FC7D24" points="278.689,247.218 258.151,286.494 299.25,286.494 			"/>
		</g>
	</g>
	<g>
		<g>
			<polygon fill-rule="evenodd" clip-rule="evenodd" fill="#F7A12E" points="278.689,247.218 258.151,286.494 278.697,286.494 
				278.697,247.234 			"/>
		</g>
	</g>
	<g>
		<g>
			<polygon fill-rule="evenodd" clip-rule="evenodd" fill="#2E0D00" points="278.689,271.197 270.691,286.494 286.688,286.494 			
				"/>
		</g>
	</g>
	<g>
		<g>
			<rect x="253.418" y="286.095" fill="#2E0D00" width="50.557" height="0.791"/>
		</g>
	</g>
	<g>
		<g>
			<path fill-rule="evenodd" clip-rule="evenodd" fill="#2E0D00" d="M250.806,283.812c-1.015,0-1.829,0.814-1.829,1.829v0.092h3.65
				v-0.092C252.627,284.627,251.82,283.812,250.806,283.812z"/>
		</g>
	</g>
	<g>
		<g>
			<path fill-rule="evenodd" clip-rule="evenodd" fill="#8A2900" d="M253.895,283.505c-1.782,0-3.211,1.444-3.211,3.212v0.153h6.423
				v-0.153C257.106,284.949,255.677,283.505,253.895,283.505z"/>
		</g>
	</g>
	<g>
		<g>
			<path fill-rule="evenodd" clip-rule="evenodd" fill="#FF1F1F" d="M230.998,283.467c-1.122,5.401-5.317,8.19-7.684,5.278
				c-3.166-3.872,0.784-7.499,0.553-12.523c-0.154-3.649-1.998-6.477-4.794-8.874c1.444,5.693-11.618,5.908-11.618,15.635
				c-1.414,0.108-2.236-0.837-2.09-2.573c-8.321,7.299-10.45,18.247-2.174,28.327c7.015,8.574,14.868,8.267,23.12-0.384
				C231.828,302.544,233.226,294.154,230.998,283.467z"/>
		</g>
	</g>
	<g>
		<g>
			<polygon fill="#8A2900" points="233.94,320.322 195.331,327.061 196.161,331.847 234.786,325.102 			"/>
		</g>
	</g>
	<g>
		<g>
			<polygon fill="#2E0D00" points="196.161,320.322 195.339,325.102 233.948,331.839 234.778,327.053 			"/>
		</g>
	</g>
	<g>
		<g>
			<path fill-rule="evenodd" clip-rule="evenodd" fill="#DB0000" d="M224.682,279.909c0.169,1.975-0.753,3.043-2.367,2.904
				c0-10.979-14.752-11.217-13.108-17.655c-3.158,2.72-5.255,5.893-5.432,10.019c-0.246,5.686,4.203,9.772,0.638,14.168
				c-2.674,3.288-7.43,0.115-8.69-5.978c-2.528,12.077-0.96,21.559,5.309,28.112c9.32,9.788,18.187,10.134,26.101,0.453
				C236.484,300.516,234.079,288.161,224.682,279.909z"/>
		</g>
	</g>
	<g>
		<g>
			<path fill-rule="evenodd" clip-rule="evenodd" fill="#BA0000" d="M231.951,290.358c-0.477-1.413-1.122-2.781-1.913-4.087
				c-1.698,3.457-4.818,4.832-6.723,2.474c-1.614-1.959-1.383-3.864-0.807-5.908c-0.069,0-0.131-0.008-0.192-0.016
				c0-5.278-3.411-8.082-6.761-10.272c-3.442,2.213-8.099,4.626-8.099,10.434c-1.414,0.108-2.244-0.829-2.082-2.581
				c-0.208,0.185-0.407,0.354-0.584,0.53c0.93,2.996,1.882,5.639-0.384,8.397c-1.483,1.828-3.596,1.659-5.401,0.131
				c-2.144,5.984-1.114,12.808,4.18,19.284c7.023,8.566,14.875,8.259,23.127-0.392C230.591,303.85,232.381,297.812,231.951,290.358z
				"/>
		</g>
	</g>
	<g>
		<g>
			<path fill-rule="evenodd" clip-rule="evenodd" fill="#990000" d="M215.062,300.808c-4.733,0-8.575,3.826-8.575,8.559
				c0,4.733,3.842,8.566,8.575,8.566c4.725,0,8.544-3.833,8.544-8.566C223.606,304.634,219.788,300.808,215.062,300.808z"/>
		</g>
	</g>
	<g>
		<g>
			<path fill-rule="evenodd" clip-rule="evenodd" fill="#FF1F1F" d="M164.113,232.075c-0.422,2.036-1.998,3.088-2.896,1.99
				c-1.199-1.467,0.292-2.82,0.215-4.725c-0.062-1.368-0.769-2.428-1.821-3.319c0.561,2.136-4.364,2.205-4.364,5.885
				c-0.545,0.031-0.853-0.322-0.791-0.983c-3.127,2.75-3.934,6.869-0.814,10.672c2.635,3.227,5.586,3.112,8.697-0.146
				C164.436,239.259,164.951,236.101,164.113,232.075z"/>
		</g>
	</g>
	<g>
		<g>
			<polygon fill="#8A2900" points="165.227,245.966 150.675,248.494 150.997,250.299 165.542,247.756 			"/>
		</g>
	</g>
	<g>
		<g>
			<polygon fill="#2E0D00" points="150.997,245.958 150.675,247.764 165.227,250.292 165.542,248.486 			"/>
		</g>
	</g>
	<g>
		<g>
			<path fill-rule="evenodd" clip-rule="evenodd" fill="#DB0000" d="M161.724,230.73c0.077,0.745-0.269,1.152-0.884,1.099
				c0-4.133-5.555-4.226-4.94-6.638c-1.191,1.014-1.967,2.205-2.044,3.772c-0.092,2.128,1.583,3.665,0.246,5.317
				c-1.014,1.252-2.797,0.046-3.273-2.244c-0.953,4.548-0.369,8.121,1.998,10.595c3.503,3.68,6.838,3.811,9.834,0.169
				C166.18,238.498,165.273,233.842,161.724,230.73z"/>
		</g>
	</g>
	<g>
		<g>
			<path fill-rule="evenodd" clip-rule="evenodd" fill="#BA0000" d="M164.474,234.672c-0.185-0.538-0.438-1.045-0.73-1.537
				c-0.638,1.298-1.806,1.813-2.528,0.922c-0.599-0.722-0.522-1.444-0.307-2.22h-0.077c0-1.99-1.275-3.05-2.536-3.88
				c-1.291,0.83-3.058,1.751-3.058,3.941c-0.538,0.031-0.845-0.323-0.784-0.976c-0.062,0.062-0.154,0.123-0.215,0.2
				c0.354,1.129,0.699,2.12-0.138,3.165c-0.569,0.676-1.353,0.63-2.044,0.046c-0.807,2.259-0.415,4.817,1.575,7.252
				c2.651,3.227,5.601,3.12,8.713-0.146C163.959,239.75,164.636,237.476,164.474,234.672z"/>
		</g>
	</g>
	<g>
		<g>
			<path fill-rule="evenodd" clip-rule="evenodd" fill="#990000" d="M158.097,238.605c-1.767,0-3.211,1.444-3.211,3.227
				c0,1.782,1.444,3.227,3.211,3.227c1.798,0,3.227-1.445,3.227-3.227C161.324,240.05,159.895,238.605,158.097,238.605z"/>
		</g>
	</g>
	<g>
		<g>
			<path fill-rule="evenodd" clip-rule="evenodd" fill="#FF9933" d="M101.73,137.412c-7.238,0-13.123,2.052-13.123,4.595
				s5.885,4.594,13.123,4.594c7.223,0,13.093-2.051,13.093-4.594S108.953,137.412,101.73,137.412z"/>
		</g>
	</g>
	<g>
		<g>
			<polygon fill-rule="evenodd" clip-rule="evenodd" fill="#2E0D00" points="108.554,135.384 106.087,135.384 109.537,140.509 
				112.019,140.509 			"/>
		</g>
	</g>
	<g>
		<g>
			<polygon fill-rule="evenodd" clip-rule="evenodd" fill="#4F2900" points="100.102,138.426 97.62,138.426 101.73,144.504 
				104.205,144.504 			"/>
		</g>
	</g>
	<g>
		<g>
			<polygon fill-rule="evenodd" clip-rule="evenodd" fill="#2E0D00" points="100.102,138.434 97.612,138.434 98.465,139.671 
				100.932,139.671 			"/>
		</g>
	</g>
	<g>
		<g>
			<polygon fill-rule="evenodd" clip-rule="evenodd" fill="#4F2900" points="94.385,138.426 90.274,144.504 92.756,144.504 
				96.859,138.426 			"/>
		</g>
	</g>
	<g>
		<g>
			<polygon fill-rule="evenodd" clip-rule="evenodd" fill="#2E0D00" points="94.377,138.434 93.54,139.671 96.022,139.671 
				96.859,138.434 			"/>
		</g>
	</g>
	<g>
		<g>
			<polygon fill-rule="evenodd" clip-rule="evenodd" fill="#2E0D00" points="99.395,135.346 92.157,138.979 92.157,139.341 
				101.931,139.341 109.153,135.346 109.153,134.954 			"/>
		</g>
	</g>
	<g>
		<g>
			<polygon fill-rule="evenodd" clip-rule="evenodd" fill="#663300" points="99.395,134.954 92.157,138.972 101.931,138.972 
				109.168,134.954 			"/>
		</g>
	</g>
	<g>
		<g>
			<polygon fill-rule="evenodd" clip-rule="evenodd" fill="#2E0D00" points="109.414,137.812 103.206,141.092 90.144,141.092 
				88.953,141.738 88.953,142.068 103.997,142.068 112.318,137.812 112.318,137.489 			"/>
		</g>
	</g>
	<g>
		<g>
			<polygon fill-rule="evenodd" clip-rule="evenodd" fill="#663300" points="109.414,137.489 103.206,140.77 90.144,140.77 
				88.953,141.738 103.997,141.738 112.318,137.489 			"/>
		</g>
	</g>
	<g>
		<g>
			<path fill="#990000" d="M447.266,87.373v22.696h1.698V92.105l1.675-0.814C449.524,89.977,448.41,88.671,447.266,87.373z"/>
		</g>
	</g>
	<g>
		<g>
			<path fill-rule="evenodd" clip-rule="evenodd" fill="#FC7D24" d="M508.664,221.457l-60.454-115.53l-85.103,162.634h147.585
				c0.2-4.156,0.307-8.352,0.307-12.562C511,244.276,510.186,232.751,508.664,221.457z"/>
		</g>
	</g>
	<g>
		<g>
			<polygon fill-rule="evenodd" clip-rule="evenodd" fill="#F7A12E" points="448.21,105.927 363.108,268.562 448.249,268.562 
				448.249,105.997 			"/>
		</g>
	</g>
	<g>
		<g>
			<polygon fill-rule="evenodd" clip-rule="evenodd" fill="#2E0D00" points="448.21,205.253 415.079,268.562 481.342,268.562 			"/>
		</g>
	</g>
	<g>
		<g>
			<path fill="#2E0D00" d="M343.53,266.902v3.304h167.062c0.069-1.099,0.115-2.189,0.161-3.304H343.53z"/>
		</g>
	</g>
	<g>
		<g>
			<path fill-rule="evenodd" clip-rule="evenodd" fill="#2E0D00" d="M332.728,257.476c-4.18,0-7.576,3.38-7.576,7.552
				c0,0.131,0.016,0.262,0.016,0.385h15.09c0.015-0.123,0.015-0.254,0.015-0.385C340.272,260.855,336.884,257.476,332.728,257.476z"
				/>
		</g>
	</g>
	<g>
		<g>
			<path fill-rule="evenodd" clip-rule="evenodd" fill="#8A2900" d="M345.513,256.185c-7.361,0-13.3,5.962-13.3,13.307
				c0,0.23,0,0.446,0.015,0.669h26.577c0-0.223,0.016-0.438,0.016-0.669C358.821,262.146,352.866,256.185,345.513,256.185z"/>
		</g>
	</g>
	<g>
		<g>
			<path fill-rule="evenodd" clip-rule="evenodd" fill="#FF9933" d="M244.229,153.093c-7.238,0-13.108,2.059-13.108,4.595
				c0,2.535,5.871,4.594,13.108,4.594s13.093-2.059,13.093-4.594C257.322,155.152,251.467,153.093,244.229,153.093z"/>
		</g>
	</g>
	<g>
		<g>
			<polygon fill-rule="evenodd" clip-rule="evenodd" fill="#2E0D00" points="251.052,151.065 248.585,151.065 252.035,156.189 
				254.517,156.189 			"/>
		</g>
	</g>
	<g>
		<g>
			<polygon fill-rule="evenodd" clip-rule="evenodd" fill="#4F2900" points="242.6,154.107 240.126,154.107 244.229,160.192 
				246.703,160.192 			"/>
		</g>
	</g>
	<g>
		<g>
			<polygon fill-rule="evenodd" clip-rule="evenodd" fill="#2E0D00" points="242.6,154.107 240.126,154.107 240.963,155.352 
				243.43,155.352 			"/>
		</g>
	</g>
	<g>
		<g>
			<polygon fill-rule="evenodd" clip-rule="evenodd" fill="#4F2900" points="236.883,154.107 232.773,160.192 235.254,160.192 
				239.357,154.107 			"/>
		</g>
	</g>
	<g>
		<g>
			<polygon fill-rule="evenodd" clip-rule="evenodd" fill="#2E0D00" points="236.876,154.107 236.038,155.352 238.52,155.352 
				239.357,154.107 			"/>
		</g>
	</g>
	<g>
		<g>
			<polygon fill-rule="evenodd" clip-rule="evenodd" fill="#2E0D00" points="241.893,151.027 234.655,154.661 234.655,155.022 
				244.429,155.022 251.667,151.027 251.667,150.643 			"/>
		</g>
	</g>
	<g>
		<g>
			<polygon fill-rule="evenodd" clip-rule="evenodd" fill="#663300" points="241.893,150.635 234.655,154.653 244.429,154.653 
				251.667,150.635 			"/>
		</g>
	</g>
	<g>
		<g>
			<polygon fill-rule="evenodd" clip-rule="evenodd" fill="#2E0D00" points="251.928,153.485 245.704,156.773 232.642,156.773 
				231.451,157.427 231.451,157.742 246.488,157.742 254.817,153.485 254.817,153.17 			"/>
		</g>
	</g>
	<g>
		<g>
			<polygon fill-rule="evenodd" clip-rule="evenodd" fill="#663300" points="251.928,153.17 245.704,156.458 232.642,156.451 
				231.451,157.427 246.488,157.427 254.817,153.17 			"/>
		</g>
	</g>
	<g>
		<g>
			<path fill-rule="evenodd" clip-rule="evenodd" fill="#FF9933" d="M429.832,305.886c-17.496,0-31.679,4.971-31.679,11.11
				c0,6.123,14.184,11.102,31.679,11.102c17.519,0,31.687-4.979,31.687-11.102C461.518,310.856,447.35,305.886,429.832,305.886z"/>
		</g>
	</g>
	<g>
		<g>
			<polygon fill-rule="evenodd" clip-rule="evenodd" fill="#2E0D00" points="446.366,300.961 440.373,300.961 448.748,313.361 
				454.741,313.361 			"/>
		</g>
	</g>
	<g>
		<g>
			<polygon fill-rule="evenodd" clip-rule="evenodd" fill="#4F2900" points="425.928,308.329 419.912,308.329 429.847,323.034 
				435.84,323.034 			"/>
		</g>
	</g>
	<g>
		<g>
			<polygon fill-rule="evenodd" clip-rule="evenodd" fill="#2E0D00" points="425.928,308.337 419.912,308.337 421.948,311.333 
				427.941,311.333 			"/>
		</g>
	</g>
	<g>
		<g>
			<polygon fill-rule="evenodd" clip-rule="evenodd" fill="#4F2900" points="412.083,308.329 402.171,323.034 408.164,323.034 
				418.099,308.329 			"/>
		</g>
	</g>
	<g>
		<g>
			<polygon fill-rule="evenodd" clip-rule="evenodd" fill="#2E0D00" points="412.083,308.337 410.069,311.333 416.062,311.333 
				418.099,308.337 			"/>
		</g>
	</g>
	<g>
		<g>
			<polygon fill-rule="evenodd" clip-rule="evenodd" fill="#2E0D00" points="424.207,300.885 406.727,309.682 406.727,310.55 
				430.354,310.55 447.842,300.885 447.842,299.947 			"/>
		</g>
	</g>
	<g>
		<g>
			<polygon fill-rule="evenodd" clip-rule="evenodd" fill="#663300" points="424.207,299.947 406.727,309.62 430.354,309.62 
				447.842,299.947 			"/>
		</g>
	</g>
	<g>
		<g>
			<polygon fill-rule="evenodd" clip-rule="evenodd" fill="#2E0D00" points="448.456,306.831 433.427,314.791 401.833,314.775 
				398.959,316.343 398.959,317.111 435.348,317.111 455.479,306.831 455.479,306.07 			"/>
		</g>
	</g>
	<g>
		<g>
			<polygon fill-rule="evenodd" clip-rule="evenodd" fill="#663300" points="448.456,306.062 433.427,314.007 401.833,313.991 
				398.959,316.343 435.348,316.343 455.479,306.062 			"/>
		</g>
	</g>
</g>
</svg>
