<?xml version="1.0" encoding="utf-8"?>
<!-- Generator: Adobe Illustrator 16.0.0, SVG Export Plug-In . SVG Version: 6.00 Build 0)  -->
<!DOCTYPE svg PUBLIC "-//W3C//DTD SVG 1.1//EN" "http://www.w3.org/Graphics/SVG/1.1/DTD/svg11.dtd">
<svg version="1.1" id="Layer_1" xmlns="http://www.w3.org/2000/svg" xmlns:xlink="http://www.w3.org/1999/xlink" x="0px" y="0px"
	 width="136.833px" height="136.834px" viewBox="0 0 136.833 136.834" style="enable-background:new 0 0 136.833 136.834;"
	 xml:space="preserve">
<style type="text/css">
<![CDATA[
	.st0{fill:#AA7243;}
	.st1{fill:#49A0AE;}
	.st2{fill:#E0E4E0;}
	.st3{fill:#E17A2D;}
	.st4{fill:#E3A93F;}
	.st5{fill:#E3AA24;}
	.st6{fill:#E3B071;}
	.st7{fill:#4ABC96;}
	.st8{fill:#E5F2E6;}
	.st9{fill:#E79E2D;}
	.st10{fill:#E7DD7F;}
	.st11{fill:#E84849;}
	.st12{fill:#E9B634;}
	.st13{fill:#E9C29C;}
	.st14{fill:#E9E9EA;}
	.st15{fill:#818282;}
	.st16{fill:#B17B48;}
	.st17{fill:#B25E27;}
	.st18{fill:#EADEDF;}
	.st19{fill:#EAE744;}
	.st20{fill:#ECB050;}
	.st21{fill:#EDAF1E;}
	.st22{fill:#EDC92C;}
	.st23{opacity:0.15;fill:#FFFFFF;}
	.st24{fill:#8AB53F;}
	.st25{fill:#202121;}
	.st26{fill:#BEB8B1;}
	.st27{fill:#BF2626;}
	.st28{fill:#F06668;}
	.st29{fill:#F1E85F;}
	.st30{fill:#F37C2A;}
	.st31{fill:#F3C9A1;}
	.st32{fill:#F3EA83;}
	.st33{fill:#F3ED73;}
	.st34{fill:#F4E028;}
	.st35{fill:#F4F5F5;}
	.st36{fill:#5B4F3F;}
	.st37{fill:#F6A2A3;}
	.st38{fill:#F8CC19;}
	.st39{fill:#F8D12E;}
	.st40{fill:#F8D958;}
	.st41{fill:#5E5F5E;}
	.st42{fill:#F9EED1;}
	.st43{fill:#908985;}
	.st44{fill:#C02026;}
	.st45{opacity:0.2;fill:#FFFFFF;}
	.st46{fill:#C2C4C1;}
	.st47{fill:#2D6370;}
	.st48{fill:#996B39;}
	.st49{fill:#99CA41;}
	.st50{opacity:0.8;}
	.st51{fill:#614C32;}
	.st52{fill:#FFC10D;}
	.st53{fill:#FFFFFF;}
	.st54{fill:#626463;}
	.st55{fill:none;}
	.st56{fill:#CA7B29;}
	.st57{fill:#69C6D4;}
	.st58{fill:#9DDAEC;}
	.st59{fill:#9F2322;}
	.st60{fill:#343433;}
	.st61{fill:#344E5D;}
	.st62{fill:#367180;}
	.st63{fill:#D1E8F8;}
	.st64{fill:#3A3A3A;}
	.st65{fill:#D62127;}
	.st66{fill:#D7D7D7;}
	.st67{fill:#3D3B3B;}
	.st68{fill:#D89F29;}
	.st69{fill:#70BFC8;}
	.st70{fill:#A19F9F;}
	.st71{fill:#D62127;stroke:#D62127;stroke-width:2;stroke-linecap:round;stroke-linejoin:round;stroke-miterlimit:10;}
	.st72{fill:#A2D4DE;}
	.st73{fill:#A3DADA;}
	.st74{fill:#DA8727;}
	.st75{fill:#A6D0EE;}
	.st76{fill:#DB4A4B;}
	.st77{fill:#DBB626;}
	.st78{fill:#DDD555;}
	.st79{fill:#DDDDDC;}
]]>
</style>
<g>
	<g>
		<circle class="st11" cx="68.417" cy="68.417" r="63.333"/>
	</g>
	<g>
		<path class="st22" d="M114.468,94.326L71.015,24.293c-0.506-0.817-1.398-1.313-2.358-1.313c-0.961,0-1.853,0.497-2.359,1.313
			l-43.57,70.225c-0.531,0.856-0.558,1.933-0.067,2.813c0.489,0.88,1.419,1.426,2.425,1.426h87.144h0.012
			c1.533,0,2.775-1.243,2.775-2.775C115.015,95.361,114.812,94.789,114.468,94.326z"/>
		<g>
			<path d="M65.441,69.795l-0.901-13.48c-0.169-2.627-0.252-4.513-0.252-5.657c0-1.557,0.408-2.772,1.223-3.644
				c0.816-0.875,1.892-1.31,3.223-1.31c1.614,0,2.694,0.558,3.237,1.674c0.543,1.117,0.816,2.727,0.816,4.826
				c0,1.239-0.066,2.498-0.196,3.771l-1.211,13.875c-0.131,1.652-0.412,2.918-0.845,3.801c-0.432,0.881-1.146,1.321-2.139,1.321
				c-1.014,0-1.717-0.425-2.11-1.28C65.891,72.84,65.609,71.54,65.441,69.795z M68.565,88.313c-1.145,0-2.145-0.369-2.997-1.11
				c-0.854-0.74-1.28-1.777-1.28-3.109c0-1.164,0.408-2.154,1.223-2.971c0.816-0.816,1.816-1.224,2.998-1.224
				c1.183,0,2.189,0.407,3.025,1.224c0.835,0.816,1.253,1.807,1.253,2.971c0,1.313-0.422,2.344-1.268,3.095
				C70.675,87.938,69.691,88.313,68.565,88.313z"/>
		</g>
	</g>
</g>
</svg>
