<?xml version="1.0" encoding="utf-8"?>
<!-- Generator: Adobe Illustrator 16.0.0, SVG Export Plug-In . SVG Version: 6.00 Build 0)  -->
<!DOCTYPE svg PUBLIC "-//W3C//DTD SVG 1.1//EN" "http://www.w3.org/Graphics/SVG/1.1/DTD/svg11.dtd">
<svg version="1.1" id="Layer_1" xmlns="http://www.w3.org/2000/svg" xmlns:xlink="http://www.w3.org/1999/xlink" x="0px" y="0px"
	 width="136.833px" height="136.834px" viewBox="0 0 136.833 136.834" style="enable-background:new 0 0 136.833 136.834;"
	 xml:space="preserve">
<style type="text/css">
<![CDATA[
	.st0{fill:#AA7243;}
	.st1{fill:#49A0AE;}
	.st2{fill:#E0E4E0;}
	.st3{fill:#E17A2D;}
	.st4{fill:#E3A93F;}
	.st5{fill:#E3AA24;}
	.st6{fill:#E3B071;}
	.st7{fill:#4ABC96;}
	.st8{fill:#E5F2E6;}
	.st9{fill:#E79E2D;}
	.st10{fill:#E7DD7F;}
	.st11{fill:#E84849;}
	.st12{fill:#E9B634;}
	.st13{fill:#E9C29C;}
	.st14{fill:#E9E9EA;}
	.st15{fill:#818282;}
	.st16{fill:#B17B48;}
	.st17{fill:#B25E27;}
	.st18{fill:#EADEDF;}
	.st19{fill:#EAE744;}
	.st20{fill:#ECB050;}
	.st21{fill:#EDAF1E;}
	.st22{fill:#EDC92C;}
	.st23{opacity:0.15;fill:#FFFFFF;}
	.st24{fill:#8AB53F;}
	.st25{fill:#202121;}
	.st26{fill:#BEB8B1;}
	.st27{fill:#BF2626;}
	.st28{fill:#F06668;}
	.st29{fill:#F1E85F;}
	.st30{fill:#F37C2A;}
	.st31{fill:#F3C9A1;}
	.st32{fill:#F3EA83;}
	.st33{fill:#F3ED73;}
	.st34{fill:#F4E028;}
	.st35{fill:#F4F5F5;}
	.st36{fill:#5B4F3F;}
	.st37{fill:#F6A2A3;}
	.st38{fill:#F8CC19;}
	.st39{fill:#F8D12E;}
	.st40{fill:#F8D958;}
	.st41{fill:#5E5F5E;}
	.st42{fill:#F9EED1;}
	.st43{fill:#908985;}
	.st44{fill:#C02026;}
	.st45{opacity:0.2;fill:#FFFFFF;}
	.st46{fill:#C2C4C1;}
	.st47{fill:#2D6370;}
	.st48{fill:#996B39;}
	.st49{fill:#99CA41;}
	.st50{opacity:0.8;}
	.st51{fill:#614C32;}
	.st52{fill:#FFC10D;}
	.st53{fill:#FFFFFF;}
	.st54{fill:#626463;}
	.st55{fill:none;}
	.st56{fill:#CA7B29;}
	.st57{fill:#69C6D4;}
	.st58{fill:#9DDAEC;}
	.st59{fill:#9F2322;}
	.st60{fill:#343433;}
	.st61{fill:#344E5D;}
	.st62{fill:#367180;}
	.st63{fill:#D1E8F8;}
	.st64{fill:#3A3A3A;}
	.st65{fill:#D62127;}
	.st66{fill:#D7D7D7;}
	.st67{fill:#3D3B3B;}
	.st68{fill:#D89F29;}
	.st69{fill:#70BFC8;}
	.st70{fill:#A19F9F;}
	.st71{fill:#D62127;stroke:#D62127;stroke-width:2;stroke-linecap:round;stroke-linejoin:round;stroke-miterlimit:10;}
	.st72{fill:#A2D4DE;}
	.st73{fill:#A3DADA;}
	.st74{fill:#DA8727;}
	.st75{fill:#A6D0EE;}
	.st76{fill:#DB4A4B;}
	.st77{fill:#DBB626;}
	.st78{fill:#DDD555;}
	.st79{fill:#DDDDDC;}
]]>
</style>
<g>
	<g>
		<circle class="st9" cx="68.417" cy="68.417" r="63.333"/>
	</g>
	<g>
		<g>
			<path class="st56" d="M62.389,72.542l-1.79-26.768c-0.336-5.216-0.5-8.96-0.5-11.232c0-3.092,0.811-5.506,2.428-7.235
				c1.621-1.737,3.756-2.603,6.398-2.603c3.206,0,5.351,1.109,6.429,3.326c1.078,2.219,1.621,5.414,1.621,9.583
				c0,2.46-0.132,4.96-0.39,7.489l-2.404,27.551c-0.26,3.281-0.818,5.794-1.678,7.547c-0.857,1.749-2.274,2.623-4.246,2.623
				c-2.014,0-3.409-0.844-4.191-2.542C63.283,78.589,62.722,76.006,62.389,72.542z M68.592,109.312
				c-2.272,0-4.259-0.732-5.951-2.205c-1.696-1.469-2.542-3.527-2.542-6.174c0-2.311,0.811-4.277,2.428-5.898
				c1.621-1.621,3.606-2.43,5.953-2.43c2.348,0,4.348,0.809,6.007,2.43c1.658,1.621,2.488,3.588,2.488,5.898
				c0,2.606-0.838,4.654-2.517,6.146C72.783,108.568,70.828,109.312,68.592,109.312z"/>
		</g>
	</g>
</g>
</svg>
