<?xml version="1.0" encoding="utf-8"?>
<!-- Generator: Adobe Illustrator 16.0.3, SVG Export Plug-In . SVG Version: 6.00 Build 0)  -->
<!DOCTYPE svg PUBLIC "-//W3C//DTD SVG 1.1//EN" "http://www.w3.org/Graphics/SVG/1.1/DTD/svg11.dtd">
<svg version="1.1" id="Layer_1" xmlns="http://www.w3.org/2000/svg" xmlns:xlink="http://www.w3.org/1999/xlink" x="0px" y="0px"
	 width="512px" height="512px" viewBox="0 0 512 512" enable-background="new 0 0 512 512" xml:space="preserve">
<g>
	<g>
		<g>
			<path fill-rule="evenodd" clip-rule="evenodd" fill="#99DBF0" d="M256.008,1C115.164,1,1,115.168,1,256
				c0,140.84,114.164,255,255.008,255C396.844,511,511,396.84,511,256C511,115.168,396.844,1,256.008,1z"/>
		</g>
	</g>
	<g>
		<g>
			<path fill-rule="evenodd" clip-rule="evenodd" fill="#219ED9" d="M256.008,75.429c-99.733,0-180.599,80.848-180.599,180.571
				c0,99.73,80.865,180.578,180.599,180.578c99.718,0,180.575-80.848,180.575-180.578
				C436.583,156.277,355.726,75.429,256.008,75.429z M256.008,401.009c-80.091,0-145.021-64.921-145.021-145.009
				c0-80.081,64.931-145.001,145.021-145.001c80.075,0,145.006,64.921,145.006,145.001
				C401.014,336.088,336.083,401.009,256.008,401.009z"/>
		</g>
	</g>
	<g>
		<g>
			<path fill-rule="evenodd" clip-rule="evenodd" fill="#0D57A1" d="M256.008,46.644C140.369,46.644,46.622,140.38,46.622,256
				c0,115.635,93.747,209.364,209.386,209.364c115.623,0,209.354-93.729,209.354-209.364
				C465.362,140.38,371.631,46.644,256.008,46.644z M256.008,436.578c-99.733,0-180.599-80.848-180.599-180.578
				c0-99.723,80.865-180.571,180.599-180.571c99.718,0,180.575,80.848,180.575,180.571
				C436.583,355.73,355.726,436.578,256.008,436.578z"/>
		</g>
	</g>
	<g>
		<g>
			<path fill-rule="evenodd" clip-rule="evenodd" fill="#29BAED" d="M256.008,103.687c-84.142,0-152.333,68.197-152.333,152.313
				c0,84.124,68.191,152.313,152.333,152.313c84.111,0,152.317-68.189,152.317-152.313
				C408.325,171.884,340.119,103.687,256.008,103.687z M256.008,383.459c-70.396,0-127.463-57.065-127.463-127.459
				s57.066-127.459,127.463-127.459c70.381,0,127.447,57.065,127.447,127.459S326.389,383.459,256.008,383.459z"/>
		</g>
	</g>
	<g>
		<g>
			<path fill-rule="evenodd" clip-rule="evenodd" fill="#FCD996" d="M4.983,301.189C26.324,420.458,130.585,511,256.008,511
				c125.407,0,229.683-90.542,251.009-209.811H4.983z"/>
		</g>
	</g>
	<g>
		<g>
			<path fill-rule="evenodd" clip-rule="evenodd" fill="#29BAED" d="M384.632,35.795H197.741c-4.817,0-8.749,3.931-8.749,8.741
				s3.932,8.749,8.749,8.749h176.556c-0.357,0.946-0.559,1.98-0.559,3.053c0,1.236,0.253,2.405,0.722,3.478h-66.643
				c-4.795,0-8.741,3.938-8.741,8.749s3.946,8.742,8.741,8.742h130.084C422.101,61.237,404.2,47.254,384.632,35.795z"/>
		</g>
	</g>
	<g>
		<g>
			<path fill-rule="evenodd" clip-rule="evenodd" fill="#FFB82B" d="M256.008,388.202c-51.468,0-93.182,13.082-93.182,29.188
				c0,16.113,41.714,29.181,93.182,29.181c51.452,0,93.173-13.067,93.173-29.181C349.181,401.284,307.46,388.202,256.008,388.202z"
				/>
		</g>
	</g>
	<g>
		<g>
			<path fill-rule="evenodd" clip-rule="evenodd" fill="#009933" d="M313.469,246.871L261.577,93.665l-1.087-3.224
				c-1.043-3.075-3.529-3.671-5.473-3.269c-2.629,0.543-3.239,2.487-4.014,4.758l-54.238,160.132
				c-9.94,29.389,38.631,23.134,60.225,24.795C285.837,274.54,325.674,282.909,313.469,246.871z"/>
		</g>
	</g>
	<g>
		<g>
			<path fill="#003333" d="M288.473,242.076c-1.646-2.509-5.019-3.202-7.521-1.556l-18.675,12.286v-13.633
				c0.193-0.156,0.395-0.32,0.565-0.499l15.675-15.659c2.122-2.129,2.122-5.592,0-7.721c-2.145-2.123-5.6-2.123-7.722,0
				l-8.519,8.518v-14.453c0-3.008-2.45-5.451-5.466-5.451c-3.008,0-5.45,2.442-5.45,5.451v14.453l-8.519-8.518
				c-2.122-2.123-5.577-2.123-7.714,0c-2.13,2.129-2.13,5.592,0,7.721l15.651,15.659c0.187,0.179,0.387,0.343,0.581,0.499v13.633
				l-18.675-12.286c-2.502-1.646-5.883-0.953-7.514,1.556c-1.66,2.509-0.953,5.882,1.557,7.521l23.805,15.666
				c0.261,0.179,0.544,0.327,0.827,0.446v61.831c0,3.009,2.442,5.45,5.45,5.45c3.016,0,5.466-2.441,5.466-5.45v-61.831
				c0.282-0.119,0.551-0.268,0.818-0.446l23.828-15.666C289.426,247.958,290.126,244.585,288.473,242.076z"/>
		</g>
	</g>
	<g>
		<g>
			<path fill-rule="evenodd" clip-rule="evenodd" fill="#F27300" d="M314.639,324.555H197.361c-0.796,0-1.652,0.894-1.459,1.884
				l19.435,96.625c0.193,0.983,0.655,1.884,1.459,1.884h78.408c0.804,0,1.251-0.9,1.452-1.884l19.441-96.625
				C316.299,325.448,315.442,324.555,314.639,324.555z"/>
		</g>
	</g>
	<g>
		<g>
			<path fill-rule="evenodd" clip-rule="evenodd" fill="#FF9933" d="M314.646,324.555h-96.39l4.08,15.808h90.962l2.8-13.924
				C316.291,325.448,315.442,324.555,314.646,324.555z"/>
		</g>
	</g>
	<g>
		<g>
			<path fill-rule="evenodd" clip-rule="evenodd" fill="#8A2900" d="M331.898,288.576H180.102c-1.042,0-2.204,0.894-1.876,1.884
				l10.953,33.923c0.312,0.983,0.841,1.884,1.884,1.884h129.875c1.027,0,1.563-0.9,1.877-1.884l10.968-33.923
				C334.103,289.47,332.926,288.576,331.898,288.576z"/>
		</g>
	</g>
	<g>
		<g>
			<path fill="#F27300" d="M314.639,410.398H197.361c-4.006,0-7.267,3.254-7.267,7.274c0,4.014,3.261,7.274,7.267,7.274h117.277
				c4.021,0,7.267-3.261,7.267-7.274C321.905,413.652,318.659,410.398,314.639,410.398z"/>
		</g>
	</g>
</g>
</svg>
