<?xml version="1.0" encoding="utf-8"?>
<!-- Generator: Adobe Illustrator 16.0.0, SVG Export Plug-In . SVG Version: 6.00 Build 0)  -->
<!DOCTYPE svg PUBLIC "-//W3C//DTD SVG 1.1//EN" "http://www.w3.org/Graphics/SVG/1.1/DTD/svg11.dtd">
<svg version="1.1" id="Layer_1" xmlns="http://www.w3.org/2000/svg" xmlns:xlink="http://www.w3.org/1999/xlink" x="0px" y="0px"
	 width="136.833px" height="136.833px" viewBox="0 0 136.833 136.833" style="enable-background:new 0 0 136.833 136.833;"
	 xml:space="preserve">
<style type="text/css">
<![CDATA[
	.st0{fill:#4699A1;}
	.st1{fill:#473C30;}
	.st2{fill:#AAAAAA;}
	.st3{fill-rule:evenodd;clip-rule:evenodd;fill:#D7AF8F;}
	.st4{fill:#49596B;}
	.st5{fill:#7D3719;}
	.st6{fill:#49A0AE;}
	.st7{fill:#AFAFA3;}
	.st8{fill:#E3AA24;}
	.st9{fill:#4ABC96;}
	.st10{fill:#181E1D;}
	.st11{fill:#E6BE20;}
	.st12{fill:#E79E2D;}
	.st13{fill:#E7E7D6;}
	.st14{fill:#E84849;}
	.st15{fill:#E9C29C;}
	.st16{fill:#E9E9EA;}
	.st17{fill:#807F7F;}
	.st18{fill:#809598;}
	.st19{fill:#81725B;}
	.st20{fill:#B1D4D7;}
	.st21{fill:#83CECA;}
	.st22{fill:#B58755;}
	.st23{fill:#B6B6B7;}
	.st24{fill:#1D8D45;}
	.st25{fill:#1D9E49;}
	.st26{fill:#ECE1D0;}
	.st27{fill:#ECEDEA;}
	.st28{fill:#B9B9BA;}
	.st29{fill:#EDC92C;}
	.st30{fill:#1FA85B;}
	.st31{fill:#526B70;}
	.st32{fill:#575757;}
	.st33{fill:#BB5538;}
	.st34{fill:#8C402B;}
	.st35{fill:#8C5228;}
	.st36{fill:#BC992F;}
	.st37{fill:#8D8D8D;}
	.st38{fill-rule:evenodd;clip-rule:evenodd;fill:#E8C790;}
	.st39{fill:#8E6E52;}
	.st40{fill:#202121;}
	.st41{fill:#202B2D;}
	.st42{fill-rule:evenodd;clip-rule:evenodd;fill:#E9C29C;}
	.st43{fill:#BF8A67;}
	.st44{fill:#21AC4B;}
	.st45{fill:#BFBEBE;}
	.st46{fill:#BFC1A9;}
	.st47{fill:#242D2B;}
	.st48{fill:#F37C2A;}
	.st49{fill:#27636D;}
	.st50{fill:#5B4F3F;}
	.st51{fill:#28333B;}
	.st52{fill:#F6DA66;}
	.st53{fill-rule:evenodd;clip-rule:evenodd;fill:#ECE1D0;}
	.st54{fill:#5E5F5E;}
	.st55{fill:url(#SVGID_1_);}
	.st56{fill:#C48F2C;}
	.st57{fill:#2A3633;}
	.st58{fill:#2A646E;}
	.st59{fill:#C5C3AE;}
	.st60{fill:#2B2B2A;}
	.st61{fill:#606060;}
	.st62{fill-rule:evenodd;clip-rule:evenodd;fill:#BEBEBE;}
	.st63{fill:#FFFFFF;}
	.st64{fill-rule:evenodd;clip-rule:evenodd;fill:#F2E8D3;}
	.st65{fill:#65A844;}
	.st66{fill-rule:evenodd;clip-rule:evenodd;fill:#F5DFB5;}
	.st67{fill:#CBCBC5;}
	.st68{fill:#9E7C5A;}
	.st69{fill:#9E9F9F;}
	.st70{fill:#CDCCCB;}
	.st71{fill:#CDCDCE;}
	.st72{fill:#9F77AA;}
	.st73{fill:#327477;}
	.st74{fill:#333738;}
	.st75{fill:#343433;}
	.st76{fill:#344E5D;}
	.st77{fill:#357180;}
	.st78{fill:#36454F;}
	.st79{fill:#383939;}
	.st80{fill:#6C533E;}
	.st81{fill:#6CC077;}
	.st82{fill:#6D5D49;}
	.st83{fill:#6EC2CB;}
	.st84{fill:#6F8284;}
	.st85{fill:#028CA3;}
	.st86{fill:#D1962A;}
	.st87{fill:#D1AFD2;}
	.st88{fill:#036A7B;}
	.st89{fill:#039A88;}
	.st90{fill:#D3E8E9;}
	.st91{fill:#D5CEA9;}
	.st92{fill:#3B7F89;}
	.st93{fill:#D62127;}
	.st94{fill:#3C4D5B;}
	.st95{fill:#D7AE29;}
	.st96{fill:#D7B129;}
	.st97{fill:#D7D7BF;}
	.st98{fill:#D7D7D7;}
	.st99{fill:#D7DABA;}
	.st100{fill:#70BFC8;}
	.st101{fill:#A2D4DE;}
	.st102{fill:#A480B1;}
	.st103{fill:#A48A75;}
	.st104{fill:#786451;}
	.st105{fill:#DBF0F5;}
	.st106{fill:#797979;}
	.st107{fill:#DCDCC6;}
	.st108{fill:#DCDCD2;}
	.st109{fill:#DCDDD8;}
	.st110{fill:#DDDDDC;}
	.st111{fill:#DFBA24;}
	.st112{fill:#DFDFDF;}
	.st113{fill:#435364;}
	.st114{fill:#43B665;}
]]>
</style>
<g>
	<g>
		<g>
			<g>
				<g>
					<g>
						<g>
							<circle class="st77" cx="68.417" cy="68.417" r="63.333"/>
						</g>
					</g>
				</g>
			</g>
		</g>
	</g>
	<g>
		<g>
			<g>
				<g>
					<g>
						<g>
							
								<rect x="68.894" y="25.432" transform="matrix(0.9397 0.3419 -0.3419 0.9397 28.3663 -19.7332)" class="st2" width="2.534" height="90.337"/>
						</g>
					</g>
				</g>
			</g>
		</g>
	</g>
	<g>
		<g>
			<g>
				<g>
					<g>
						<g>
							<circle class="st100" cx="67.585" cy="69.725" r="38.769"/>
						</g>
					</g>
				</g>
			</g>
		</g>
		<g>
			<g>
				<g>
					<g>
						<g>
							<g>
								<path class="st114" d="M87.655,52.716c0,0-8.298,1.716-11.271,0.123c0,0-1.982-2.572-7.555-0.368
									c0,0-9.783,5.881-9.909,11.761c0,0-2.725,11.639,7.557,13.23c0,0,10.774-3.552,12.138,0.613c0,0,0.371,5.146,1.362,6.247
									c0,0,1.608,2.367,1.485,3.797c0,0-1.114,4.777,0.371,8.454c0,0,0.991,3.185,0.869,4.166c0,0,9.411-2.695,12.383-11.517
									c0,0,1.735-6.125,1.858-7.719c0,0,2.477-7.104,3.096-9.31c0,0,2.229-6.616-1.486-5.759c0,0-2.601-2.449-4.457-4.287
									C92.238,60.311,88.647,53.33,87.655,52.716z"/>
							</g>
						</g>
					</g>
				</g>
			</g>
			<g>
				<g>
					<g>
						<g>
							<g>
								<path class="st114" d="M95.953,61.905L85.548,52.35c0,0,2.229-1.96,1.487-3.063c-0.744-1.104-2.354,0.369-3.715,0.369
									c-1.362,0-3.221,1.102-3.964,0.121c-0.742-0.981-1.239-0.736-1.981-0.121c-0.743,0.611-2.105,1.591-2.23,0.979
									c-0.123-0.613-2.353-0.367-2.479-0.979c-0.121-0.615,0.374-2.328-0.74-1.961c-1.113,0.366-2.725,1.592-2.975,2.205
									c-0.246,0.613-1.112,2.45-1.981,2.45c-0.865,0-3.094,0.489-3.467-0.246c-0.371-0.735-1.114-3.186-0.371-3.921
									c0.744-0.734,4.379,0.041,4.211-0.855c-0.168-0.899-0.597-2.871-0.05-3.151c0.546-0.279,2.032-3.465,3.021-3.832
									c0.991-0.369,3.593,0.979,3.966,0.123c0,0,0.122-2.573-0.373-2.941c-0.496-0.367-0.866-1.47-1.732-1.349
									c-0.869,0.124-1.239,0.981-0.62,1.349c0.62,0.368,1.112,1.838,0.743,1.838c-0.371,0-3.717,0.245-3.84-0.612
									c-0.124-0.857,0.372-2.94,1.484-3.676c1.116-0.734,3.469-0.613,4.213-0.245s1.61-0.368,1.858-0.979
									c0.249-0.611-3.521-2.663-4.637-2.663c0,0,29.354,2.191,34.391,32.2c0,0-3.127-10.305-5.23-10.917
									c0,0-1.116,0.736-1.86,0.612c-0.743-0.122-4.457-2.449-4.704-1.837c-0.249,0.613,1.733,2.695,3.839,2.938
									c2.104,0.247,2.229,0.492,2.354,1.594c0.123,1.103,0.494,2.817,0.247,3.92C100.165,60.802,98.676,64.11,95.953,61.905z"/>
							</g>
						</g>
					</g>
				</g>
			</g>
			<g>
				<g>
					<g>
						<g>
							<g>
								<path class="st114" d="M65.238,40.099c0,0-0.992,0.612-1.486,1.468c-0.496,0.858-0.496,1.594-0.496,1.594
									s0.629,0.366,1.263,0.37c0.635,0.002,2.33-0.614,2.33-1.472C66.848,41.201,65.238,40.099,65.238,40.099z"/>
							</g>
						</g>
					</g>
				</g>
			</g>
			<g>
				<g>
					<g>
						<g>
							<g>
								<path class="st114" d="M63.751,32.75c0,0-2.972,3.552-4.459,3.919c-1.486,0.368-3.961,1.592-4.582,2.083
									c-0.619,0.49-2.725-0.368-1.486-1.347c1.238-0.98,4.582-3.187,3.84-3.433c-0.744-0.243-4.087,2.084-5.45,3.064
									c-1.361,0.979-2.478,2.448-3.096,3.431c-0.62,0.979-0.496,3.551-1.858,4.041c-1.362,0.491-7.308,2.94-9.289,4.656
									c-1.981,1.714-4.115,2.98-4.983,4.695c-0.866,1.715,0.438-2.737,1.205-4.381c0,0,5.267-9.38,17.278-15.261
									C50.871,34.218,60.037,31.891,63.751,32.75z"/>
							</g>
						</g>
					</g>
				</g>
			</g>
			<g>
				<g>
					<g>
						<g>
							<g>
								<path class="st114" d="M29.074,75.871c0,0-1.24-6.615,0.123-7.229c1.36-0.611,1.772-0.74,2.974,0.491
									c1.197,1.233,2.847,3.309,3.466,4.409c0.619,1.104,2.849,2.45,2.849,3.308c0,0.859-0.495,2.941,0,3.921
									c0.496,0.98,1.239,1.104,2.354,1.593c1.116,0.488,3.221,1.224,4.459,2.328c1.237,1.104,2.972,2.45,2.601,3.92
									s-1.114,3.675-0.867,4.532c0.248,0.857,1.116,2.327,0.126,2.939c-0.992,0.613-1.735,0.491-1.611,1.593
									c0.125,1.102,1.364,4.528,1.737,5.142C47.283,102.817,31.839,96.245,29.074,75.871z"/>
							</g>
						</g>
					</g>
				</g>
			</g>
			<g>
				<g>
					<g>
						<g>
							<g>
								<path class="st114" d="M30.764,62.258c0.248-0.858,0.867-5.145,0.123-5.145c-1.454,5.36-1.401,5.292-1.982,9.31"/>
							</g>
						</g>
					</g>
				</g>
			</g>
		</g>
	</g>
	<g>
		<g>
			<g>
				<g>
					<g>
						<g>
							<path class="st45" d="M111.239,85.003c8.578-24.436-4.277-51.197-28.713-59.774l-1.538,4.387
								C103,37.341,114.582,61.45,106.853,83.463c-7.727,22.015-31.834,33.596-53.849,25.868l-1.538,4.387
								C75.901,122.294,102.663,109.439,111.239,85.003z"/>
						</g>
					</g>
				</g>
			</g>
		</g>
		<g>
			<g>
				<g>
					<g>
						<g>
							<g>
								<path class="st112" d="M68.038,114.864v16.877c0.127,0.001,0.252,0.01,0.379,0.01c1.298,0,2.584-0.052,3.862-0.128v-16.759
									H68.038z"/>
							</g>
						</g>
					</g>
				</g>
			</g>
		</g>
		<g>
			<g>
				<g>
					<g>
						<g>
							<g>
								<path class="st71" d="M111.239,85.003c8.574-24.426-4.268-51.175-28.684-59.764l-0.436,1.241
									c23.46,8.235,35.804,33.93,27.567,57.392c-8.235,23.462-33.929,35.806-57.392,27.569l-0.801,2.285
									C75.921,122.284,102.666,109.429,111.239,85.003z"/>
							</g>
						</g>
					</g>
				</g>
			</g>
		</g>
	</g>
</g>
</svg>
