<?xml version="1.0" encoding="utf-8"?>
<!-- Generator: Adobe Illustrator 16.0.0, SVG Export Plug-In . SVG Version: 6.00 Build 0)  -->
<!DOCTYPE svg PUBLIC "-//W3C//DTD SVG 1.1//EN" "http://www.w3.org/Graphics/SVG/1.1/DTD/svg11.dtd">
<svg version="1.1" id="Layer_1" xmlns="http://www.w3.org/2000/svg" xmlns:xlink="http://www.w3.org/1999/xlink" x="0px" y="0px"
	 width="136.833px" height="136.834px" viewBox="0 0 136.833 136.834" style="enable-background:new 0 0 136.833 136.834;"
	 xml:space="preserve">
<style type="text/css">
<![CDATA[
	.st0{fill:#4699A1;}
	.st1{fill:#473C30;}
	.st2{fill:#AAAAAA;}
	.st3{fill-rule:evenodd;clip-rule:evenodd;fill:#D7AF8F;}
	.st4{fill:#49596B;}
	.st5{fill:#7D3719;}
	.st6{fill:#49A0AE;}
	.st7{fill:#AFAFA3;}
	.st8{fill:#E3AA24;}
	.st9{fill:#4ABC96;}
	.st10{fill:#181E1D;}
	.st11{fill:#E6BE20;}
	.st12{fill:#E79E2D;}
	.st13{fill:#E7E7D6;}
	.st14{fill:#E84849;}
	.st15{fill:#E9C29C;}
	.st16{fill:#E9E9EA;}
	.st17{fill:#807F7F;}
	.st18{fill:#809598;}
	.st19{fill:#81725B;}
	.st20{fill:#B1D4D7;}
	.st21{fill:#83CECA;}
	.st22{fill:#B58755;}
	.st23{fill:#B6B6B7;}
	.st24{fill:#1D8D45;}
	.st25{fill:#1D9E49;}
	.st26{fill:#ECE1D0;}
	.st27{fill:#ECEDEA;}
	.st28{fill:#B9B9BA;}
	.st29{fill:#EDC92C;}
	.st30{fill:#1FA85B;}
	.st31{fill:#526B70;}
	.st32{fill:#575757;}
	.st33{fill:#BB5538;}
	.st34{fill:#8C402B;}
	.st35{fill:#8C5228;}
	.st36{fill:#BC992F;}
	.st37{fill:#8D8D8D;}
	.st38{fill-rule:evenodd;clip-rule:evenodd;fill:#E8C790;}
	.st39{fill:#8E6E52;}
	.st40{fill:#202121;}
	.st41{fill:#202B2D;}
	.st42{fill-rule:evenodd;clip-rule:evenodd;fill:#E9C29C;}
	.st43{fill:#BF8A67;}
	.st44{fill:#21AC4B;}
	.st45{fill:#BFBEBE;}
	.st46{fill:#BFC1A9;}
	.st47{fill:#242D2B;}
	.st48{fill:#F37C2A;}
	.st49{fill:#27636D;}
	.st50{fill:#5B4F3F;}
	.st51{fill:#28333B;}
	.st52{fill:#F6DA66;}
	.st53{fill-rule:evenodd;clip-rule:evenodd;fill:#ECE1D0;}
	.st54{fill:#5E5F5E;}
	.st55{fill:url(#SVGID_1_);}
	.st56{fill:#C48F2C;}
	.st57{fill:#2A3633;}
	.st58{fill:#2A646E;}
	.st59{fill:#C5C3AE;}
	.st60{fill:#2B2B2A;}
	.st61{fill:#606060;}
	.st62{fill-rule:evenodd;clip-rule:evenodd;fill:#BEBEBE;}
	.st63{fill:#FFFFFF;}
	.st64{fill-rule:evenodd;clip-rule:evenodd;fill:#F2E8D3;}
	.st65{fill:#65A844;}
	.st66{fill-rule:evenodd;clip-rule:evenodd;fill:#F5DFB5;}
	.st67{fill:#CBCBC5;}
	.st68{fill:#9E7C5A;}
	.st69{fill:#9E9F9F;}
	.st70{fill:#CDCCCB;}
	.st71{fill:#CDCDCE;}
	.st72{fill:#9F77AA;}
	.st73{fill:#327477;}
	.st74{fill:#333738;}
	.st75{fill:#343433;}
	.st76{fill:#344E5D;}
	.st77{fill:#357180;}
	.st78{fill:#36454F;}
	.st79{fill:#383939;}
	.st80{fill:#6C533E;}
	.st81{fill:#6CC077;}
	.st82{fill:#6D5D49;}
	.st83{fill:#6EC2CB;}
	.st84{fill:#6F8284;}
	.st85{fill:#028CA3;}
	.st86{fill:#D1962A;}
	.st87{fill:#D1AFD2;}
	.st88{fill:#036A7B;}
	.st89{fill:#039A88;}
	.st90{fill:#D3E8E9;}
	.st91{fill:#D5CEA9;}
	.st92{fill:#3B7F89;}
	.st93{fill:#D62127;}
	.st94{fill:#3C4D5B;}
	.st95{fill:#D7AE29;}
	.st96{fill:#D7B129;}
	.st97{fill:#D7D7BF;}
	.st98{fill:#D7D7D7;}
	.st99{fill:#D7DABA;}
	.st100{fill:#70BFC8;}
	.st101{fill:#A2D4DE;}
	.st102{fill:#A480B1;}
	.st103{fill:#A48A75;}
	.st104{fill:#786451;}
	.st105{fill:#DBF0F5;}
	.st106{fill:#797979;}
	.st107{fill:#DCDCC6;}
	.st108{fill:#DCDCD2;}
	.st109{fill:#DCDDD8;}
	.st110{fill:#DDDDDC;}
	.st111{fill:#DFBA24;}
	.st112{fill:#DFDFDF;}
	.st113{fill:#435364;}
	.st114{fill:#43B665;}
]]>
</style>
<g>
	<circle class="st77" cx="68.417" cy="68.417" r="63.333"/>
	<g>
		<g>
			<path class="st88" d="M42.49,93.46c0,4.717-3.822,8.538-8.538,8.538l0,0c-4.715,0-4.7-3.821-4.7-8.538v-0.18
				c0-4.715-0.015-8.537,4.7-8.537l0,0c4.716,0,8.538,3.822,8.538,8.537V93.46z"/>
			<g>
				<g>
					<g>
						<rect x="35.679" y="87.042" class="st71" width="67.106" height="12.376"/>
						<rect x="35.679" y="86.929" class="st98" width="67.106" height="1.673"/>
						<rect x="35.679" y="90.598" class="st98" width="67.106" height="1.672"/>
						<rect x="35.679" y="94.125" class="st98" width="67.106" height="1.673"/>
						<rect x="35.679" y="97.673" class="st98" width="67.106" height="1.673"/>
					</g>
				</g>
			</g>
			<path class="st85" d="M106.335,86.084c0,0.728-0.43,1.318-0.958,1.318H34.625c-0.53,0-0.96-0.591-0.96-1.318l0,0
				c0-0.729,0.43-1.318,0.96-1.318h70.752C105.905,84.766,106.335,85.356,106.335,86.084L106.335,86.084z"/>
			<path class="st85" d="M106.335,100.667c0,0.729-0.43,1.318-0.958,1.318H34.625c-0.53,0-0.96-0.59-0.96-1.318l0,0
				c0-0.728,0.43-1.318,0.96-1.318h70.752C105.905,99.348,106.335,99.939,106.335,100.667L106.335,100.667z"/>
			<rect x="33.665" y="85.986" class="st85" width="2.878" height="14.773"/>
		</g>
		<g>
			<path class="st24" d="M91.431,76.844c0,4.357,3.532,7.886,7.887,7.886l0,0c4.355,0,4.342-3.528,4.342-7.886v-0.167
				c0-4.354,0.014-7.886-4.342-7.886l0,0c-4.354,0-7.887,3.531-7.887,7.886V76.844z"/>
			<g>
				<g>
					<g>
						<rect x="36.563" y="70.915" class="st71" width="61.159" height="11.431"/>
						<rect x="36.563" y="70.811" class="st98" width="61.159" height="1.545"/>
						<rect x="36.563" y="74.2" class="st98" width="61.159" height="1.545"/>
						<rect x="36.563" y="77.458" class="st98" width="61.159" height="1.545"/>
						<rect x="36.563" y="80.736" class="st98" width="61.159" height="1.545"/>
					</g>
				</g>
			</g>
			<path class="st44" d="M33.284,70.03c0,0.673,0.396,1.218,0.886,1.218h64.527c0.488,0,0.886-0.545,0.886-1.218l0,0
				c0-0.671-0.397-1.216-0.886-1.216H34.17C33.681,68.814,33.284,69.359,33.284,70.03L33.284,70.03z"/>
			<path class="st44" d="M33.284,83.5c0,0.673,0.396,1.218,0.886,1.218h64.527c0.488,0,0.886-0.545,0.886-1.218l0,0
				c0-0.672-0.397-1.218-0.886-1.218H34.17C33.681,82.283,33.284,82.829,33.284,83.5L33.284,83.5z"/>
			<rect x="96.926" y="69.939" class="st44" width="2.657" height="13.646"/>
		</g>
		<g>
			<path class="st34" d="M88.067,62.165c0,3.67,2.971,6.64,6.64,6.64l0,0c3.667,0,3.656-2.97,3.656-6.64v-0.141
				c0-3.667,0.011-6.642-3.656-6.642l0,0c-3.669,0-6.64,2.975-6.64,6.642V62.165z"/>
			<g>
				<g>
					<g>
						<rect x="40.822" y="57.171" class="st71" width="52.541" height="9.626"/>
						<rect x="40.822" y="57.084" class="st98" width="52.541" height="1.3"/>
						<rect x="40.822" y="59.937" class="st98" width="52.541" height="1.301"/>
						<rect x="40.822" y="62.681" class="st98" width="52.541" height="1.3"/>
						<rect x="40.822" y="65.441" class="st98" width="52.541" height="1.3"/>
					</g>
				</g>
			</g>
			<path class="st33" d="M38.062,56.426c0,0.566,0.335,1.026,0.745,1.026h55.378c0.412,0,0.745-0.46,0.745-1.026l0,0
				c0-0.565-0.333-1.023-0.745-1.023H38.807C38.396,55.403,38.062,55.861,38.062,56.426L38.062,56.426z"/>
			<path class="st33" d="M38.062,67.77c0,0.565,0.335,1.023,0.745,1.023h55.378c0.412,0,0.745-0.458,0.745-1.023l0,0
				c0-0.566-0.333-1.026-0.745-1.026H38.807C38.396,66.744,38.062,67.204,38.062,67.77L38.062,67.77z"/>
			<rect x="92.692" y="56.351" class="st33" width="2.237" height="11.489"/>
		</g>
		<g>
			<path class="st88" d="M44.814,48.709c0,3.67-2.971,6.64-6.64,6.64l0,0c-3.667,0-3.655-2.97-3.655-6.64v-0.141
				c0-3.667-0.012-6.641,3.655-6.641l0,0c3.669,0,6.64,2.974,6.64,6.641V48.709z"/>
			<g>
				<g>
					<g>
						<rect x="39.519" y="43.717" class="st71" width="59.079" height="9.626"/>
						<rect x="39.519" y="43.629" class="st98" width="59.079" height="1.301"/>
						<rect x="39.519" y="46.483" class="st98" width="59.079" height="1.3"/>
						<rect x="39.519" y="49.225" class="st98" width="59.079" height="1.302"/>
						<rect x="39.519" y="51.986" class="st98" width="59.079" height="1.301"/>
					</g>
				</g>
			</g>
			<path class="st85" d="M101.358,42.971c0,0.567-0.335,1.026-0.745,1.026H38.697c-0.412,0-0.745-0.459-0.745-1.026l0,0
				c0-0.565,0.333-1.024,0.745-1.024h61.916C101.023,41.947,101.358,42.406,101.358,42.971L101.358,42.971z"/>
			<path class="st85" d="M101.358,54.315c0,0.565-0.335,1.024-0.745,1.024H38.697c-0.412,0-0.745-0.459-0.745-1.024l0,0
				c0-0.566,0.333-1.026,0.745-1.026h61.916C101.023,53.289,101.358,53.749,101.358,54.315L101.358,54.315z"/>
			<rect x="37.952" y="42.896" class="st85" width="2.237" height="11.489"/>
		</g>
		<g>
			<path class="st34" d="M51.271,36.798c0,2.83-2.291,5.121-5.121,5.121l0,0c-2.828,0-2.821-2.291-2.821-5.121v-0.109
				c0-2.829-0.007-5.122,2.821-5.122l0,0c2.83,0,5.121,2.293,5.121,5.122V36.798z"/>
			<g>
				<g>
					<g>
						<rect x="47.186" y="32.947" class="st71" width="41.359" height="7.424"/>
						<rect x="47.186" y="32.878" class="st98" width="41.359" height="1.005"/>
						<rect x="47.186" y="35.081" class="st98" width="41.359" height="1.002"/>
						<rect x="47.186" y="37.197" class="st98" width="41.359" height="1.002"/>
						<rect x="47.186" y="39.324" class="st98" width="41.359" height="1.005"/>
					</g>
				</g>
			</g>
			<path class="st33" d="M90.675,32.373c0,0.437-0.259,0.791-0.575,0.791H46.553c-0.318,0-0.575-0.354-0.575-0.791l0,0
				c0-0.437,0.257-0.791,0.575-0.791H90.1C90.416,31.582,90.675,31.936,90.675,32.373L90.675,32.373z"/>
			<path class="st33" d="M90.675,41.122c0,0.436-0.259,0.789-0.575,0.789H46.553c-0.318,0-0.575-0.354-0.575-0.789l0,0
				c0-0.438,0.257-0.792,0.575-0.792H90.1C90.416,40.33,90.675,40.684,90.675,41.122L90.675,41.122z"/>
			<rect x="45.978" y="32.314" class="st33" width="1.726" height="8.862"/>
		</g>
	</g>
</g>
</svg>
