<?xml version="1.0" encoding="utf-8"?>
<!-- Generator: Adobe Illustrator 16.0.0, SVG Export Plug-In . SVG Version: 6.00 Build 0)  -->
<!DOCTYPE svg PUBLIC "-//W3C//DTD SVG 1.1//EN" "http://www.w3.org/Graphics/SVG/1.1/DTD/svg11.dtd">
<svg version="1.1" id="Layer_1" xmlns="http://www.w3.org/2000/svg" xmlns:xlink="http://www.w3.org/1999/xlink" x="0px" y="0px"
	 width="136.833px" height="136.834px" viewBox="0 0 136.833 136.834" style="enable-background:new 0 0 136.833 136.834;"
	 xml:space="preserve">
<style type="text/css">
<![CDATA[
	.st0{fill:#4699A1;}
	.st1{fill:#473C30;}
	.st2{fill:#AAAAAA;}
	.st3{fill-rule:evenodd;clip-rule:evenodd;fill:#D7AF8F;}
	.st4{fill:#49596B;}
	.st5{fill:#7D3719;}
	.st6{fill:#49A0AE;}
	.st7{fill:#AFAFA3;}
	.st8{fill:#E3AA24;}
	.st9{fill:#4ABC96;}
	.st10{fill:#181E1D;}
	.st11{fill:#E6BE20;}
	.st12{fill:#E79E2D;}
	.st13{fill:#E7E7D6;}
	.st14{fill:#E84849;}
	.st15{fill:#E9C29C;}
	.st16{fill:#E9E9EA;}
	.st17{fill:#807F7F;}
	.st18{fill:#809598;}
	.st19{fill:#81725B;}
	.st20{fill:#B1D4D7;}
	.st21{fill:#83CECA;}
	.st22{fill:#B58755;}
	.st23{fill:#B6B6B7;}
	.st24{fill:#1D8D45;}
	.st25{fill:#1D9E49;}
	.st26{fill:#ECE1D0;}
	.st27{fill:#ECEDEA;}
	.st28{fill:#B9B9BA;}
	.st29{fill:#EDC92C;}
	.st30{fill:#1FA85B;}
	.st31{fill:#526B70;}
	.st32{fill:#575757;}
	.st33{fill:#BB5538;}
	.st34{fill:#8C402B;}
	.st35{fill:#8C5228;}
	.st36{fill:#BC992F;}
	.st37{fill:#8D8D8D;}
	.st38{fill-rule:evenodd;clip-rule:evenodd;fill:#E8C790;}
	.st39{fill:#8E6E52;}
	.st40{fill:#202121;}
	.st41{fill:#202B2D;}
	.st42{fill-rule:evenodd;clip-rule:evenodd;fill:#E9C29C;}
	.st43{fill:#BF8A67;}
	.st44{fill:#21AC4B;}
	.st45{fill:#BFBEBE;}
	.st46{fill:#BFC1A9;}
	.st47{fill:#242D2B;}
	.st48{fill:#F37C2A;}
	.st49{fill:#27636D;}
	.st50{fill:#5B4F3F;}
	.st51{fill:#28333B;}
	.st52{fill:#F6DA66;}
	.st53{fill-rule:evenodd;clip-rule:evenodd;fill:#ECE1D0;}
	.st54{fill:#5E5F5E;}
	.st55{fill:url(#SVGID_1_);}
	.st56{fill:#C48F2C;}
	.st57{fill:#2A3633;}
	.st58{fill:#2A646E;}
	.st59{fill:#C5C3AE;}
	.st60{fill:#2B2B2A;}
	.st61{fill:#606060;}
	.st62{fill-rule:evenodd;clip-rule:evenodd;fill:#BEBEBE;}
	.st63{fill:#FFFFFF;}
	.st64{fill-rule:evenodd;clip-rule:evenodd;fill:#F2E8D3;}
	.st65{fill:#65A844;}
	.st66{fill-rule:evenodd;clip-rule:evenodd;fill:#F5DFB5;}
	.st67{fill:#CBCBC5;}
	.st68{fill:#9E7C5A;}
	.st69{fill:#9E9F9F;}
	.st70{fill:#CDCCCB;}
	.st71{fill:#CDCDCE;}
	.st72{fill:#9F77AA;}
	.st73{fill:#327477;}
	.st74{fill:#333738;}
	.st75{fill:#343433;}
	.st76{fill:#344E5D;}
	.st77{fill:#357180;}
	.st78{fill:#36454F;}
	.st79{fill:#383939;}
	.st80{fill:#6C533E;}
	.st81{fill:#6CC077;}
	.st82{fill:#6D5D49;}
	.st83{fill:#6EC2CB;}
	.st84{fill:#6F8284;}
	.st85{fill:#028CA3;}
	.st86{fill:#D1962A;}
	.st87{fill:#D1AFD2;}
	.st88{fill:#036A7B;}
	.st89{fill:#039A88;}
	.st90{fill:#D3E8E9;}
	.st91{fill:#D5CEA9;}
	.st92{fill:#3B7F89;}
	.st93{fill:#D62127;}
	.st94{fill:#3C4D5B;}
	.st95{fill:#D7AE29;}
	.st96{fill:#D7B129;}
	.st97{fill:#D7D7BF;}
	.st98{fill:#D7D7D7;}
	.st99{fill:#D7DABA;}
	.st100{fill:#70BFC8;}
	.st101{fill:#A2D4DE;}
	.st102{fill:#A480B1;}
	.st103{fill:#A48A75;}
	.st104{fill:#786451;}
	.st105{fill:#DBF0F5;}
	.st106{fill:#797979;}
	.st107{fill:#DCDCC6;}
	.st108{fill:#DCDCD2;}
	.st109{fill:#DCDDD8;}
	.st110{fill:#DDDDDC;}
	.st111{fill:#DFBA24;}
	.st112{fill:#DFDFDF;}
	.st113{fill:#435364;}
	.st114{fill:#43B665;}
]]>
</style>
<g>
	<g>
		<g>
			<g>
				<g>
					<g>
						<g>
							<g>
								<circle class="st76" cx="68.416" cy="68.416" r="63.333"/>
							</g>
						</g>
					</g>
				</g>
			</g>
		</g>
	</g>
	<g>
		<g>
			<g>
				<g>
					<g>
						<g>
							<g>
								<path class="st21" d="M82.087,46.64c-2.713-9.421-7.09-15.542-12.033-15.542c-5.234,0-9.836,6.865-12.496,17.243
									c3.662,0.867,7.596,2.149,11.648,3.829C73.683,49.766,78.054,47.902,82.087,46.64z"/>
							</g>
						</g>
					</g>
				</g>
				<g>
					<g>
						<g>
							<g>
								<path class="st89" d="M69.262,53.275l-0.438-0.182c-3.95-1.637-7.818-2.909-11.496-3.78l-0.991-0.235l0.253-0.987
									c2.889-11.268,7.922-17.995,13.465-17.995c5.281,0,10.018,5.928,12.994,16.265l0.271,0.939l-0.933,0.292
									c-4.051,1.269-8.326,3.104-12.706,5.457L69.262,53.275z M58.785,47.612c3.343,0.848,6.822,2.007,10.365,3.454
									c4.012-2.128,7.94-3.833,11.699-5.078c-2.676-8.719-6.679-13.89-10.796-13.89C65.696,32.098,61.42,38.014,58.785,47.612z"/>
							</g>
						</g>
					</g>
				</g>
			</g>
			<g>
				<g>
					<g>
						<g>
							<g>
								<path class="st21" d="M58.019,91.396c2.713,9.419,7.092,15.54,12.035,15.54c5.232,0,9.834-6.864,12.492-17.241
									c-3.66-0.868-7.594-2.151-11.648-3.831C66.423,88.271,62.052,90.132,58.019,91.396z"/>
							</g>
						</g>
					</g>
				</g>
				<g>
					<g>
						<g>
							<g>
								<path class="st89" d="M70.054,107.937c-5.282,0-10.02-5.928-12.996-16.263l-0.271-0.939l0.933-0.292
									c4.068-1.276,8.343-3.112,12.704-5.459l0.418-0.225l0.438,0.182c3.954,1.638,7.821,2.91,11.496,3.782l0.991,0.235
									l-0.253,0.986C80.629,101.21,75.597,107.937,70.054,107.937z M59.256,92.048c2.676,8.718,6.68,13.888,10.798,13.888
									c4.356,0,8.632-5.916,11.265-15.513c-3.34-0.848-6.819-2.007-10.365-3.455C66.957,89.092,63.028,90.797,59.256,92.048z"/>
							</g>
						</g>
					</g>
				</g>
			</g>
			<g>
				<g>
					<g>
						<g>
							<g>
								<path class="st21" d="M45.69,70.242c-7.035,7.853-10.127,15.364-7.271,19.686c2.725,4.122,10.246,4.4,19.6,1.469
									c-1.154-4.011-2.004-8.622-2.471-13.615C51.819,75.356,48.495,72.804,45.69,70.242z"/>
							</g>
						</g>
					</g>
				</g>
				<g>
					<g>
						<g>
							<g>
								<path class="st89" d="M47.038,94.348C47.037,94.348,47.037,94.348,47.038,94.348c-4.512,0-7.78-1.338-9.453-3.869
									c-3.066-4.641-0.384-12.26,7.36-20.904l0.674-0.752l0.746,0.681c2.807,2.564,6.08,5.066,9.728,7.439l0.405,0.264
									l0.046,0.481C57,82.57,57.819,87.089,58.979,91.12l0.271,0.938l-0.933,0.292C54.09,93.676,50.294,94.348,47.038,94.348z
									 M45.773,71.661c-6.394,7.389-8.892,14.127-6.521,17.715c1.624,2.456,5.129,2.972,7.784,2.972
									c2.775,0,6.132-0.56,9.756-1.625c-1.019-3.769-1.756-7.922-2.194-12.369C51.341,76.212,48.378,73.965,45.773,71.661z"/>
							</g>
						</g>
					</g>
				</g>
			</g>
			<g>
				<g>
					<g>
						<g>
							<g>
								<path class="st21" d="M94.417,67.794c7.033-7.853,10.125-15.364,7.27-19.686c-2.725-4.122-10.246-4.4-19.6-1.469
									c1.156,4.012,2.006,8.622,2.471,13.615C88.286,62.678,91.61,65.232,94.417,67.794z"/>
							</g>
						</g>
					</g>
				</g>
				<g>
					<g>
						<g>
							<g>
								<path class="st89" d="M94.488,69.213l-0.745-0.68c-2.818-2.572-6.092-5.075-9.73-7.439l-0.406-0.264l-0.045-0.482
									c-0.454-4.88-1.273-9.399-2.436-13.431l-0.271-0.939l0.933-0.292c4.229-1.325,8.023-1.998,11.28-1.998
									c4.511,0,7.779,1.338,9.452,3.869c3.066,4.64,0.384,12.259-7.358,20.904L94.488,69.213z M85.507,59.681
									c3.25,2.137,6.214,4.384,8.827,6.694c6.393-7.389,8.89-14.127,6.519-17.715c-1.624-2.456-5.129-2.972-7.784-2.972
									c-2.775,0-6.132,0.56-9.755,1.625C84.333,51.083,85.07,55.236,85.507,59.681z"/>
							</g>
						</g>
					</g>
				</g>
			</g>
			<g>
				<g>
					<g>
						<g>
							<g>
								<path class="st21" d="M76.987,55.819c2.672,1.404,5.201,2.894,7.57,4.436c-0.465-4.993-1.314-9.604-2.471-13.615
									c-4.033,1.263-8.404,3.126-12.881,5.53C71.767,53.232,74.372,54.446,76.987,55.819z"/>
							</g>
						</g>
					</g>
				</g>
				<g>
					<g>
						<g>
							<g>
								<path class="st89" d="M85.745,62.221l-1.733-1.128c-2.393-1.557-4.913-3.034-7.489-4.388
									c-2.509-1.317-5.1-2.532-7.699-3.611l-1.946-0.808l1.855-0.997c4.492-2.413,8.885-4.298,13.056-5.604l0.977-0.306
									l0.283,0.983c1.196,4.152,2.039,8.794,2.506,13.799L85.745,62.221z M71.538,52.081c1.998,0.882,3.979,1.838,5.914,2.854
									c2.01,1.056,3.985,2.185,5.896,3.368c-0.433-3.713-1.085-7.196-1.944-10.391C78.226,48.968,74.919,50.366,71.538,52.081z"/>
							</g>
						</g>
					</g>
				</g>
			</g>
			<g>
				<g>
					<g>
						<g>
							<g>
								<path class="st21" d="M63.118,82.216c-2.672-1.403-5.199-2.894-7.57-4.435c0.467,4.993,1.316,9.604,2.471,13.615
									c4.033-1.265,8.404-3.125,12.879-5.532C68.339,84.804,65.733,83.59,63.118,82.216z"/>
							</g>
						</g>
					</g>
				</g>
				<g>
					<g>
						<g>
							<g>
								<path class="st89" d="M57.341,92.657l-0.283-0.984c-1.194-4.15-2.037-8.792-2.506-13.798l-0.192-2.058l1.733,1.126
									c2.414,1.569,4.935,3.045,7.49,4.388c2.51,1.319,5.1,2.533,7.697,3.61l1.946,0.807l-1.855,0.998
									c-4.473,2.406-8.864,4.292-13.054,5.605L57.341,92.657z M56.759,79.733c0.434,3.713,1.085,7.197,1.943,10.391
									c3.188-1.062,6.495-2.459,9.864-4.17c-1.997-0.881-3.979-1.837-5.913-2.854C60.656,82.052,58.681,80.923,56.759,79.733z"/>
							</g>
						</g>
					</g>
				</g>
			</g>
			<g>
				<g>
					<g>
						<g>
							<g>
								<path class="st21" d="M55.464,61.174c0.385-4.65,1.107-8.982,2.094-12.833c-10.424-2.474-18.639-1.593-21.074,3.041
									c-2.408,4.586,1.42,11.751,9.207,18.86C48.401,67.216,51.698,64.139,55.464,61.174z"/>
							</g>
						</g>
					</g>
				</g>
				<g>
					<g>
						<g>
							<g>
								<path class="st89" d="M45.762,71.661l-0.745-0.681c-8.572-7.825-12.005-15.138-9.419-20.063
									c1.694-3.222,5.74-4.925,11.703-4.925c3.112,0,6.641,0.463,10.487,1.375l0.991,0.235l-0.253,0.986
									c-0.998,3.895-1.692,8.157-2.065,12.667l-0.036,0.434l-0.343,0.269c-3.67,2.89-6.916,5.901-9.646,8.95L45.762,71.661z
									 M47.301,47.992c-5.099,0-8.626,1.369-9.933,3.855c-1.999,3.808,1.16,10.263,8.263,16.975
									c2.572-2.782,5.551-5.523,8.873-8.164c0.357-4.083,0.975-7.968,1.838-11.569C53.03,48.361,49.993,47.992,47.301,47.992z"/>
							</g>
						</g>
					</g>
				</g>
			</g>
			<g>
				<g>
					<g>
						<g>
							<g>
								<path class="st21" d="M94.417,67.794c-2.713,3.028-6.01,6.104-9.775,9.068c-0.385,4.649-1.107,8.981-2.096,12.833
									c10.424,2.471,18.641,1.593,21.076-3.041C106.03,82.067,102.202,74.903,94.417,67.794z"/>
							</g>
						</g>
					</g>
				</g>
				<g>
					<g>
						<g>
							<g>
								<path class="st89" d="M92.805,92.043C92.804,92.043,92.804,92.043,92.805,92.043c-3.113,0-6.643-0.463-10.489-1.375
									l-0.991-0.235l0.253-0.987c0.999-3.892,1.694-8.153,2.067-12.667l0.036-0.434l0.343-0.269
									c3.674-2.893,6.92-5.904,9.648-8.95l0.674-0.752l0.746,0.681c8.569,7.826,12.001,15.139,9.416,20.063
									C102.814,90.34,98.768,92.043,92.805,92.043z M83.762,88.947c3.313,0.727,6.35,1.095,9.042,1.096
									c5.1,0,8.627-1.369,9.934-3.854c1.999-3.808-1.16-10.263-8.261-16.975c-2.57,2.78-5.551,5.521-8.875,8.164
									C85.243,81.464,84.626,85.348,83.762,88.947z"/>
							</g>
						</g>
					</g>
				</g>
			</g>
			<g>
				<g>
					<g>
						<g>
							<g>
								<path class="st21" d="M78.274,81.455c-2.465,1.628-4.936,3.098-7.377,4.409c4.055,1.68,7.988,2.963,11.648,3.831
									c0.988-3.852,1.711-8.184,2.096-12.833C82.644,78.432,80.517,79.971,78.274,81.455z"/>
							</g>
						</g>
					</g>
				</g>
				<g>
					<g>
						<g>
							<g>
								<path class="st89" d="M83.271,90.895l-0.955-0.227c-3.778-0.896-7.749-2.202-11.801-3.88l-1.948-0.807l1.857-0.998
									c2.467-1.325,4.922-2.792,7.3-4.363c2.171-1.438,4.291-2.967,6.3-4.545l1.804-1.416l-0.188,2.285
									c-0.383,4.625-1.098,8.999-2.124,12.999L83.271,90.895z M73.228,85.72c2.936,1.135,5.813,2.062,8.588,2.766
									c0.711-2.959,1.251-6.121,1.612-9.435c-1.493,1.115-3.034,2.2-4.602,3.237C76.995,83.498,75.119,84.648,73.228,85.72z"/>
							</g>
						</g>
					</g>
				</g>
			</g>
			<g>
				<g>
					<g>
						<g>
							<g>
								<path class="st21" d="M61.831,56.58c2.465-1.628,4.936-3.097,7.375-4.41c-4.053-1.68-7.986-2.962-11.648-3.829
									c-0.986,3.851-1.709,8.183-2.094,12.833C57.462,59.604,59.587,58.063,61.831,56.58z"/>
							</g>
						</g>
					</g>
				</g>
				<g>
					<g>
						<g>
							<g>
								<path class="st89" d="M54.278,63.376l0.188-2.285c0.383-4.622,1.097-8.996,2.122-12.999l0.244-0.951l0.955,0.226
									c3.782,0.896,7.752,2.201,11.801,3.878l1.945,0.806L69.68,53.05c-2.479,1.335-4.934,2.803-7.298,4.364
									c-2.148,1.42-4.269,2.95-6.3,4.546L54.278,63.376z M58.288,49.549c-0.71,2.961-1.249,6.122-1.61,9.435
									c1.505-1.125,3.046-2.209,4.602-3.238c1.823-1.204,3.699-2.354,5.599-3.432C63.943,51.18,61.065,50.253,58.288,49.549z"/>
							</g>
						</g>
					</g>
				</g>
			</g>
			<g>
				<g>
					<g>
						<g>
							<g>
								<path class="st21" d="M84.962,69.018c0,2.69-0.113,5.313-0.32,7.845c3.766-2.965,7.063-6.04,9.775-9.068
									c-2.807-2.562-6.131-5.116-9.859-7.539C84.819,63.068,84.962,66,84.962,69.018z"/>
							</g>
						</g>
					</g>
				</g>
				<g>
					<g>
						<g>
							<g>
								<path class="st89" d="M83.458,79.067l0.187-2.286c0.211-2.572,0.317-5.184,0.317-7.763c0-2.9-0.135-5.817-0.4-8.67
									l-0.191-2.057l1.732,1.125c3.729,2.423,7.09,4.993,9.988,7.639l0.732,0.668l-0.661,0.738
									c-2.806,3.132-6.138,6.223-9.902,9.187L83.458,79.067z M85.723,62.233c0.159,2.248,0.239,4.521,0.239,6.785
									c0,1.867-0.055,3.75-0.163,5.624c2.665-2.211,5.078-4.482,7.201-6.776C90.815,65.935,88.377,64.048,85.723,62.233z"/>
							</g>
						</g>
					</g>
				</g>
			</g>
			<g>
				<g>
					<g>
						<g>
							<g>
								<path class="st21" d="M55.144,69.018c0-2.688,0.111-5.313,0.32-7.844c-3.766,2.965-7.063,6.042-9.773,9.068
									c2.805,2.562,6.129,5.114,9.857,7.539C55.286,74.968,55.144,72.034,55.144,69.018z"/>
							</g>
						</g>
					</g>
				</g>
				<g>
					<g>
						<g>
							<g>
								<path class="st89" d="M56.735,79.746l-1.732-1.126c-3.739-2.432-7.1-5.002-9.987-7.639l-0.73-0.668l0.66-0.737
									c2.809-3.135,6.14-6.226,9.9-9.187l1.804-1.42l-0.188,2.289c-0.211,2.546-0.317,5.157-0.317,7.761
									c0,2.9,0.135,5.818,0.4,8.671L56.735,79.746z M47.107,70.171c2.178,1.925,4.616,3.813,7.275,5.631
									c-0.159-2.247-0.239-4.521-0.239-6.785c0-1.879,0.055-3.761,0.162-5.622C51.644,65.604,49.23,67.875,47.107,70.171z"/>
							</g>
						</g>
					</g>
				</g>
			</g>
			<g>
				<g>
					<g>
						<g>
							<g>
								<path class="st21" d="M84.558,60.255c-2.369-1.542-4.898-3.031-7.57-4.436c-2.615-1.373-5.221-2.587-7.781-3.649
									c-2.439,1.313-4.91,2.782-7.375,4.41c-2.244,1.483-4.369,3.024-6.367,4.594c-0.209,2.53-0.32,5.155-0.32,7.844
									c0,3.017,0.143,5.95,0.404,8.764c2.371,1.541,4.898,3.031,7.57,4.435c2.615,1.374,5.221,2.588,7.779,3.648
									c2.441-1.312,4.912-2.781,7.377-4.409c2.242-1.484,4.369-3.023,6.367-4.593c0.207-2.531,0.32-5.154,0.32-7.845
									C84.962,66,84.819,63.068,84.558,60.255z"/>
							</g>
						</g>
					</g>
				</g>
				<g>
					<g>
						<g>
							<g>
								<path class="st89" d="M70.953,86.97l-0.438-0.182c-2.653-1.1-5.299-2.34-7.861-3.687c-2.611-1.371-5.185-2.879-7.65-4.481
									l-0.406-0.264l-0.045-0.482c-0.271-2.915-0.408-5.895-0.408-8.856c0-2.659,0.109-5.325,0.323-7.926l0.036-0.435l0.343-0.27
									c2.075-1.629,4.239-3.191,6.434-4.641c2.414-1.594,4.921-3.094,7.453-4.457l0.418-0.226l0.438,0.182
									c2.656,1.102,5.302,2.343,7.863,3.688c2.632,1.383,5.206,2.892,7.651,4.483l0.405,0.264l0.045,0.481
									c0.271,2.915,0.408,5.894,0.408,8.855c0,2.634-0.109,5.301-0.323,7.926l-0.036,0.435l-0.343,0.27
									c-2.052,1.611-4.216,3.172-6.434,4.64c-2.428,1.604-4.937,3.103-7.455,4.456L70.953,86.97z M56.5,77.206
									c2.289,1.471,4.67,2.857,7.083,4.125c2.369,1.245,4.809,2.396,7.259,3.427c2.325-1.265,4.639-2.655,6.882-4.137
									c2.048-1.356,4.05-2.793,5.956-4.275c0.188-2.431,0.282-4.894,0.282-7.328c0-2.737-0.12-5.488-0.356-8.188
									c-2.271-1.461-4.652-2.848-7.083-4.125c-2.368-1.243-4.809-2.395-7.261-3.428c-2.337,1.274-4.649,2.665-6.88,4.138
									c-2.027,1.34-4.03,2.778-5.956,4.277c-0.188,2.408-0.282,4.87-0.282,7.326C56.144,71.754,56.264,74.507,56.5,77.206z"/>
							</g>
						</g>
					</g>
				</g>
			</g>
			<g>
				<g>
					<g>
						<g>
							<g>
								<circle class="st89" cx="77.456" cy="36.794" r="4.537"/>
							</g>
						</g>
					</g>
				</g>
			</g>
			<g>
				<g>
					<g>
						<g>
							<g>
								<circle class="st89" cx="45.796" cy="92.689" r="4.537"/>
							</g>
						</g>
					</g>
				</g>
			</g>
			<g>
				<g>
					<g>
						<g>
							<g>
								<path class="st89" d="M85.272,72.126c-2.504,0-4.535,2.031-4.535,4.538c0,2.504,2.031,4.536,4.535,4.536
									c2.508,0,4.539-2.032,4.539-4.536C89.812,74.157,87.78,72.126,85.272,72.126z"/>
							</g>
						</g>
					</g>
				</g>
			</g>
		</g>
	</g>
</g>
</svg>
