<?xml version="1.0" encoding="utf-8"?>
<!-- Generator: Adobe Illustrator 16.0.0, SVG Export Plug-In . SVG Version: 6.00 Build 0)  -->
<!DOCTYPE svg PUBLIC "-//W3C//DTD SVG 1.1//EN" "http://www.w3.org/Graphics/SVG/1.1/DTD/svg11.dtd">
<svg version="1.1" id="Layer_1" xmlns="http://www.w3.org/2000/svg" xmlns:xlink="http://www.w3.org/1999/xlink" x="0px" y="0px"
	 width="136.833px" height="136.833px" viewBox="0 0 136.833 136.833" style="enable-background:new 0 0 136.833 136.833;"
	 xml:space="preserve">
<style type="text/css">
<![CDATA[
	.st0{fill:#7AC3A7;}
	.st1{fill:#AA9C87;}
	.st2{fill:#AAAAAA;}
	.st3{fill:#494A4A;}
	.st4{fill:#AC782B;}
	.st5{fill:#49A0AE;}
	.st6{fill:#AD6F2D;}
	.st7{fill-rule:evenodd;clip-rule:evenodd;fill:#3EB5B5;}
	.st8{fill:#AE8A50;}
	.st9{fill:#7F8092;}
	.st10{fill:#AEADAD;}
	.st11{fill:#AEAEAF;}
	.st12{fill:#129949;}
	.st13{fill:#E1E1E1;}
	.st14{fill:#E2DD3E;}
	.st15{fill-rule:evenodd;clip-rule:evenodd;fill:#757575;}
	.st16{fill:#E4E4E4;}
	.st17{fill:#E57931;}
	.st18{fill:#4AA0A5;}
	.st19{fill:#4B4A4B;}
	.st20{fill:#E79E2D;}
	.st21{fill-rule:evenodd;clip-rule:evenodd;fill:#DBB626;}
	.st22{fill:#E7E760;}
	.st23{fill:#19A855;}
	.st24{fill:#E84849;}
	.st25{fill:#4E4F50;}
	.st26{fill:#4EA3B1;}
	.st27{fill:#E9CA92;}
	.st28{fill:#E9E8A1;}
	.st29{fill:#E9E8A3;}
	.st30{fill:#B03738;}
	.st31{fill:#818282;}
	.st32{fill:#81BCB9;}
	.st33{fill:#B19353;}
	.st34{fill:#825E2D;}
	.st35{fill:#B1B1B2;}
	.st36{fill:#B2B2B2;}
	.st37{opacity:0.15;}
	.st38{fill:#848698;}
	.st39{fill:#B3DCE2;}
	.st40{fill:#B4B4B5;}
	.st41{fill:#1A3940;}
	.st42{fill:#B6E2EB;}
	.st43{fill:#888888;}
	.st44{fill:#B7DFD2;}
	.st45{fill:#1D1E1E;}
	.st46{fill:#ED3351;}
	.st47{fill:#EDC92C;}
	.st48{fill:#EDE8C9;}
	.st49{fill:#1FA85B;}
	.st50{fill-rule:evenodd;clip-rule:evenodd;fill:#AEAEAF;}
	.st51{fill:#EEDD7A;}
	.st52{fill:#52BA73;}
	.st53{fill:#56385F;}
	.st54{fill:#56939A;}
	.st55{fill:#8AC5C4;}
	.st56{fill:#575757;}
	.st57{fill-rule:evenodd;clip-rule:evenodd;fill:#4B4A4B;}
	.st58{fill:#8CD3DA;}
	.st59{fill:#8D8D8C;}
	.st60{fill:#8D9091;}
	.st61{fill-rule:evenodd;clip-rule:evenodd;fill:#E8C790;}
	.st62{fill:#202121;}
	.st63{fill-rule:evenodd;clip-rule:evenodd;fill:#E9CA92;}
	.st64{fill:#BEBC6A;}
	.st65{fill:#F06668;}
	.st66{fill:#BFBEBE;}
	.st67{fill:#F0D359;}
	.st68{fill:#F0F1AF;}
	.st69{fill-rule:evenodd;clip-rule:evenodd;fill:#B14D26;}
	.st70{fill:#22C48A;}
	.st71{fill:#F1D250;}
	.st72{fill:#F1E089;}
	.st73{fill:#F1F1B3;}
	.st74{fill:#F2BE3E;}
	.st75{fill:#F37C2A;}
	.st76{fill:#256533;}
	.st77{fill:#F4D967;}
	.st78{fill:#F4E028;}
	.st79{fill:#F4F5F5;}
	.st80{fill-rule:evenodd;clip-rule:evenodd;fill:#B5B2B3;}
	.st81{fill:#F5D827;}
	.st82{fill:#F5E554;}
	.st83{fill:#276D69;}
	.st84{fill-rule:evenodd;clip-rule:evenodd;fill:#B6AE8F;}
	.st85{fill:#F6A2A3;}
	.st86{fill-rule:evenodd;clip-rule:evenodd;fill:#1CAAB9;}
	.st87{fill-rule:evenodd;clip-rule:evenodd;fill:#888888;}
	.st88{fill:#F7D98B;}
	.st89{fill:#F7E497;}
	.st90{fill:#F8DE71;}
	.st91{fill-rule:evenodd;clip-rule:evenodd;fill:#ECE1D0;}
	.st92{fill:#F9F29A;}
	.st93{fill-rule:evenodd;clip-rule:evenodd;fill:#EDC92C;}
	.st94{clip-path:url(#SVGID_2_);}
	.st95{fill:#90682F;}
	.st96{fill:#C0C0C0;}
	.st97{fill:#93793D;}
	.st98{fill:#939292;}
	.st99{fill:#93D1BD;}
	.st100{fill:#949897;}
	.st101{fill:#94D0D0;}
	.st102{fill:#954E9D;}
	.st103{fill:#958469;}
	.st104{fill:#C4BC98;}
	.st105{fill:#C698C5;}
	.st106{fill:#2C6973;}
	.st107{fill:#FAF2F2;}
	.st108{fill:#C7E8ED;}
	.st109{fill:#2E2F2F;}
	.st110{fill:#2F8442;}
	.st111{opacity:0.3;}
	.st112{fill:#606060;}
	.st113{fill:#616A89;}
	.st114{fill:#61BECD;}
	.st115{fill:#FFC200;}
	.st116{fill:#FFFFFF;}
	.st117{fill:#626463;}
	.st118{fill:#63A2AC;}
	.st119{fill-rule:evenodd;clip-rule:evenodd;fill:#F2E8D3;}
	.st120{fill:none;}
	.st121{fill:#9A7338;}
	.st122{fill-rule:evenodd;clip-rule:evenodd;fill:#F5D8A4;}
	.st123{fill-rule:evenodd;clip-rule:evenodd;fill:#F5DFB5;}
	.st124{fill:#9B7842;}
	.st125{fill:#67B8CB;}
	.st126{fill:#9D5D26;}
	.st127{fill:#9D9E9F;}
	.st128{fill:#CDCCCB;}
	.st129{fill:#9EA3B6;}
	.st130{fill:#9F77AA;}
	.st131{fill-rule:evenodd;clip-rule:evenodd;fill:#C0BEBF;}
	.st132{fill-rule:evenodd;clip-rule:evenodd;fill:#C15E28;}
	.st133{fill:#343433;}
	.st134{fill:#355957;}
	.st135{fill:#357180;}
	.st136{fill:#35B167;}
	.st137{fill-rule:evenodd;clip-rule:evenodd;fill:#97A0A0;}
	.st138{fill:#6C6C6B;}
	.st139{fill:#6CC077;}
	.st140{fill:#6EC2CB;}
	.st141{fill:#6FB698;}
	.st142{fill-rule:evenodd;clip-rule:evenodd;fill:#616161;}
	.st143{fill:#D0D1D1;}
	.st144{fill-rule:evenodd;clip-rule:evenodd;fill:#FFF4E4;}
	.st145{fill:#D2CBA6;}
	.st146{fill:#D2D2D2;}
	.st147{fill:#D68828;}
	.st148{fill:#D68A28;}
	.st149{fill:#3D3428;}
	.st150{fill:#3D4040;}
	.st151{fill:#3D969F;}
	.st152{fill-rule:evenodd;clip-rule:evenodd;fill:#CDCCCB;}
	.st153{fill:#A0D5D9;}
	.st154{fill:#A2D4DE;}
	.st155{fill:#A3D4AA;}
	.st156{fill:#A48A47;}
	.st157{fill:#75B7BB;}
	.st158{fill:#776850;}
	.st159{fill:#DAC425;}
	.st160{fill:#DBBD40;}
	.st161{fill:#DBC55E;}
	.st162{fill:#DBDBDA;}
	.st163{fill:#DBF0F5;}
	.st164{fill:#DCDBDC;}
	.st165{fill:#DDDDDC;}
	.st166{fill-rule:evenodd;clip-rule:evenodd;fill:#6EC2CB;}
	.st167{fill:#DFBFDB;}
	.st168{fill:#DFCC6B;}
	.st169{fill:#448590;}
]]>
</style>
<g>
	<g>
		<circle class="st102" cx="68.417" cy="68.416" r="63.333"/>
	</g>
	<g>
		<g>
			<path class="st10" d="M73.949,70.81c3.094-3.054,6.424-5.692,7.1-5.021l-20.45-20.451c-1.391-1.389-3.854-1.179-5.504,0.47
				l-6.719,6.724l3.777-3.779L73.949,70.81z"/>
		</g>
		<g>
			<path class="st100" d="M73.66,71.095L73.66,71.095c0.096-0.096,0.193-0.189,0.29-0.285L52.154,48.751l-3.777,3.779
				c-1.65,1.649-1.861,4.115-0.471,5.503L68.352,78.48C67.673,77.775,70.493,74.265,73.66,71.095z"/>
		</g>
		<g>
			
				<rect x="72.948" y="85.347" transform="matrix(-0.7071 -0.7071 0.7071 -0.7071 111.3977 216.8372)" class="st8" width="55.32" height="0"/>
		</g>
		<g>
			<path class="st8" d="M73.949,70.81l40.542,41.035c2.05-2.176,3.946-4.492,5.675-6.939L81.049,65.789
				C80.373,65.118,77.043,67.756,73.949,70.81z"/>
		</g>
		<g>
			<path class="st8" d="M73.66,71.095l40.713,40.873c0.04-0.041,0.079-0.082,0.119-0.123L73.949,70.81
				C73.853,70.906,73.756,71,73.66,71.095z"/>
		</g>
		<g>
			<polygon class="st124" points="68.355,78.486 68.352,78.48 68.352,78.48 			"/>
		</g>
		<g>
			<path class="st124" d="M73.66,71.095L73.66,71.095c-3.167,3.17-5.986,6.68-5.308,7.385l0,0
				C67.674,77.775,70.494,74.263,73.66,71.095z"/>
		</g>
		<g>
			<polygon class="st124" points="68.352,78.48 68.355,78.486 107.835,117.968 107.836,117.968 			"/>
		</g>
		<g>
			<path class="st124" d="M68.352,78.48l39.484,39.488c2.318-1.848,4.5-3.852,6.537-6L73.66,71.095
				C70.494,74.263,67.674,77.775,68.352,78.48z"/>
		</g>
	</g>
	<g>
		<g>
			<path class="st71" d="M40.863,47.185c0,0-7.131,5.273-7.807,7.189c-0.67,1.916,1.561,10.615,1.561,10.615
				s-5.398-7.176-7.254-7.826c-1.854-0.651-10.553,1.579-10.553,1.579s7.1-5.18,7.828-7.253c0.727-2.072-1.58-10.553-1.58-10.553
				s5.18,7.098,7.252,7.828C32.382,49.49,40.863,47.185,40.863,47.185z"/>
		</g>
		<g>
			<path class="st47" d="M34.617,64.99c0,0-5.398-7.176-7.254-7.826c-1.854-0.651-10.553,1.579-10.553,1.579s7.1-5.18,7.828-7.253
				c0.727-2.072-1.58-10.553-1.58-10.553L34.617,64.99z"/>
		</g>
	</g>
	<g>
		<g>
			<path class="st71" d="M77.402,42.689c0,0-8.682-8.904-11.475-9.475C63.136,32.646,51.478,37.4,51.478,37.4
				s8.939-8.864,9.49-11.565c0.549-2.699-4.203-14.358-4.203-14.358s8.547,8.876,11.564,9.492
				c3.018,0.615,14.357-4.203,14.357-4.203s-8.873,8.545-9.49,11.563C72.582,31.345,77.402,42.689,77.402,42.689z"/>
		</g>
		<g>
			<path class="st47" d="M51.478,37.4c0,0,8.939-8.864,9.49-11.565c0.549-2.699-4.203-14.358-4.203-14.358s8.547,8.876,11.564,9.492
				c3.018,0.615,14.357-4.203,14.357-4.203L51.478,37.4z"/>
		</g>
	</g>
	<g>
		<g>
			<path class="st71" d="M95.875,59.387c0,0-4.496-4.825-5.971-5.161c-1.471-0.336-7.711,2.046-7.711,2.046s4.848-4.595,5.174-6.018
				c0.322-1.425-2.059-7.664-2.059-7.664s4.426,4.81,6.018,5.172c1.596,0.362,7.666-2.056,7.666-2.056s-4.809,4.424-5.172,6.017
				S95.875,59.387,95.875,59.387z"/>
		</g>
		<g>
			<path class="st47" d="M82.193,56.272c0,0,4.848-4.595,5.174-6.018c0.322-1.425-2.059-7.664-2.059-7.664s4.426,4.81,6.018,5.172
				c1.596,0.362,7.666-2.056,7.666-2.056L82.193,56.272z"/>
		</g>
	</g>
	<g>
		<circle class="st120" cx="68.417" cy="68.416" r="63.333"/>
	</g>
</g>
</svg>
