<?xml version="1.0" encoding="utf-8"?>
<!-- Generator: Adobe Illustrator 16.0.0, SVG Export Plug-In . SVG Version: 6.00 Build 0)  -->
<!DOCTYPE svg PUBLIC "-//W3C//DTD SVG 1.1//EN" "http://www.w3.org/Graphics/SVG/1.1/DTD/svg11.dtd">
<svg version="1.1" id="Layer_1" xmlns="http://www.w3.org/2000/svg" xmlns:xlink="http://www.w3.org/1999/xlink" x="0px" y="0px"
	 width="136.833px" height="136.834px" viewBox="0 0 136.833 136.834" style="enable-background:new 0 0 136.833 136.834;"
	 xml:space="preserve">
<style type="text/css">
<![CDATA[
	.st0{fill:#7AC3A7;}
	.st1{fill:#AA9C87;}
	.st2{fill:#AAAAAA;}
	.st3{fill:#494A4A;}
	.st4{fill:#AC782B;}
	.st5{fill:#49A0AE;}
	.st6{fill:#AD6F2D;}
	.st7{fill-rule:evenodd;clip-rule:evenodd;fill:#3EB5B5;}
	.st8{fill:#AE8A50;}
	.st9{fill:#7F8092;}
	.st10{fill:#AEADAD;}
	.st11{fill:#AEAEAF;}
	.st12{fill:#129949;}
	.st13{fill:#E1E1E1;}
	.st14{fill:#E2DD3E;}
	.st15{fill-rule:evenodd;clip-rule:evenodd;fill:#757575;}
	.st16{fill:#E4E4E4;}
	.st17{fill:#E57931;}
	.st18{fill:#4AA0A5;}
	.st19{fill:#4B4A4B;}
	.st20{fill:#E79E2D;}
	.st21{fill-rule:evenodd;clip-rule:evenodd;fill:#DBB626;}
	.st22{fill:#E7E760;}
	.st23{fill:#19A855;}
	.st24{fill:#E84849;}
	.st25{fill:#4E4F50;}
	.st26{fill:#4EA3B1;}
	.st27{fill:#E9CA92;}
	.st28{fill:#E9E8A1;}
	.st29{fill:#E9E8A3;}
	.st30{fill:#B03738;}
	.st31{fill:#818282;}
	.st32{fill:#81BCB9;}
	.st33{fill:#B19353;}
	.st34{fill:#825E2D;}
	.st35{fill:#B1B1B2;}
	.st36{fill:#B2B2B2;}
	.st37{opacity:0.15;}
	.st38{fill:#848698;}
	.st39{fill:#B3DCE2;}
	.st40{fill:#B4B4B5;}
	.st41{fill:#1A3940;}
	.st42{fill:#B6E2EB;}
	.st43{fill:#888888;}
	.st44{fill:#B7DFD2;}
	.st45{fill:#1D1E1E;}
	.st46{fill:#ED3351;}
	.st47{fill:#EDC92C;}
	.st48{fill:#EDE8C9;}
	.st49{fill:#1FA85B;}
	.st50{fill-rule:evenodd;clip-rule:evenodd;fill:#AEAEAF;}
	.st51{fill:#EEDD7A;}
	.st52{fill:#52BA73;}
	.st53{fill:#56385F;}
	.st54{fill:#56939A;}
	.st55{fill:#8AC5C4;}
	.st56{fill:#575757;}
	.st57{fill-rule:evenodd;clip-rule:evenodd;fill:#4B4A4B;}
	.st58{fill:#8CD3DA;}
	.st59{fill:#8D8D8C;}
	.st60{fill:#8D9091;}
	.st61{fill-rule:evenodd;clip-rule:evenodd;fill:#E8C790;}
	.st62{fill:#202121;}
	.st63{fill-rule:evenodd;clip-rule:evenodd;fill:#E9CA92;}
	.st64{fill:#BEBC6A;}
	.st65{fill:#F06668;}
	.st66{fill:#BFBEBE;}
	.st67{fill:#F0D359;}
	.st68{fill:#F0F1AF;}
	.st69{fill-rule:evenodd;clip-rule:evenodd;fill:#B14D26;}
	.st70{fill:#22C48A;}
	.st71{fill:#F1D250;}
	.st72{fill:#F1E089;}
	.st73{fill:#F1F1B3;}
	.st74{fill:#F2BE3E;}
	.st75{fill:#F37C2A;}
	.st76{fill:#256533;}
	.st77{fill:#F4D967;}
	.st78{fill:#F4E028;}
	.st79{fill:#F4F5F5;}
	.st80{fill-rule:evenodd;clip-rule:evenodd;fill:#B5B2B3;}
	.st81{fill:#F5D827;}
	.st82{fill:#F5E554;}
	.st83{fill:#276D69;}
	.st84{fill-rule:evenodd;clip-rule:evenodd;fill:#B6AE8F;}
	.st85{fill:#F6A2A3;}
	.st86{fill-rule:evenodd;clip-rule:evenodd;fill:#1CAAB9;}
	.st87{fill-rule:evenodd;clip-rule:evenodd;fill:#888888;}
	.st88{fill:#F7D98B;}
	.st89{fill:#F7E497;}
	.st90{fill:#F8DE71;}
	.st91{fill-rule:evenodd;clip-rule:evenodd;fill:#ECE1D0;}
	.st92{fill:#F9F29A;}
	.st93{fill-rule:evenodd;clip-rule:evenodd;fill:#EDC92C;}
	.st94{clip-path:url(#SVGID_2_);}
	.st95{fill:#90682F;}
	.st96{fill:#C0C0C0;}
	.st97{fill:#93793D;}
	.st98{fill:#939292;}
	.st99{fill:#93D1BD;}
	.st100{fill:#949897;}
	.st101{fill:#94D0D0;}
	.st102{fill:#954E9D;}
	.st103{fill:#958469;}
	.st104{fill:#C4BC98;}
	.st105{fill:#C698C5;}
	.st106{fill:#2C6973;}
	.st107{fill:#FAF2F2;}
	.st108{fill:#C7E8ED;}
	.st109{fill:#2E2F2F;}
	.st110{fill:#2F8442;}
	.st111{opacity:0.3;}
	.st112{fill:#606060;}
	.st113{fill:#616A89;}
	.st114{fill:#61BECD;}
	.st115{fill:#FFC200;}
	.st116{fill:#FFFFFF;}
	.st117{fill:#626463;}
	.st118{fill:#63A2AC;}
	.st119{fill-rule:evenodd;clip-rule:evenodd;fill:#F2E8D3;}
	.st120{fill:none;}
	.st121{fill:#9A7338;}
	.st122{fill-rule:evenodd;clip-rule:evenodd;fill:#F5D8A4;}
	.st123{fill-rule:evenodd;clip-rule:evenodd;fill:#F5DFB5;}
	.st124{fill:#9B7842;}
	.st125{fill:#67B8CB;}
	.st126{fill:#9D5D26;}
	.st127{fill:#9D9E9F;}
	.st128{fill:#CDCCCB;}
	.st129{fill:#9EA3B6;}
	.st130{fill:#9F77AA;}
	.st131{fill-rule:evenodd;clip-rule:evenodd;fill:#C0BEBF;}
	.st132{fill-rule:evenodd;clip-rule:evenodd;fill:#C15E28;}
	.st133{fill:#343433;}
	.st134{fill:#355957;}
	.st135{fill:#357180;}
	.st136{fill:#35B167;}
	.st137{fill-rule:evenodd;clip-rule:evenodd;fill:#97A0A0;}
	.st138{fill:#6C6C6B;}
	.st139{fill:#6CC077;}
	.st140{fill:#6EC2CB;}
	.st141{fill:#6FB698;}
	.st142{fill-rule:evenodd;clip-rule:evenodd;fill:#616161;}
	.st143{fill:#D0D1D1;}
	.st144{fill-rule:evenodd;clip-rule:evenodd;fill:#FFF4E4;}
	.st145{fill:#D2CBA6;}
	.st146{fill:#D2D2D2;}
	.st147{fill:#D68828;}
	.st148{fill:#D68A28;}
	.st149{fill:#3D3428;}
	.st150{fill:#3D4040;}
	.st151{fill:#3D969F;}
	.st152{fill-rule:evenodd;clip-rule:evenodd;fill:#CDCCCB;}
	.st153{fill:#A0D5D9;}
	.st154{fill:#A2D4DE;}
	.st155{fill:#A3D4AA;}
	.st156{fill:#A48A47;}
	.st157{fill:#75B7BB;}
	.st158{fill:#776850;}
	.st159{fill:#DAC425;}
	.st160{fill:#DBBD40;}
	.st161{fill:#DBC55E;}
	.st162{fill:#DBDBDA;}
	.st163{fill:#DBF0F5;}
	.st164{fill:#DCDBDC;}
	.st165{fill:#DDDDDC;}
	.st166{fill-rule:evenodd;clip-rule:evenodd;fill:#6EC2CB;}
	.st167{fill:#DFBFDB;}
	.st168{fill:#DFCC6B;}
	.st169{fill:#448590;}
]]>
</style>
<g>
	<circle class="st102" cx="67.834" cy="71.293" r="63.333"/>
	<g>
		<g>
			<g>
				<path class="st121" d="M55.384,56.354l58.395,58.507c1.27-1.34,2.482-2.734,3.635-4.182L59.765,55.146
					C58.704,54.088,56.78,54.956,55.384,56.354z"/>
			</g>
			<g>
				<path class="st121" d="M54.317,60.596c-0.238-0.238-0.43-0.465-0.564-0.699c0.059,0.312,0.188,0.599,0.426,0.837l55.742,57.871
					c0.021-0.02,0.043-0.037,0.064-0.057L54.317,60.596z"/>
			</g>
			<g>
				<path class="st34" d="M55.384,56.354L55.384,56.354c-1.824,1.826-2.094,2.733-1.631,3.543
					C53.552,58.829,54.304,57.435,55.384,56.354z"/>
			</g>
			<g>
				<path class="st34" d="M53.753,59.896c0.135,0.234,0.326,0.461,0.564,0.699l55.668,57.952c1.316-1.174,2.578-2.408,3.793-3.688
					L55.384,56.354C54.304,57.435,53.552,58.829,53.753,59.896z"/>
			</g>
		</g>
		<g>
			<path class="st81" d="M75.692,32.597c1.371,0.699-1.686,19.535-1.182,20.759s16.445,11.468,16.432,12.741
				c-0.016,1.273-19.016,4.235-20.107,5.293c-1.094,1.058-5.568,19.422-7.041,19.564c-1.473,0.141-10.283-17.057-11.248-17.489
				c-0.963-0.433-20.191,0.69-20.779-0.652c-0.59-1.342,12.939-14.747,13.156-16.099c0.215-1.353-6.746-19.051-5.805-19.965
				c0.943-0.913,18.287,7.59,19.379,7.535C59.589,44.231,74.321,31.897,75.692,32.597z"/>
		</g>
		<g>
			<path class="st89" d="M68.507,45.287c0.666,0.34-0.816,9.485-0.572,10.08c0.244,0.594,7.984,5.566,7.977,6.186
				c-0.006,0.618-9.23,2.057-9.762,2.569s-2.703,9.43-3.418,9.499c-0.715,0.068-4.992-8.281-5.461-8.491s-9.805,0.335-10.09-0.317
				c-0.285-0.65,6.283-7.158,6.389-7.815c0.104-0.657-3.275-9.249-2.818-9.693s8.879,3.685,9.408,3.659
				C60.688,50.937,67.843,44.948,68.507,45.287z"/>
		</g>
		<g>
			<path class="st77" d="M89.575,47.168c0.176,0.727-6.131,5.671-7.727,5.825c-0.66,0.064-1.844-0.439-2.273-1.588
				c-0.43-1.146-0.188-2.112,0.514-2.598C81.259,48.002,89.399,46.442,89.575,47.168z"/>
		</g>
		<g>
			<path class="st77" d="M56.704,29.363c0.746,0.03,3.768,7.455,3.477,9.029c-0.121,0.654-0.93,1.654-2.152,1.753
				c-1.219,0.096-2.084-0.402-2.355-1.211C55.22,37.589,55.958,29.334,56.704,29.363z"/>
		</g>
		<g>
			<path class="st77" d="M29.399,55.118c0.18-0.727,8.057-2.199,9.543-1.6c0.615,0.246,1.434,1.24,1.285,2.457
				c-0.15,1.214-0.811,1.961-1.656,2.067C37.163,58.217,29.222,55.843,29.399,55.118z"/>
		</g>
		<g>
			<path class="st77" d="M45.677,87.345c-0.613-0.427,0.805-8.313,1.893-9.49c0.449-0.489,1.668-0.898,2.754-0.329
				c1.082,0.572,1.545,1.453,1.344,2.281C51.331,81.187,46.292,87.769,45.677,87.345z"/>
		</g>
	</g>
	<g>
		<circle class="st120" cx="67.834" cy="71.293" r="63.333"/>
	</g>
</g>
</svg>
