<?xml version="1.0" encoding="utf-8"?>
<!-- Generator: Adobe Illustrator 16.0.0, SVG Export Plug-In . SVG Version: 6.00 Build 0)  -->
<!DOCTYPE svg PUBLIC "-//W3C//DTD SVG 1.1//EN" "http://www.w3.org/Graphics/SVG/1.1/DTD/svg11.dtd">
<svg version="1.1" id="Layer_1" xmlns="http://www.w3.org/2000/svg" xmlns:xlink="http://www.w3.org/1999/xlink" x="0px" y="0px"
	 width="136.833px" height="136.834px" viewBox="0 0 136.833 136.834" style="enable-background:new 0 0 136.833 136.834;"
	 xml:space="preserve">
<style type="text/css">
<![CDATA[
	.st0{fill-rule:evenodd;clip-rule:evenodd;fill:#08090B;}
	.st1{fill:#7BCCC7;}
	.st2{fill:#48584B;}
	.st3{fill:#AC782B;}
	.st4{fill:#49A0AE;}
	.st5{fill:#121212;}
	.st6{fill:#E1E1E1;}
	.st7{fill:#E3E2E2;}
	.st8{fill:none;stroke:#202121;stroke-width:0.5;stroke-miterlimit:10;}
	.st9{fill:#E4E4E4;}
	.st10{fill:#4ABC96;}
	.st11{fill:#E5E5E5;}
	.st12{fill:#4B4A4B;}
	.st13{fill:#E84849;stroke:#FFFFFF;stroke-width:3;}
	.st14{fill:none;stroke:#121212;stroke-miterlimit:10;}
	.st15{fill:#E79E2D;}
	.st16{fill:#E7E7E7;}
	.st17{fill:#4D4D4D;}
	.st18{fill:#4D8A97;}
	.st19{fill:#E84849;}
	.st20{fill:#807F7F;}
	.st21{fill:#B03738;}
	.st22{fill:#818282;}
	.st23{fill:#81C681;}
	.st24{opacity:0.5;fill:#202121;}
	.st25{fill:#B2B2B2;}
	.st26{fill:#B2D0CC;}
	.st27{fill:#83CECA;}
	.st28{fill:#1A1919;}
	.st29{fill:#B5DBAF;}
	.st30{fill:#EB9682;}
	.st31{fill:#EBEDEF;}
	.st32{fill:#B8B9BA;}
	.st33{fill:#ECA448;}
	.st34{fill:#1E261F;}
	.st35{fill:#ECECEC;}
	.st36{fill:#EDBF00;}
	.st37{fill:#EDC92C;}
	.st38{fill:#EDEEEF;}
	.st39{fill:#505251;}
	.st40{fill:#EFC849;}
	.st41{opacity:0.15;fill:#626463;}
	.st42{opacity:0.3;fill:url(#SVGID_16_);}
	.st43{opacity:0.3;fill:url(#SVGID_17_);}
	.st44{opacity:0.3;fill:url(#SVGID_27_);}
	.st45{opacity:0.3;fill:url(#SVGID_28_);}
	.st46{opacity:0.3;fill:url(#SVGID_33_);}
	.st47{opacity:0.3;fill:url(#SVGID_34_);}
	.st48{opacity:0.3;fill:url(#SVGID_37_);}
	.st49{opacity:0.3;fill:url(#SVGID_38_);}
	.st50{fill:none;stroke:#B8B9BA;stroke-width:0.5;stroke-miterlimit:10;}
	.st51{fill:#202121;}
	.st52{fill:#232C25;}
	.st53{fill:#F28400;}
	.st54{fill:#256533;}
	.st55{fill:#F3F4F5;}
	.st56{fill:#263A45;}
	.st57{fill:#265E67;}
	.st58{fill:#F5E554;}
	.st59{fill:#F6A2A3;}
	.st60{fill:#28302A;}
	.st61{fill:#5CA39B;}
	.st62{fill:#5E7564;}
	.st63{fill-rule:evenodd;clip-rule:evenodd;fill:#EDC92C;}
	.st64{opacity:0.2;fill:#FFFFFF;}
	.st65{fill:url(#SVGID_1_);}
	.st66{fill:url(#SVGID_2_);}
	.st67{fill:url(#SVGID_3_);}
	.st68{fill:url(#SVGID_4_);}
	.st69{fill:url(#SVGID_5_);}
	.st70{fill:url(#SVGID_6_);}
	.st71{fill:url(#SVGID_7_);}
	.st72{fill:#C2DFDD;}
	.st73{fill:#C5E2E5;}
	.st74{fill:#98979B;}
	.st75{fill:#989897;}
	.st76{fill:#989A9A;}
	.st77{fill:#C9C9C8;}
	.st78{fill:#2F3A32;}
	.st79{fill:#2F8442;}
	.st80{opacity:0.7;}
	.st81{fill:#60C3B6;}
	.st82{fill:#FFFFFF;}
	.st83{fill:#626463;}
	.st84{fill:#636463;}
	.st85{fill-rule:evenodd;clip-rule:evenodd;fill:#F37C2A;}
	.st86{fill:none;}
	.st87{fill:#676767;}
	.st88{fill:#676969;}
	.st89{fill:#67B4AD;}
	.st90{fill:#67B8CB;}
	.st91{fill:#CBCBC9;}
	.st92{fill:#CCCBCF;}
	.st93{fill:#CCE9E9;}
	.st94{fill:#CDCCCB;}
	.st95{fill:#CDE9E6;}
	.st96{fill:#30302F;}
	.st97{fill-rule:evenodd;clip-rule:evenodd;fill:#F9C645;}
	.st98{opacity:0.7;fill:#FFFFFF;}
	.st99{fill:#343433;}
	.st100{fill:#343434;}
	.st101{fill:#344E5D;}
	.st102{fill:#357180;}
	.st103{opacity:0.25;fill:#DFF1F5;}
	.st104{fill:#6CC077;}
	.st105{fill:#6EBCB5;}
	.st106{fill:none;stroke:#67B8CB;stroke-width:0.5;stroke-miterlimit:10;}
	.st107{fill:#D2D2D2;}
	.st108{fill:#D3D4E3;}
	.st109{fill:#D4A160;}
	.st110{fill:#08090B;}
	.st111{fill:#3CB881;}
	.st112{fill:#D7DABA;}
	.st113{fill:#3D4040;}
	.st114{fill:url(#SVGID_10_);}
	.st115{fill:url(#SVGID_11_);}
	.st116{fill:url(#SVGID_12_);}
	.st117{fill:url(#SVGID_13_);}
	.st118{fill:url(#SVGID_22_);}
	.st119{fill:url(#SVGID_23_);}
	.st120{fill:url(#SVGID_24_);}
	.st121{fill:url(#SVGID_29_);}
	.st122{fill:url(#SVGID_30_);}
	.st123{fill:url(#SVGID_41_);}
	.st124{opacity:0.1;fill:#FFFFFF;}
	.st125{fill:#A07238;}
	.st126{fill:#717171;}
	.st127{clip-path:url(#SVGID_15_);}
	.st128{clip-path:url(#SVGID_19_);}
	.st129{clip-path:url(#SVGID_21_);}
	.st130{clip-path:url(#SVGID_26_);}
	.st131{clip-path:url(#SVGID_32_);}
	.st132{clip-path:url(#SVGID_36_);}
	.st133{clip-path:url(#SVGID_40_);}
	.st134{fill:#A4A5A4;}
	.st135{fill:#767676;}
	.st136{fill:#767879;}
	.st137{fill:#DBF0F5;}
	.st138{fill:#DC494A;}
	.st139{fill:#DCDBDC;}
	.st140{fill:#0EA24A;}
	.st141{fill:#404040;}
	.st142{fill:#DFDFDF;}
	.st143{fill:#447A74;}
]]>
</style>
<g>
	<g>
		<g>
			<g>
				<circle class="st10" cx="68.417" cy="68.417" r="63.333"/>
			</g>
		</g>
	</g>
	<g>
		<g>
			<path class="st125" d="M35.529,106.439c-1.416,1.417-3.717,1.417-5.135,0l0,0c-1.42-1.42-1.42-3.718,0-5.137l26.58-26.581
				c1.418-1.414,3.717-1.414,5.135,0.003l0,0c1.418,1.415,1.418,3.713-0.002,5.134L35.529,106.439z"/>
			<path class="st109" d="M39.08,107.413c-1.242,1.239-4.41,0.085-7.076-2.583l0,0c-2.668-2.668-3.824-5.837-2.582-7.076
				l28.227-28.232c1.242-1.239,4.412-0.083,7.078,2.585l0,0c2.67,2.663,3.826,5.832,2.584,7.078L39.08,107.413z"/>
			<circle class="st81" cx="79.289" cy="57.544" r="26.107"/>
			<circle class="st27" cx="80.83" cy="60.061" r="20.51"/>
			<path class="st125" d="M56.342,70.702l-3.713,3.711c0,0,3.391,7.49,10.684,8.64l2.695-2.692v-3.482L56.342,70.702z"/>
			<g>
				<g>
					<path class="st31" d="M59.051,37.306c-11.18,11.177-11.18,29.301,0,40.476c11.18,11.18,29.301,11.18,40.479,0.003
						c11.176-11.178,11.176-29.302,0-40.479C88.352,26.127,70.23,26.127,59.051,37.306z M94.426,72.682
						c-8.357,8.359-21.912,8.361-30.273,0c-8.359-8.358-8.359-21.916,0-30.273c8.361-8.361,21.916-8.361,30.273-0.002
						C102.791,50.768,102.787,64.323,94.426,72.682z"/>
				</g>
			</g>
		</g>
		<g class="st80">
			<g>
				<rect x="76.637" y="48.33" class="st82" width="5.303" height="18.428"/>
				<g>
					<path class="st82" d="M81.939,66.008c-1.768,0-3.535,0-5.303,0c0.25,0.25,0.5,0.5,0.75,0.75c0-6.143,0-12.285,0-18.428
						c-0.25,0.25-0.5,0.5-0.75,0.75c1.768,0,3.535,0,5.303,0c-0.25-0.25-0.5-0.5-0.75-0.75c0,6.143,0,12.285,0,18.428
						c0,0.968,1.5,0.968,1.5,0c0-6.143,0-12.285,0-18.428c0-0.409-0.341-0.75-0.75-0.75c-1.768,0-3.535,0-5.303,0
						c-0.409,0-0.75,0.341-0.75,0.75c0,6.143,0,12.285,0,18.428c0,0.409,0.341,0.75,0.75,0.75c1.768,0,3.535,0,5.303,0
						C82.907,67.508,82.907,66.008,81.939,66.008z"/>
				</g>
			</g>
			<g>
				<rect x="70.074" y="54.894" class="st82" width="18.43" height="5.302"/>
				<g>
					<path class="st82" d="M70.824,60.195c0-1.768,0-3.534,0-5.302c-0.25,0.25-0.5,0.5-0.75,0.75c6.144,0,12.286,0,18.43,0
						c-0.25-0.25-0.5-0.5-0.75-0.75c0,1.768,0,3.534,0,5.302c0.25-0.25,0.5-0.5,0.75-0.75c-6.144,0-12.286,0-18.43,0
						c-0.968,0-0.968,1.5,0,1.5c6.144,0,12.286,0,18.43,0c0.409,0,0.75-0.341,0.75-0.75c0-1.768,0-3.534,0-5.302
						c0-0.409-0.341-0.75-0.75-0.75c-6.144,0-12.286,0-18.43,0c-0.409,0-0.75,0.341-0.75,0.75c0,1.768,0,3.534,0,5.302
						C69.324,61.163,70.824,61.163,70.824,60.195z"/>
				</g>
			</g>
		</g>
	</g>
</g>
</svg>
