<?xml version="1.0" encoding="utf-8"?>
<!-- Generator: Adobe Illustrator 16.0.0, SVG Export Plug-In . SVG Version: 6.00 Build 0)  -->
<!DOCTYPE svg PUBLIC "-//W3C//DTD SVG 1.1//EN" "http://www.w3.org/Graphics/SVG/1.1/DTD/svg11.dtd">
<svg version="1.1" id="Layer_1" xmlns="http://www.w3.org/2000/svg" xmlns:xlink="http://www.w3.org/1999/xlink" x="0px" y="0px"
	 width="136.833px" height="136.834px" viewBox="0 0 136.833 136.834" style="enable-background:new 0 0 136.833 136.834;"
	 xml:space="preserve">
<style type="text/css">
<![CDATA[
	.st0{fill:#473D2E;}
	.st1{opacity:0.25;fill:#EFEFEF;}
	.st2{fill:#7B6854;}
	.st3{fill:#AAAAAA;}
	.st4{fill:#48B15A;}
	.st5{fill:#49A0AE;}
	.st6{fill:#AD2728;}
	.st7{fill:none;stroke:#888887;stroke-miterlimit:10;}
	.st8{fill-rule:evenodd;clip-rule:evenodd;fill:#3F3F3E;}
	.st9{fill-rule:evenodd;clip-rule:evenodd;fill:#3F7D92;}
	.st10{fill:#AEACAC;}
	.st11{fill:#E58E8F;}
	.st12{fill:#4ABC96;}
	.st13{fill:#E5E65D;}
	.st14{fill:#4B4A4B;}
	.st15{fill:#E6E768;}
	.st16{fill:#E79E2D;}
	.st17{fill:#E7E7E7;}
	.st18{fill:#E84849;}
	.st19{fill:#E8E7E7;}
	.st20{fill:#4E4E4E;}
	.st21{fill:#E9E4B1;}
	.st22{fill:#E9E9EA;}
	.st23{fill:#80702C;}
	.st24{fill:#807F7F;}
	.st25{fill:#818282;}
	.st26{fill:#82725A;}
	.st27{opacity:0.15;}
	.st28{fill:#83CECA;}
	.st29{fill:#B3DCE2;}
	.st30{fill:#1A3940;}
	.st31{fill:#B5B6B6;}
	.st32{fill:#B6E2EB;}
	.st33{fill:#886A29;}
	.st34{fill:#EBEDEF;}
	.st35{fill:#EBF6F9;}
	.st36{fill-rule:evenodd;clip-rule:evenodd;fill:#7D8880;}
	.st37{fill:#B9B9BA;}
	.st38{fill:#EDC92C;}
	.st39{fill:#504A2A;}
	.st40{fill:#EFC849;}
	.st41{fill:#55B966;}
	.st42{fill-rule:evenodd;clip-rule:evenodd;fill:#4B4A4B;}
	.st43{fill:#577D87;}
	.st44{fill:#58595A;}
	.st45{fill:#BBBCBB;}
	.st46{fill-rule:evenodd;clip-rule:evenodd;fill:#E84849;}
	.st47{fill:#202121;}
	.st48{fill:#F06668;}
	.st49{fill:#BFBEBE;}
	.st50{fill-rule:evenodd;clip-rule:evenodd;fill:#82725A;}
	.st51{fill:#231F20;}
	.st52{fill:#F2BE3E;}
	.st53{fill:#F2DE62;}
	.st54{fill:#F2EF8F;}
	.st55{fill:#F4E028;}
	.st56{fill:#5A5B5D;}
	.st57{fill-rule:evenodd;clip-rule:evenodd;fill:#B5B2B3;}
	.st58{opacity:0.4;clip-path:url(#SVGID_4_);fill:url(#SVGID_5_);}
	.st59{fill:#5B4F3F;}
	.st60{fill:#F6A2A3;}
	.st61{fill:#F6F6E7;}
	.st62{fill:#F7D98B;}
	.st63{fill:#5E8492;}
	.st64{fill:#F9F29A;}
	.st65{fill:#969595;}
	.st66{fill:#988534;}
	.st67{fill:#99999A;}
	.st68{fill:#FDF2F7;}
	.st69{fill:#FDF7FA;}
	.st70{fill:#2F6E77;}
	.st71{fill:#2F8442;}
	.st72{fill:#606060;}
	.st73{fill:#60C3B6;}
	.st74{fill-rule:evenodd;clip-rule:evenodd;fill:#F06668;}
	.st75{fill:none;stroke:#818282;stroke-miterlimit:10;}
	.st76{fill:#FFFFFF;}
	.st77{fill:#626463;}
	.st78{fill:#63BD6E;}
	.st79{fill-rule:evenodd;clip-rule:evenodd;fill:#245861;}
	.st80{fill:none;}
	.st81{fill:#9A866F;}
	.st82{clip-path:url(#SVGID_2_);fill:#90B9C0;}
	.st83{fill-rule:evenodd;clip-rule:evenodd;fill:#5B4F3F;}
	.st84{fill:#9B7842;}
	.st85{fill:#67B7C3;}
	.st86{fill:#67B8CB;}
	.st87{fill:#CC2027;}
	.st88{fill:#CDCDCE;}
	.st89{fill:#CE2F2E;}
	.st90{fill:#9F77AA;}
	.st91{opacity:0.7;fill:#FFFFFF;}
	.st92{fill-rule:evenodd;clip-rule:evenodd;fill:#C0BEBF;}
	.st93{fill:#333535;}
	.st94{fill:#357180;}
	.st95{opacity:0.4;clip-path:url(#SVGID_10_);fill:url(#SVGID_11_);}
	.st96{clip-path:url(#SVGID_2_);fill:#FFFFFF;}
	.st97{fill:#6CC077;}
	.st98{fill:#6EC2CB;}
	.st99{fill:#020202;}
	.st100{fill:#D32027;}
	.st101{fill:#D4A160;}
	.st102{fill:#D6E4F4;}
	.st103{fill:#D7D7D7;}
	.st104{fill:#D88080;}
	.st105{opacity:0.4;clip-path:url(#SVGID_7_);fill:url(#SVGID_8_);}
	.st106{fill-rule:evenodd;clip-rule:evenodd;fill:#CDCCCB;}
	.st107{fill:#A07238;}
	.st108{fill:#A2D4DE;}
	.st109{fill:#A3D4AA;}
	.st110{fill:#74C59C;}
	.st111{fill-rule:evenodd;clip-rule:evenodd;fill:#357180;}
	.st112{fill:#A4A5A4;}
	.st113{fill:#A5B6B9;}
	.st114{fill:#DAC425;}
	.st115{fill:#DBF0F5;}
	.st116{fill:#0EA24A;}
	.st117{fill:#DDDDDC;}
	.st118{fill:#DDDFDF;}
	.st119{fill:#40BCA3;}
	.st120{fill:#43A0AA;}
]]>
</style>
<g>
	<g>
		<g>
			<circle class="st119" cx="68.417" cy="68.416" r="63.333"/>
		</g>
	</g>
	<g>
		<g>
			<path class="st86" d="M103.07,100.876c0,6.164-1.276,9.301-7.44,9.301H42.929c-6.164,0-7.44-3.137-7.44-9.301V40.114
				c0-6.163,1.276-9.3,7.44-9.3H95.63c6.164,0,7.44,3.137,7.44,9.3V100.876z"/>
			<path class="st76" d="M102.133,100.034c0,5.993-1.241,9.043-7.233,9.043H43.66c-5.993,0-7.234-3.05-7.234-9.043V40.958
				c0-5.993,1.241-9.043,7.234-9.043h51.239c5.992,0,7.233,3.05,7.233,9.043V100.034z"/>
			<rect x="80.187" y="40.506" class="st64" width="14.883" height="16.577"/>
			<rect x="43.057" y="40.468" class="st55" width="32.552" height="3.165"/>
			<rect x="43.057" y="45.206" class="st55" width="32.552" height="1.602"/>
			<rect x="43.057" y="47.918" class="st55" width="32.552" height="1.602"/>
			<rect x="43.057" y="50.631" class="st55" width="32.552" height="1.602"/>
			<rect x="43.057" y="53.344" class="st55" width="32.552" height="1.601"/>
			<rect x="43.057" y="98.696" class="st86" width="52.584" height="1.838"/>
			<rect x="43.057" y="102.427" class="st86" width="52.584" height="1.839"/>
			<rect x="43.057" y="94.884" class="st86" width="52.584" height="1.838"/>
			<g>
				<rect x="43.283" y="62.697" class="st115" width="51.893" height="29.802"/>
				<g>
					<path class="st97" d="M94.594,86.056l-7.021-7.022c0,0-2.012-2.593-3.879-2.487c-1.686,0.097-3.646,2.201-4.022,2.619
						l-2.354-2.354c0,0-2.355-3.04-4.547-2.916c-2.191,0.125-4.806,3.175-4.806,3.175l-0.72,0.719l-4.43-4.432
						c0,0-2.898-3.736-5.59-3.583c-2.69,0.152-5.906,3.901-5.906,3.901l-7.458,7.457l0.006,10.83l50.724-0.001L94.594,86.056z"/>
					<path class="st86" d="M72.723,69.024c0.008-0.046,0.037-0.086,0.037-0.134c0-0.729-0.788-1.319-1.76-1.319
						c-0.128,0-0.24,0.035-0.361,0.055c-0.291-0.388-0.822-0.66-1.459-0.66c-0.822,0-1.477,0.448-1.632,1.032
						c-0.8,0.158-1.399,0.68-1.399,1.328c0,0.614,0.535,1.12,1.27,1.309c0.252,0.56,0.934,0.971,1.762,0.971
						c0.752,0,1.389-0.337,1.692-0.814c0.191,0.063,0.403,0.102,0.628,0.102c0.863,0,1.562-0.523,1.562-1.172
						C73.062,69.454,72.924,69.221,72.723,69.024z"/>
					<path class="st86" d="M80.945,70.681c-0.004-0.033-0.025-0.061-0.025-0.095c0-0.517,0.561-0.938,1.25-0.938
						c0.091,0,0.17,0.026,0.257,0.04c0.207-0.276,0.586-0.47,1.035-0.47c0.585,0,1.05,0.318,1.159,0.733
						c0.568,0.112,0.995,0.483,0.995,0.943c0,0.438-0.38,0.796-0.902,0.93c-0.177,0.397-0.662,0.69-1.252,0.69
						c-0.534,0-0.985-0.24-1.201-0.58c-0.137,0.047-0.288,0.073-0.446,0.073c-0.613,0-1.11-0.372-1.11-0.833
						C80.704,70.987,80.803,70.821,80.945,70.681z"/>
				</g>
			</g>
			<path class="st55" d="M88.688,51.101v-0.777c1.141-0.494,1.903-1.787,2.042-3.374c0.206-0.091,0.359-0.399,0.359-0.782
				c0-0.439-0.199-0.792-0.451-0.814c-0.351-1.546-1.463-2.344-2.977-2.344c-1.517,0-2.642,0.798-2.998,2.344
				c-0.25,0.021-0.452,0.374-0.452,0.814c0,0.383,0.154,0.691,0.362,0.782c0.137,1.577,0.903,2.866,2.038,3.366v0.786
				c-3.509,0.052-5.169,0.454-5.169,3.02v2.92h12.459v-2.92C93.902,51.545,92.221,51.15,88.688,51.101z"/>
		</g>
	</g>
</g>
</svg>
