<?xml version="1.0" encoding="utf-8"?>
<!-- Generator: Adobe Illustrator 16.0.0, SVG Export Plug-In . SVG Version: 6.00 Build 0)  -->
<!DOCTYPE svg PUBLIC "-//W3C//DTD SVG 1.1//EN" "http://www.w3.org/Graphics/SVG/1.1/DTD/svg11.dtd">
<svg version="1.1" id="Layer_1" xmlns="http://www.w3.org/2000/svg" xmlns:xlink="http://www.w3.org/1999/xlink" x="0px" y="0px"
	 width="136.833px" height="136.834px" viewBox="0 0 136.833 136.834" style="enable-background:new 0 0 136.833 136.834;"
	 xml:space="preserve">
<style type="text/css">
<![CDATA[
	.st0{fill:#473D2E;}
	.st1{opacity:0.25;fill:#EFEFEF;}
	.st2{fill:#7B6854;}
	.st3{fill:#AAAAAA;}
	.st4{fill:#48B15A;}
	.st5{fill:#49A0AE;}
	.st6{fill:#AD2728;}
	.st7{fill:none;stroke:#888887;stroke-miterlimit:10;}
	.st8{fill-rule:evenodd;clip-rule:evenodd;fill:#3F3F3E;}
	.st9{fill-rule:evenodd;clip-rule:evenodd;fill:#3F7D92;}
	.st10{fill:#AEACAC;}
	.st11{fill:#E58E8F;}
	.st12{fill:#4ABC96;}
	.st13{fill:#E5E65D;}
	.st14{fill:#4B4A4B;}
	.st15{fill:#E6E768;}
	.st16{fill:#E79E2D;}
	.st17{fill:#E7E7E7;}
	.st18{fill:#E84849;}
	.st19{fill:#E8E7E7;}
	.st20{fill:#4E4E4E;}
	.st21{fill:#E9E4B1;}
	.st22{fill:#E9E9EA;}
	.st23{fill:#80702C;}
	.st24{fill:#807F7F;}
	.st25{fill:#818282;}
	.st26{fill:#82725A;}
	.st27{opacity:0.15;}
	.st28{fill:#83CECA;}
	.st29{fill:#B3DCE2;}
	.st30{fill:#1A3940;}
	.st31{fill:#B5B6B6;}
	.st32{fill:#B6E2EB;}
	.st33{fill:#886A29;}
	.st34{fill:#EBEDEF;}
	.st35{fill:#EBF6F9;}
	.st36{fill-rule:evenodd;clip-rule:evenodd;fill:#7D8880;}
	.st37{fill:#B9B9BA;}
	.st38{fill:#EDC92C;}
	.st39{fill:#504A2A;}
	.st40{fill:#EFC849;}
	.st41{fill:#55B966;}
	.st42{fill-rule:evenodd;clip-rule:evenodd;fill:#4B4A4B;}
	.st43{fill:#577D87;}
	.st44{fill:#58595A;}
	.st45{fill:#BBBCBB;}
	.st46{fill-rule:evenodd;clip-rule:evenodd;fill:#E84849;}
	.st47{fill:#202121;}
	.st48{fill:#F06668;}
	.st49{fill:#BFBEBE;}
	.st50{fill-rule:evenodd;clip-rule:evenodd;fill:#82725A;}
	.st51{fill:#231F20;}
	.st52{fill:#F2BE3E;}
	.st53{fill:#F2DE62;}
	.st54{fill:#F2EF8F;}
	.st55{fill:#F4E028;}
	.st56{fill:#5A5B5D;}
	.st57{fill-rule:evenodd;clip-rule:evenodd;fill:#B5B2B3;}
	.st58{opacity:0.4;clip-path:url(#SVGID_4_);fill:url(#SVGID_5_);}
	.st59{fill:#5B4F3F;}
	.st60{fill:#F6A2A3;}
	.st61{fill:#F6F6E7;}
	.st62{fill:#F7D98B;}
	.st63{fill:#5E8492;}
	.st64{fill:#F9F29A;}
	.st65{fill:#969595;}
	.st66{fill:#988534;}
	.st67{fill:#99999A;}
	.st68{fill:#FDF2F7;}
	.st69{fill:#FDF7FA;}
	.st70{fill:#2F6E77;}
	.st71{fill:#2F8442;}
	.st72{fill:#606060;}
	.st73{fill:#60C3B6;}
	.st74{fill-rule:evenodd;clip-rule:evenodd;fill:#F06668;}
	.st75{fill:none;stroke:#818282;stroke-miterlimit:10;}
	.st76{fill:#FFFFFF;}
	.st77{fill:#626463;}
	.st78{fill:#63BD6E;}
	.st79{fill-rule:evenodd;clip-rule:evenodd;fill:#245861;}
	.st80{fill:none;}
	.st81{fill:#9A866F;}
	.st82{clip-path:url(#SVGID_2_);fill:#90B9C0;}
	.st83{fill-rule:evenodd;clip-rule:evenodd;fill:#5B4F3F;}
	.st84{fill:#9B7842;}
	.st85{fill:#67B7C3;}
	.st86{fill:#67B8CB;}
	.st87{fill:#CC2027;}
	.st88{fill:#CDCDCE;}
	.st89{fill:#CE2F2E;}
	.st90{fill:#9F77AA;}
	.st91{opacity:0.7;fill:#FFFFFF;}
	.st92{fill-rule:evenodd;clip-rule:evenodd;fill:#C0BEBF;}
	.st93{fill:#333535;}
	.st94{fill:#357180;}
	.st95{opacity:0.4;clip-path:url(#SVGID_10_);fill:url(#SVGID_11_);}
	.st96{clip-path:url(#SVGID_2_);fill:#FFFFFF;}
	.st97{fill:#6CC077;}
	.st98{fill:#6EC2CB;}
	.st99{fill:#020202;}
	.st100{fill:#D32027;}
	.st101{fill:#D4A160;}
	.st102{fill:#D6E4F4;}
	.st103{fill:#D7D7D7;}
	.st104{fill:#D88080;}
	.st105{opacity:0.4;clip-path:url(#SVGID_7_);fill:url(#SVGID_8_);}
	.st106{fill-rule:evenodd;clip-rule:evenodd;fill:#CDCCCB;}
	.st107{fill:#A07238;}
	.st108{fill:#A2D4DE;}
	.st109{fill:#A3D4AA;}
	.st110{fill:#74C59C;}
	.st111{fill-rule:evenodd;clip-rule:evenodd;fill:#357180;}
	.st112{fill:#A4A5A4;}
	.st113{fill:#A5B6B9;}
	.st114{fill:#DAC425;}
	.st115{fill:#DBF0F5;}
	.st116{fill:#0EA24A;}
	.st117{fill:#DDDDDC;}
	.st118{fill:#DDDFDF;}
	.st119{fill:#40BCA3;}
	.st120{fill:#43A0AA;}
]]>
</style>
<g>
	<g>
		<circle class="st44" cx="68.417" cy="68.416" r="63.333"/>
	</g>
	<g>
		
			<rect x="99.666" y="104.672" transform="matrix(0.7426 -0.6697 0.6697 0.7426 -45.4608 97.3364)" class="st53" width="8.488" height="6.287"/>
		<polygon class="st15" points="104.971,108.121 102.804,113.054 68.961,118.459 64.344,90.171 63.677,86.083 104.668,79.539 
			105.335,83.626 109.203,107.324 		"/>
		<polygon class="st13" points="105.433,83.611 64.442,90.156 63.677,86.083 104.668,79.539 		"/>
		<g>
			
				<rect x="69.059" y="89.762" transform="matrix(0.9875 -0.1577 0.1577 0.9875 -13.2535 14.5847)" class="st66" width="32.391" height="2.05"/>
			
				<rect x="69.983" y="94.817" transform="matrix(0.9875 -0.1577 0.1577 0.9875 -14.0396 14.7944)" class="st66" width="32.393" height="2.049"/>
			
				<rect x="70.831" y="100.193" transform="matrix(0.9875 -0.1577 0.1577 0.9875 -14.8771 14.9955)" class="st66" width="32.393" height="2.049"/>
			
				<rect x="71.758" y="106.548" transform="matrix(0.9875 -0.1578 0.1578 0.9875 -15.9614 14.0773)" class="st66" width="17.857" height="2.051"/>
		</g>
	</g>
	<g>
		
			<rect x="48.421" y="77.475" transform="matrix(0.804 -0.5946 0.5946 0.804 -37.6138 47.1118)" class="st53" width="8.49" height="6.287"/>
		<polygon class="st15" points="53.69,81.026 51.057,85.727 16.85,87.828 14.726,55.094 56.158,52.548 57.98,80.642 		"/>
		<polygon class="st13" points="56.525,56.675 15.093,59.221 14.726,55.093 56.158,52.548 		"/>
		<g>
			
				<rect x="19.551" y="60.839" transform="matrix(0.9981 -0.0614 0.0614 0.9981 -3.7282 2.3097)" class="st66" width="32.391" height="2.05"/>
			
				<rect x="19.982" y="65.96" transform="matrix(0.9981 -0.0614 0.0614 0.9981 -4.0446 2.3476)" class="st66" width="32.39" height="2.049"/>
			
				<rect x="20.305" y="71.393" transform="matrix(0.9981 -0.0614 0.0614 0.9981 -4.3775 2.3777)" class="st66" width="32.391" height="2.049"/>
			
				<rect x="20.645" y="77.104" transform="matrix(0.9981 -0.0614 0.0614 0.9981 -4.7378 1.9617)" class="st66" width="17.859" height="2.05"/>
		</g>
	</g>
	<g>
		
			<rect x="97.299" y="50.328" transform="matrix(0.8681 -0.4964 0.4964 0.8681 -13.149 57.459)" class="st53" width="8.489" height="6.287"/>
		<polygon class="st15" points="102.513,53.996 99.346,58.355 65.13,56.437 66.852,23.68 108.297,26.002 106.818,54.117 		"/>
		<polygon class="st13" points="108.179,30.144 66.734,27.821 66.852,23.679 108.297,26.002 		"/>
		<g>
			
				<rect x="70.739" y="31.839" transform="matrix(0.9984 0.0559 -0.0559 0.9984 1.9734 -4.8092)" class="st66" width="32.391" height="2.05"/>
			
				<rect x="70.568" y="36.976" transform="matrix(0.9984 0.0559 -0.0559 0.9984 2.261 -4.7929)" class="st66" width="32.392" height="2.048"/>
			
				<rect x="70.253" y="42.408" transform="matrix(0.9984 0.0559 -0.0559 0.9984 2.5635 -4.7653)" class="st66" width="32.392" height="2.05"/>
			
				<rect x="69.973" y="47.27" transform="matrix(0.9984 0.0559 -0.0559 0.9984 2.8211 -4.3323)" class="st66" width="17.857" height="2.05"/>
		</g>
	</g>
</g>
</svg>
