<?xml version="1.0" encoding="utf-8"?>
<!-- Generator: Adobe Illustrator 16.0.0, SVG Export Plug-In . SVG Version: 6.00 Build 0)  -->
<!DOCTYPE svg PUBLIC "-//W3C//DTD SVG 1.1//EN" "http://www.w3.org/Graphics/SVG/1.1/DTD/svg11.dtd">
<svg version="1.1" id="Layer_1" xmlns="http://www.w3.org/2000/svg" xmlns:xlink="http://www.w3.org/1999/xlink" x="0px" y="0px"
	 width="136.834px" height="136.834px" viewBox="0 0 136.834 136.834" style="enable-background:new 0 0 136.834 136.834;"
	 xml:space="preserve">
<style type="text/css">
<![CDATA[
	.st0{fill:#473D2E;}
	.st1{opacity:0.25;fill:#EFEFEF;}
	.st2{fill:#7B6854;}
	.st3{fill:#AAAAAA;}
	.st4{fill:#48B15A;}
	.st5{fill:#49A0AE;}
	.st6{fill:#AD2728;}
	.st7{fill:none;stroke:#888887;stroke-miterlimit:10;}
	.st8{fill-rule:evenodd;clip-rule:evenodd;fill:#3F3F3E;}
	.st9{fill-rule:evenodd;clip-rule:evenodd;fill:#3F7D92;}
	.st10{fill:#AEACAC;}
	.st11{fill:#E58E8F;}
	.st12{fill:#4ABC96;}
	.st13{fill:#E5E65D;}
	.st14{fill:#4B4A4B;}
	.st15{fill:#E6E768;}
	.st16{fill:#E79E2D;}
	.st17{fill:#E7E7E7;}
	.st18{fill:#E84849;}
	.st19{fill:#E8E7E7;}
	.st20{fill:#4E4E4E;}
	.st21{fill:#E9E4B1;}
	.st22{fill:#E9E9EA;}
	.st23{fill:#80702C;}
	.st24{fill:#807F7F;}
	.st25{fill:#818282;}
	.st26{fill:#82725A;}
	.st27{opacity:0.15;}
	.st28{fill:#83CECA;}
	.st29{fill:#B3DCE2;}
	.st30{fill:#1A3940;}
	.st31{fill:#B5B6B6;}
	.st32{fill:#B6E2EB;}
	.st33{fill:#886A29;}
	.st34{fill:#EBEDEF;}
	.st35{fill:#EBF6F9;}
	.st36{fill-rule:evenodd;clip-rule:evenodd;fill:#7D8880;}
	.st37{fill:#B9B9BA;}
	.st38{fill:#EDC92C;}
	.st39{fill:#504A2A;}
	.st40{fill:#EFC849;}
	.st41{fill:#55B966;}
	.st42{fill-rule:evenodd;clip-rule:evenodd;fill:#4B4A4B;}
	.st43{fill:#577D87;}
	.st44{fill:#58595A;}
	.st45{fill:#BBBCBB;}
	.st46{fill-rule:evenodd;clip-rule:evenodd;fill:#E84849;}
	.st47{fill:#202121;}
	.st48{fill:#F06668;}
	.st49{fill:#BFBEBE;}
	.st50{fill-rule:evenodd;clip-rule:evenodd;fill:#82725A;}
	.st51{fill:#231F20;}
	.st52{fill:#F2BE3E;}
	.st53{fill:#F2DE62;}
	.st54{fill:#F2EF8F;}
	.st55{fill:#F4E028;}
	.st56{fill:#5A5B5D;}
	.st57{fill-rule:evenodd;clip-rule:evenodd;fill:#B5B2B3;}
	.st58{opacity:0.4;clip-path:url(#SVGID_4_);fill:url(#SVGID_5_);}
	.st59{fill:#5B4F3F;}
	.st60{fill:#F6A2A3;}
	.st61{fill:#F6F6E7;}
	.st62{fill:#F7D98B;}
	.st63{fill:#5E8492;}
	.st64{fill:#F9F29A;}
	.st65{fill:#969595;}
	.st66{fill:#988534;}
	.st67{fill:#99999A;}
	.st68{fill:#FDF2F7;}
	.st69{fill:#FDF7FA;}
	.st70{fill:#2F6E77;}
	.st71{fill:#2F8442;}
	.st72{fill:#606060;}
	.st73{fill:#60C3B6;}
	.st74{fill-rule:evenodd;clip-rule:evenodd;fill:#F06668;}
	.st75{fill:none;stroke:#818282;stroke-miterlimit:10;}
	.st76{fill:#FFFFFF;}
	.st77{fill:#626463;}
	.st78{fill:#63BD6E;}
	.st79{fill-rule:evenodd;clip-rule:evenodd;fill:#245861;}
	.st80{fill:none;}
	.st81{fill:#9A866F;}
	.st82{clip-path:url(#SVGID_2_);fill:#90B9C0;}
	.st83{fill-rule:evenodd;clip-rule:evenodd;fill:#5B4F3F;}
	.st84{fill:#9B7842;}
	.st85{fill:#67B7C3;}
	.st86{fill:#67B8CB;}
	.st87{fill:#CC2027;}
	.st88{fill:#CDCDCE;}
	.st89{fill:#CE2F2E;}
	.st90{fill:#9F77AA;}
	.st91{opacity:0.7;fill:#FFFFFF;}
	.st92{fill-rule:evenodd;clip-rule:evenodd;fill:#C0BEBF;}
	.st93{fill:#333535;}
	.st94{fill:#357180;}
	.st95{opacity:0.4;clip-path:url(#SVGID_10_);fill:url(#SVGID_11_);}
	.st96{clip-path:url(#SVGID_2_);fill:#FFFFFF;}
	.st97{fill:#6CC077;}
	.st98{fill:#6EC2CB;}
	.st99{fill:#020202;}
	.st100{fill:#D32027;}
	.st101{fill:#D4A160;}
	.st102{fill:#D6E4F4;}
	.st103{fill:#D7D7D7;}
	.st104{fill:#D88080;}
	.st105{opacity:0.4;clip-path:url(#SVGID_7_);fill:url(#SVGID_8_);}
	.st106{fill-rule:evenodd;clip-rule:evenodd;fill:#CDCCCB;}
	.st107{fill:#A07238;}
	.st108{fill:#A2D4DE;}
	.st109{fill:#A3D4AA;}
	.st110{fill:#74C59C;}
	.st111{fill-rule:evenodd;clip-rule:evenodd;fill:#357180;}
	.st112{fill:#A4A5A4;}
	.st113{fill:#A5B6B9;}
	.st114{fill:#DAC425;}
	.st115{fill:#DBF0F5;}
	.st116{fill:#0EA24A;}
	.st117{fill:#DDDDDC;}
	.st118{fill:#DDDFDF;}
	.st119{fill:#40BCA3;}
	.st120{fill:#43A0AA;}
]]>
</style>
<g>
	<g>
		<g>
			<circle class="st5" cx="68.417" cy="68.416" r="63.333"/>
		</g>
	</g>
	<g>
		<polygon class="st45" points="106.411,36.393 108.044,38.116 105.982,48.73 105.006,37.234 		"/>
		<g>
			<g>
				<polygon class="st10" points="105.839,48.405 28.578,48.444 32.653,95.461 111.591,95.422 				"/>
				<polygon class="st100" points="105.838,48.405 28.578,48.444 29.149,36.432 106.411,36.393 				"/>
				<polygon class="st45" points="105.839,48.405 28.578,48.444 30.13,98.54 107.393,98.501 				"/>
				<polygon class="st34" points="105.839,48.405 28.578,48.444 25.936,96.329 92.057,96.295 95.24,88.156 101.793,88.755 				"/>
			</g>
			<polygon class="st10" points="91.696,96.291 95.24,88.156 101.75,88.59 			"/>
		</g>
		<g>
			<path class="st37" d="M43.123,60.721c0,1.426-1.087,2.581-2.428,2.581h-7.159c-1.343,0-2.429-1.155-2.429-2.581l0.465-4.409
				c0-1.425,1.087-2.581,2.428-2.581h7.159c1.342,0,2.429,1.156,2.429,2.581L43.123,60.721z"/>
			<path class="st37" d="M57.446,60.721c0,1.426-1.086,2.581-2.427,2.581h-7.161c-1.341,0-2.428-1.155-2.428-2.581l0.465-4.409
				c0-1.425,1.087-2.581,2.428-2.581h7.16c1.342,0,2.429,1.156,2.429,2.581L57.446,60.721z"/>
			<path class="st37" d="M72.059,60.721c0,1.426-1.087,2.581-2.428,2.581h-7.159c-1.341,0-2.427-1.155-2.427-2.581l0.464-4.409
				c0-1.425,1.087-2.581,2.428-2.581h7.158c1.342,0,2.429,1.156,2.429,2.581L72.059,60.721z"/>
			<path class="st37" d="M86.673,60.721c0,1.426-1.087,2.581-2.429,2.581h-7.158c-1.341,0-2.428-1.155-2.428-2.581l0.464-4.409
				c0-1.425,1.087-2.581,2.429-2.581h7.158c1.341,0,2.427,1.156,2.427,2.581L86.673,60.721z"/>
			<path class="st37" d="M101.142,60.567c0,1.426-1.087,2.581-2.428,2.581h-7.16c-1.341,0-2.428-1.155-2.428-2.581l0.464-4.409
				c0-1.425,1.087-2.581,2.429-2.581h7.159c1.342,0,2.428,1.156,2.428,2.581L101.142,60.567z"/>
		</g>
		<g>
			<path class="st37" d="M42.109,72.875c0,1.426-1.087,2.581-2.428,2.581h-7.16c-1.342,0-2.428-1.155-2.428-2.581l0.465-4.409
				c0-1.425,1.086-2.581,2.427-2.581h7.16c1.342,0,2.429,1.156,2.429,2.581L42.109,72.875z"/>
			<path class="st37" d="M56.433,72.875c0,1.426-1.086,2.581-2.428,2.581h-7.16c-1.341,0-2.428-1.155-2.428-2.581l0.465-4.409
				c0-1.425,1.087-2.581,2.428-2.581h7.16c1.342,0,2.428,1.156,2.428,2.581L56.433,72.875z"/>
			<path class="st37" d="M71.045,72.875c0,1.426-1.087,2.581-2.429,2.581h-7.158c-1.341,0-2.428-1.155-2.428-2.581l0.464-4.409
				c0-1.425,1.087-2.581,2.429-2.581h7.158c1.341,0,2.428,1.156,2.428,2.581L71.045,72.875z"/>
			<path class="st37" d="M85.657,72.875c0,1.426-1.086,2.581-2.427,2.581h-7.158c-1.341,0-2.429-1.155-2.429-2.581l0.465-4.409
				c0-1.425,1.087-2.581,2.428-2.581h7.159c1.341,0,2.428,1.156,2.428,2.581L85.657,72.875z"/>
			<path class="st37" d="M100.127,72.72c0,1.426-1.087,2.581-2.428,2.581H90.54c-1.342,0-2.429-1.155-2.429-2.581l0.465-4.409
				c0-1.425,1.087-2.581,2.428-2.581h7.161c1.341,0,2.427,1.156,2.427,2.581L100.127,72.72z"/>
		</g>
		<g>
			<path class="st37" d="M40.951,85.172c0,1.426-1.086,2.581-2.428,2.581h-7.158c-1.341,0-2.428-1.155-2.428-2.581l0.464-4.409
				c0-1.425,1.087-2.581,2.429-2.581h7.158c1.341,0,2.427,1.155,2.427,2.581L40.951,85.172z"/>
			<path class="st37" d="M55.275,85.172c0,1.426-1.087,2.581-2.429,2.581h-7.158c-1.341,0-2.428-1.155-2.428-2.581l0.464-4.409
				c0-1.425,1.087-2.581,2.429-2.581h7.158c1.341,0,2.428,1.155,2.428,2.581L55.275,85.172z"/>
			<path class="st37" d="M69.888,85.172c0,1.426-1.087,2.581-2.428,2.581h-7.159c-1.341,0-2.428-1.155-2.428-2.581l0.464-4.409
				c0-1.425,1.087-2.581,2.429-2.581h7.159c1.341,0,2.428,1.155,2.428,2.581L69.888,85.172z"/>
			<path class="st37" d="M84.502,85.172c0,1.426-1.087,2.581-2.428,2.581h-7.16c-1.342,0-2.429-1.155-2.429-2.581l0.465-4.409
				c0-1.425,1.087-2.581,2.428-2.581h7.16c1.342,0,2.429,1.155,2.429,2.581L84.502,85.172z"/>
			<path class="st37" d="M98.97,85.018c0,1.426-1.087,2.581-2.428,2.581h-7.159c-1.341,0-2.428-1.155-2.428-2.581l0.465-4.409
				c0-1.425,1.087-2.581,2.428-2.581h7.159c1.341,0,2.428,1.156,2.428,2.581L98.97,85.018z"/>
		</g>
	</g>
</g>
</svg>
