<?xml version="1.0" encoding="utf-8"?>
<!-- Generator: Adobe Illustrator 16.0.0, SVG Export Plug-In . SVG Version: 6.00 Build 0)  -->
<!DOCTYPE svg PUBLIC "-//W3C//DTD SVG 1.1//EN" "http://www.w3.org/Graphics/SVG/1.1/DTD/svg11.dtd">
<svg version="1.1" id="Layer_1" xmlns="http://www.w3.org/2000/svg" xmlns:xlink="http://www.w3.org/1999/xlink" x="0px" y="0px"
	 width="512px" height="512px" viewBox="0 0 512 512" style="enable-background:new 0 0 512 512;" xml:space="preserve">
<style type="text/css">
<![CDATA[
	.st0{fill:#7A7A7A;}
	.st1{fill:#474645;}
	.st2{fill:#AA701B;}
	.st3{fill:#AAA493;}
	.st4{fill:#48A1AF;}
	.st5{fill:#493E30;}
	.st6{fill:#AF731B;}
	.st7{fill:#E0942F;}
	.st8{fill:#AFAAA3;}
	.st9{fill:#E09C4B;}
	.st10{fill:#E2E2E2;}
	.st11{fill:#4ABC96;}
	.st12{fill:#E5AA17;}
	.st13{fill:#E79E2F;}
	.st14{fill:#191919;}
	.st15{fill:#E8CD07;}
	.st16{fill:#E8E5DA;}
	.st17{fill:#E8E8E8;}
	.st18{fill:#4F4F4F;}
	.st19{fill:#B04902;}
	.st20{fill:#826A4D;}
	.st21{fill:#B2751B;}
	.st22{fill:#835A00;}
	.st23{fill:#843C0B;}
	.st24{fill:#847741;}
	.st25{fill:#84AF92;}
	.st26{fill:#85B06E;}
	.st27{fill:#1A6A96;}
	.st28{fill:#B58841;}
	.st29{fill:#EA4949;}
	.st30{fill:#875513;}
	.st31{fill:#EAAA54;}
	.st32{fill:#87C69E;}
	.st33{fill:#EAE2D6;}
	.st34{fill:#EDC92F;}
	.st35{fill:#EEF471;}
	.st36{fill:#EFB76C;}
	.st37{fill:#EFEFEF;}
	.st38{fill:#565553;}
	.st39{fill:#BA4511;}
	.st40{fill:#BA6D20;}
	.st41{fill:#57843A;}
	.st42{fill:#BC9042;}
	.st43{fill:#BE802B;}
	.st44{fill:#BF801B;}
	.st45{fill:#BF832C;}
	.st46{fill:#22A85B;}
	.st47{fill:#258ACE;}
	.st48{fill:#F4F4F4;}
	.st49{fill:#5B2C12;}
	.st50{fill:#F7D0A1;}
	.st51{fill:#5D963E;}
	.st52{fill:#29C183;}
	.st53{fill:#5E5E5E;}
	.st54{fill:#F9CC91;}
	.st55{fill:#F9F3DC;}
	.st56{fill:#915412;}
	.st57{fill:#91581A;}
	.st58{fill:#919191;}
	.st59{fill:#C1C1C1;}
	.st60{fill:#93783D;}
	.st61{fill:#C2C6C5;}
	.st62{fill:#C4C4C4;}
	.st63{fill:#2A7CA0;}
	.st64{fill:#96744B;}
	.st65{fill:#C68932;}
	.st66{fill:#C69422;}
	.st67{fill:#996304;}
	.st68{fill:#C8D6D4;}
	.st69{fill:#FCC677;}
	.st70{fill:#60390B;}
	.st71{fill:#606060;}
	.st72{fill:#FFFAE6;}
	.st73{fill:#FFFFFF;}
	.st74{fill:#632D08;}
	.st75{fill:#63492E;}
	.st76{fill:#635021;}
	.st77{fill:none;}
	.st78{fill:#663514;}
	.st79{fill:#9B581C;}
	.st80{fill:#CC5215;}
	.st81{fill:#9D633C;}
	.st82{fill:#CCAC0D;}
	.st83{fill:#CCB2AC;}
	.st84{fill:#CE8F20;}
	.st85{fill:#327F32;}
	.st86{fill:#337180;}
	.st87{fill:#347C0E;}
	.st88{fill:#349B34;}
	.st89{fill:#352E28;}
	.st90{fill:#353535;}
	.st91{fill:#357D8E;}
	.st92{fill:#368736;}
	.st93{fill:#378299;}
	.st94{fill:#379137;}
	.st95{fill:#6B6B6A;}
	.st96{fill:#D1814B;}
	.st97{fill:#D19433;}
	.st98{fill:#D1D1D1;}
	.st99{fill:#D37611;}
	.st100{fill:#D3C0A9;}
	.st101{fill:#D3D2D1;}
	.st102{fill:#D3D3D3;}
	.st103{fill:#D6AFE2;}
	.st104{fill:#D6E5E4;}
	.st105{fill:#D8DBBA;}
	.st106{fill:#3F8CAA;}
	.st107{fill:#3FACE8;}
	.st108{fill:#72480E;}
	.st109{fill:#724C00;}
	.st110{fill:#A39E93;}
	.st111{fill:#A3D5E0;}
	.st112{fill:#776046;}
	.st113{fill:#77B78D;}
	.st114{fill:#DB5B23;}
	.st115{fill:#A87D3D;}
	.st116{fill:#A8A398;}
	.st117{fill:#DD6B03;}
	.st118{fill:#DD8645;}
	.st119{fill:#DDB9B3;}
	.st120{fill:#DDBF0B;}
	.st121{fill:#DDDDDD;}
	.st122{fill:#421E06;}
	.st123{fill:#429B42;}
	.st124{fill:#4397AA;}
]]>
</style>
<g>
	<g>
		<g>
			<path class="st111" d="M255.998,7.922C118.993,7.922,7.921,118.984,7.921,256.004c0,137.004,111.071,248.074,248.076,248.074
				c137.012,0,248.081-111.07,248.081-248.074C504.079,118.984,393.009,7.922,255.998,7.922z"/>
		</g>
	</g>
	<g>
		<g>
			<g>
				<path class="st12" d="M256,105.665c0,0-151.866,126.003-151.866,138.848v120.816c0,12.845,10.412,23.265,23.262,23.265h81.613
					v-72.129c0-16.777,13.599-30.372,30.374-30.372h34.167c16.771,0,30.374,13.595,30.374,30.372v72.129h83.215
					c12.845,0,23.259-10.42,23.259-23.265V244.513C410.397,231.667,256,105.665,256,105.665z"/>
			</g>
		</g>
		<g>
			<g>
				<g>
					<path class="st66" d="M444.323,237.268L267.417,84.431c-6.683-5.772-16.773-5.038-22.544,1.641
						c-5.771,6.687-5.034,16.778,1.648,22.546l176.905,152.837c6.682,5.769,16.772,5.03,22.541-1.648
						C451.739,253.124,451.003,243.036,444.323,237.268z"/>
				</g>
			</g>
			<g>
				<g>
					<path class="st66" d="M269.716,86.071c-5.769-6.679-15.857-7.413-22.538-1.641L70.267,237.268
						c-6.68,5.769-7.416,15.856-1.646,22.539c5.769,6.679,15.859,7.417,22.54,1.648L268.07,108.618
						C274.752,102.849,275.489,92.758,269.716,86.071z"/>
				</g>
			</g>
		</g>
	</g>
</g>
</svg>
