<?xml version="1.0" encoding="utf-8"?>
<!-- Generator: Adobe Illustrator 16.0.0, SVG Export Plug-In . SVG Version: 6.00 Build 0)  -->
<!DOCTYPE svg PUBLIC "-//W3C//DTD SVG 1.1//EN" "http://www.w3.org/Graphics/SVG/1.1/DTD/svg11.dtd">
<svg version="1.1" id="Layer_1" xmlns="http://www.w3.org/2000/svg" xmlns:xlink="http://www.w3.org/1999/xlink" x="0px" y="0px"
	 width="512px" height="512px" viewBox="0 0 512 512" enable-background="new 0 0 512 512" xml:space="preserve">
<g>
	<path fill="#F26324" d="M504.079,255.998c0,137.007-111.065,248.083-248.079,248.083S7.921,393.005,7.921,255.998
		S118.986,7.919,256,7.919S504.079,118.991,504.079,255.998z"/>
	<path fill="#F26324" d="M504.079,255.998c0,137.007-111.065,248.083-248.079,248.083S7.921,393.005,7.921,255.998
		S118.986,7.919,256,7.919S504.079,118.991,504.079,255.998z"/>
	<path fill="#F68B1F" d="M141.651,59.582c-14.839,0-29.294,1.662-43.19,4.778c-55.283,45.499-90.54,114.45-90.54,191.638
		c0,77.343,35.397,146.412,90.862,191.904c13.803,3.069,28.144,4.697,42.868,4.697c108.527,0,196.51-87.972,196.51-196.507
		C338.161,147.564,250.179,59.582,141.651,59.582z"/>
	<path fill="#FEBC12" d="M256,256.092c0,63.157-51.191,114.355-114.349,114.355S27.302,319.25,27.302,256.092
		c0-63.15,51.192-114.349,114.35-114.349S256,192.942,256,256.092z"/>
	<path fill="#E7E515" d="M215.3,256.092c0,40.681-32.976,73.648-73.648,73.648c-40.674,0-73.648-32.968-73.648-73.648
		c0-40.673,32.975-73.648,73.648-73.648C182.324,182.444,215.3,215.419,215.3,256.092z"/>
	<path fill="#EEB738" d="M502.901,280.198c-51.219-5.249-106.725-8.123-164.692-8.123c-126.228,0-240.758,13.621-324.851,35.761
		C37.194,419.961,136.766,504.081,256,504.081C384.845,504.081,490.734,405.856,502.901,280.198z"/>
	<g>
		<path fill="#5D5F57" d="M367.818,168.251c-0.391,0.195-0.78,0.195-1.07,0.383c-0.094,0-0.094,0-0.094,0
			c-2.039,0.68-3.008,0.969-3.008,0.969c-0.289,0-0.484-0.188-0.969-0.484c-0.485-0.384-1.259-0.485-2.229-0.485
			c-0.484,0-1.353,0.101-2.321,0.485c-0.969,0.296-1.453,0.484-1.648,0.585c-0.29-0.289-0.875-0.585-1.743-1.07
			c-0.101-0.094-0.101-0.188-0.101-0.188c-1.063-0.68-1.838-0.969-2.228-0.969c-1.063,0-1.938,0.29-2.618,1.063
			c-0.774,0.68-1.454,1.063-1.743,1.063c-0.391,0-0.68-0.188-0.875-0.384c-0.188-0.289-0.673-0.39-1.453-0.484
			c-0.188-0.29-0.773-0.969-1.938-1.844c-0.578-0.485-1.063-0.774-1.258-1.063c-0.485-0.29-0.579-0.484-0.579-0.585
			c0-0.29,0-0.485,0.094-0.485l0,0h2.908c0.194,0,0.773,0.195,1.742,0.485c0.68,0.195,1.164,0.296,1.454,0.296
			c0.39,0,1.648-0.875,3.782-2.618c0.289,0,0.484,0.195,0.874,0.384c0.384,0.101,0.673,0.195,0.868,0.195
			c1.259,0,2.228-0.579,3.009-1.648c0.578-0.868,0.868-1.743,0.868-2.611c0-0.969-0.68-2.234-2.322-3.688
			c-1.648-1.642-3.297-2.517-5.142-2.517c-0.969,0-1.743,0.195-2.423,0.579c-0.672,0.485-0.969,0.68-1.062,0.68
			c-0.195,0-0.579-0.195-1.164-0.383c-0.68-0.391-1.164-0.68-1.649-0.68c-1.743-0.29-2.907-0.29-3.681-0.101
			c-0.484,0.195-0.774,0.101-1.164-0.094c-1.548-0.969-4.064-1.743-7.652-2.228c-1.359,0.094-2.812,0.868-4.461,2.517
			c-1.643,1.554-4.064,2.618-7.073,3.008c-0.773,0-1.648,0.485-2.617,1.158c-0.774,0.484-1.259,1.07-1.938,1.75
			c-0.579,0.673-2.127,1.158-4.65,1.454c-2.517,0.094-3.971,0.188-4.36,0.29c-2.322,0.868-5.33,2.032-9.206,3.291
			c-3.291,1.164-5.041,1.649-5.135,1.649c-0.195,0-0.68-0.195-1.548-0.485c-0.78-0.383-1.266-0.68-1.75-0.68
			c-1.642,0-3.681,0.781-5.814,2.234c-2.126,1.548-6.003,2.322-11.628,2.322c-0.188-0.29-0.29-0.484-0.485-0.68
			c-0.289-0.484-0.969-0.673-1.742-0.673c-0.97,0-1.938,0.484-2.907,1.353c-0.868,0.774-1.259,1.454-1.259,2.039
			c0,0.969,0.289,1.642,0.68,2.228c0.579,0.68,1.548,1.353,3.196,1.837c0.095,0.101,0.391,0.101,1.063,0.101
			c0.484,0,1.164,0,2.134,0c0.289,0,0.585,0,0.969,0.094c0.969,0.101,1.743,0.39,2.228,0.969c0.484,0.585,0.68,0.875,0.969,1.07
			c-0.289,0.188-0.484,0.29-0.484,0.485c-1.157-2.423-3.196-2.719-5.814-1.07c-2.611,1.743-3.876,3.978-3.876,6.884
			c0,0.673,0.296,1.454,0.78,2.126h0.095l-0.68,0.485c-1.649-0.579-3.877-0.673-6.299-0.485c-0.774,0-1.649,0.101-2.423,0.296
			c-0.68,0.188-1.164,0.29-1.649,0.383c-0.289,0.102-0.578,0.102-0.773,0.195c-0.484,0.094-0.68,0.29-0.969,0.391
			c-0.68-0.195-1.353-0.296-2.228-0.391c-0.875-0.195-1.649-0.195-2.329,0c-1.742,0.094-2.712,0.774-2.712,1.649l0.195,0.579
			c0.29,0.391,0.68,0.585,1.359,0.585c0.484,0,1.643-0.195,3.682-0.585c0.094,0.585,0.383,0.969,0.969,1.454
			c1.259,0.774,3.485,1.454,6.683,2.039c-0.095,0.579,0,1.158,0.391,1.938c0.39,0.673,0.969,1.259,1.547,1.642
			c-0.578,0.195-2.517,0.585-5.814,1.165c-0.289,0.101-0.484,0.101-0.673,0.289c-0.194,0.195-0.296,0.484-0.296,0.875
			c0,0.094,0.102,0.289,0.391,0.68c0.195,0.289,0.391,0.68,0.391,1.063c-0.875,0.289-1.938,0.585-3.298,0.875
			c-0.68-0.101-0.969-0.29-0.969-0.585c0-0.868,0.578-1.548,1.648-2.126c1.164-0.68,1.648-1.265,1.648-1.75
			c-0.585-1.938-2.523-2.807-5.626-2.807c-2.517,0-4.36,0.384-5.424,1.259l-1.648,1.063c-0.195,0-1.454-1.158-3.775-3.681l0,0
			c-0.102-0.195-0.195-0.289-0.296-0.384c0,0-0.095,0-0.095-0.101c-2.517-2.618-5.235-3.971-8.331-3.971
			c-0.78,0-1.75,0.485-3.008,1.353c0,0.102-0.095,0.102-0.095,0.195c-0.68,0.391-1.453,0.969-2.328,1.743
			c-2.423,2.133-3.682,3.392-3.682,3.978c0,0.094,0.095,0.289,0.095,0.773c0.391,0.484,1.265,0.68,2.719,0.68
			c2.032,0,3.971-0.39,6.003-1.359c0-0.094,0.101-0.094,0.195-0.094c0.101-0.102,0.39-0.195,0.68-0.29
			c1.062-0.68,2.517-1.453,4.071-2.422v0.188c0,0.296,0.094,0.781,0.195,1.165c0.188,0.101,0.188,0.289,0.188,0.289
			c0.101,0.101,0.194,0.195,0.194,0.296c0,0,0.102,0.188,0.195,0.188c0.391,0.875,0.579,1.266,0.579,1.359
			c0,0.094,0,0.579-0.289,1.548c0.194,0.969,1.069,1.454,2.712,1.454c0.39,0,1.453-0.094,2.907-0.188c0,0.094,0,0.29-0.29,0.485
			c0,0.094-0.868,0.578-2.517,1.548c-0.773,0.39-1.07,0.875-1.07,1.258c0,0.485-1.353,0.875-4.064,1.07
			c-3.203,0.188-5.431,0.969-6.595,2.423c-0.579,0.673-1.837,1.453-3.775,2.228c-1.555,0.578-2.134,1.164-2.134,1.837
			c0,0.484,0.095,0.875,0.391,1.164c0.579,0.586,1.938,0.875,4.064,0.875c0.875,0,1.938-0.101,3.204-0.391
			c1.157-0.383,2.806-0.484,4.744-0.484c0.195,0,0.68,0.29,1.743,0.774c1.265,0.39,2.617,0.585,4.071,0.585c0.194,0,0.289,0,0.585,0
			c0.673,0.868,1.938,1.938,3.58,3.392c0.195-0.101,0.195-0.101,0.297-0.101c0.094,0.296,0.673,0.78,1.938,1.648
			c0,0.101,0.188,0.101,0.188,0.195h0.195c0,0.094,0,0.094,0.101,0.094c1.158,0.781,2.032,1.265,2.611,1.265
			c0.101,0,0.484,0,1.07-0.101c0.195,0.195,0.383,0.39,0.68,0.773l0,0h0.188v0.101c0.194,0.195,0.585,0.68,0.969,0.969
			c0.296,0.195,0.484,0.384,0.78,0.68c2.423,1.837,3.775,2.907,3.877,3.096c0.188,0.296,0.383,0.585,0.484,0.875
			c0.094,0.29,0.094,0.579,0.094,1.063c0.579,0.585,2.712,0.969,6.205,0.969c0.673,0,1.642,0.484,3.096,1.265
			c0.484,0.29,0.78,0.484,1.359,0.673l0,0c0.094,0,0.094,0,0.094,0.102c0.484,0.195,0.969,0.289,1.454,0.383
			c0.68,0.101,1.453,0.195,2.133,0.195c0.484,0,1.359-0.195,2.423-0.68c1.164-0.383,1.938-0.578,2.423-0.578
			c0.194,0,0.289,0.094,0.289,0.094c0.875,0.68,1.938,1.359,3.298,2.234c1.548,1.063,3.001,1.938,4.165,2.423
			c0.484,0.673,1.07,1.353,1.743,2.228c1.648,2.032,3.587,3.291,6.01,3.681c0.101,0,1.069-0.094,3.102-0.195
			c1.359-0.195,2.229,0.102,2.713,0.875c0.195,0.484,0.289,0.868,0.289,0.969c0,0.094,0.195,0.383,0.391,1.063
			c0.289,0.68,0.773,1.07,1.453,1.07c0,0,0.095,0,0.095-0.101c1.453,2.039,4.751,4.845,9.886,8.042
			c3.196,2.039,6.104,3.688,8.627,4.657c-1.07,2.127-1.648,3.096-1.743,3.196c-0.78,1.649-1.069,3.103-1.069,4.072
			c0,2.517,1.258,5.518,3.681,8.91c0.969,1.266,2.523,2.907,4.845,5.041c0.781,0.773,1.454,1.359,2.039,1.743
			c0.195,0.484,0.384,0.969,0.579,1.454c0.774,1.844,1.07,2.907,1.07,3.008c0,0.195-0.101,0.68-0.296,1.165
			c-0.29,0.673-0.29,1.063-0.29,1.258c0,0.868,0.485,2.322,1.454,4.071c1.258,2.228,2.039,3.775,2.228,4.361
			c0.296,0.673,1.453,1.938,3.587,3.876c2.133,1.938,3.392,3.392,3.876,4.36c0.289,0.969,1.938,4.361,4.65,10.175
			c1.938,4.26,3.008,6.487,3.008,6.683c0,0.969-0.774,1.938-2.328,2.813c-1.649,1.063-2.423,1.837-2.423,2.321
			c0,0.102,0,0.102,0,0.195c-0.68,0.101-1.454,0.391-2.322,0.586c-2.133,0.773-3.586,1.157-4.266,1.258
			c-6.494,0.68-10.371,1.063-11.535,1.165c-1.157,0-1.743,0.484-1.743,1.063c0,0.195-0.094,0.485-0.194,0.875
			c0.101,0.188,0.296,0.29,0.874,0.29c0.774,0.195,4.267,0.29,10.27,0.29v0.094l0.195,0.586c0.484,0.578,1.454,0.773,3.103,0.773
			c0.484,0,3.681-0.195,9.495-0.579c0.195,0,0.68,0.188,1.454,0.579c0.969,0.391,1.453,0.579,1.742,0.579
			c1.164,0,2.423-0.188,3.393-0.579c0.68-0.195,1.069-0.39,1.554-0.579c0.579-0.296,0.97-0.39,1.353-0.484
			c0.68,0.188,1.359,0.484,1.938,0.579c0.101,0.094,0.195,0.289,0.484,0.391c0.195,0.383,0.68,0.383,1.164,0
			c1.259,0.094,2.329,0.188,3.392,0.188c1.938,0,3.682-0.579,5.33-1.837c0.102,0,0.289,0,0.289-0.101
			c0.195,0,0.297-0.094,0.485-0.188c1.164-0.484,1.648-0.78,1.648-1.07c0-0.195,0-0.384,0-0.384h-0.195c0,0-0.094,0-0.188,0
			c0-0.101,0-0.195,0.095-0.195c1.164,0.383,2.228,0.773,3.196,1.258c0.484,0.39,1.359,0.875,2.618,1.649
			c1.258,0.773,2.422,1.353,3.587,1.743h4.744c0.484-0.195,1.453-0.39,3.008-0.774c0.969-0.289,1.938-0.585,3.002-1.07
			c0.484-0.094,2.227-0.094,5.04,0c2.423,0.296,4.071-0.188,4.939-1.063c-0.484-0.68-1.743-1.164-3.681-1.548
			c-1.454-0.39-2.423-0.484-3.103-0.484c-1.157,0-2.423,0.188-4.065,0.774c-1.554,0.579-2.906,0.868-3.977,0.868
			c-1.548,0-3.587-0.384-6.104-1.158c-2.423-0.875-3.971-1.454-4.65-1.554c-3.298-0.969-5.041-1.548-5.135-1.548
			c-0.101,0-0.101,0-0.101,0c0.101-0.29,0.194-0.586,0.194-0.875v-0.094c0.391,0,0.68-0.101,0.774-0.29
			c-0.774-0.875-2.517-2.618-5.229-4.946c-2.329-2.133-3.978-3.775-4.846-5.04c-0.875-1.353-1.75-3.001-2.523-5.034
			c-0.969-2.039-1.743-3.782-2.618-5.141c-5.229-11.528-7.752-18.311-7.752-20.35l-0.484-6.783c0-1.063,0.68-3.197,2.133-6.299
			c1.359-3.197,2.039-5.229,2.039-5.814c0-2.423-0.484-2.907-1.453-1.454c-0.102,0.101-0.102,0.101-0.102,0.195
			c-0.195-0.289-0.68-0.484-1.164-0.484c-1.063,0-1.938,0.774-2.423,2.328c-0.289,0.868-0.484,1.837-0.773,2.807
			c-0.484-0.673-0.97-1.454-1.164-2.611c-0.485-1.75-0.673-2.719-0.774-2.907c-1.164-2.039-2.133-3.203-2.517-3.876
			c-0.195,0-0.289-0.195-0.391-0.195c-0.195-2.228,1.454-4.946,4.846-8.143c2.133-2.032,5.235-4.846,9.401-8.331
			c0.773-0.774,2.133-2.228,3.97-4.462c1.649-1.743,2.907-3.096,4.071-4.064c0.485-0.485,0.97-1.266,1.454-2.234
			c0.68-1.158,1.164-1.938,1.454-2.322c0.585-0.68,1.258-1.164,2.133-1.554c0.773-0.29,3.001-1.158,6.783-2.422
			c3.971-1.259,6.104-3.775,6.394-7.652c0-2.227,0-3.782,0-4.751c0-1.353,0.194-2.517,0.39-3.291l0,0
			c0,0.383,0.095,0.578,0.29,0.673c0,0,0.289,0,0.68,0c0.289-0.188,0.68-0.29,1.063-0.484c0.101,0.484,0.296,0.78,0.68,1.164v-0.29
			c0-0.29,0-0.579,0.101-0.969c0.868-0.094,1.837-0.289,3.001-0.289v-0.391c-0.68-0.579-1.359-0.868-2.328-0.868
			c0.195-0.39,0.484-0.78,0.969-1.265c0-0.188,0.195-0.29,0.297-0.384c0.188,0,0.484,0.094,0.867,0.094
			c0.484,0,0.586-0.094,0.484-0.195c-0.194-1.258,0.774-3.095,3.197-5.229c-0.969-0.101-2.127,0.384-3.392,1.454
			c-1.353,1.063-2.032,1.837-2.032,2.422c0,0.383,0.094,0.68,0.094,0.868c0.102,0,0.102,0,0.195,0.101h-0.094
			c-0.586,0.868-1.07,1.548-1.359,2.133c-0.195,0-0.384,0-0.485,0.095c-1.164,0.195-1.938,0.578-2.133,0.969
			c0-0.195,0.195-0.579,0.296-0.875c1.837-3.876,3.775-6.683,6.198-8.62c0.585-0.391,2.712-1.359,6.204-2.907
			c1.353-0.586,2.518-1.164,3.392-1.743c0,0,0,0,0.095,0c1.164-0.78,2.039-1.454,2.523-2.133c0.094,0,0.188,0.29,0.188,0.68
			c0.101,0.188,0.296,0.383,0.68,0.383c0.391,0,0.68-0.094,1.07-0.094h0.188l0,0c1.164-0.391,2.422-1.07,3.977-2.039
			c0.384,0.875,1.649,1.453,3.682,1.648c0.578,0.101,1.938,0.101,4.165,0.101c0.29,0,0.97-0.296,1.743-0.68
			c0.68-0.485,1.164-0.774,1.453-0.774c1.938,0,3.393-0.296,4.173-0.68c0.384-0.289,0.673-0.484,0.969-0.585l0,0l0.384-0.188
			c0.195,0,0.586,0,0.969,0.188c0.485,0.195,0.97,0.296,1.165,0.296c0.578,0,1.938-0.296,3.97-0.969
			c1.938-0.585,3.103-1.07,3.392-1.454c0.485-0.296,1.359-0.484,2.618-0.484c1.453,0.094,2.228,0.094,2.523,0
			c0.969-0.484,2.127-1.07,3.486-1.938c0.289,0,0.578,0.094,1.063,0.29c0.484,0.195,0.78,0.29,0.969,0.29
			c1.648,0,3.392-1.063,5.524-3.298c1.359-1.454,2.228-2.611,2.618-3.392c0.289,0.296,0.774,0.296,1.359,0.296
			c2.517,0,4.166-0.78,5.034-2.422c0.484-0.875,0.78-1.938,0.78-3.103v-0.101l0,0c-0.101-2.907-1.359-4.064-4.173-3.58
			c-0.773-2.719-2.227-4.172-4.064-4.172c-0.78,0-1.555,0.195-2.234,0.68c0,0,0,0,0,0.101c-0.188,0-0.383,0.188-0.578,0.29
			c0-0.101,0-0.101,0,0c-0.484,0.195-0.875,0.383-0.969,0.383c-0.485-0.579-0.875-1.157-1.359-1.548
			c-0.29-0.195-0.485-0.39-0.579-0.579c-0.774-0.68-1.648-0.969-2.517-0.969c-0.391,0-0.97,0.188-1.75,0.484
			c-0.094,0-0.188,0-0.188,0c-0.101,0-0.195,0.094-0.296,0.188c-0.969,0.39-1.938,0.585-2.712,0.585c-0.384,0-1.063-0.29-1.838-1.07
			c-0.78-0.773-1.749-1.157-2.907-1.258c-0.78,0.101-1.844,0.391-3.203,1.165c-1.453,0.773-2.228,1.063-2.422,1.063
			c-0.188,0-0.485-0.094-0.868-0.188c-0.102-0.101-0.391-0.296-0.586-0.296c0-0.094-0.094-0.188-0.094-0.188
			c-0.875-0.484-1.938-0.781-3.197-0.781c-0.874,0-2.228,0.585-3.876,1.555c-1.555,1.063-2.618,1.548-3.103,1.548
			c-0.39-0.29-0.875-0.484-1.258-0.68c-0.774-0.484-1.845-0.774-3.392-0.774l-4.946,2.133c-1.063,0-1.938,0.094-2.712,0.094
			c0,0,0,0-0.095,0c-0.68,0-1.259,0.101-1.743,0.195c0-0.579-0.585-1.164-1.648-1.548c-0.102,0-0.391-0.101-0.484-0.101
			c-1.359-0.673-2.523-1.454-3.493-2.228c-1.353-1.938-2.712-2.618-4.165-2.032c-1.259,1.063-2.322,1.548-3.002,1.548
			s-1.359,0-1.844,0.101c-0.195,0-0.195,0-0.195,0c-1.742,0-2.907,0.384-3.392,0.673c-1.453,0.781-3.196,1.454-5.135,1.75
			C373.337,166.797,370.914,167.376,367.818,168.251z M388.553,170.088l-0.195,0.195c0.101,0.289,0.101,0.875,0,1.555
			c0.195,0.673,1.164,0.969,2.907,1.063c0,1.548,0.875,2.329,2.423,2.329c0.68,0,1.265-0.296,1.938-0.969
			c0.195-0.195,0.391-0.296,0.484-0.484c0.195,0.289,0.586,0.673,0.97,1.258c-0.97,0.774-2.127,1.454-3.291,2.032
			c-0.68,0.195-1.359,0.391-1.844,0.585c-0.68,0.188-1.454,0.384-2.134,0.485c-1.742,0.188-2.712,0.868-2.712,1.837
			c0,1.07,0.586,1.743,1.743,1.938c1.07,0.195,1.648,0.68,1.648,1.454c0,0.195,0,0.29,0,0.391c-0.094,0.094-0.195,0.094-0.383-0.101
			c-0.297-0.188-0.781-0.188-0.97-0.384c-0.585-0.195-1.069-0.289-1.265-0.289c-0.97,0-1.454,0.383-1.743,1.063
			c0,0.094,0,0.195,0,0.484c0-0.289-0.195-0.875-0.29-1.547c-0.39-0.969-0.578-1.454-0.578-1.649s0.484-0.875,1.258-1.938
			c0-0.101,0-0.101,0.095-0.101c0-0.188,0.101-0.289,0.195-0.484c0.969-1.454,1.453-2.611,1.453-3.58
			c0-0.485-0.094-0.875-0.39-1.266c-0.384-0.673-0.97-0.969-1.743-0.673c0.289,0,0.484,0.188,0.773,0.673
			c0.296,0.296,0.391,0.485,0.391,0.781c0,1.158-0.68,2.423-2.032,3.581c-1.164,1.164-1.75,2.039-1.938,2.719
			c-0.585-0.68-1.069-1.266-1.359-1.75c-0.094-0.188-0.874-1.454-2.228-3.775c-0.39-0.585-0.875-1.07-1.164-1.454
			c0.484-0.289,0.774-0.484,0.969-0.585l0.485-0.188c0.094,0,0.289,0.094,0.68,0.485c0.384,0.383,0.868,0.484,1.548,0.484
			c0.969,0,1.938-0.296,2.906-1.265c0.102,0,0.195-0.094,0.29-0.188c0.195-0.195,0.484-0.39,0.68-0.68
			C387.389,170.768,388.169,170.088,388.553,170.088z M388.068,189.954c0-0.188,0-0.188,0-0.188c0.484,0,1.069,0.094,1.938,0.188
			l0,0c0.484,0,0.774,0,1.259,0c0.39,0,0.68,0.101,0.969,0.485c0.296,0.296,0.969,0.39,2.039,0.39c1.353,0,2.423-0.195,3.196-0.68
			l0.095,0.391c-0.384,0.195-0.774,0.68-1.259,1.164c-0.969,1.158-1.453,1.743-1.453,1.837c-0.384,0.195-1.838,0.68-4.166,1.359
			c-2.328,0.774-3.782,1.165-3.971,1.353c-0.68,0.485-1.359,0.875-2.039,1.359c0,0.094,0,0.094,0,0.094c-0.094,0-0.094,0-0.094,0
			c-2.039,1.75-4.071,3.876-5.814,6.783c-0.101,0.195-0.391,0.485-0.586,0.875l-0.094-0.094l0,0
			c1.063-2.618,1.648-4.267,1.648-4.946c0-1.353-0.101-2.134-0.289-2.712c0-0.094-0.296-0.969-0.875-2.712
			c0.579-0.101,1.259-0.29,1.938-0.485c0.773-0.289,2.133-0.773,4.165-1.554c0.391-0.094,0.774-0.188,1.164-0.29
			c0-0.094,0-0.195,0.095-0.195c0,0,0.101,0,0.195,0c0.773-0.383,1.359-0.673,1.648-0.969
			C388.068,191.219,388.068,190.735,388.068,189.954z M386.419,186.562c-0.188-0.094-0.289-0.188-0.289-0.188
			c0-0.101,0.101-0.195,0.101-0.195C386.23,186.273,386.419,186.374,386.419,186.562z M381.284,184.241c0,0.094,0,0.195,0.102,0.289
			c-0.97-0.289-2.039-0.39-3.298-0.579c-2.618-0.296-4.751-0.296-6.689,0c-0.094,0-0.188,0-0.289,0.094l0,0
			c-0.094,0-0.195,0-0.195,0.094c-1.938,0.296-2.907,0.875-2.907,1.75c0,0.188-0.773,0.673-2.228,1.454
			c-1.453,0.673-2.133,1.642-2.133,2.611c0,0.875,0.78,1.75,2.422,2.422c0.102,0.102,0.195,0.195,0.195,0.195h0.195
			c0.391,0.195,0.875,0.391,1.454,0.586c-0.68,0.383-1.359,0.773-2.032,1.353c-0.297,0.195-0.586,0.39-0.97,0.773
			c-2.233-1.353-3.492-2.712-4.071-4.36c-0.195-0.484-0.391-0.969-0.585-1.259c0,0,0,0-0.095-0.094
			c-0.094-0.102-0.094-0.195-0.094-0.29c-0.391-0.68-0.781-1.265-1.07-1.555c-0.195-0.195-0.384-0.29-0.484-0.383
			c0-0.101,0-0.101,0-0.195c0.101-0.101,0.195-0.101,0.289-0.289c0.195,0.094,0.195,0,0.195-0.485c0-0.195-0.289-0.485-0.68-0.969
			c0-0.296,0.195-0.484,0.195-0.78c0.289-0.673,0.773-1.158,1.555-1.642c0.578-0.391,1.938-0.969,4.165-1.75
			c3.291-1.157,5.229-2.907,5.909-5.134l0,0c0-0.095,0-0.195,0-0.195v-0.188c0,0,0,0,0.101-0.101c0-0.195,0-0.383,0.095-0.579
			c0.39-0.101,0.773-0.29,1.258-0.391c0.391-0.289,0.774-0.383,1.07-0.484c0.384-0.195,0.578-0.195,0.673-0.195
			c0.101,0,0.296,0.195,0.78,0.586c0.579,0.383,1.158,0.68,1.838,0.68c0.289,0,0.773-0.195,1.453-0.485
			c0.101,0.969,1.259,2.907,3.196,5.814C380.995,181.232,381.284,182.397,381.284,184.241z M365.201,174.065
			c0.094,0,0.289,0.195,0.578,0.68c0.289,0.188,0.484,0.29,0.969,0.485c0.195,0,0.29,0,0.485,0c0.101,0,0.194,0,0.194,0
			c0.29,0,0.579,0,0.875,0c-0.101,0.188-0.195,0.484-0.296,0.673c-0.673,1.454-2.423,2.523-5.135,3.297
			c-3.392,0.969-5.424,2.517-6.393,4.455c-0.102-0.094-0.29-0.188-0.391-0.188c-2.228-2.133-3.587-3.392-4.165-4.071
			c-1.165-1.258-3.298-1.938-6.494-2.228c-0.484,0-0.97,0-1.454,0c0.29-0.101,0.68-0.195,1.164-0.39
			c0.97-0.391,2.228-0.875,3.682-1.454c0.289,0,0.68,0.29,0.969,0.875c0.289,0.484,1.259,0.868,2.712,0.868
			c1.266,0,2.523-0.384,3.587-1.063c0.774-0.289,1.454-0.773,2.423-1.359c0.101,0.101,0.289,0.29,0.484,0.68
			c0.289,0.391,1.259,0.579,2.523,0.579L365.201,174.065z M358.612,191.993c0.188,1.353,1.157,2.806,3.002,4.166
			c0.289,0.29,0.773,0.579,1.063,0.774c-1.158,0.875-1.938,1.649-2.127,2.133c-1.844,3.103-2.719,6.104-2.719,8.917
			c0,0.195,0.195,1.164,0.68,2.806c-0.484-0.773-1.164-1.642-2.134-2.712c-1.938-2.321-3.095-3.587-3.095-3.775
			c-0.102-0.195-0.297-1.749-0.485-4.556c0.384,0.195,0.868,0.384,1.454,0.384c0.188,0,0.384-0.095,0.384-0.188l-0.095-0.195
			c-0.391-1.555-1.258-2.712-2.423-3.681c0.095-0.102,0.095-0.195,0.095-0.391v-0.391c-0.969-1.837-1.648-3.096-1.648-3.58
			c0.484-1.453,0.78-2.234,0.78-2.422l0,0c0.384,0.094,0.773,0.29,1.157,0.383l0.195-0.383v-0.296
			c-0.484-0.484-0.969-1.157-1.164-1.837c-0.384-1.07-0.579-1.649-0.774-1.938c-0.194-0.195-1.164-0.585-3.103-1.07
			c-1.938-0.484-3.391-0.969-3.876-1.454c-0.578-0.383-1.938-0.484-3.876-0.484c-1.837,0.101-2.907-0.188-3.291-0.969
			c-0.585-1.157-0.875-1.743-0.969-1.837c-0.773-1.07-1.555-1.555-2.328-1.938c-0.095-0.101-0.384-0.195-0.68-0.29
			c0.39,0.094,0.68,0.188,1.164,0.188c0.289,0,0.68,0,1.07-0.094c0.773-0.094,1.642-0.391,2.806-0.68
			c0-0.094,0.101-0.094,0.195-0.094c0.484-0.101,1.063-0.39,1.743-0.585l0.289,0.195c0.101,0.101,0.391,0.289,0.68,0.585
			c0.484,0.384,1.07,0.673,1.453,0.673c-1.353,0.484-2.133,1.265-2.133,2.422c3.392-1.157,6.783-0.188,10.175,2.524
			c0.875,0.868,2.134,1.938,3.877,3.291c0.194,0.195,0.39,0.296,0.68,0.484c-0.29,0-0.485,0-0.68,0l-0.095,0.296
			c0.579,0.579,1.548,1.454,3.002,2.806c0.484,0.585,0.969,1.07,1.265,1.555C358.417,191.219,358.512,191.603,358.612,191.993z
			 M369.366,195.87v-0.101c0.29-0.29,0.68-0.673,0.875-0.969c0.188-0.289,0.384-0.484,0.484-0.773
			c2.127,0.585,3.876,0.773,5.424,1.069c0.095-0.195,0.095-0.195,0.095,0c0.296,0,0.68,0,0.969,0c0.195,0,0.484,0,0.875-0.195
			c-0.579,1.165-0.969,2.907-1.648,5.424c-0.68,3.008-1.548,5.134-2.423,6.494c-0.384-0.094-0.68-0.094-0.969,0h-0.195h-0.188
			c-1.359,0.094-3.203,0.875-5.431,2.033c-2.228,1.265-3.876,2.039-5.041,2.523c0-0.29-0.188-0.391-0.289-0.586
			c-0.384-1.453-0.68-2.611-0.68-3.095c0-1.454,0.391-2.813,0.969-4.172c0,0,0.102,0,0.195-0.094c0-0.094,0-0.39,0.101-0.579
			c0.774-1.454,2.033-2.907,3.58-4.361c0.195-0.101,0.391-0.296,0.586-0.485c0.195,0,0.484-0.195,0.773-0.296
			c0.391-0.188,0.774-0.484,0.875-0.673C368.687,196.738,368.977,196.448,369.366,195.87z M367.428,219.611
			c-2.617,1.063-4.454,1.837-5.524,2.322c-0.68-0.673-1.063-1.157-1.164-1.353c-0.484-0.29-0.673-0.774-0.673-1.454
			c0-0.195,0.188-0.585,0.383-1.069c0.29-0.485,0.485-0.97,0.97-1.548c0.773-1.259,1.164-2.228,1.259-3.002
			c0.194-0.101,0.296-0.195,0.484-0.296c6.299-3.096,9.69-4.744,9.886-4.845c-0.485,3.204-0.579,5.525-0.579,7.268
			C372.368,216.899,370.726,218.252,367.428,219.611z M325.368,169.12c0,0,0.195,0.195,0.485,0.585
			c0.296,0.384,0.969,0.579,2.133,0.579c0.969,0,2.228-0.29,3.392-0.969c1.259-0.68,1.938-1.063,1.938-1.063
			c0.289,0,0.773,0.195,1.164,0.383c0.578,0.296,0.969,0.296,1.063,0.296c0.969,0,2.039-0.296,3.297-0.969
			c0.68-0.296,1.259-0.68,1.743-0.969c0.195,0,0.391,0.188,0.484,0.384h0.102c0.673,0.68,1.353,1.258,1.837,1.555
			c-0.68,0.383-1.454,0.673-2.134,1.353c0,0.101-0.188,0.101-0.188,0.289c-1.069,0.781-1.749,1.266-2.039,1.266
			c-3.102,0-5.229,0.188-6.393,0.773c-1.07,0.579-1.555,1.353-1.555,2.322c0,0.485,0.195,0.969,0.484,1.359
			c0.296,0.39,0.586,0.579,1.07,0.774c-1.07-0.289-2.228-0.579-3.782-0.774c0.195-0.774,0.195-1.258,0.195-1.359
			c-0.579,0-0.875,0.195-1.164,0.485c-0.195,0.101-0.195,0.195-0.195,0.296c-0.188,0-0.188-0.195-0.188-0.391
			c0.673-1.547,1.063-2.517,1.063-2.712c0-0.289-0.095-0.39-0.095-0.484c-0.101-0.101-0.101-0.101-0.101-0.101
			c-0.289,0-0.773,0.585-1.259,1.555c-0.484,0.868-0.68,1.548-0.68,1.649c0,0.484,0,0.673,0,0.773l0.97,0.095
			c0,0.101,0,0.289,0,0.39c0,0.68,0.585,1.164,1.742,1.548c2.719,0.68,4.361,1.07,4.752,1.359c0.773,0.383,1.258,0.579,1.453,0.774
			c0.195,0.094,0.289,0.39,0.579,0.875l0.296,1.157c0.673,1.265,1.642,1.75,3.096,1.454c2.039-0.484,3.102-0.673,3.102-0.673
			c0.29,0,1.259,0.579,3.103,1.547c1.063,0.579,2.618,1.063,4.65,1.454c0.195,0.094,0.289,0.195,0.289,0.773
			c-0.094,0.102-0.289,0.29-0.578,0.586c-0.391,0.484-0.68,0.969-0.68,0.969c0.484-0.484,0.969-0.78,1.359-1.07
			c0,0.101,0,0.29,0,0.39c0.094,0.484,0.194,0.868,0.578,1.164c-0.484,0.188-0.868,0.485-1.164,1.158
			c-0.484,0.68-0.673,1.265-0.673,1.75c0,0,0.094,0.29,0.188,0.969c-0.484-0.585-1.259-0.969-2.126-1.265
			c-1.07-0.188-2.039-0.188-2.719,0.296c0.194,0,0.874,0.484,2.133,1.158c1.258,0.781,2.039,1.165,2.523,1.165
			c0.188,0,0.384-0.095,0.484-0.195c0.188,0.39,0.289,0.68,0.384,0.969c-1.548-0.579-3.587-1.063-6.01-1.258
			c1.165,0.774,2.618,1.359,4.267,2.039c0.289,0,0.579,0.188,0.875,0.29c-0.101,1.648-1.07,2.712-2.812,3.102
			c-2.134,0.094-3.298,0.29-3.782,0.485c-1.643,1.063-3.196,1.743-4.455,2.126c-1.454,0.485-3.103,0.781-4.939,0.781
			c-1.75-0.102-3.493,1.157-5.33,3.775c-0.296,0.29-0.484,0.585-0.585,0.875c-0.095-0.585-0.195-1.07-0.484-1.555
			c-0.97-2.611-1.454-3.876-1.649-4.065c0.195-0.101,0.484-0.195,0.586-0.296c0.384,0.101,0.68,0.101,1.063,0.101h0.289v-0.39
			c0-0.095-0.188-0.095-0.289-0.095c0.585-0.195,1.453-0.39,2.227-0.68c0-0.094,0-0.094,0.102-0.094
			c1.258-0.391,2.806-0.875,4.556-1.454c4.166-1.649,6.198-3.297,6.198-4.845c0-2.423-2.618-3.103-7.847-2.234
			c-5.33,0.78-7.948,1.938-7.948,3.392c0,0.781,0.095,1.266,0.484,1.555c0.579,0.579,1.938,1.164,3.877,1.648l-0.484,0.188
			c-1.454,0.296-2.518,0.484-3.197,0.781c-0.68-0.969-1.258-1.454-1.555-1.554c-0.289-0.195-2.422-0.68-6.104-1.259
			c0,0-0.195-0.289-0.68-0.875c-0.484-0.673-1.157-0.969-2.228-0.969c-3.001,0-4.845-0.094-5.813-0.384
			c0-0.773-0.384-1.07-0.97-1.07c-0.195-0.29-0.195-0.673-0.195-0.969c0-0.289,0-0.484,0.102-0.484l0.094,0.195
			c2.712,0.39,6.589,0,11.434-1.259c5.142-1.359,7.658-2.812,7.658-4.267c0-1.453-1.359-2.227-4.071-2.611
			c0-0.585,0.289-1.75,0.68-3.392c0.391-1.844,0.579-3.204,0.579-3.977c0-1.649-0.095-2.618-0.29-3.001
			c-0.68-1.07-2.422-1.359-5.04-1.07c2.039,0.485,3.298,1.165,3.782,1.938c0.289,0.296,0.289,0.969,0.289,2.134
			c0,0.585-0.094,1.743-0.484,3.492c-0.289,1.642-0.484,2.712-0.484,3.197c0,0.094,0,0.195,0.101,0.484
			c-1.359-0.101-3.008-0.289-4.845-0.195c-0.297,0-0.68,0.094-1.07,0.094c-0.095-1.642-0.095-3.096,0-4.361
			c0.289-2.322,1.164-4.549,2.423-6.487c-0.868-0.296-1.743,0.579-2.618,2.611c-0.773,1.75-1.063,3.103-1.063,4.072
			c0,1.648,0.095,3.102,0.29,4.166c-0.485,0.101-0.869,0.101-1.259,0.101c0,0,0,0,0-0.101c0-0.188,0-0.384,0-0.485
			c-0.68-0.484-1.649-0.579-3.196-0.484c-1.555,0-2.329,0.296-2.329,0.781c0,0.484,0.29,0.484,0.774,0.094
			c0.484-0.391,0.969-0.391,1.359-0.29c0.773,0.29,1.648,0.484,2.812,0.484c-1.938,0.195-3.587,0.384-4.946,0.68
			c-1.453,0.29-2.517,0.579-3.29,1.063c-0.102,0.094-0.102,0.094-0.195,0.195c-0.102,0-0.102,0-0.102,0
			c-0.188,0.095-0.289,0.195-0.289,0.195c-0.68,0.484-0.969,1.158-0.969,1.837c-0.68-1.454-1.938-1.837-4.071-1.165
			c-2.712,1.454-4.166,2.234-4.166,2.234c-0.289,0-0.68-0.101-1.353-0.296c-0.68-0.188-1.164-0.29-1.359-0.29
			c-0.68,0-1.359,0.39-2.134,1.165l-1.164,1.063c-0.289,0-0.773,0-1.453-0.188c-0.774-0.195-1.259-0.296-1.454-0.296
			c-0.289,0-0.673,0.296-1.353,0.68c-0.585,0.485-1.069,0.68-1.069,0.68c-0.485-0.289-0.97-0.578-1.643-0.875
			c-1.07-0.485-2.234-0.868-3.492-0.969c1.844-0.969,4.36-2.806,7.752-5.134c0.289,0,0.484,0.101,0.969,0.289
			c0.391,0.101,0.774,0.296,0.97,0.296c1.069,0,1.938-0.296,2.712-0.969c0.101-0.101,0.195-0.195,0.391-0.296
			c0.484-0.485,0.773-0.774,0.969-0.774s0.391,0.101,0.578,0.39c0.485,0.195,1.454,0.29,2.908,0.29c1.749,0,3.297-1.359,4.461-4.267
			c0.095-0.384-0.101-0.673-0.289-0.969c-0.391-0.579-1.164-0.868-2.234-0.868c-0.578,0-1.258,0.195-1.938,0.384
			c-0.095,0-0.189,0-0.29,0c-0.094,0-0.094,0-0.094,0.101c-0.195,0-0.485,0.094-0.774,0.195c-1.07,0.485-2.039,0.673-2.617,0.673
			c-0.102,0-0.586-0.095-1.454-0.29c-0.875-0.384-1.844-0.485-2.907-0.485c-0.101,0-0.101,0-0.101,0c-0.095,0-0.29,0-0.29,0
			c-0.773,0.101-1.938,0.101-3.29,0.485c-1.75,0.195-2.719,0.29-3.203,0.29c0,0-0.095,0-0.29,0c0.586-0.188,1.259-0.485,1.938-0.969
			c1.259-0.673,1.938-1.063,2.039-1.063c0.094,0,0.384,0.195,0.868,0.579c0.484,0.296,1.258,0.485,2.328,0.485
			c1.164,0,2.517-0.384,3.971-1.353c1.453-0.875,2.228-1.359,2.712-1.359c0.195,0,0.585,0.101,1.164,0.29
			c0.68,0.195,0.97,0.296,1.259,0.296c0.68,0,1.648-0.391,2.907-1.165c1.359-0.774,2.328-1.164,2.907-1.164
			c0.39,0,0.68,0.195,1.164,0.484c0.484,0.195,1.555,0.391,3.196,0.391c0.68,0,1.649-0.296,2.719-0.875
			c1.157-0.579,2.127-0.875,3.001-0.875c0.195,0,0.774,0.195,1.359,0.296c0.869,0.188,1.259,0.289,1.549,0.289
			c0.773,0,2.032-0.585,3.485-1.743c0.586-0.485,1.75-0.781,3.587-1.265C323.82,169.314,324.884,169.12,325.368,169.12z
			 M350.274,196.448c0.101,0,0.101,0.101,0.195,0.101c-0.095,0-0.195,0.094-0.289,0.188
			C350.274,196.643,350.274,196.549,350.274,196.448z M317.812,187.047h-0.774l-0.578,0.195l-1.359,0.101l0.484-0.296H317.812z
			 M328.76,207.108c1.555-2.322,3.877-3.681,7.174-4.26c1.844-0.296,3.486-0.781,5.041-1.454c1.548-0.78,2.806-1.265,3.485-1.453
			c2.712-0.484,4.462-1.164,5.135-1.938c0-0.195,0.101-0.296,0.195-0.296c-0.095,0.296-0.095,0.875,0,1.648
			c0,1.743,0.289,4.166,1.07,7.073c-0.296,0.101-0.68,0.296-1.07,0.484c-0.68-0.094-1.259-0.188-1.938-0.188
			c-2.227,0-3.392,0.484-3.392,1.642c0,0.296,0,0.485,0,0.485h0.102c3.774-0.095,6.104-0.095,6.972,0
			c0.391,1.069,0.68,2.039,0.969,3.008c0,0.774-0.969,1.837-2.611,3.587c-2.039,1.642-3.297,2.712-3.876,3.291
			c-4.267,4.556-6.399,6.783-6.494,6.783c-0.195,0-2.523-1.837-6.688-5.714c-4.361-3.876-6.589-6.399-6.589-7.463
			c0-0.101,0.095-0.585,0.579-1.359c0-0.094,0-0.195,0.101-0.289C327.502,209.726,327.986,208.561,328.76,207.108z M317.132,208.077
			c0.101,0,0.296,0.29,0.484,0.774c-0.579,0.101-1.259,0.296-1.938,0.484c-0.673,0.101-1.258,0.296-1.453,0.296
			c-0.484,0.188-0.97,0.384-1.259,0.384c-0.095,0-0.195,0-0.195,0.101c-0.289,0-0.289,0-0.484,0
			c-0.095-0.484-0.484-1.453-0.868-2.719c-0.391-1.157-0.773-2.126-1.07-2.806c-0.289,0-0.484,0.195-0.484,0.68
			c0,0.094,0.102,0.969,0.391,2.61c0.289,1.359,0.68,2.234,1.258,2.423c-1.164,0.195-1.742,0.296-1.938,0.391
			c-0.289-0.095-0.579-0.095-1.063-0.095c-0.39-0.875-0.875-2.039-1.164-3.586c-0.579-2.228-1.259-3.493-2.228-3.782
			c-0.101,0-0.101,0.101-0.101,0.101v0.289c0,0.485,0.484,1.938,1.453,4.361c0.484,1.063,0.875,2.032,1.07,2.617
			c-0.101,0-0.195,0-0.29,0c-1.164,0-3.392-1.265-6.595-4.071c-2.517-2.039-3.876-2.712-3.876-1.743c-0.094,0-0.094,0-0.094-0.101
			c-0.195-0.195-0.29-0.384-0.391-0.579c0.391-0.29,0.969-0.585,1.75-0.774c2.517-1.07,4.165-1.648,5.033-1.648
			c2.719,0,4.751-0.29,6.01-0.774c0.773,0.188,2.228,0.484,4.165,0.969c-0.094,0.383-0.289,0.673-0.484,1.158
			c-0.188,0.296-0.289,0.484-0.289,0.875c0,0.773,0.484,1.359,1.259,1.844C315.678,206.913,316.842,207.693,317.132,208.077z
			 M318.78,211.57l-0.095,0.188c0,0.39-0.101,1.265-0.39,2.617c0,1.07,0.68,1.649,1.743,1.649c0.194,0,0.484,0,0.585,0
			c-0.101,0.094-0.101,0.195-0.101,0.195c-0.188,0.484-0.29,0.969-0.29,1.353c0,0.969,1.07,2.234,3.009,3.876
			c1.157,0.969,2.907,2.328,5.229,4.071c1.453,1.07,2.523,2.523,3.682,4.166c1.554,2.422,2.422,3.688,2.523,3.876
			c-0.875,0.296-2.134,2.039-3.877,4.946c-1.555,2.617-3.008,3.876-4.461,3.876c-0.29,0-0.579-0.195-0.774-0.68
			c-0.289-0.579-0.579-0.875-0.68-1.063c-1.157-0.78-2.423-0.875-3.876-0.296c-1.259,0.78-2.423,0.585-3.392-0.384
			c-0.095-0.101-0.579-0.773-1.454-2.228c-0.673-0.969-1.642-1.554-2.712-1.75c0.29-0.774,0.97-2.228,2.039-4.361
			c0.868-1.258,1.259-2.611,1.259-3.58c0-0.78-0.289-1.648-0.774-2.423c-0.78-1.07-1.749-1.75-3.203-1.938
			c0.78-0.97,1.164-1.844,1.164-2.719c0-0.188-0.384-0.673-1.164-1.454c-0.773-0.673-1.157-1.157-1.157-1.258l1.063-2.133
			c0.578-1.454,0.874-2.423,0.874-3.001c0-0.29,0-0.485,0-0.774c-0.101,0-0.101-0.101-0.101-0.101v-0.095
			C316.357,211.758,318.101,211.57,318.78,211.57z M358.128,216.899c-0.101,0.094-0.101,0.188-0.101,0.29
			c-0.484,1.164-0.868,2.133-0.868,3.102c0,0.094,0.188,0.673,0.384,1.938c0.289,0.774,0.773,1.353,1.453,1.642
			c-1.353,1.265-3.587,3.392-6.494,6.299c-4.26,4.36-7.072,6.399-8.331,6.399c-0.289,0-0.391,0-0.391-0.101v-0.188
			c0-0.781-0.094-1.454-0.289-1.938s-0.195-0.969-0.195-1.265c0-0.188,1.266-2.126,3.876-5.518c3.393-4.361,5.33-7.08,6.111-8.049
			c1.062-1.157,2.806-2.423,5.518-3.876c-0.188,0.195-0.289,0.585-0.484,0.969C358.223,216.704,358.128,216.798,358.128,216.899z
			 M305.213,187.532l0.195-0.29c0.29-0.195,0.774-0.383,1.548-0.68c0.391-0.094,0.781-0.188,1.266-0.29
			c0.384-0.094,0.868-0.094,1.353-0.094c-0.484,0.195-0.868,0.384-0.969,0.68c0,0-0.095,0.289-0.095,0.673v0.78
			c-0.773,0-1.359,0-1.844-0.296C305.987,187.727,305.503,187.532,305.213,187.532z M295.233,180.169
			c-0.391,0.094-0.68,0.195-0.969,0.195l1.548-0.586C295.913,179.779,295.812,179.974,295.233,180.169z M292.905,204.591
			c0.194,0.195,0.484,0.484,0.68,0.773c0.39,0.391,0.585,0.68,0.773,0.875c0.195,0.289,0.296,0.484,0.296,0.673
			c0,0.296-0.101,0.484-0.195,0.781c-0.101,0.383-0.289,0.673-0.484,0.969c-0.484,0.673-0.773,1.353-0.773,1.837
			c0,0.289,0.188,0.585,0.289,0.774c0.579,0.781,0.868,1.265,0.969,1.265c-0.874,0.774-1.554,1.454-2.039,1.938
			c-0.578,0.578-0.969,1.157-1.157,1.453c-0.969,0.29-1.938,0.969-3.103,1.938c-1.844-1.165-3.297-1.938-4.071-2.234
			c-2.032-0.969-3.485-1.157-4.165-0.673c0.484,0.484,1.648,1.258,3.587,2.228c1.548,0.68,2.806,1.164,3.775,1.453
			c-0.195,0.195-0.485,0.484-0.868,0.868c-0.586,0.68-1.164,1.266-1.649,1.938c-1.069-1.938-2.523-2.907-4.267-2.611
			c0.485,0.289,1.454,1.642,3.197,4.166c-0.29,0.68-0.384,1.164-0.384,1.648c0,0.868,0.094,1.454,0.384,1.837
			c0,0.101,0.39,0.586,1.164,1.555c-0.195,0-0.195,0-0.289,0c0,0.673,0.289,1.259,0.773,1.642c0,0,0.101,0.101,0.195,0.101
			l-0.195,0.868c-1.259-0.484-2.228-0.868-3.103-1.158c-1.063-1.265-1.743-1.938-2.032-1.938l0,0
			c-0.68-0.68-1.844-1.454-3.486-2.039c-0.296-0.195-0.68-0.384-0.969-0.384c0.673-0.195,1.353-0.296,2.127-0.296
			c0.195,0,0.78,0,1.938,0.101c1.07,0.195,1.845,0.195,2.329,0c-0.391-0.101-1.164-0.289-2.134-0.585
			c-0.969-0.188-1.648-0.384-1.938-0.384c-0.774,0-1.743,0.384-2.907,0.969c-0.195,0-0.195,0-0.29,0
			c-0.195-0.585-0.39-1.258-0.875-2.039c-0.484-0.969-1.062-1.743-1.547-2.422l0,0v-0.094c-0.095-0.094-0.195-0.094-0.195-0.094
			c-0.195-0.296-0.384-0.485-0.68-0.585c-0.484-0.68-1.158-1.063-1.938-1.548c0.195-0.289,0.195-0.585,0.195-0.875
			c0-0.195,0-0.579-0.195-0.868c-0.289-0.39-0.289-0.68-0.289-0.969c0,0,0.289-0.484,1.069-1.265c0.674-0.868,0.97-1.454,0.97-1.938
			c0-1.454-0.102-2.517-0.195-3.096c-0.101-0.101-0.101-0.296-0.101-0.296c2.617-0.29,3.876-0.485,3.876-0.485
			c0.296-0.188,0.68-0.485,1.164-0.673c0.484-0.296,0.774-0.296,0.774-0.296c0.296,0,0.68,0,0.874,0.296
			c0.29,0.188,0.485,0.188,0.774,0.188c0.969,0,1.938-0.188,2.712-0.969c0.68-0.673,1.164-0.969,1.164-0.969
			c2.423,0,4.166-0.485,5.135-1.454c0.969-0.969,1.648-1.453,1.844-1.453c0.095,0,0.774,0.296,1.938,0.969
			C291.936,204.201,292.42,204.49,292.905,204.591z M287.676,219.706c0.29-0.289,0.579-0.68,0.868-0.868c0.195,0,0.296,0,0.484,0
			c0.485,0,0.485-0.101,0.391-0.296c-0.195-0.095-0.195-0.188-0.391-0.188c0.875-0.969,1.555-1.555,2.234-2.039
			c0,0.875,0.774,1.258,2.228,1.258c3.002,0,6.394,0.585,9.785,1.75c-0.195,0.969-0.195,1.643,0,1.938
			c0.195,0.579,0.289,0.868,0.289,0.969c0,1.353-1.258,2.423-3.681,3.001c-0.484,0.094-0.97,0.29-1.259,0.39
			c-1.063-1.75-2.712-3.392-5.04-4.845c-1.353-0.781-2.518-1.266-3.587-1.649c-1.063-0.289-1.643-0.195-1.643,0.195
			c0,0.484,1.353,1.743,4.361,3.876c1.837,1.158,3.196,2.422,4.26,3.486c-0.484,0.484-0.68,0.969-0.68,1.548
			c0,0.68,0.195,1.265,0.484,1.938l-3.196,0.78c-0.485,0-1.938-0.484-4.361-1.555c-2.617-1.063-3.775-1.648-3.876-1.648
			c0,0,0,0-0.094,0c-0.485-1.938-0.68-3.001-0.68-3.197c0-0.195,0-0.195,0-0.195c1.453,1.938,2.517,2.907,3.196,2.907
			c0.195,0,0.68-0.384,1.648-0.868c-1.453-0.101-2.907-1.259-4.071-3.682C285.832,221.933,286.606,220.964,287.676,219.706z
			 M297.266,205.849c0.484,0.68,1.555,1.844,3.103,3.298c2.907,2.611,5.33,3.775,7.369,3.775l3.095-0.384
			c-0.484,1.454-0.969,2.611-1.742,3.58c-0.384,0.585-0.68,1.454-0.68,2.719c0,0.673,0.101,0.969,0.195,1.157
			c0.289,0.485,0.969,0.97,1.938,1.359c-0.68,0.68-1.164,1.259-1.258,1.454c-0.095,0.094-0.095,0.094-0.095,0.195
			c-0.296-0.29-0.585-0.586-0.969-0.875c-0.78-0.68-1.454-1.063-1.938-1.164c-0.101,0-0.101-0.188-0.101-0.188
			c-0.195-0.485-0.384-0.781-0.384-0.781c0-0.289,0-0.484,0-0.673c0-0.101,0-0.195,0-0.296c0,0,0,0,0-0.094s0-0.094,0-0.094
			c-0.101-0.78-0.296-1.359-0.586-1.454c-1.062-0.781-4.071-1.554-9.011-2.234l0.29-0.188c0.484-0.68,0.773-0.969,0.875-1.454
			c0.094,0,0.094-0.296,0.094-0.875c0-0.39-0.195-0.875-0.68-1.454c-0.289-0.579-0.484-0.875-0.484-1.063
			c0-0.101,0.195-0.585,0.484-1.359c0-0.094,0.101-0.289,0.195-0.39c0.289-0.579,0.289-1.063,0.289-1.454
			C297.266,206.529,297.266,206.24,297.266,205.849z M312.771,229.982c-0.579-0.391-1.548-0.781-2.907-1.266
			c0.68-0.484,0.969-1.453,1.07-2.611c0.195,0,0.384,0.188,0.484,0.188c1.548,0.781,2.322,1.265,2.322,1.75
			C313.74,228.138,313.45,228.716,312.771,229.982z M324.595,257.789c0.195,0,0.289,0,0.585,0c0.384,0,0.674,0,0.868,0
			c0.391,0.296,1.07,0.969,1.938,1.844c1.648,1.548,2.617,2.812,2.907,3.782l1.069,3.197c0.579,1.258,0.774,2.321,0.869,3.103
			c0,1.453,0.289,3.095,0.585,5.33c-0.875-0.969-1.938-2.039-3.203-3.103c-4.166-3.977-6.299-6.783-6.299-8.526
			c0-0.68,0.195-1.265,0.484-1.938c0.391-0.484,0.484-0.969,0.484-1.164C324.884,259.053,324.884,258.273,324.595,257.789z
			 M236.699,193.736c0.195,0.195,0.297,0.579,0.484,1.063l-0.969-1.258v-0.195C236.41,193.447,236.605,193.541,236.699,193.736z
			 M240.576,211.57c0.195,0,0.296-0.195,0.585-0.296c0.195-0.188,0.384-0.29,0.579-0.383c0.969,0.383,2.328,0.68,3.977,0.969
			c-0.101,0.195-0.39,0.484-0.78,0.868c-0.289,0.391-0.773,0.78-1.157,1.164c-0.484,0.29-0.781,0.774-0.875,1.259
			C241.841,213.507,241.061,212.343,240.576,211.57z M250.946,210.116c0.289,0.484,0.875,0.774,1.743,0.774
			c0.68,0,1.453-0.195,2.328-0.586c0.969-0.384,1.548-0.673,1.743-0.673c0.289,0,0.585,0.289,1.164,0.673
			c0.579,0.484,1.548,0.68,2.517,0.68s1.648-0.195,2.134-0.579c0.484-0.29,1.258-0.485,1.938-0.485c0.29,0,0.586,0.095,0.97,0.195
			c0.484,0.188,0.773,0.29,0.969,0.29c0.585,0,1.164-0.195,1.844-0.68c0.289-0.094,0.579-0.29,0.68-0.39
			c0.188,0.78,0.188,1.453,0.188,1.844c-0.188,0.875-0.579,1.648-1.454,2.328c-0.773,0.673-1.258,1.158-1.258,1.743
			c0,0.484,0.101,0.774,0.195,1.063c-0.774-0.384-1.359-0.68-1.649-0.868c-0.68-0.296-1.353-0.484-2.039-0.484
			c-0.868,0-1.548,0.188-2.126,0.673c-0.579,0.296-3.587,0.484-8.722,0.484l1.259,0.195c-1.743,0-3.103,0-4.072,0
			c0-0.094,0-0.094,0-0.094s0,0,0,0.094c-1.258-0.094-2.032-0.094-2.227-0.094c-0.485-0.101-0.68-0.195-0.868-0.29
			c-0.102-0.296-0.297-0.484-0.297-0.969c0-0.101,0.195-0.296,0.485-0.68c0.194-0.29,0.68-0.774,1.265-1.259
			c1.157-0.969,1.743-1.648,1.743-1.938c0-0.296-0.391-0.485-1.164-0.781c0.484-0.188,1.258-0.673,2.517-1.258
			C250.751,209.631,250.852,210.015,250.946,210.116z M250.751,218.542c0.969-0.188,1.938-0.188,2.618-0.29c0.484,0,0.68,0,0.969,0
			c3.008,0.101,5.135,0,6.494-0.29c0.578-0.094,1.063-0.39,1.063-0.579c0.578,0,1.648,0.485,3.203,1.454
			c-0.781-0.101-1.454,0.188-2.039,1.157c1.555,0.296,3.196,1.454,5.135,3.688c0.969,1.157,1.844,2.227,2.719,3.392
			c0.188,0,0.969-0.296,2.321-0.969c0,0,0,0,0.101,0.094c0,0.094,0,0.094,0,0.094c0,0.101,0,0.195,0.095,0.296
			c-0.391,0-0.579,0.188-0.875,0.188c-1.642,0.781-2.907,1.265-3.971,1.265c-0.39,0-0.875-0.195-1.359-0.391
			c-0.484-0.094-1.157-0.39-1.837-0.875c-1.259-0.673-2.228-1.063-2.618-1.063c-3.297-0.095-5.141-0.391-5.72-1.063
			c0-0.781-0.289-1.265-0.673-1.648c-2.134-1.555-3.688-2.712-4.556-3.493C251.336,219.126,250.946,218.837,250.751,218.542z
			 M267.904,220.291c0.195,0,0.391-0.101,0.586-0.296c1.157,0.781,1.938,1.359,2.321,1.649c0.484,0.289,0.97,1.258,1.259,2.907
			c0.195,0.585,0.391,0.969,0.68,1.258c-0.195,0-0.289,0-0.484,0c-1.164-1.642-2.423-3.291-3.682-4.744
			c-0.39-0.289-0.68-0.68-1.062-0.969C267.709,220.19,267.811,220.291,267.904,220.291z M347.656,329.6h-0.094
			c0.094,0,0.289,0,0.391,0C347.852,329.6,347.758,329.6,347.656,329.6z"/>
		<path fill="#5D5F57" d="M358.707,196.253l-0.195,0.195c-0.384,0-1.063,0.29-1.837,0.774c-0.781,0.484-1.165,0.969-1.165,1.164
			c0,0.289,0,0.391,0.095,0.391c0.195,0.094,0.195,0.094,0.289,0.195c0.296-0.195,0.875-0.484,1.649-1.164
			c0.773-0.585,1.164-0.969,1.164-1.07C358.707,196.448,358.707,196.253,358.707,196.253z"/>
		<path fill="#5D5F57" d="M373.532,199.746c-1.164-0.774-2.618-1.258-4.361-1.454c-1.938-0.29-2.907,0.094-2.907,0.868
			c0,0.195,0.102,0.39,0.29,0.585c0.296,0.384,0.68,0.579,1.164,0.579c0.39,0,1.938,0.289,4.751,0.585
			c0.773,0,1.063-0.296,1.063-0.78V199.746z"/>
		<path fill="#5D5F57" d="M328.76,179.59c0-0.195,0-0.39-0.094-0.484l-0.195-0.195c-1.063-0.195-1.938,0.195-2.517,1.165
			c-0.484,0.673-0.68,1.258-0.68,1.837c0,0.485,0.39,0.969,1.259,1.359c0-0.101,0.101-0.289,0.194-0.289
			c0.095-0.101,0.095-0.296,0.095-0.68c0-0.29,0.296-0.875,0.969-1.555C328.471,180.264,328.76,179.779,328.76,179.59z"/>
		<path fill="#5D5F57" d="M319.46,177.262c0.289-0.195,0.289-0.484,0.391-0.579c-2.134,1.743-3.204,2.712-3.392,2.807
			c-0.391,0.585-0.68,1.555-0.68,2.813c0,0.383,0.094,0.579,0.194,0.68c0.095,0,0.188,0,0.485,0.094
			c1.353-0.68,2.321-2.329,2.806-5.041C319.265,177.652,319.265,177.458,319.46,177.262z"/>
		<path fill="#5D5F57" d="M333.417,208.366c1.157-0.383,1.837-0.868,2.127-1.258c-2.423-0.68-4.261-0.195-5.519,1.258
			c-0.969,1.938-1.555,3.204-2.039,3.688h0.195l2.712-2.423C331.183,209.241,332.152,208.851,333.417,208.366z"/>
		<path fill="#5D5F57" d="M344.46,211.179c0.485,0.094,1.454,0.579,3.009,1.359c1.642,0.673,2.712,0.969,3.392,0.969
			c0.384,0,0.868-0.296,1.258-0.969c-1.453-0.875-2.617-1.555-3.681-1.938C346.789,210.015,345.43,210.116,344.46,211.179z"/>
		<path fill="#5D5F57" d="M288.739,213.992c-0.195,0-0.384,0.094-0.484,0.29v2.618h0.289
			C288.544,215.446,288.646,214.477,288.739,213.992z"/>
		<path fill="#5D5F57" d="M262.864,219.417c-0.875-0.774-1.743-0.579-2.712,0.875c-0.969,1.158-1.353,1.938-1.353,2.611
			c0,0.485,0.094,0.969,0.282,1.266C260.832,221.933,262.09,220.291,262.864,219.417z"/>
	</g>
	<path fill="#78C044" d="M148.872,258.75c-3.628,0-6.582,2.934-6.582,6.575v30.242c0.102,4.569-3.203,5.519-6.036,6.07v-22.604
		v-9.671v-29.792c0-4.112-3.324-7.436-7.456-7.436c-4.092,0-7.416,3.324-7.416,7.436v29.792v9.671v40.626
		c-3.85-0.821-4.192-4.966-4.192-6.13v-28.958c0-3.015-2.45-5.451-5.472-5.451c-3.008,0-5.451,2.436-5.451,5.451v28.958
		c0,3.015,2.786,13.453,15.115,13.453v47.437h14.872v-61.239c18.614-0.336,19.206-9.395,19.206-12.961v-34.893
		C155.46,261.678,152.499,258.75,148.872,258.75z"/>
	<path fill="#78C044" d="M183.092,297.708c-2.819,0-5.114,2.275-5.114,5.108v23.506c0.081,3.546-2.49,4.287-4.69,4.71v-17.564
		v-7.517v-23.156c0-3.19-2.591-5.774-5.795-5.774c-3.176,0-5.767,2.584-5.767,5.774v23.156v7.517v31.575
		c-2.988-0.632-3.257-3.863-3.257-4.765v-22.503c0-2.342-1.905-4.24-4.247-4.24s-4.239,1.898-4.239,4.24v22.503
		c0,2.342,2.167,10.458,11.743,10.458v36.865h11.562V340.01c14.469-0.263,14.926-7.302,14.926-10.074v-27.12
		C188.213,299.983,185.918,297.708,183.092,297.708z"/>
</g>
</svg>
