<?xml version="1.0" encoding="utf-8"?>
<!-- Generator: Adobe Illustrator 16.0.0, SVG Export Plug-In . SVG Version: 6.00 Build 0)  -->
<!DOCTYPE svg PUBLIC "-//W3C//DTD SVG 1.1//EN" "http://www.w3.org/Graphics/SVG/1.1/DTD/svg11.dtd">
<svg version="1.1" id="Layer_1" xmlns="http://www.w3.org/2000/svg" xmlns:xlink="http://www.w3.org/1999/xlink" x="0px" y="0px"
	 width="136.833px" height="136.833px" viewBox="0 0 136.833 136.833" style="enable-background:new 0 0 136.833 136.833;"
	 xml:space="preserve">
<style type="text/css">
<![CDATA[
	.st0{fill:#47A4A9;}
	.st1{fill:#49A0AE;}
	.st2{fill:#E0E1D4;}
	.st3{fill:#E1B623;}
	.st4{fill:#1467A8;}
	.st5{fill-rule:evenodd;clip-rule:evenodd;fill:#757575;}
	.st6{fill:#E4C025;}
	.st7{fill:#E4DEDF;}
	.st8{fill:#4A4A4A;}
	.st9{fill:#4ABC96;}
	.st10{fill:#E5DBC5;}
	.st11{fill:#19241E;}
	.st12{fill:#E7E7E7;}
	.st13{fill:#E8E1D3;}
	.st14{fill:#E96238;}
	.st15{fill:#E9C29C;}
	.st16{fill:#E9E9EA;}
	.st17{fill-rule:evenodd;clip-rule:evenodd;fill:#DDDDDC;}
	.st18{fill:#4FAFB9;}
	.st19{fill:#B1D4D7;}
	.st20{fill:#B3E0DF;}
	.st21{fill:#B8E3EB;}
	.st22{fill:#ECE9E9;}
	.st23{fill:#ECECEC;}
	.st24{fill:#ED7B3A;}
	.st25{fill:#EDC92C;}
	.st26{fill:#EEB488;}
	.st27{fill:#525252;}
	.st28{fill-rule:evenodd;clip-rule:evenodd;fill:#E4E4E4;}
	.st29{fill-rule:evenodd;clip-rule:evenodd;fill:#4B4A4B;}
	.st30{fill:#BDD2CE;}
	.st31{fill:#BFC1A9;}
	.st32{fill:#F16D53;}
	.st33{fill:#5A5A5A;}
	.st34{fill-rule:evenodd;clip-rule:evenodd;fill:#B5B2B3;}
	.st35{fill:#5C5C5C;}
	.st36{fill:#F7C192;}
	.st37{fill:#959595;}
	.st38{fill:#C4E2E7;}
	.st39{fill:#C6CBC8;}
	.st40{fill:#989897;}
	.st41{fill:#99999A;}
	.st42{opacity:0.2;}
	.st43{opacity:0.6;}
	.st44{opacity:0.8;}
	.st45{opacity:0.9;}
	.st46{fill:#606060;}
	.st47{fill-rule:evenodd;clip-rule:evenodd;fill:#BFC1A9;}
	.st48{fill:#FFFFFF;}
	.st49{fill:none;}
	.st50{fill-rule:evenodd;clip-rule:evenodd;fill:#5A5A5A;}
	.st51{fill:#676767;}
	.st52{fill:#67C3C8;}
	.st53{fill:#CAD8D4;}
	.st54{fill-rule:evenodd;clip-rule:evenodd;fill:#C0BEBF;}
	.st55{fill:#343433;}
	.st56{fill:#343A36;}
	.st57{fill:#353535;}
	.st58{fill:#357180;}
	.st59{fill:#377EC0;}
	.st60{fill:#6B491E;}
	.st61{fill:#6D6D6D;}
	.st62{fill-rule:evenodd;clip-rule:evenodd;fill:#616161;}
	.st63{fill:#D4DFDC;}
	.st64{fill:#D62127;}
	.st65{fill:#D6B429;}
	.st66{fill:#D7D0BC;}
	.st67{fill:#D7DABA;}
	.st68{fill:#3D929A;}
	.st69{fill:#D8E4E1;}
	.st70{fill:#D96527;}
	.st71{fill-rule:evenodd;clip-rule:evenodd;fill:#CDCCCB;}
	.st72{fill:#717171;}
	.st73{fill:#A19F9F;}
	.st74{fill:#A2D4DE;}
	.st75{fill:#DA1F26;}
	.st76{fill:#0C808B;}
	.st77{fill:#A7CACB;}
	.st78{fill:#DBDBDA;}
	.st79{fill:#DD5231;}
	.st80{fill:#409FA4;}
	.st81{fill:#DFBB26;}
	.st82{fill:#444445;}
	.st83{fill:#444545;}
]]>
</style>
<g>
	<g>
		<circle class="st74" cx="68.416" cy="68.417" r="63.333"/>
	</g>
	<g>
		<path class="st58" d="M5.083,68.417h126.666c0,34.977-28.355,63.334-63.334,63.334C33.438,131.75,5.083,103.393,5.083,68.417z"/>
	</g>
	<g>
		<g>
			<g>
				<g>
					<g>
						<path class="st25" d="M87.425,95.745c1.471,5.756-12.959,16.643-12.959,16.643s-18.082-2.588-19.551-8.344
							c-1.469-5.758,7.74-23.256,11.156-24.127C69.487,79.043,85.956,89.987,87.425,95.745z"/>
					</g>
					<g>
						<path class="st81" d="M87.425,95.745c1.471,5.756-12.959,16.643-12.959,16.643l-8.395-32.471
							C69.487,79.043,85.956,89.987,87.425,95.745z"/>
					</g>
				</g>
				<g>
					<path class="st6" d="M87.425,95.745c1.471,5.756-12.959,16.643-12.959,16.643s-18.082-2.588-19.551-8.344L87.425,95.745z"/>
				</g>
				<g>
					<path class="st65" d="M87.425,95.745c1.471,5.756-12.959,16.643-12.959,16.643l-3.262-12.502L87.425,95.745z"/>
				</g>
			</g>
			<g>
				<g>
					<g>
						<g>
							<path class="st27" d="M67.388,80c0,0-0.014,0.82-0.986,1.068s-1.381-0.465-1.381-0.465L52.198,30.367l2.367-0.604L67.388,80z
								"/>
						</g>
					</g>
					<g>
						<path class="st27" d="M55.692,29.238c0.135,0.531-0.885,1.25-2.27,1.604c-1.393,0.355-2.625,0.211-2.762-0.319
							c-0.135-0.532,0.879-1.248,2.27-1.604C54.317,28.565,55.556,28.706,55.692,29.238z"/>
					</g>
				</g>
				<g>
					<g>
						<path class="st64" d="M78.731,25.558l-25.359,6.474c-0.723,0.184-1.154,0.919-0.973,1.636l3.924,15.37
							c0.186,0.723,0.916,1.156,1.637,0.973l25.361-6.475c0.721-0.184,1.154-0.916,0.971-1.637l-3.924-15.37
							C80.185,25.811,79.454,25.374,78.731,25.558z"/>
					</g>
					<g>
						<g>
							<path class="st48" d="M84.292,41.899l-0.277-1.086l-28.785-9.257l-1.857,0.476c-0.723,0.184-1.154,0.919-0.973,1.636
								l0.211,0.823l29.277,9.41l1.434-0.365C84.042,43.352,84.476,42.62,84.292,41.899z"/>
						</g>
					</g>
				</g>
			</g>
		</g>
		<g>
			<g>
				<path class="st58" d="M68.415,125.961c15.838,0,29.465-9.424,35.605-22.965H32.812
					C38.952,116.538,52.579,125.961,68.415,125.961z"/>
			</g>
		</g>
	</g>
</g>
</svg>
