<?xml version="1.0" encoding="utf-8"?>
<!-- Generator: Adobe Illustrator 16.0.0, SVG Export Plug-In . SVG Version: 6.00 Build 0)  -->
<!DOCTYPE svg PUBLIC "-//W3C//DTD SVG 1.1//EN" "http://www.w3.org/Graphics/SVG/1.1/DTD/svg11.dtd">
<svg version="1.1" id="Layer_1" xmlns="http://www.w3.org/2000/svg" xmlns:xlink="http://www.w3.org/1999/xlink" x="0px" y="0px"
	 width="136.913px" height="136.914px" viewBox="0 0 136.913 136.914" enable-background="new 0 0 136.913 136.914"
	 xml:space="preserve">
<g>
	<g>
		<g>
			<g>
				<g>
					<circle fill="#344E5D" cx="68.457" cy="68.457" r="63.333"/>
				</g>
			</g>
		</g>
	</g>
	<g>
		<g>
			<g>
				<polygon fill="#67B8CB" points="93.802,38.034 69.728,112.164 117.646,55.141 				"/>
			</g>
			<g>
				<polygon fill="#A3DBE4" points="69.728,112.164 117.646,55.141 102.595,58.179 				"/>
			</g>
			<g>
				<polygon fill="#A3DBE4" points="45.751,38.438 69.728,112.164 21.733,55.425 				"/>
			</g>
			<g>
				<polygon fill="#8CD1DC" points="37.45,58.449 69.728,112.164 21.733,55.425 				"/>
			</g>
			<g>
				<g>
					<polygon fill="#AFDAE2" points="39.718,40.627 21.927,55.486 70.112,64.818 117.628,55.128 99.552,40.506 					"/>
				</g>
			</g>
		</g>
		<g>
			<linearGradient id="SVGID_2_" gradientUnits="userSpaceOnUse" x1="54.6475" y1="55.5415" x2="84.6255" y2="25.5635">
				<stop  offset="0" style="stop-color:#86C6D4"/>
				<stop  offset="1" style="stop-color:#A7DEF3"/>
			</linearGradient>
			<path fill="url(#SVGID_2_)" d="M99.556,40.493c0,0-8.193-4.179-15.85-7.187c0,0-7.363,0-13.594,0c-5.904,0-12.652,0-12.652,0
				c-8.318,2.863-17.742,7.305-17.742,7.305s30.395,5.902,30.395,5.887S99.556,40.493,99.556,40.493z"/>
		</g>
		<g>
			<g>
				<polygon fill="none" points="54.194,36.29 54.196,36.284 54.188,36.29 				"/>
			</g>
			<g>
				<polygon fill="#9FCFDB" points="108.517,57.103 108.446,57 108.413,57.008 				"/>
			</g>
			<g>
				<line fill="#9FCFDB" x1="54.196" y1="36.284" x2="54.188" y2="36.29"/>
			</g>
			<g>
				<polygon fill="#9FCFDB" points="32.604,57.821 32.829,57.598 32.741,57.58 				"/>
			</g>
		</g>
		<g>
			<path fill="#86C6D4" d="M76.034,36.419"/>
		</g>
		<g>
			<polygon fill="#AADDE2" points="69.765,64.818 69.765,112.164 53.19,61.499 			"/>
		</g>
		<g>
			<polygon fill="#90D3D3" points="69.765,64.818 69.765,112.164 86.175,61.59 			"/>
		</g>
		<g>
			<polygon fill="#86C6D4" points="37.45,58.449 39.718,40.627 21.927,55.486 			"/>
		</g>
		<g>
			<polygon fill="#67B8CB" points="54.589,43.463 37.45,58.449 39.718,40.627 			"/>
		</g>
		<g>
			<polygon fill="#AADDE2" points="53.153,61.499 54.589,43.463 37.45,58.449 			"/>
		</g>
		<g>
			<polygon fill="#A3DBE4" points="70.112,46.514 54.589,43.463 53.153,61.499 			"/>
		</g>
		<g>
			<polygon fill="#67B8CB" points="99.556,40.509 117.628,55.128 102.595,58.179 			"/>
		</g>
		<g>
			<polygon fill="#86C6D4" points="85.097,43.374 99.556,40.509 102.595,58.179 			"/>
		</g>
		<g>
			<polygon fill="#90D3D3" points="86.175,61.59 102.595,58.179 85.097,43.374 			"/>
		</g>
		<g>
			<polygon fill="#A3DBE4" points="70.112,46.514 85.097,43.374 86.175,61.59 			"/>
		</g>
		<g>
			<polygon fill="#67B8CB" points="69.765,64.818 86.175,61.59 70.112,46.514 			"/>
		</g>
		<g>
			<polygon fill="#90D3D3" points="53.153,61.499 69.765,64.818 70.112,46.514 			"/>
		</g>
	</g>
</g>
</svg>
