<?xml version="1.0" encoding="utf-8"?>
<!-- Generator: Adobe Illustrator 16.0.0, SVG Export Plug-In . SVG Version: 6.00 Build 0)  -->
<!DOCTYPE svg PUBLIC "-//W3C//DTD SVG 1.1//EN" "http://www.w3.org/Graphics/SVG/1.1/DTD/svg11.dtd">
<svg version="1.1" id="Layer_1" xmlns="http://www.w3.org/2000/svg" xmlns:xlink="http://www.w3.org/1999/xlink" x="0px" y="0px"
	 width="136.833px" height="136.834px" viewBox="0 0 136.833 136.834" style="enable-background:new 0 0 136.833 136.834;"
	 xml:space="preserve">
<style type="text/css">
<![CDATA[
	.st0{fill:#AAA79B;}
	.st1{fill:#AAAAAA;}
	.st2{fill:#49A0AE;}
	.st3{fill:#AD9030;}
	.st4{fill:#AE7B3E;}
	.st5{fill:#117F4A;}
	.st6{fill:#E03740;}
	.st7{opacity:0.15;fill:#F0EFED;}
	.st8{fill:#E13B3B;}
	.st9{fill:#E1C821;}
	.st10{fill:#E1DEDB;}
	.st11{fill:#E2C448;}
	.st12{fill:#E34F50;}
	.st13{fill:#4ABC96;}
	.st14{fill:#E5E5E5;}
	.st15{fill:#E7E7E7;}
	.st16{fill:#E84849;}
	.st17{fill:#E8E4AA;}
	.st18{fill:#E9C11E;}
	.st19{fill:#E9E9EA;}
	.st20{fill:#B19353;}
	.st21{clip-path:url(#SVGID_2_);fill:#AAAAAA;}
	.st22{fill:#B29C76;}
	.st23{fill:#838383;}
	.st24{fill:#B2B0A6;}
	.st25{fill:#B2B2B2;}
	.st26{fill:#B4B4B5;}
	.st27{fill:#867257;}
	.st28{fill:#86847D;}
	.st29{fill:#1B7A9A;}
	.st30{fill:#B6B3A1;}
	.st31{fill:#B6B6B7;}
	.st32{fill:#B6C2CB;}
	.st33{fill:#1C4C51;}
	.st34{fill:#888888;}
	.st35{fill:#EB9682;}
	.st36{fill:#898579;}
	.st37{fill:#B8D4D8;}
	.st38{fill:#ECE17E;}
	.st39{fill:#B9972F;}
	.st40{fill:#B9A57C;}
	.st41{fill:#B9B9BA;}
	.st42{fill:#EDC92C;}
	.st43{fill:#EDEBE7;}
	.st44{fill:#525252;}
	.st45{opacity:0.15;fill:#FFFFFF;}
	.st46{fill:#565453;}
	.st47{fill:#575656;}
	.st48{fill-rule:evenodd;clip-rule:evenodd;fill:#4B4A4B;}
	.st49{clip-path:url(#SVGID_4_);fill:#AAAAAA;}
	.st50{fill:#BAE2DD;}
	.st51{fill:#BBBCBB;}
	.st52{fill:#BDB36D;}
	.st53{fill:#202121;}
	.st54{clip-path:url(#SVGID_2_);fill:#1B7A9A;}
	.st55{fill:#239563;}
	.st56{fill:#F37C2A;}
	.st57{fill:#255860;}
	.st58{fill:#F3EED5;}
	.st59{fill:#F4E028;}
	.st60{fill:#F4F4EE;}
	.st61{fill:#5ABE8F;}
	.st62{fill:#F6F2E4;}
	.st63{fill:#5C5853;}
	.st64{fill:#5C5C5C;}
	.st65{fill-rule:evenodd;clip-rule:evenodd;fill:#EB6C25;}
	.st66{fill:#2992AD;}
	.st67{fill:#5E5F5E;}
	.st68{fill:#F9F29A;}
	.st69{clip-path:url(#SVGID_2_);}
	.st70{clip-path:url(#SVGID_4_);}
	.st71{fill:#C0BFBC;}
	.st72{fill:#C0C0C0;}
	.st73{fill:#C1914F;}
	.st74{fill:#93793D;}
	.st75{fill:#C3C3C3;}
	.st76{fill:#C3D5C7;}
	.st77{fill:#C4A830;}
	.st78{clip-path:url(#SVGID_4_);fill:#1B7A9A;}
	.st79{fill:#C698C5;}
	.st80{fill:#972627;}
	.st81{fill:#C6C5C5;}
	.st82{fill:#C74A39;}
	.st83{fill:#C84027;}
	.st84{opacity:0.1;}
	.st85{fill:#616161;}
	.st86{fill:#FFCE00;}
	.st87{fill:#FFF5F4;}
	.st88{fill:#FFFFFF;}
	.st89{fill:#63BD6E;}
	.st90{fill-rule:evenodd;clip-rule:evenodd;fill:#F37C2A;}
	.st91{fill:none;}
	.st92{fill:#65A844;}
	.st93{fill:#667580;}
	.st94{fill:#CAE8E4;}
	.st95{fill:#9C9C9C;}
	.st96{fill:#CBBD7D;}
	.st97{fill:#CC4028;}
	.st98{fill:#CCC375;}
	.st99{fill:#CCC788;}
	.st100{fill:#9DDAEC;}
	.st101{fill:#CDAB2D;}
	.st102{fill:#CDCCCB;}
	.st103{fill:#CDCDCE;}
	.st104{fill:#CDE7D5;}
	.st105{fill:#9F77AA;}
	.st106{fill:#CECBCB;}
	.st107{fill:#357180;}
	.st108{fill:#6BA297;}
	.st109{fill:#6EC2CB;}
	.st110{fill:#D0D1D1;}
	.st111{fill:#D1974F;}
	.st112{fill:#D1AFD2;}
	.st113{fill:#D22027;}
	.st114{fill:#D2B63D;}
	.st115{fill:#D2D2D2;}
	.st116{fill:#D32033;}
	.st117{clip-path:url(#SVGID_2_);fill:#CDCDCE;}
	.st118{fill:#D51F31;}
	.st119{fill:#D5C7C3;}
	.st120{fill:#D5D6D5;}
	.st121{fill:#3B3A38;}
	.st122{fill:#3B6DA2;}
	.st123{fill:#D6CB78;}
	.st124{fill:#D73D3D;}
	.st125{fill:#D7B029;}
	.st126{fill:#D8D8D7;}
	.st127{fill:#A03D3D;}
	.st128{fill:#A09592;}
	.st129{fill:#717171;}
	.st130{fill:#A19F9F;}
	.st131{fill:#727172;}
	.st132{fill:#F9F29A;stroke:#E1C821;stroke-miterlimit:10;}
	.st133{fill:#A2D1C9;}
	.st134{fill:#A33B3B;}
	.st135{fill:#A48A47;}
	.st136{fill:#DAC425;}
	.st137{fill:#786547;}
	.st138{fill:#787878;}
	.st139{fill:#A7A8A7;}
	.st140{fill-rule:evenodd;clip-rule:evenodd;fill:#6DABB5;}
	.st141{fill:#DCD99D;}
	.st142{fill:#DD5231;}
	.st143{clip-path:url(#SVGID_4_);fill:#CDCDCE;}
	.st144{fill:#DDDACA;}
	.st145{fill:#DDDCD6;}
	.st146{fill:#DDDDDC;}
	.st147{fill:#404040;}
	.st148{fill:#DEBA24;}
	.st149{fill:#DFBFDB;}
	.st150{fill:#DFD48A;}
	.st151{fill:#DFDFDF;}
	.st152{fill:#444545;}
	.st153{fill:#45423F;}
]]>
</style>
<g>
	<circle class="st13" cx="68.417" cy="68.417" r="63.333"/>
	<g>
		<path class="st10" d="M110.425,88.536c0,2.49-2.018,4.508-4.508,4.508H31.533c-2.49,0-4.508-2.018-4.508-4.508v-42.07
			c0-2.49,2.018-4.508,4.508-4.508h74.385c2.49,0,4.508,2.018,4.508,4.508V88.536z"/>
		<path class="st43" d="M27.025,68.005V46.466c0-2.49,2.018-4.508,4.508-4.508h74.385c2.49,0,4.508,2.018,4.508,4.508v21.539H27.025
			z"/>
		<g>
			<path class="st63" d="M35.852,84.698c0,0.297-0.229,0.537-0.511,0.537l0,0c-0.281,0-0.51-0.24-0.51-0.537V51.042
				c0-0.297,0.229-0.539,0.51-0.539l0,0c0.281,0,0.511,0.242,0.511,0.539V84.698z"/>
			<path class="st63" d="M42.98,84.698c0,0.297-0.229,0.537-0.511,0.537l0,0c-0.281,0-0.509-0.24-0.509-0.537V51.042
				c0-0.297,0.228-0.539,0.509-0.539l0,0c0.282,0,0.511,0.242,0.511,0.539V84.698z"/>
			<path class="st63" d="M53.927,84.698c0,0.297-0.228,0.537-0.51,0.537l0,0c-0.281,0-0.509-0.24-0.509-0.537V51.042
				c0-0.297,0.228-0.539,0.509-0.539l0,0c0.282,0,0.51,0.242,0.51,0.539V84.698z"/>
			<path class="st63" d="M64.618,84.698c0,0.297-0.228,0.537-0.508,0.537l0,0c-0.281,0-0.509-0.24-0.509-0.537V51.042
				c0-0.297,0.228-0.539,0.509-0.539l0,0c0.28,0,0.508,0.242,0.508,0.539V84.698z"/>
			<path class="st63" d="M87.278,84.698c0,0.297-0.228,0.537-0.51,0.537l0,0c-0.281,0-0.509-0.24-0.509-0.537V51.042
				c0-0.297,0.228-0.539,0.509-0.539l0,0c0.282,0,0.51,0.242,0.51,0.539V84.698z"/>
			<path class="st63" d="M89.155,84.698c0,0.297-0.214,0.537-0.477,0.537l0,0c-0.265,0-0.479-0.24-0.479-0.537V51.042
				c0-0.297,0.214-0.539,0.479-0.539l0,0c0.263,0,0.477,0.242,0.477,0.539V84.698z"/>
			<path class="st63" d="M102.647,84.698c0,0.297-0.214,0.537-0.477,0.537l0,0c-0.265,0-0.479-0.24-0.479-0.537V51.042
				c0-0.297,0.214-0.539,0.479-0.539l0,0c0.263,0,0.477,0.242,0.477,0.539V84.698z"/>
			<path class="st63" d="M65.34,50.503c-0.197,0-0.358,0.242-0.358,0.539v33.656c0,0.297,0.161,0.537,0.358,0.537
				c0.199,0,0.358-0.24,0.358-0.537V51.042C65.699,50.745,65.54,50.503,65.34,50.503z"/>
			<path class="st63" d="M74.506,50.503c-0.198,0-0.359,0.242-0.359,0.539v33.656c0,0.297,0.161,0.537,0.359,0.537
				c0.196,0,0.357-0.24,0.357-0.537V51.042C74.864,50.745,74.703,50.503,74.506,50.503z"/>
			<path class="st63" d="M96.825,50.503c-0.197,0-0.358,0.242-0.358,0.539v33.656c0,0.297,0.161,0.537,0.358,0.537
				c0.198,0,0.357-0.24,0.357-0.537V51.042C97.182,50.745,97.023,50.503,96.825,50.503z"/>
			<path class="st63" d="M93.005,50.503c-0.197,0-0.357,0.242-0.357,0.539v33.656c0,0.297,0.16,0.537,0.357,0.537
				s0.358-0.24,0.358-0.537V51.042C93.364,50.745,93.203,50.503,93.005,50.503z"/>
			<path class="st63" d="M81.294,50.503c-0.198,0-0.357,0.242-0.357,0.539v33.656c0,0.297,0.159,0.537,0.357,0.537
				s0.358-0.24,0.358-0.537V51.042C81.653,50.745,81.493,50.503,81.294,50.503z"/>
			<path class="st63" d="M68.82,50.503c-0.197,0-0.358,0.242-0.358,0.539v33.656c0,0.297,0.161,0.537,0.358,0.537
				s0.359-0.24,0.359-0.537V51.042C69.179,50.745,69.017,50.503,68.82,50.503z"/>
			<path class="st63" d="M49.471,50.503c-0.197,0-0.356,0.242-0.356,0.539v33.656c0,0.297,0.159,0.537,0.356,0.537
				c0.199,0,0.358-0.24,0.358-0.537V51.042C49.83,50.745,49.67,50.503,49.471,50.503z"/>
			<path class="st63" d="M41.07,50.503c-0.196,0-0.357,0.242-0.357,0.539v33.656c0,0.297,0.161,0.537,0.357,0.537
				c0.198,0,0.358-0.24,0.358-0.537V51.042C41.428,50.745,41.268,50.503,41.07,50.503z"/>
			<path class="st63" d="M60.928,50.503c-0.198,0-0.358,0.242-0.358,0.539v33.656c0,0.297,0.16,0.537,0.358,0.537
				s0.358-0.24,0.358-0.537V51.042C61.287,50.745,61.126,50.503,60.928,50.503z"/>
			<path class="st63" d="M38.112,84.698c0,0.297-0.272,0.537-0.606,0.537l0,0c-0.334,0-0.604-0.24-0.604-0.537V51.042
				c0-0.297,0.27-0.539,0.604-0.539l0,0c0.334,0,0.606,0.242,0.606,0.539V84.698z"/>
			<path class="st63" d="M45.555,84.698c0,0.297-0.354,0.537-0.793,0.537l0,0c-0.438,0-0.794-0.24-0.794-0.537V51.042
				c0-0.297,0.355-0.539,0.794-0.539l0,0c0.438,0,0.793,0.242,0.793,0.539V84.698z"/>
			<path class="st63" d="M58.285,84.698c0,0.297-0.354,0.537-0.793,0.537l0,0c-0.438,0-0.794-0.24-0.794-0.537V51.042
				c0-0.297,0.355-0.539,0.794-0.539l0,0c0.438,0,0.793,0.242,0.793,0.539V84.698z"/>
			<path class="st63" d="M73.815,84.698c0,0.297-0.355,0.537-0.795,0.537l0,0c-0.438,0-0.794-0.24-0.794-0.537V51.042
				c0-0.297,0.355-0.539,0.794-0.539l0,0c0.439,0,0.795,0.242,0.795,0.539V84.698z"/>
			<path class="st63" d="M100.687,84.698c0,0.297-0.532,0.537-1.189,0.537l0,0c-0.657,0-1.191-0.24-1.191-0.537V51.042
				c0-0.297,0.534-0.539,1.191-0.539l0,0c0.657,0,1.189,0.242,1.189,0.539V84.698z"/>
			<path class="st63" d="M80.067,84.698c0,0.297-0.533,0.537-1.191,0.537l0,0c-0.657,0-1.19-0.24-1.19-0.537V51.042
				c0-0.297,0.533-0.539,1.19-0.539l0,0c0.658,0,1.191,0.242,1.191,0.539V84.698z"/>
		</g>
		<g>
			<path class="st153" d="M34.832,84.698c0,0.297,0.229,0.537,0.51,0.537s0.511-0.24,0.511-0.537V68.005h-1.021V84.698z"/>
			<path class="st153" d="M41.96,84.698c0,0.297,0.228,0.537,0.509,0.537c0.282,0,0.511-0.24,0.511-0.537V68.005h-1.02V84.698z"/>
			<path class="st153" d="M52.909,84.698c0,0.297,0.228,0.537,0.509,0.537c0.282,0,0.51-0.24,0.51-0.537V68.005h-1.019V84.698z"/>
			<path class="st153" d="M63.601,84.698c0,0.297,0.228,0.537,0.509,0.537c0.28,0,0.508-0.24,0.508-0.537V68.005h-1.017V84.698z"/>
			<path class="st153" d="M86.259,84.698c0,0.297,0.228,0.537,0.509,0.537c0.282,0,0.51-0.24,0.51-0.537V68.005h-1.019V84.698z"/>
			<path class="st153" d="M88.2,84.698c0,0.297,0.214,0.537,0.479,0.537c0.263,0,0.477-0.24,0.477-0.537V68.005H88.2V84.698z"/>
			<path class="st153" d="M101.692,84.698c0,0.297,0.214,0.537,0.479,0.537c0.263,0,0.477-0.24,0.477-0.537V68.005h-0.955V84.698z"
				/>
			<path class="st153" d="M64.982,84.698c0,0.297,0.161,0.537,0.358,0.537c0.199,0,0.358-0.24,0.358-0.537V68.005h-0.717V84.698z"/>
			<path class="st153" d="M74.147,84.698c0,0.297,0.161,0.537,0.359,0.537c0.196,0,0.357-0.24,0.357-0.537V68.005h-0.717V84.698z"/>
			<path class="st153" d="M96.466,84.698c0,0.297,0.161,0.537,0.358,0.537c0.198,0,0.357-0.24,0.357-0.537V68.005h-0.716V84.698z"/>
			<path class="st153" d="M92.648,84.698c0,0.297,0.16,0.537,0.357,0.537s0.358-0.24,0.358-0.537V68.005h-0.716V84.698z"/>
			<path class="st153" d="M80.937,84.698c0,0.297,0.159,0.537,0.357,0.537s0.358-0.24,0.358-0.537V68.005h-0.716V84.698z"/>
			<path class="st153" d="M68.461,84.698c0,0.297,0.161,0.537,0.358,0.537s0.359-0.24,0.359-0.537V68.005h-0.718V84.698z"/>
			<path class="st153" d="M49.115,84.698c0,0.297,0.159,0.537,0.356,0.537c0.199,0,0.358-0.24,0.358-0.537V68.005h-0.715V84.698z"/>
			<path class="st153" d="M40.712,84.698c0,0.297,0.161,0.537,0.357,0.537c0.198,0,0.358-0.24,0.358-0.537V68.005h-0.716V84.698z"/>
			<path class="st153" d="M60.57,84.698c0,0.297,0.16,0.537,0.358,0.537s0.358-0.24,0.358-0.537V68.005H60.57V84.698z"/>
			<path class="st153" d="M36.902,84.698c0,0.297,0.27,0.537,0.604,0.537s0.606-0.24,0.606-0.537V68.005h-1.21V84.698z"/>
			<path class="st153" d="M43.968,84.698c0,0.297,0.355,0.537,0.794,0.537s0.793-0.24,0.793-0.537V68.005h-1.587V84.698z"/>
			<path class="st153" d="M56.698,84.698c0,0.297,0.355,0.537,0.794,0.537s0.793-0.24,0.793-0.537V68.005h-1.587V84.698z"/>
			<path class="st153" d="M72.226,84.698c0,0.297,0.355,0.537,0.794,0.537c0.439,0,0.795-0.24,0.795-0.537V68.005h-1.589V84.698z"/>
			<path class="st153" d="M98.306,84.698c0,0.297,0.534,0.537,1.191,0.537s1.189-0.24,1.189-0.537V68.005h-2.381V84.698z"/>
			<path class="st153" d="M77.685,84.698c0,0.297,0.533,0.537,1.19,0.537c0.658,0,1.191-0.24,1.191-0.537V68.005h-2.382V84.698z"/>
		</g>
	</g>
</g>
</svg>
