<?xml version="1.0" encoding="utf-8"?>
<!-- Generator: Adobe Illustrator 16.0.0, SVG Export Plug-In . SVG Version: 6.00 Build 0)  -->
<!DOCTYPE svg PUBLIC "-//W3C//DTD SVG 1.1//EN" "http://www.w3.org/Graphics/SVG/1.1/DTD/svg11.dtd">
<svg version="1.1" id="Layer_1" xmlns="http://www.w3.org/2000/svg" xmlns:xlink="http://www.w3.org/1999/xlink" x="0px" y="0px"
	 width="136.833px" height="136.833px" viewBox="0 0 136.833 136.833" style="enable-background:new 0 0 136.833 136.833;"
	 xml:space="preserve">
<style type="text/css">
<![CDATA[
	.st0{fill:#AAA79B;}
	.st1{fill:#AAAAAA;}
	.st2{fill:#49A0AE;}
	.st3{fill:#AD9030;}
	.st4{fill:#AE7B3E;}
	.st5{fill:#117F4A;}
	.st6{fill:#E03740;}
	.st7{opacity:0.15;fill:#F0EFED;}
	.st8{fill:#E13B3B;}
	.st9{fill:#E1C821;}
	.st10{fill:#E1DEDB;}
	.st11{fill:#E2C448;}
	.st12{fill:#E34F50;}
	.st13{fill:#4ABC96;}
	.st14{fill:#E5E5E5;}
	.st15{fill:#E7E7E7;}
	.st16{fill:#E84849;}
	.st17{fill:#E8E4AA;}
	.st18{fill:#E9C11E;}
	.st19{fill:#E9E9EA;}
	.st20{fill:#B19353;}
	.st21{clip-path:url(#SVGID_2_);fill:#AAAAAA;}
	.st22{fill:#B29C76;}
	.st23{fill:#838383;}
	.st24{fill:#B2B0A6;}
	.st25{fill:#B2B2B2;}
	.st26{fill:#B4B4B5;}
	.st27{fill:#867257;}
	.st28{fill:#86847D;}
	.st29{fill:#1B7A9A;}
	.st30{fill:#B6B3A1;}
	.st31{fill:#B6B6B7;}
	.st32{fill:#B6C2CB;}
	.st33{fill:#1C4C51;}
	.st34{fill:#888888;}
	.st35{fill:#EB9682;}
	.st36{fill:#898579;}
	.st37{fill:#B8D4D8;}
	.st38{fill:#ECE17E;}
	.st39{fill:#B9972F;}
	.st40{fill:#B9A57C;}
	.st41{fill:#B9B9BA;}
	.st42{fill:#EDC92C;}
	.st43{fill:#EDEBE7;}
	.st44{fill:#525252;}
	.st45{opacity:0.15;fill:#FFFFFF;}
	.st46{fill:#565453;}
	.st47{fill:#575656;}
	.st48{fill-rule:evenodd;clip-rule:evenodd;fill:#4B4A4B;}
	.st49{clip-path:url(#SVGID_4_);fill:#AAAAAA;}
	.st50{fill:#BAE2DD;}
	.st51{fill:#BBBCBB;}
	.st52{fill:#BDB36D;}
	.st53{fill:#202121;}
	.st54{clip-path:url(#SVGID_2_);fill:#1B7A9A;}
	.st55{fill:#239563;}
	.st56{fill:#F37C2A;}
	.st57{fill:#255860;}
	.st58{fill:#F3EED5;}
	.st59{fill:#F4E028;}
	.st60{fill:#F4F4EE;}
	.st61{fill:#5ABE8F;}
	.st62{fill:#F6F2E4;}
	.st63{fill:#5C5853;}
	.st64{fill:#5C5C5C;}
	.st65{fill-rule:evenodd;clip-rule:evenodd;fill:#EB6C25;}
	.st66{fill:#2992AD;}
	.st67{fill:#5E5F5E;}
	.st68{fill:#F9F29A;}
	.st69{clip-path:url(#SVGID_2_);}
	.st70{clip-path:url(#SVGID_4_);}
	.st71{fill:#C0BFBC;}
	.st72{fill:#C0C0C0;}
	.st73{fill:#C1914F;}
	.st74{fill:#93793D;}
	.st75{fill:#C3C3C3;}
	.st76{fill:#C3D5C7;}
	.st77{fill:#C4A830;}
	.st78{clip-path:url(#SVGID_4_);fill:#1B7A9A;}
	.st79{fill:#C698C5;}
	.st80{fill:#972627;}
	.st81{fill:#C6C5C5;}
	.st82{fill:#C74A39;}
	.st83{fill:#C84027;}
	.st84{opacity:0.1;}
	.st85{fill:#616161;}
	.st86{fill:#FFCE00;}
	.st87{fill:#FFF5F4;}
	.st88{fill:#FFFFFF;}
	.st89{fill:#63BD6E;}
	.st90{fill-rule:evenodd;clip-rule:evenodd;fill:#F37C2A;}
	.st91{fill:none;}
	.st92{fill:#65A844;}
	.st93{fill:#667580;}
	.st94{fill:#CAE8E4;}
	.st95{fill:#9C9C9C;}
	.st96{fill:#CBBD7D;}
	.st97{fill:#CC4028;}
	.st98{fill:#CCC375;}
	.st99{fill:#CCC788;}
	.st100{fill:#9DDAEC;}
	.st101{fill:#CDAB2D;}
	.st102{fill:#CDCCCB;}
	.st103{fill:#CDCDCE;}
	.st104{fill:#CDE7D5;}
	.st105{fill:#9F77AA;}
	.st106{fill:#CECBCB;}
	.st107{fill:#357180;}
	.st108{fill:#6BA297;}
	.st109{fill:#6EC2CB;}
	.st110{fill:#D0D1D1;}
	.st111{fill:#D1974F;}
	.st112{fill:#D1AFD2;}
	.st113{fill:#D22027;}
	.st114{fill:#D2B63D;}
	.st115{fill:#D2D2D2;}
	.st116{fill:#D32033;}
	.st117{clip-path:url(#SVGID_2_);fill:#CDCDCE;}
	.st118{fill:#D51F31;}
	.st119{fill:#D5C7C3;}
	.st120{fill:#D5D6D5;}
	.st121{fill:#3B3A38;}
	.st122{fill:#3B6DA2;}
	.st123{fill:#D6CB78;}
	.st124{fill:#D73D3D;}
	.st125{fill:#D7B029;}
	.st126{fill:#D8D8D7;}
	.st127{fill:#A03D3D;}
	.st128{fill:#A09592;}
	.st129{fill:#717171;}
	.st130{fill:#A19F9F;}
	.st131{fill:#727172;}
	.st132{fill:#F9F29A;stroke:#E1C821;stroke-miterlimit:10;}
	.st133{fill:#A2D1C9;}
	.st134{fill:#A33B3B;}
	.st135{fill:#A48A47;}
	.st136{fill:#DAC425;}
	.st137{fill:#786547;}
	.st138{fill:#787878;}
	.st139{fill:#A7A8A7;}
	.st140{fill-rule:evenodd;clip-rule:evenodd;fill:#6DABB5;}
	.st141{fill:#DCD99D;}
	.st142{fill:#DD5231;}
	.st143{clip-path:url(#SVGID_4_);fill:#CDCDCE;}
	.st144{fill:#DDDACA;}
	.st145{fill:#DDDCD6;}
	.st146{fill:#DDDDDC;}
	.st147{fill:#404040;}
	.st148{fill:#DEBA24;}
	.st149{fill:#DFBFDB;}
	.st150{fill:#DFD48A;}
	.st151{fill:#DFDFDF;}
	.st152{fill:#444545;}
	.st153{fill:#45423F;}
]]>
</style>
<g>
	<g>
		<circle class="st86" cx="68.417" cy="68.417" r="63.333"/>
		<g>
			<path class="st90" d="M42.569,31.467l17.338,7.293l9.09-16.211l9.344,16.211l17.084-7.621l-1.926,18.68l18.771,3.783
				L99.235,67.436l13.035,13.914l-18.361,3.701l1.844,19.09l-17.002-7.617l-9.424,16.209l-9.01-16.209l-17.748,7.617l2.18-18.27
				l-18.365-4.193l12.629-13.834L26.384,53.932c-0.607,0,18.365-4.113,18.365-4.113L42.569,31.467z"/>
		</g>
		<g>
			<polygon class="st65" points="93.499,49.819 112.271,53.602 99.235,67.436 112.271,81.35 93.909,85.051 95.753,104.141 
				78.751,96.524 69.327,112.733 60.317,96.524 42.569,104.141 44.749,85.872 			"/>
		</g>
		<g>
			<g>
				<path class="st87" d="M58.167,74.875c-0.289,0-0.555-0.043-0.787-0.127c-0.238-0.086-0.463-0.223-0.668-0.404
					c-0.195-0.174-0.377-0.381-0.545-0.611c-0.156-0.221-0.314-0.445-0.471-0.674l-4.984-7.641v7.547
					c0,0.609-0.15,1.082-0.445,1.408c-0.301,0.334-0.693,0.502-1.162,0.502c-0.484,0-0.879-0.172-1.174-0.51
					c-0.287-0.33-0.434-0.799-0.434-1.4V61.92c0-0.506,0.057-0.895,0.174-1.193c0.146-0.346,0.385-0.625,0.713-0.838
					c0.58-0.375,1.342-0.395,1.836-0.168c0.215,0.098,0.404,0.23,0.564,0.395c0.15,0.156,0.305,0.355,0.459,0.596
					c0.148,0.229,0.299,0.467,0.455,0.715l5.115,7.738v-7.682c0-0.613,0.141-1.088,0.418-1.41c0.285-0.332,0.674-0.502,1.15-0.502
					c0.49,0,0.885,0.168,1.176,0.502c0.279,0.32,0.422,0.795,0.422,1.41v11.258C59.979,74.506,58.995,74.875,58.167,74.875z"/>
			</g>
			<g>
				<path class="st87" d="M72.562,74.631h-7.881c-0.697,0-1.217-0.166-1.539-0.494c-0.324-0.328-0.488-0.844-0.488-1.533V61.842
					c0-0.459,0.068-0.826,0.209-1.127c0.15-0.318,0.387-0.553,0.705-0.697c0.295-0.135,0.67-0.201,1.113-0.201h7.656
					c0.525,0,0.928,0.125,1.199,0.371c0.277,0.254,0.418,0.588,0.418,0.99c0,0.41-0.141,0.748-0.418,1
					c-0.271,0.248-0.674,0.373-1.199,0.373h-6.283v3.016h5.766c0.506,0,0.895,0.123,1.16,0.363c0.271,0.248,0.408,0.574,0.408,0.971
					c0,0.395-0.135,0.725-0.398,0.977c-0.262,0.25-0.656,0.377-1.17,0.377h-5.766v3.572h6.508c0.52,0,0.922,0.129,1.199,0.383
					c0.285,0.26,0.428,0.607,0.428,1.029c0,0.412-0.143,0.75-0.428,1.01C73.483,74.502,73.081,74.631,72.562,74.631z"/>
			</g>
			<g>
				<path class="st87" d="M88.44,74.875c-0.5,0-0.912-0.131-1.225-0.389c-0.299-0.25-0.51-0.535-0.629-0.852
					c-0.109-0.285-0.256-0.758-0.447-1.441l-2.076-7.697l-2.1,7.695c-0.188,0.668-0.332,1.133-0.443,1.424
					c-0.121,0.322-0.334,0.613-0.633,0.865c-0.313,0.262-0.725,0.395-1.227,0.395c-0.4,0-0.74-0.078-1.008-0.232
					c-0.268-0.156-0.488-0.377-0.652-0.656c-0.154-0.262-0.281-0.576-0.377-0.932c-0.092-0.336-0.174-0.65-0.246-0.938l-2.383-9.639
					c-0.148-0.582-0.223-1.021-0.223-1.34c0-0.439,0.158-0.814,0.467-1.115s0.691-0.453,1.141-0.453
					c0.625,0,1.057,0.215,1.285,0.641c0.195,0.361,0.359,0.865,0.502,1.541l1.652,7.365l1.838-6.842
					c0.16-0.615,0.301-1.072,0.428-1.395c0.141-0.352,0.369-0.66,0.682-0.912c0.324-0.264,0.762-0.398,1.299-0.398
					c0.549,0,0.986,0.141,1.303,0.42c0.301,0.262,0.512,0.557,0.631,0.877c0.107,0.287,0.248,0.748,0.428,1.408l1.855,6.848
					l1.652-7.375c0.092-0.434,0.18-0.787,0.266-1.049c0.094-0.283,0.256-0.541,0.482-0.764c0.246-0.242,0.596-0.365,1.039-0.365
					s0.824,0.15,1.135,0.445c0.314,0.301,0.473,0.678,0.473,1.123c0,0.291-0.072,0.729-0.221,1.34l-2.383,9.639
					c-0.168,0.668-0.303,1.143-0.414,1.455c-0.121,0.34-0.328,0.643-0.615,0.898C89.392,74.741,88.97,74.875,88.44,74.875z"/>
			</g>
		</g>
	</g>
</g>
</svg>
