<?xml version="1.0" encoding="utf-8"?>
<!-- Generator: Adobe Illustrator 16.0.0, SVG Export Plug-In . SVG Version: 6.00 Build 0)  -->
<!DOCTYPE svg PUBLIC "-//W3C//DTD SVG 1.1//EN" "http://www.w3.org/Graphics/SVG/1.1/DTD/svg11.dtd">
<svg version="1.1" id="Layer_1" xmlns="http://www.w3.org/2000/svg" xmlns:xlink="http://www.w3.org/1999/xlink" x="0px" y="0px"
	 width="512px" height="512px" viewBox="0 0 512 512" style="enable-background:new 0 0 512 512;" xml:space="preserve">
<style type="text/css">
<![CDATA[
	.st0{fill:#7CE063;}
	.st1{fill:#7DBDD3;}
	.st2{fill:#AFB1B2;}
	.st3{fill:#AFB2AD;}
	.st4{fill:#E17A2D;}
	.st5{fill:#E2A120;}
	.st6{fill:#E2E2E2;}
	.st7{fill:#E4EDF2;}
	.st8{fill:#4ABC96;}
	.st9{fill:#E5EAE4;}
	.st10{fill:#4D87A9;}
	.st11{fill:#818281;}
	.st12{fill:#818785;}
	.st13{fill:#EA6307;}
	.st14{fill:#878E8C;}
	.st15{fill:#EAB32A;}
	.st16{fill:#EAFFFF;}
	.st17{fill:#B8BCB7;}
	.st18{fill:#EDEAB7;}
	.st19{fill:#51CC37;}
	.st20{fill:#EFE350;}
	.st21{fill:#BC934B;}
	.st22{fill:#BCDAE8;}
	.st23{fill:#8E8D85;}
	.st24{fill:#8E8E8E;}
	.st25{fill:#BDC1BC;}
	.st26{fill:#BFBFBA;}
	.st27{fill:#BFBFBE;}
	.st28{fill:#22343D;}
	.st29{fill:#238C10;}
	.st30{fill:#F2C900;}
	.st31{fill:#F2F2F2;}
	.st32{fill:#F3F4F5;}
	.st33{fill:#F4E028;}
	.st34{fill:#282828;}
	.st35{fill:#F7CD4B;}
	.st36{fill:#F9D56E;}
	.st37{fill:#F9F9F9;}
	.st38{fill:#C0C9BD;}
	.st39{fill:#C1BEA0;}
	.st40{fill:#C1C1C1;}
	.st41{fill:#94B7CB;}
	.st42{fill:#C44600;}
	.st43{fill:#C4A405;}
	.st44{fill:#C4C4C4;}
	.st45{fill:#969696;}
	.st46{fill:#FCE19D;}
	.st47{opacity:0.3;}
	.st48{opacity:0.5;}
	.st49{fill:#FFC217;}
	.st50{fill:#FFDB29;}
	.st51{fill:#FFE36E;}
	.st52{fill:#FFFFFF;}
	.st53{fill:#636363;}
	.st54{fill:#647F8C;}
	.st55{fill:none;}
	.st56{fill:#9B9410;}
	.st57{fill:#9B9A8C;}
	.st58{fill:#686868;}
	.st59{fill:#CBEFE1;}
	.st60{fill:#696B6A;}
	.st61{fill:#CCCCC2;}
	.st62{fill:#CCCCCC;}
	.st63{fill:#CCD3D6;}
	.st64{fill:#9E9A80;}
	.st65{fill:#9EAFAA;}
	.st66{fill:#CE5800;}
	.st67{fill:#CECECE;}
	.st68{fill:#9FC9BF;}
	.st69{fill:#9FDDDB;}
	.st70{fill:#329670;}
	.st71{fill:#334D5C;}
	.st72{fill:#34BC1D;}
	.st73{fill:#353535;}
	.st74{fill:#D3D1B7;}
	.st75{fill:#D3D3D1;}
	.st76{fill:#D3D3D3;}
	.st77{fill:#D5D6C9;}
	.st78{fill:#D6E2D3;}
	.st79{fill:#D6E9F2;}
	.st80{fill:#D8D8D6;}
	.st81{fill:#D9DCDD;}
	.st82{fill:#3FAA83;}
	.st83{fill:#738E99;}
	.st84{fill:#A5A5A5;}
	.st85{fill:#DBBB00;}
	.st86{fill:#A8843B;}
	.st87{fill:#A8A58F;}
	.st88{fill:#DDDDDD;}
	.st89{fill:#41AF87;}
	.st90{fill:#DFEADC;}
	.st91{fill:#43C628;}
	.st92{fill:#44A048;}
]]>
</style>
<g>
	<g>
		<g>
			<path class="st71" d="M256.003,7.924c-137.012,0-248.082,111.06-248.082,248.082c0,137.001,111.07,248.07,248.082,248.07
				c137.006,0,248.076-111.069,248.076-248.07C504.079,118.983,393.009,7.924,256.003,7.924z"/>
		</g>
	</g>
	<g>
		<g>
			<g>
				<g>
					<g>
						<polygon class="st85" points="133.562,133.29 115.751,132.662 110.155,116.284 104.56,132.662 86.749,133.29 101.102,143.305 
							95.689,160.806 110.155,149.883 124.621,160.806 119.209,143.305 						"/>
					</g>
				</g>
				<g>
					<g>
						<polygon class="st85" points="115.838,137.313 118.906,125.673 109.21,132.807 98.687,126.306 102.877,137.719 93.04,145.73 
							105.59,145.26 109.77,157.104 113.602,145.009 125.756,144.707 						"/>
					</g>
				</g>
			</g>
			<g>
				<g>
					<g>
						<polygon class="st85" points="234.979,402.88 217.169,402.252 211.573,385.875 205.978,402.252 188.167,402.88 
							202.52,412.895 197.107,430.397 211.573,419.473 226.039,430.397 220.627,412.895 						"/>
					</g>
				</g>
				<g>
					<g>
						<polygon class="st85" points="217.256,406.905 220.324,395.264 210.628,402.398 200.104,395.897 204.295,407.309 
							194.458,415.321 207.008,414.851 211.188,426.694 215.02,414.6 227.174,414.297 						"/>
					</g>
				</g>
			</g>
			<g>
				<g>
					<g>
						<polygon class="st85" points="427.025,169.975 409.215,169.347 403.619,152.969 398.023,169.347 380.213,169.975 
							394.565,179.99 389.153,197.491 403.619,186.568 418.085,197.491 412.673,179.99 						"/>
					</g>
				</g>
				<g>
					<g>
						<polygon class="st85" points="409.302,173.999 412.37,162.358 402.674,169.492 392.15,162.991 396.341,174.404 
							386.504,182.416 399.054,181.945 403.233,193.789 407.065,181.694 419.22,181.392 						"/>
					</g>
				</g>
			</g>
		</g>
		<g>
			<g>
				<g>
					<g>
						<g>
							<path class="st4" d="M121.535,255.236c-16.16,0-81.608,11.736-81.608,11.736s65.882,11.929,81.608,11.929
								c8.09,0,8.415-5.934,8.403-11.859C129.927,261.135,129.602,255.236,121.535,255.236z"/>
						</g>
					</g>
					<g>
						<g>
							<path class="st33" d="M121.248,258.664c-11.479,0-57.964,8.336-57.964,8.336s46.794,8.473,57.964,8.473
								c5.738,0,4.894-4.202,4.894-8.405C126.142,262.866,126.986,258.664,121.248,258.664z"/>
						</g>
					</g>
					<g>
						<g>
							<path class="st52" d="M119.803,262.02c-6.896,0-34.824,5.008-34.824,5.008s28.113,5.09,34.824,5.09
								c3.447,0,1.457-2.525,1.457-5.05C121.26,264.544,123.25,262.02,119.803,262.02z"/>
						</g>
					</g>
				</g>
			</g>
			<g>
				<g>
					<g>
						<path class="st90" d="M338.097,204.64c-16.869-2.727-38-3.667-54,1.333s-34.334,17.333-41.334,24.333l-93.519,5.388
							l-9.647-5.638c-0.79,6.056-0.105,18.793-0.105,25.728c0,36.949,0.521,50.689,0.521,50.689s4.567-4.496,10.833-4.083
							c15.834,1.042,46.467,5.917,74.977,5.917c63.033,0,99.619,4.8,150.44-1.5c60.5-7.5,81.086-30.5,81.086-37.5
							C457.349,262.319,410.263,216.307,338.097,204.64z"/>
					</g>
				</g>
				<g>
					<g>
						<path class="st68" d="M454.644,264.283c-7.295,9.722-30.16,19.713-78.381,25.691c-50.821,6.3-87.407,1.5-150.44,1.5
							c-40.625,0-82.745-7.207-82.745-7.207l-2.908,22.821c0,0,3.957-5.179,10.442-4.329c15.632,2.051,46.498,5.547,75.211,5.547
							c63.033,0,99.619,4.8,150.44-1.5c60.5-7.5,81.086-30.5,81.086-37.5C457.349,268.33,456.426,266.587,454.644,264.283z"/>
					</g>
				</g>
				<g>
					<g>
						<path class="st14" d="M149.005,235.555l-9.408-5.498c-0.79,6.056-0.105,18.793-0.105,25.728
							c0,36.949,0.521,50.689,0.521,50.689s3.888-3.813,9.404-4.086C153.363,272.695,150.428,245.684,149.005,235.555z"/>
					</g>
				</g>
				<g>
					<g>
						<path class="st13" d="M242.781,228.914c-1.069-17.884-11.008-31.425-19.156-39.636
							c-10.928-11.008-23.297-17.318-31.229-19.551c-5.954-1.676-10.451-1.446-12.666,0.646c-1.799,1.702-2.57,3.642-2.422,6.108
							c0.178,2.977,1.645,6.455,3.674,11.269c3.804,9.018,9.551,22.646,10.839,44.208c0.029,0.494,0.053,0.981,0.077,1.468
							l50.946-3.042C242.829,229.895,242.809,229.406,242.781,228.914z"/>
					</g>
				</g>
				<g>
					<g>
						<g>
							<path class="st58" d="M406.685,227.93c-24.565,20.44-70.864,10.131-70.864,10.131s-3.589-10.465,3.526-22.425
								c2.625-4.411,5.627-7.77,7.246-9.438c-1.576-0.321-3.164-0.63-4.767-0.919c-1.831,1.885-5.239,5.694-8.219,10.701
								c-8.059,13.544-3.993,25.396-3.993,25.396s52.653,11.725,80.428-11.621C408.94,229.144,407.819,228.535,406.685,227.93z"/>
						</g>
					</g>
					<g>
						<g>
							<path class="st45" d="M346.593,206.199c-1.619,1.668-4.621,5.027-7.246,9.438c-7.115,11.96-3.526,22.425-3.526,22.425
								s46.299,10.309,70.864-10.131C389.998,219.022,369.706,210.907,346.593,206.199z"/>
						</g>
					</g>
				</g>
				<g>
					<g>
						<path class="st13" d="M192.261,297.26c-0.212,9.29-5.003,15.42-8.197,19.507c-1.659,2.121-2.857,3.653-2.857,4.863
							c0,0,0,0,0,0c0,0.937,0.725,1.625,2.28,2.164c1.99,0.69,5.975,0.634,11.525-0.163c8.22-1.181,20.958-4.213,32.053-9.184
							c8.255-3.699,18.051-9.646,18.577-17.187H192.261z"/>
					</g>
				</g>
				<g>
					<g>
						<path class="st66" d="M422.413,237.176c-8.109,14.529-17.585,37.623-15.588,63.819c37.078-9.931,50.523-26.032,50.523-31.688
							C457.349,265.683,444.677,251.56,422.413,237.176z"/>
					</g>
				</g>
				<g>
					<g>
						<path class="st13" d="M426.399,239.815c-7.35,12.228-17.532,34.429-14.216,59.656c33.024-9.981,45.165-24.789,45.165-30.164
							C457.349,265.905,446.183,253.251,426.399,239.815z"/>
					</g>
				</g>
				<g>
					<g>
						<ellipse class="st65" cx="139.597" cy="268.682" rx="5.525" ry="38.625"/>
					</g>
				</g>
				<g>
					<g>
						<ellipse class="st12" cx="139.597" cy="268.682" rx="3.166" ry="15.481"/>
					</g>
				</g>
				<g>
					<g>
						<path class="st60" d="M139.597,253.201c-1.749,0-1.749,30.962,0,30.962c1.746,0,3.166-6.931,3.166-15.481
							C142.763,260.133,141.343,253.201,139.597,253.201z"/>
					</g>
				</g>
			</g>
		</g>
	</g>
</g>
</svg>
