<?xml version="1.0" encoding="utf-8"?>
<!-- Generator: Adobe Illustrator 16.0.0, SVG Export Plug-In . SVG Version: 6.00 Build 0)  -->
<!DOCTYPE svg PUBLIC "-//W3C//DTD SVG 1.1//EN" "http://www.w3.org/Graphics/SVG/1.1/DTD/svg11.dtd">
<svg version="1.1" id="Layer_1" xmlns="http://www.w3.org/2000/svg" xmlns:xlink="http://www.w3.org/1999/xlink" x="0px" y="0px"
	 width="512px" height="512px" viewBox="0 0 512 512" style="enable-background:new 0 0 512 512;" xml:space="preserve">
<style type="text/css">
<![CDATA[
	.st0{fill:#7A7A7A;}
	.st1{fill:#AAB6B3;}
	.st2{fill:#484949;}
	.st3{fill:#7C7C7C;}
	.st4{fill:#48A1AF;}
	.st5{fill:#AD0000;}
	.st6{fill:#AFB1B2;}
	.st7{fill:#AFD1E8;}
	.st8{fill:#E0CD1E;}
	.st9{fill:#E1E1E1;}
	.st10{fill:#E2E2E2;}
	.st11{fill:#4ABC96;}
	.st12{fill:#E5E5E5;}
	.st13{fill:#E79E2F;}
	.st14{fill:#E8E8E8;}
	.st15{fill:#807F7F;}
	.st16{fill:#828282;}
	.st17{fill:#848484;}
	.st18{fill:#878878;}
	.st19{fill:#B7B7B7;}
	.st20{fill:#B9C9B5;}
	.st21{fill:#545454;}
	.st22{fill:#54C638;}
	.st23{fill:#57B7C1;}
	.st24{fill:#BAEBF4;}
	.st25{fill:#8C8C8C;}
	.st26{fill:#595959;}
	.st27{fill:#BEE1E5;}
	.st28{fill:#22A85B;}
	.st29{fill:#231F20;}
	.st30{fill:#F3F4F5;}
	.st31{fill:#263A45;}
	.st32{fill:#282828;}
	.st33{fill:#294C22;}
	.st34{fill:#5E5E5E;}
	.st35{fill:#F9F9F9;}
	.st36{fill:#C1C1C1;}
	.st37{fill:#C1DDF4;}
	.st38{fill:url(#SVGID_1_);}
	.st39{fill:url(#SVGID_2_);}
	.st40{fill:url(#SVGID_3_);}
	.st41{fill:url(#SVGID_4_);}
	.st42{fill:url(#SVGID_5_);}
	.st43{fill:url(#SVGID_6_);}
	.st44{fill:url(#SVGID_7_);}
	.st45{fill:url(#SVGID_8_);}
	.st46{fill:url(#SVGID_9_);}
	.st47{fill:#C3D7BE;}
	.st48{fill:#C69C28;}
	.st49{fill:#2BC16F;}
	.st50{fill:#97BFBF;}
	.st51{fill:#989897;}
	.st52{fill:#989A9A;}
	.st53{fill:#C9C9C8;}
	.st54{fill:#C9C9C9;}
	.st55{opacity:0.2;}
	.st56{opacity:0.3;}
	.st57{opacity:0.6;}
	.st58{fill:#FFFFFF;}
	.st59{fill:#636363;}
	.st60{fill:none;}
	.st61{fill:#676767;}
	.st62{fill:#67B8CB;}
	.st63{fill:#CC2200;}
	.st64{fill:#CCCCCC;}
	.st65{fill:#CCD0D3;}
	.st66{fill:#CECECE;}
	.st67{fill:#327F87;}
	.st68{fill:#333333;}
	.st69{fill:#337180;}
	.st70{fill:#343433;}
	.st71{fill:#344E5D;}
	.st72{fill:#6B828F;}
	.st73{fill:#6DB4BF;}
	.st74{fill:#6EED4A;}
	.st75{fill:#D3D3D3;}
	.st76{fill:#3A682E;}
	.st77{fill:#08090B;}
	.st78{fill:url(#SVGID_10_);}
	.st79{fill:url(#SVGID_11_);}
	.st80{fill:url(#SVGID_12_);}
	.st81{fill:url(#SVGID_13_);}
	.st82{fill:url(#SVGID_14_);}
	.st83{fill:url(#SVGID_15_);}
	.st84{fill:url(#SVGID_16_);}
	.st85{fill:url(#SVGID_17_);}
	.st86{fill:url(#SVGID_18_);}
	.st87{fill:url(#SVGID_19_);}
	.st88{fill:url(#SVGID_20_);}
	.st89{fill:url(#SVGID_21_);}
	.st90{fill:url(#SVGID_22_);}
	.st91{fill:url(#SVGID_23_);}
	.st92{fill:#D84848;}
	.st93{fill:#D8D8D8;}
	.st94{fill:#D8DBBA;}
	.st95{fill:#3E959E;}
	.st96{fill:#3F3F3F;}
	.st97{fill:#703D1A;}
	.st98{fill:#A3D5E0;}
	.st99{fill:#A9D1D3;}
	.st100{fill:#DDDDDD;}
	.st101{fill:#DEE5DC;}
	.st102{fill:#424242;}
]]>
</style>
<g>
	<g>
		<g>
			<path class="st4" d="M256.003,7.924c-137.012,0-248.082,111.06-248.082,248.082c0,137.001,111.07,248.07,248.082,248.07
				c137.006,0,248.076-111.069,248.076-248.07C504.079,118.983,393.009,7.924,256.003,7.924z"/>
		</g>
	</g>
	<g>
		<g>
			<g>
				<path class="st100" d="M386.277,351.794L210.505,176.678c0,0,12.197-36.222-6.93-55.349s-48.076-15.349-48.076-15.349
					l-9.922,9.923l24.385,24.389l6.275,21.605l-15.277,15.28l-24.316-6.106l-23.121-23.122l-7.174,7.183
					c0,0-5.305,27.413,15.354,48.071s52.623,6.346,52.623,6.346l177.233,176.962c5.875,5.875,20.908,6.327,31.49-4.254
					S392.526,358.043,386.277,351.794z"/>
			</g>
		</g>
		<g>
			<g>
				<g>
					<circle class="st14" cx="367.174" cy="367.382" r="12.283"/>
				</g>
			</g>
			<g>
				<g>
					<circle class="st66" cx="367.174" cy="367.382" r="6.284"/>
				</g>
			</g>
		</g>
		<g>
			<g>
				<path class="st14" d="M344.837,324.666L224.404,204.233c-5.628-5.628-14.753-5.628-20.382,0c-5.628,5.628-5.628,14.753,0,20.381
					l120.434,120.433c5.628,5.628,14.753,5.628,20.381,0C350.466,339.419,350.466,330.294,344.837,324.666z"/>
			</g>
		</g>
		<g>
			<g>
				<g>
					<path class="st64" d="M387.287,121.61l-12.242-12.242c-3.244-3.244-6.586-5.167-8.512-3.241
						c-19.039,19.04-15.727,28.965-15.727,28.965c-0.172,0.172-0.32,0.359-0.453,0.555c-0.195,0.132-0.383,0.281-0.555,0.454
						L190.293,295.605c-1.455,1.454-1.455,3.813,0,5.269l5.488,5.488c1.455,1.454,3.814,1.454,5.268-0.001l159.506-159.505
						c0.172-0.172,0.32-0.359,0.453-0.555c0.195-0.132,0.383-0.281,0.557-0.454c0,0,10.607,2.632,28.965-15.726
						C392.506,128.145,390.531,124.855,387.287,121.61z"/>
				</g>
			</g>
			<g>
				<g>
					<path class="st10" d="M381.414,115.739l-6.369-6.371c-3.244-3.244-6.586-5.167-8.512-3.241
						c-19.039,19.04-15.727,28.965-15.727,28.965c-0.172,0.172-0.32,0.359-0.453,0.555c-0.195,0.132-0.383,0.281-0.555,0.454
						L190.293,295.605c-1.455,1.454-1.455,3.813,0,5.269l2.701,2.699C192.994,303.573,384.66,118.983,381.414,115.739z"/>
				</g>
			</g>
			<g>
				<g>
					<path class="st27" d="M226.569,289.62l-19.535-19.536c-5.18-5.177-13.627-5.123-18.873,0.123l-79.297,79.296
						c-5.246,5.246-5.301,13.697-0.123,18.875l19.533,19.535c5.18,5.178,13.631,5.124,18.879-0.122l79.295-79.296
						C231.694,303.249,231.747,294.798,226.569,289.62z"/>
				</g>
			</g>
			<g>
				<g>
					<path class="st50" d="M193.431,292.205l-4.187-4.187c-3.631-3.631-71.659,64.4-68.032,68.03l4.187,4.187
						C129.031,363.865,197.063,295.835,193.431,292.205z"/>
				</g>
			</g>
			<g>
				<g>
					<path class="st99" d="M193.431,292.205l-4.187-4.187l-68.032,68.03l4.187,4.187
						C129.031,363.865,197.063,295.835,193.431,292.205z"/>
				</g>
			</g>
			<g>
				<g>
					<path class="st50" d="M208.003,306.777l-4.187-4.188c-3.631-3.631-71.659,64.4-68.031,68.031l4.186,4.187
						C143.604,378.438,211.636,310.408,208.003,306.777z"/>
				</g>
			</g>
			<g>
				<g>
					<path class="st99" d="M208.056,306.83l-4.187-4.187l-68.032,68.03l4.187,4.187C143.656,378.49,211.688,310.46,208.056,306.83z"
						/>
				</g>
			</g>
		</g>
	</g>
</g>
</svg>
