<?xml version="1.0" encoding="utf-8"?>
<!-- Generator: Adobe Illustrator 16.0.0, SVG Export Plug-In . SVG Version: 6.00 Build 0)  -->
<!DOCTYPE svg PUBLIC "-//W3C//DTD SVG 1.1//EN" "http://www.w3.org/Graphics/SVG/1.1/DTD/svg11.dtd">
<svg version="1.1" id="Layer_1" xmlns="http://www.w3.org/2000/svg" xmlns:xlink="http://www.w3.org/1999/xlink" x="0px" y="0px"
	 width="512px" height="512px" viewBox="0 0 512 512" style="enable-background:new 0 0 512 512;" xml:space="preserve">
<style type="text/css">
<![CDATA[
	.st0{fill:#7A7A7A;}
	.st1{fill:#AAB6B3;}
	.st2{fill:#484949;}
	.st3{fill:#7C7C7C;}
	.st4{fill:#48A1AF;}
	.st5{fill:#AD0000;}
	.st6{fill:#AFB1B2;}
	.st7{fill:#AFD1E8;}
	.st8{fill:#E0CD1E;}
	.st9{fill:#E1E1E1;}
	.st10{fill:#E2E2E2;}
	.st11{fill:#4ABC96;}
	.st12{fill:#E5E5E5;}
	.st13{fill:#E79E2F;}
	.st14{fill:#E8E8E8;}
	.st15{fill:#807F7F;}
	.st16{fill:#828282;}
	.st17{fill:#848484;}
	.st18{fill:#878878;}
	.st19{fill:#B7B7B7;}
	.st20{fill:#B9C9B5;}
	.st21{fill:#545454;}
	.st22{fill:#54C638;}
	.st23{fill:#57B7C1;}
	.st24{fill:#BAEBF4;}
	.st25{fill:#8C8C8C;}
	.st26{fill:#595959;}
	.st27{fill:#BEE1E5;}
	.st28{fill:#22A85B;}
	.st29{fill:#231F20;}
	.st30{fill:#F3F4F5;}
	.st31{fill:#263A45;}
	.st32{fill:#282828;}
	.st33{fill:#294C22;}
	.st34{fill:#5E5E5E;}
	.st35{fill:#F9F9F9;}
	.st36{fill:#C1C1C1;}
	.st37{fill:#C1DDF4;}
	.st38{fill:url(#SVGID_1_);}
	.st39{fill:url(#SVGID_2_);}
	.st40{fill:url(#SVGID_3_);}
	.st41{fill:url(#SVGID_4_);}
	.st42{fill:url(#SVGID_5_);}
	.st43{fill:url(#SVGID_6_);}
	.st44{fill:url(#SVGID_7_);}
	.st45{fill:url(#SVGID_8_);}
	.st46{fill:url(#SVGID_9_);}
	.st47{fill:#C3D7BE;}
	.st48{fill:#C69C28;}
	.st49{fill:#2BC16F;}
	.st50{fill:#97BFBF;}
	.st51{fill:#989897;}
	.st52{fill:#989A9A;}
	.st53{fill:#C9C9C8;}
	.st54{fill:#C9C9C9;}
	.st55{opacity:0.2;}
	.st56{opacity:0.3;}
	.st57{opacity:0.6;}
	.st58{fill:#FFFFFF;}
	.st59{fill:#636363;}
	.st60{fill:none;}
	.st61{fill:#676767;}
	.st62{fill:#67B8CB;}
	.st63{fill:#CC2200;}
	.st64{fill:#CCCCCC;}
	.st65{fill:#CCD0D3;}
	.st66{fill:#CECECE;}
	.st67{fill:#327F87;}
	.st68{fill:#333333;}
	.st69{fill:#337180;}
	.st70{fill:#343433;}
	.st71{fill:#344E5D;}
	.st72{fill:#6B828F;}
	.st73{fill:#6DB4BF;}
	.st74{fill:#6EED4A;}
	.st75{fill:#D3D3D3;}
	.st76{fill:#3A682E;}
	.st77{fill:#08090B;}
	.st78{fill:url(#SVGID_10_);}
	.st79{fill:url(#SVGID_11_);}
	.st80{fill:url(#SVGID_12_);}
	.st81{fill:url(#SVGID_13_);}
	.st82{fill:url(#SVGID_14_);}
	.st83{fill:url(#SVGID_15_);}
	.st84{fill:url(#SVGID_16_);}
	.st85{fill:url(#SVGID_17_);}
	.st86{fill:url(#SVGID_18_);}
	.st87{fill:url(#SVGID_19_);}
	.st88{fill:url(#SVGID_20_);}
	.st89{fill:url(#SVGID_21_);}
	.st90{fill:url(#SVGID_22_);}
	.st91{fill:url(#SVGID_23_);}
	.st92{fill:#D84848;}
	.st93{fill:#D8D8D8;}
	.st94{fill:#D8DBBA;}
	.st95{fill:#3E959E;}
	.st96{fill:#3F3F3F;}
	.st97{fill:#703D1A;}
	.st98{fill:#A3D5E0;}
	.st99{fill:#A9D1D3;}
	.st100{fill:#DDDDDD;}
	.st101{fill:#DEE5DC;}
	.st102{fill:#424242;}
]]>
</style>
<g>
	<g>
		<g>
			<path class="st33" d="M256.003,7.924c-137.012,0-248.082,111.06-248.082,248.082c0,137.001,111.07,248.07,248.082,248.07
				c137.006,0,248.076-111.069,248.076-248.07C504.079,118.983,393.009,7.924,256.003,7.924z"/>
		</g>
	</g>
	<g>
		<g>
			<path class="st60" d="M344.65,487.749h3.307v-1.285C346.86,486.901,345.755,487.326,344.65,487.749z"/>
		</g>
		<g>
			<path class="st60" d="M163.957,24.749v0.823c0.693-0.277,1.388-0.552,2.085-0.823H163.957z"/>
		</g>
		<g>
			<path class="st60" d="M486.352,348.237h1.105v-2.813C487.094,346.365,486.726,347.303,486.352,348.237z"/>
		</g>
		<g>
			<path class="st60" d="M163.957,486.427v1.321h3.396C166.218,487.314,165.084,486.877,163.957,486.427z"/>
		</g>
		<g>
			<path class="st60" d="M345.961,24.749c0.667,0.26,1.332,0.522,1.996,0.787v-0.787H345.961z"/>
		</g>
		<g>
			<path class="st60" d="M486.55,164.249c0.308,0.773,0.607,1.551,0.907,2.328v-2.328H486.55z"/>
		</g>
		<g>
			<path class="st60" d="M24.457,345.198v3.039h1.191C25.244,347.228,24.849,346.214,24.457,345.198z"/>
		</g>
		<g>
			<path class="st60" d="M24.457,164.249v2.554c0.329-0.853,0.655-1.706,0.993-2.554H24.457z"/>
		</g>
		<g>
			<g>
				<path class="st76" d="M504.063,257.26c0.002-0.419,0.016-0.834,0.016-1.254c0-0.257-0.009-0.512-0.01-0.769h-14.612V210.76
					h10.493c-0.125-0.676-0.258-1.349-0.388-2.022h-10.105v-36.81c-0.646-1.794-1.313-3.577-2-5.351v42.161h-44.5v-44.489h43.593
					c-0.268-0.669-0.545-1.333-0.817-2h-42.775v-44.5h19.052c-0.451-0.671-0.913-1.333-1.371-2h-17.681V92.943
					c-0.661-0.757-1.33-1.505-2-2.254v25.059h-44.5v-44.5h25.085c-0.748-0.67-1.498-1.338-2.254-2h-22.831V51.505
					c-0.667-0.459-1.328-0.925-2-1.378v19.121h-44.5V26.353c-0.667-0.273-1.331-0.55-2-0.817v43.713h-44.49v-44.5h42.494
					c-1.761-0.685-3.529-1.354-5.309-2h-37.186v-10.27c-0.673-0.13-1.345-0.262-2.02-0.387v10.657h-44.48V7.936
					c-0.322-0.001-0.642-0.012-0.964-0.012c-0.354,0-0.703,0.012-1.056,0.013v14.812h-44.48v-10.64
					c-0.675,0.125-1.347,0.256-2.02,0.387v10.252h-37.097c-1.779,0.646-3.549,1.315-5.309,2h42.405v44.5h-44.49V25.572
					c-0.669,0.268-1.334,0.544-2,0.817v42.86h-44.5V50.185c-0.672,0.453-1.333,0.921-2,1.38v17.683H92.713
					c-0.756,0.662-1.506,1.33-2.254,2h24.998v44.5h-44.5V90.787c-0.669,0.749-1.34,1.497-2,2.254v22.708H51.362
					c-0.457,0.667-0.92,1.329-1.371,2h18.966v44.5H26.268c-0.272,0.667-0.55,1.331-0.817,2h43.507v44.489h-44.5v-41.935
					c-0.687,1.78-1.354,3.569-2,5.369v36.565h-10.02c-0.13,0.674-0.263,1.347-0.388,2.022h10.407v44.478H7.931
					c-0.001,0.257-0.01,0.512-0.01,0.769c0,0.419,0.014,0.835,0.016,1.254h14.521v44.478H12.145
					c0.126,0.675,0.256,1.349,0.388,2.022h9.925v36.07c0.646,1.799,1.313,3.588,2,5.368V303.76h44.5v44.478H25.648
					c0.271,0.676,0.55,1.349,0.826,2.022h42.482v44.478H50.313c0.46,0.68,0.936,1.347,1.402,2.022h17.241v22.197
					c0.66,0.757,1.331,1.505,2,2.254V396.76h44.5v44.489H91.022c0.749,0.668,1.495,1.341,2.254,2h22.181v17.184
					c0.667,0.459,1.328,0.927,2,1.38v-18.564h44.5v42.361c0.666,0.273,1.331,0.55,2,0.817v-43.179h44.49v44.5h-41.095
					c1.794,0.687,3.598,1.354,5.412,2h35.683v9.755c0.673,0.13,1.345,0.262,2.02,0.387v-10.142h44.48v14.314
					c0.353,0.001,0.702,0.013,1.056,0.013c0.322,0,0.642-0.011,0.964-0.012v-14.315h44.48v10.16c0.675-0.125,1.347-0.257,2.02-0.387
					v-9.772h35.771c1.814-0.646,3.618-1.313,5.412-2h-41.184v-44.5h44.49v43.215c0.669-0.267,1.333-0.544,2-0.817v-42.397h44.5
					v18.622c0.672-0.453,1.333-0.919,2-1.378v-17.244h22.269c0.758-0.659,1.504-1.332,2.254-2h-24.522V396.76h44.5v24.548
					c0.67-0.749,1.339-1.497,2-2.254V396.76h17.327c0.467-0.675,0.943-1.343,1.402-2.022h-18.729V350.26h42.568
					c0.276-0.673,0.556-1.346,0.826-2.022h-43.395V303.76h44.5v41.665c0.687-1.774,1.354-3.557,2-5.351V303.76h10.011
					c0.132-0.673,0.262-1.347,0.388-2.022h-10.398V257.26H504.063z M68.957,301.737h-44.5V257.26h44.5V301.737z M68.957,255.237
					h-44.5V210.76h44.5V255.237z M115.457,394.737h-44.5V350.26h44.5V394.737z M115.457,348.237h-44.5V303.76h44.5V348.237z
					 M115.457,301.737h-44.5V257.26h44.5V301.737z M115.457,255.237h-44.5V210.76h44.5V255.237z M115.457,208.737h-44.5v-44.489
					h44.5V208.737z M115.457,162.249h-44.5v-44.5h44.5V162.249z M161.957,441.249h-44.5V396.76h44.5V441.249z M161.957,394.737
					h-44.5V350.26h44.5V394.737z M161.957,348.237h-44.5V303.76h44.5V348.237z M161.957,301.737h-44.5V257.26h44.5V301.737z
					 M161.957,255.237h-44.5V210.76h44.5V255.237z M161.957,208.737h-44.5v-44.489h44.5V208.737z M161.957,162.249h-44.5v-44.5h44.5
					V162.249z M161.957,115.749h-44.5v-44.5h44.5V115.749z M208.447,441.249h-44.49V396.76h44.49V441.249z M208.447,394.737h-44.49
					V350.26h44.49V394.737z M208.447,348.237h-44.49V303.76h44.49V348.237z M208.447,301.737h-44.49V257.26h44.49V301.737z
					 M208.447,255.237h-44.49V210.76h44.49V255.237z M208.447,208.737h-44.49v-44.489h44.49V208.737z M208.447,162.249h-44.49v-44.5
					h44.49V162.249z M208.447,115.749h-44.49v-44.5h44.49V115.749z M254.947,487.749h-44.48v-44.5h44.48V487.749z M254.947,441.249
					h-44.48V396.76h44.48V441.249z M254.947,394.737h-44.48V350.26h44.48V394.737z M254.947,348.237h-44.48V303.76h44.48V348.237z
					 M254.947,301.737h-44.48V257.26h44.48V301.737z M254.947,255.237h-44.48V210.76h44.48V255.237z M254.947,208.737h-44.48
					v-44.489h44.48V208.737z M254.947,162.249h-44.48v-44.5h44.48V162.249z M254.947,115.749h-44.48v-44.5h44.48V115.749z
					 M254.947,69.249h-44.48v-44.5h44.48V69.249z M301.447,487.749h-44.48v-44.5h44.48V487.749z M301.447,441.249h-44.48V396.76
					h44.48V441.249z M301.447,394.737h-44.48V350.26h44.48V394.737z M301.447,348.237h-44.48V303.76h44.48V348.237z
					 M301.447,301.737h-44.48V257.26h44.48V301.737z M301.447,255.237h-44.48V210.76h44.48V255.237z M301.447,208.737h-44.48
					v-44.489h44.48V208.737z M301.447,162.249h-44.48v-44.5h44.48V162.249z M301.447,115.749h-44.48v-44.5h44.48V115.749z
					 M301.447,69.249h-44.48v-44.5h44.48V69.249z M347.957,441.249h-44.49V396.76h44.49V441.249z M347.957,394.737h-44.49V350.26
					h44.49V394.737z M347.957,348.237h-44.49V303.76h44.49V348.237z M347.957,301.737h-44.49V257.26h44.49V301.737z
					 M347.957,255.237h-44.49V210.76h44.49V255.237z M347.957,208.737h-44.49v-44.489h44.49V208.737z M347.957,162.249h-44.49v-44.5
					h44.49V162.249z M347.957,115.749h-44.49v-44.5h44.49V115.749z M394.457,441.249h-44.5V396.76h44.5V441.249z M394.457,394.737
					h-44.5V350.26h44.5V394.737z M394.457,348.237h-44.5V303.76h44.5V348.237z M394.457,301.737h-44.5V257.26h44.5V301.737z
					 M394.457,255.237h-44.5V210.76h44.5V255.237z M394.457,208.737h-44.5v-44.489h44.5V208.737z M394.457,162.249h-44.5v-44.5h44.5
					V162.249z M394.457,115.749h-44.5v-44.5h44.5V115.749z M440.957,394.737h-44.5V350.26h44.5V394.737z M440.957,348.237h-44.5
					V303.76h44.5V348.237z M440.957,301.737h-44.5V257.26h44.5V301.737z M440.957,255.237h-44.5V210.76h44.5V255.237z
					 M440.957,208.737h-44.5v-44.489h44.5V208.737z M440.957,162.249h-44.5v-44.5h44.5V162.249z M487.457,301.737h-44.5V257.26h44.5
					V301.737z M487.457,255.237h-44.5V210.76h44.5V255.237z"/>
			</g>
		</g>
	</g>
	<g>
		<g>
			<g>
				<path class="st33" d="M235.49,257.5c0.737,10.153,8.855,18.272,19.01,19.009V257.5H235.49z"/>
			</g>
		</g>
		<g>
			<g>
				<path class="st33" d="M235.49,254.5h19.01v-19.009C244.347,236.228,236.228,244.347,235.49,254.5z"/>
			</g>
		</g>
		<g>
			<g>
				<path class="st33" d="M257.5,257.5v19.009c10.154-0.737,18.272-8.856,19.01-19.009H257.5z"/>
			</g>
		</g>
		<g>
			<g>
				<path class="st33" d="M257.5,235.491V254.5h19.01C275.772,244.347,267.653,236.228,257.5,235.491z"/>
			</g>
		</g>
		<g>
			<g>
				<path class="st22" d="M504.06,254.5h-42.5C460.75,142.333,369.665,51.248,257.5,50.442v-42.5
					c-0.5-0.003-0.997-0.019-1.497-0.019c-0.502,0-1.001,0.016-1.503,0.019v42.5C142.334,51.251,51.25,142.335,50.44,254.5H7.94
					c-0.004,0.503-0.02,1.002-0.02,1.506c0,0.5,0.016,0.995,0.02,1.494h42.5c0.805,112.164,91.891,203.249,204.06,204.058v42.5
					c0.502,0.003,1.001,0.019,1.503,0.019c0.5,0,0.997-0.016,1.497-0.019v-42.5c112.169-0.806,203.255-91.892,204.06-204.058h42.5
					c0.004-0.499,0.02-0.995,0.02-1.494C504.079,255.502,504.063,255.003,504.06,254.5z M254.5,458.558
					C143.985,457.749,54.245,368.01,53.44,257.5h47c0.802,84.595,69.461,153.252,154.06,154.058V458.558z M254.5,408.558
					c-82.944-0.805-150.258-68.117-151.06-151.058h44.998c0.798,58.129,47.93,105.261,106.062,106.061V408.558z M254.5,360.561
					c-56.478-0.8-102.265-46.585-103.062-103.061h40.516c0.79,34.143,28.401,61.754,62.546,62.545V360.561z M254.5,317.045
					c-32.49-0.79-58.757-27.057-59.546-59.545h37.513c0.745,11.812,10.222,21.287,22.033,22.033V317.045z M254.5,276.509
					c-10.154-0.737-18.272-8.856-19.01-19.009h19.01V276.509z M254.5,254.5h-19.01c0.737-10.153,8.856-18.272,19.01-19.009V254.5z
					 M254.5,232.467c-11.812,0.746-21.287,10.221-22.033,22.033h-37.513c0.791-32.488,27.057-58.755,59.546-59.545V232.467z
					 M254.5,191.955c-34.144,0.791-61.754,28.402-62.546,62.545h-40.516c0.801-56.476,46.586-102.261,103.062-103.061V191.955z
					 M254.5,148.439c-58.13,0.8-105.261,47.93-106.062,106.061H103.44c0.807-82.941,68.117-150.253,151.06-151.058V148.439z
					 M254.5,100.442c-84.597,0.806-153.253,69.462-154.06,154.058h-47C54.25,143.989,143.988,54.251,254.5,53.442V100.442z
					 M257.5,103.442c82.94,0.803,150.253,68.116,151.06,151.058h-44.998c-0.801-58.131-47.932-105.262-106.062-106.061V103.442z
					 M257.5,151.439c56.476,0.799,102.261,46.584,103.062,103.061h-40.516c-0.792-34.143-28.402-61.755-62.546-62.545V151.439z
					 M257.5,194.955c32.489,0.789,58.755,27.056,59.546,59.545h-37.513c-0.746-11.812-10.222-21.287-22.033-22.033V194.955z
					 M257.5,235.491c10.153,0.737,18.272,8.856,19.01,19.009H257.5V235.491z M257.5,257.5h19.01
					c-0.737,10.153-8.855,18.272-19.01,19.009V257.5z M257.5,279.533c11.812-0.746,21.288-10.221,22.033-22.033h37.513
					c-0.788,32.489-27.056,58.756-59.546,59.545V279.533z M257.5,320.045c34.145-0.79,61.756-28.402,62.546-62.545h40.516
					c-0.797,56.476-46.584,102.262-103.062,103.061V320.045z M257.5,363.561c58.132-0.799,105.264-47.93,106.062-106.061h44.998
					c-0.802,82.942-68.116,150.255-151.06,151.058V363.561z M257.5,458.558v-47c84.598-0.804,153.258-69.462,154.06-154.058h47
					C457.755,368.012,368.015,457.752,257.5,458.558z M411.56,254.5c-0.807-84.597-69.465-153.254-154.06-154.058v-47
					c110.511,0.806,200.25,90.545,201.06,201.058H411.56z"/>
			</g>
		</g>
	</g>
	<g>
		<g>
			<path class="st74" d="M335.372,20.927L255.456,257l91.902-231.558C343.412,23.837,339.417,22.331,335.372,20.927z"/>
		</g>
	</g>
	<g class="st57">
		<g>
			<path class="st74" d="M255.456,7.276V257l79.916-236.073C310.314,12.23,283.436,7.437,255.456,7.276z"/>
		</g>
	</g>
	<g>
		<g>
			<circle class="st74" cx="110.956" cy="305.5" r="13"/>
		</g>
	</g>
	<g>
		<g>
			<circle class="st74" cx="381.956" cy="345.5" r="13"/>
		</g>
	</g>
</g>
</svg>
