<?xml version="1.0" encoding="utf-8"?>
<!-- Generator: Adobe Illustrator 16.0.0, SVG Export Plug-In . SVG Version: 6.00 Build 0)  -->
<!DOCTYPE svg PUBLIC "-//W3C//DTD SVG 1.1//EN" "http://www.w3.org/Graphics/SVG/1.1/DTD/svg11.dtd">
<svg version="1.1" id="Layer_1" xmlns="http://www.w3.org/2000/svg" xmlns:xlink="http://www.w3.org/1999/xlink" x="0px" y="0px"
	 width="512px" height="512px" viewBox="0 0 512 512" style="enable-background:new 0 0 512 512;" xml:space="preserve">
<style type="text/css">
<![CDATA[
	.st0{fill:#7A7A7A;}
	.st1{fill:#AAB6B3;}
	.st2{fill:#484949;}
	.st3{fill:#7C7C7C;}
	.st4{fill:#48A1AF;}
	.st5{fill:#AD0000;}
	.st6{fill:#AFB1B2;}
	.st7{fill:#AFD1E8;}
	.st8{fill:#E0CD1E;}
	.st9{fill:#E1E1E1;}
	.st10{fill:#E2E2E2;}
	.st11{fill:#4ABC96;}
	.st12{fill:#E5E5E5;}
	.st13{fill:#E79E2F;}
	.st14{fill:#E8E8E8;}
	.st15{fill:#807F7F;}
	.st16{fill:#828282;}
	.st17{fill:#848484;}
	.st18{fill:#878878;}
	.st19{fill:#B7B7B7;}
	.st20{fill:#B9C9B5;}
	.st21{fill:#545454;}
	.st22{fill:#54C638;}
	.st23{fill:#57B7C1;}
	.st24{fill:#BAEBF4;}
	.st25{fill:#8C8C8C;}
	.st26{fill:#595959;}
	.st27{fill:#BEE1E5;}
	.st28{fill:#22A85B;}
	.st29{fill:#231F20;}
	.st30{fill:#F3F4F5;}
	.st31{fill:#263A45;}
	.st32{fill:#282828;}
	.st33{fill:#294C22;}
	.st34{fill:#5E5E5E;}
	.st35{fill:#F9F9F9;}
	.st36{fill:#C1C1C1;}
	.st37{fill:#C1DDF4;}
	.st38{fill:url(#SVGID_1_);}
	.st39{fill:url(#SVGID_2_);}
	.st40{fill:url(#SVGID_3_);}
	.st41{fill:url(#SVGID_4_);}
	.st42{fill:url(#SVGID_5_);}
	.st43{fill:url(#SVGID_6_);}
	.st44{fill:url(#SVGID_7_);}
	.st45{fill:url(#SVGID_8_);}
	.st46{fill:url(#SVGID_9_);}
	.st47{fill:#C3D7BE;}
	.st48{fill:#C69C28;}
	.st49{fill:#2BC16F;}
	.st50{fill:#97BFBF;}
	.st51{fill:#989897;}
	.st52{fill:#989A9A;}
	.st53{fill:#C9C9C8;}
	.st54{fill:#C9C9C9;}
	.st55{opacity:0.2;}
	.st56{opacity:0.3;}
	.st57{opacity:0.6;}
	.st58{fill:#FFFFFF;}
	.st59{fill:#636363;}
	.st60{fill:none;}
	.st61{fill:#676767;}
	.st62{fill:#67B8CB;}
	.st63{fill:#CC2200;}
	.st64{fill:#CCCCCC;}
	.st65{fill:#CCD0D3;}
	.st66{fill:#CECECE;}
	.st67{fill:#327F87;}
	.st68{fill:#333333;}
	.st69{fill:#337180;}
	.st70{fill:#343433;}
	.st71{fill:#344E5D;}
	.st72{fill:#6B828F;}
	.st73{fill:#6DB4BF;}
	.st74{fill:#6EED4A;}
	.st75{fill:#D3D3D3;}
	.st76{fill:#3A682E;}
	.st77{fill:#08090B;}
	.st78{fill:url(#SVGID_10_);}
	.st79{fill:url(#SVGID_11_);}
	.st80{fill:url(#SVGID_12_);}
	.st81{fill:url(#SVGID_13_);}
	.st82{fill:url(#SVGID_14_);}
	.st83{fill:url(#SVGID_15_);}
	.st84{fill:url(#SVGID_16_);}
	.st85{fill:url(#SVGID_17_);}
	.st86{fill:url(#SVGID_18_);}
	.st87{fill:url(#SVGID_19_);}
	.st88{fill:url(#SVGID_20_);}
	.st89{fill:url(#SVGID_21_);}
	.st90{fill:url(#SVGID_22_);}
	.st91{fill:url(#SVGID_23_);}
	.st92{fill:#D84848;}
	.st93{fill:#D8D8D8;}
	.st94{fill:#D8DBBA;}
	.st95{fill:#3E959E;}
	.st96{fill:#3F3F3F;}
	.st97{fill:#703D1A;}
	.st98{fill:#A3D5E0;}
	.st99{fill:#A9D1D3;}
	.st100{fill:#DDDDDD;}
	.st101{fill:#DEE5DC;}
	.st102{fill:#424242;}
]]>
</style>
<g>
	<g>
		<g>
			<path class="st94" d="M256.003,7.924c-137.012,0-248.082,111.06-248.082,248.082c0,137.001,111.07,248.07,248.082,248.07
				c137.006,0,248.076-111.069,248.076-248.07C504.079,118.983,393.009,7.924,256.003,7.924z"/>
		</g>
	</g>
	<g>
		<g>
			<g>
				<path class="st18" d="M335.073,329.436v-28.038l-26.53-8.337c-2.254-9-5.825-17.476-10.501-25.213l12.897-24.716l-19.827-19.826
					l-24.788,12.933c-7.705-4.622-16.139-8.15-25.091-10.378l-8.388-26.688h-28.039l-8.388,26.688
					c-8.95,2.229-17.385,5.757-25.09,10.378l-24.789-12.933l-19.826,19.827l12.896,24.715c-4.675,7.737-8.246,16.213-10.498,25.213
					l-26.532,8.337v28.038l26.428,8.308c2.232,9.084,5.801,17.642,10.495,25.45l-12.789,24.508l19.827,19.827l24.438-12.75
					c7.837,4.748,16.438,8.359,25.572,10.617l8.255,26.268h28.039l8.255-26.268c9.136-2.258,17.735-5.869,25.574-10.617
					l24.438,12.75l19.827-19.827l-12.788-24.508c4.693-7.809,8.262-16.366,10.494-25.45L335.073,329.436z M218.827,376.948
					c-33.875,0-61.336-27.46-61.336-61.336c0-33.875,27.461-61.335,61.336-61.335c33.873,0,61.334,27.461,61.334,61.335
					C280.161,349.487,252.7,376.948,218.827,376.948z"/>
			</g>
		</g>
		<g>
			<g>
				<path class="st48" d="M332.755,141.274c-0.037-6.083-0.99-12.036-2.768-17.692l12.063-13.734l-9.543-15.712l-17.799,4.38
					c-4.188-4.142-9.011-7.703-14.362-10.514L299.156,69.7l-17.858-4.363l-9.496,15.692c-6.046,0.026-11.967,0.96-17.592,2.706
					L240.435,71.64l-15.714,9.543l4.37,17.747c-4.182,4.2-7.775,9.041-10.611,14.422l-18.193,1.182l-4.363,17.856l15.538,9.403
					c0.007,6.133,0.948,12.138,2.722,17.841l-11.957,13.618l9.541,15.713l17.547-4.316c4.254,4.243,9.17,7.881,14.636,10.741
					l1.17,18.013l17.856,4.363l9.346-15.445c6.168-0.016,12.207-0.979,17.938-2.782l13.578,11.923l15.714-9.541l-4.327-17.598
					c4.202-4.242,7.807-9.137,10.642-14.576l18.123-1.178l4.364-17.856L332.755,141.274z M311.169,151.221
					c-5.271,21.574-27.032,34.788-48.607,29.517c-21.573-5.271-34.789-27.033-29.518-48.607
					c5.271-21.574,27.033-34.788,48.607-29.517S316.439,129.647,311.169,151.221z"/>
			</g>
		</g>
		<g>
			<g>
				<path class="st97" d="M414.799,225.226c-0.491-4.663-1.668-9.284-3.548-13.713l8.488-11.872l-8.801-11.682l-13.753,4.881
					c-3.737-3.032-7.856-5.438-12.199-7.197l-2.392-14.389l-14.482-2.039l-6.25,13.13c-4.693,0.481-9.344,1.652-13.801,3.538
					l-11.802-8.439l-11.682,8.798l4.833,13.62c-3.086,3.781-5.533,7.954-7.313,12.359l-14.227,2.364l-2.038,14.484l12.979,6.18
					c0.484,4.757,1.678,9.473,3.604,13.988l-8.356,11.684l8.801,11.683l13.536-4.803c3.807,3.097,8.012,5.547,12.449,7.325
					l2.357,14.184l14.483,2.039l6.201-13.02c4.722-0.494,9.411-1.693,13.897-3.614l11.752,8.405l11.684-8.801l-4.852-13.668
					c3.043-3.766,5.455-7.914,7.213-12.289l14.345-2.383l2.04-14.484L414.799,225.226z M386.069,255.901
					c-14.117,10.631-34.174,7.806-44.809-6.31c-10.631-14.115-7.805-34.175,6.31-44.806c14.118-10.631,34.175-7.806,44.809,6.308
					C403.007,225.208,400.182,245.269,386.069,255.901z"/>
			</g>
		</g>
	</g>
</g>
</svg>
