<?xml version="1.0" encoding="utf-8"?>
<!-- Generator: Adobe Illustrator 16.0.3, SVG Export Plug-In . SVG Version: 6.00 Build 0)  -->
<!DOCTYPE svg PUBLIC "-//W3C//DTD SVG 1.1//EN" "http://www.w3.org/Graphics/SVG/1.1/DTD/svg11.dtd">
<svg version="1.1" id="Layer_1" xmlns="http://www.w3.org/2000/svg" xmlns:xlink="http://www.w3.org/1999/xlink" x="0px" y="0px"
	 width="512px" height="512px" viewBox="0 0 512 512" enable-background="new 0 0 512 512" xml:space="preserve">
<g>
	<g>
		<g>
			<path fill-rule="evenodd" clip-rule="evenodd" fill="#00ADF0" d="M256,1C115.168,1,1,115.176,1,255.992
				C1,396.832,115.168,511,256,511s255-114.168,255-255.008C511,115.176,396.832,1,256,1z"/>
		</g>
	</g>
	<g>
		<g>
			<path fill-rule="evenodd" clip-rule="evenodd" fill="#1299D6" d="M256,1C115.168,1,1,115.176,1,255.992
				C1,396.832,115.168,511,256,511c0.894,0,1.772-0.029,2.666-0.037V1.029C257.772,1.022,256.894,1,256,1z"/>
		</g>
	</g>
	<g>
		<g>
			<path fill-rule="evenodd" clip-rule="evenodd" fill="#2E0D00" d="M400.376,123.418c-2.122-0.483-4.236-0.283-6.128,0.47
				c1.117,4.229,1.266,8.771,0.209,13.328c-0.402,1.786-0.976,3.484-1.69,5.093c0.908,0.536,1.913,0.968,3,1.206
				c5.54,1.28,11.072-2.189,12.354-7.744C409.394,130.231,405.931,124.699,400.376,123.418z"/>
		</g>
	</g>
	<g>
		<g>
			<path fill-rule="evenodd" clip-rule="evenodd" fill="#2E0D00" d="M347.25,111.214c-5.555-1.28-11.08,2.189-12.354,7.744
				c-1.28,5.54,2.189,11.072,7.736,12.36c1.087,0.238,2.175,0.305,3.225,0.216c0.06-1.765,0.275-3.544,0.699-5.331
				c1.043-4.55,3.15-8.578,6.002-11.884C351.196,112.815,349.372,111.706,347.25,111.214z"/>
		</g>
	</g>
	<g>
		<g>
			<path fill-rule="evenodd" clip-rule="evenodd" fill="#541700" d="M376.728,104.632c-14.958-3.439-29.865,5.897-33.298,20.849
				c-3.433,14.967,5.904,29.873,20.856,33.313c14.959,3.439,29.865-5.912,33.298-20.856
				C401.024,122.972,391.687,108.072,376.728,104.632z"/>
		</g>
	</g>
	<g>
		<g>
			<path fill-rule="evenodd" clip-rule="evenodd" fill="#F7A12E" d="M382,123.313c-4.438-1.02-8.868,1.236-10.752,5.19
				c0.029-4.378-2.972-8.347-7.416-9.367c-5.138-1.184-10.269,2.04-11.444,7.178c-0.678,2.934,0.081,5.86,1.816,8.057
				c-3.463,2.07-6.121,5.495-7.089,9.739c-0.171,0.685-0.268,1.37-0.327,2.062c3.753,6.173,9.903,10.879,17.498,12.613
				c7.602,1.75,15.182,0.201,21.258-3.716c0.246-0.64,0.446-1.311,0.604-1.987c0.968-4.252,0.081-8.488-2.13-11.861
				c2.517-1.222,4.482-3.515,5.152-6.456C390.354,129.62,387.145,124.498,382,123.313z"/>
		</g>
	</g>
	<g>
		<g>
			<path fill-rule="evenodd" clip-rule="evenodd" fill="#2E0D00" d="M362.976,126.084c-1.765-0.395-3.529,0.699-3.932,2.472
				c-0.409,1.765,0.692,3.529,2.457,3.932c1.772,0.409,3.544-0.692,3.939-2.45C365.85,128.258,364.732,126.493,362.976,126.084z
				 M379.743,129.94c-1.771-0.401-3.536,0.708-3.931,2.465c-0.41,1.772,0.692,3.529,2.457,3.932
				c1.771,0.402,3.529-0.692,3.931-2.457C382.61,132.107,381.508,130.351,379.743,129.94z"/>
		</g>
	</g>
	<g>
		<g>
			<path fill="#2E0D00" d="M374.636,146.679c-0.127-0.551-0.67-0.878-1.222-0.752c-1.995,0.499-3.961,0.596-5.911,0.172
				c-1.959-0.425-3.902-1.348-5.838-2.874c-0.439-0.351-1.072-0.269-1.43,0.156c-0.335,0.446-0.261,1.079,0.171,1.43
				c2.182,1.728,4.408,2.77,6.664,3.269c2.264,0.483,4.542,0.38,6.836-0.187C374.442,147.767,374.777,147.208,374.636,146.679z"/>
		</g>
	</g>
	<g>
		<g>
			<path fill="#2E0D00" d="M383.765,103.352c-0.156-0.715-0.864-1.177-1.579-1.021c-1.563,0.335-2.919,0.797-3.991,1.467
				c-0.2,0.119-0.387,0.269-0.573,0.395c-0.186-0.514-0.446-1.034-0.759-1.541c-0.856-1.348-2.138-2.605-3.716-3.85
				c-0.581-0.454-1.415-0.343-1.869,0.231c-0.454,0.58-0.364,1.422,0.231,1.876c1.34,1.05,2.412,2.085,3.082,3.172
				c0.61,0.953,0.894,1.958,0.752,3.053c-0.097,0.729,0.425,1.385,1.146,1.481c0.7,0.231,1.452-0.126,1.684-0.833
				c0.26-0.737,0.752-1.289,1.437-1.721c0.812-0.506,1.876-0.856,3.135-1.132C383.459,104.781,383.921,104.081,383.765,103.352z"/>
		</g>
	</g>
	<g>
		<g>
			<path fill-rule="evenodd" clip-rule="evenodd" fill="#F7A12E" d="M400.31,128.734c-1.058-0.245-2.115-0.142-3.046,0.238
				c0.559,2.093,0.626,4.356,0.104,6.604c-0.193,0.894-0.484,1.728-0.842,2.532c0.454,0.268,0.953,0.469,1.497,0.596
				c2.747,0.64,5.495-1.095,6.128-3.843C404.776,132.107,403.057,129.367,400.31,128.734z"/>
		</g>
	</g>
	<g>
		<g>
			<path fill-rule="evenodd" clip-rule="evenodd" fill="#F7A12E" d="M344.964,116.017c-2.748-0.625-5.495,1.095-6.128,3.843
				c-0.633,2.747,1.087,5.502,3.842,6.128c0.544,0.119,1.072,0.156,1.601,0.104c0.022-0.871,0.135-1.749,0.335-2.636
				c0.521-2.248,1.564-4.251,2.986-5.89C346.914,116.813,346.014,116.263,344.964,116.017z"/>
		</g>
	</g>
	<g>
		<g>
			<path fill-rule="evenodd" clip-rule="evenodd" fill="#2E0D00" d="M284.175,423.525c-1.303-5.748-1.139-11.481,0.275-16.798
				c-2.368-0.953-5.048-1.214-7.736-0.596c-6.992,1.608-11.37,8.585-9.761,15.584c1.608,6.999,8.592,11.37,15.584,9.762
				c1.377-0.32,2.644-0.834,3.79-1.526C285.419,427.919,284.704,425.774,284.175,423.525z"/>
		</g>
	</g>
	<g>
		<g>
			<path fill-rule="evenodd" clip-rule="evenodd" fill="#2E0D00" d="M359.327,400.488c-1.608-6.992-8.578-11.37-15.585-9.762
				c-2.673,0.617-4.974,2.032-6.693,3.924c3.589,4.17,6.247,9.263,7.564,14.996c0.521,2.233,0.805,4.482,0.879,6.701
				c1.333,0.127,2.703,0.045,4.08-0.275C356.564,414.464,360.936,407.487,359.327,400.488z"/>
		</g>
	</g>
	<g>
		<g>
			<path fill-rule="evenodd" clip-rule="evenodd" fill="#541700" d="M348.56,408.738c-4.333-18.868-23.142-30.647-42.009-26.314
				c-18.86,4.334-30.647,23.149-26.314,42.01c4.341,18.854,23.149,30.647,42.01,26.314
				C341.114,446.414,352.894,427.599,348.56,408.738z"/>
		</g>
	</g>
	<g>
		<g>
			<path fill-rule="evenodd" clip-rule="evenodd" fill="#F7A12E" d="M343.914,432.223c-1.229-5.361-4.572-9.673-8.936-12.278
				c2.175-2.771,3.135-6.471,2.286-10.172c-1.497-6.485-7.96-10.535-14.445-9.046c-5.614,1.295-9.389,6.291-9.344,11.809
				c-2.383-4.981-7.967-7.833-13.566-6.545c-6.493,1.497-10.536,7.952-9.054,14.452c0.856,3.693,3.328,6.604,6.5,8.146
				c-2.792,4.259-3.909,9.598-2.688,14.951c0.208,0.871,0.462,1.713,0.774,2.517c7.654,4.93,17.222,6.88,26.805,4.691
				c9.583-2.204,17.342-8.139,22.085-15.92C344.241,433.965,344.115,433.101,343.914,432.223z"/>
		</g>
	</g>
	<g>
		<g>
			<path fill-rule="evenodd" clip-rule="evenodd" fill="#2E0D00" d="M302.753,414.353c-2.227,0.514-3.619,2.739-3.105,4.966
				s2.732,3.626,4.966,3.105c2.227-0.514,3.619-2.733,3.105-4.959C307.206,415.23,304.979,413.831,302.753,414.353z
				 M328.873,412.603c-0.521-2.227-2.74-3.611-4.974-3.112c-2.219,0.514-3.619,2.732-3.105,4.966
				c0.514,2.219,2.732,3.619,4.966,3.112C327.987,417.062,329.38,414.836,328.873,412.603z"/>
		</g>
	</g>
	<g>
		<g>
			<path fill="#2E0D00" d="M327.354,431.321c-0.447-0.559-1.244-0.647-1.803-0.208c-2.435,1.936-4.884,3.104-7.349,3.626
				c-2.457,0.528-4.944,0.417-7.468-0.209c-0.685-0.163-1.377,0.238-1.549,0.931c-0.164,0.686,0.253,1.378,0.938,1.542
				c2.875,0.722,5.763,0.834,8.615,0.223c2.837-0.61,5.651-1.936,8.406-4.109C327.696,432.669,327.786,431.88,327.354,431.321z"/>
		</g>
	</g>
	<g>
		<g>
			<path fill="#2E0D00" d="M313.43,375.365c-0.573-0.729-1.616-0.856-2.353-0.29c-2.01,1.571-3.626,3.157-4.683,4.854
				c-0.402,0.641-0.715,1.28-0.968,1.943c-0.223-0.171-0.461-0.327-0.715-0.499c-1.362-0.849-3.067-1.422-5.041-1.847
				c-0.901-0.201-1.794,0.38-1.996,1.281c-0.194,0.908,0.387,1.794,1.288,2.003c1.601,0.342,2.941,0.781,3.954,1.414
				c0.871,0.536,1.489,1.251,1.817,2.175c0.298,0.878,1.251,1.348,2.115,1.057c0.916-0.119,1.563-0.96,1.459-1.868
				c-0.171-1.393,0.179-2.658,0.938-3.864c0.849-1.37,2.197-2.666,3.902-3.991C313.877,377.152,314.003,376.095,313.43,375.365z"/>
		</g>
	</g>
	<g>
		<g>
			<path fill-rule="evenodd" clip-rule="evenodd" fill="#F7A12E" d="M280.52,421.463c-0.655-2.845-0.574-5.682,0.126-8.332
				c-1.184-0.462-2.509-0.603-3.834-0.298c-3.47,0.789-5.644,4.259-4.848,7.744c0.804,3.455,4.267,5.621,7.729,4.824
				c0.685-0.148,1.318-0.401,1.884-0.752C281.13,423.637,280.765,422.572,280.52,421.463z"/>
		</g>
	</g>
	<g>
		<g>
			<path fill-rule="evenodd" clip-rule="evenodd" fill="#F7A12E" d="M354.36,401.635c-0.804-3.47-4.267-5.629-7.736-4.84
				c-1.325,0.298-2.465,1.005-3.328,1.943c1.794,2.062,3.104,4.579,3.768,7.438c0.253,1.109,0.395,2.219,0.432,3.328
				c0.663,0.06,1.341,0.015,2.018-0.142C352.983,408.566,355.157,405.104,354.36,401.635z"/>
		</g>
	</g>
	<g>
		<g>
			<path fill-rule="evenodd" clip-rule="evenodd" fill="#663300" d="M90.075,439.623v10c9.881,8.467,20.409,16.188,31.504,23.09
				v-33.09H90.075z"/>
		</g>
	</g>
	<g>
		<g>
			<path fill-rule="evenodd" clip-rule="evenodd" fill="#006633" d="M170.856,299.633h48.756l-84.005-127.891h38.138L105.831,68.333
				L37.932,171.742h38.13L2.512,283.736c0.573,5.346,1.303,10.647,2.226,15.896h36.076l-25.935,39.501
				c13.544,39.314,36.44,74.28,66.031,102.232h9.166v0.015h31.504v-0.015H263.93L170.856,299.633z"/>
		</g>
	</g>
	<g>
		<g>
			<path fill-rule="evenodd" clip-rule="evenodd" fill="#006633" d="M477.896,381.709l-52.382-79.745h27.572l-49.099-74.772
				l-49.113,74.772h27.58l-60.736,92.478h35.249l-67.304,102.485h50.036c48.532-16.864,90.408-47.959,120.594-88.315l-9.307-14.17
				h19.188C472.869,390.287,475.438,386.028,477.896,381.709z"/>
		</g>
	</g>
	<g>
		<g>
			<polygon fill-rule="evenodd" clip-rule="evenodd" fill="#663300" points="343.735,137.789 343.735,110.782 333.08,110.782 
				333.08,137.789 330.348,137.789 330.348,139.345 346.46,139.345 346.46,137.789 			"/>
		</g>
	</g>
	<g>
		<g>
			<path fill-rule="evenodd" clip-rule="evenodd" fill="#006633" d="M391.91,111.378l-31.496-47.967h16.5l-28.429-43.282h4.557
				c-9.962-4.096-20.23-7.588-30.773-10.417l-6.843,10.417h12.911l-28.428,43.282h16.485l-31.489,47.967H391.91z"/>
		</g>
	</g>
	<g>
		<g>
			<path fill-rule="evenodd" clip-rule="evenodd" fill="#E6E6E6" d="M314.324,127.029c-31.601,0-57.207,25.6-57.207,57.207
				c0,0.953,0.022,1.914,0.06,2.866h114.294c0.038-0.952,0.06-1.913,0.06-2.866C371.53,152.629,345.924,127.029,314.324,127.029z"/>
		</g>
	</g>
	<g>
		<g>
			<path fill-rule="evenodd" clip-rule="evenodd" fill="#CCCCCC" d="M363.541,151.087c-18.935,0-34.296,15.361-34.296,34.296
				c0,0.573,0.016,1.154,0.053,1.72h68.494c0.022-0.565,0.045-1.146,0.045-1.72C397.837,166.448,382.477,151.087,363.541,151.087z"
				/>
		</g>
	</g>
	<g>
		<g>
			<path fill-rule="evenodd" clip-rule="evenodd" fill="#E6E6E6" d="M154.073,478.997c-5.927,0-11.66,0.909-17.036,2.584
				c20.268,10.707,42.144,18.764,65.174,23.708C192.032,489.474,174.266,478.997,154.073,478.997z"/>
		</g>
	</g>
	<g>
		<g>
			<path fill-rule="evenodd" clip-rule="evenodd" fill="#CCCCCC" d="M203.291,503.077c-2.517,0-4.974,0.276-7.342,0.79
				c8.593,2.077,17.341,3.715,26.254,4.899C216.782,505.162,210.282,503.077,203.291,503.077z"/>
		</g>
	</g>
</g>
</svg>
