<?xml version="1.0" encoding="utf-8"?>
<!-- Generator: Adobe Illustrator 16.0.3, SVG Export Plug-In . SVG Version: 6.00 Build 0)  -->
<!DOCTYPE svg PUBLIC "-//W3C//DTD SVG 1.1//EN" "http://www.w3.org/Graphics/SVG/1.1/DTD/svg11.dtd">
<svg version="1.1" id="Layer_1" xmlns="http://www.w3.org/2000/svg" xmlns:xlink="http://www.w3.org/1999/xlink" x="0px" y="0px"
	 width="512px" height="512px" viewBox="0 0 512 512" enable-background="new 0 0 512 512" xml:space="preserve">
<g>
	<g>
		<g>
			<path fill-rule="evenodd" clip-rule="evenodd" fill="#00ADBB" d="M256.006,1C115.156,1,1,115.17,1,256s114.156,255,255.006,255
				C396.833,511,511,396.83,511,256S396.833,1,256.006,1z"/>
		</g>
	</g>
	<g>
		<g>
			<rect x="121.108" y="219.624" fill-rule="evenodd" clip-rule="evenodd" fill="#C9E9ED" width="269.784" height="188.838"/>
		</g>
	</g>
	<g>
		<g>
			<polygon fill-rule="evenodd" clip-rule="evenodd" fill="#0090A6" points="292.347,219.624 121.097,390.9 121.097,408.462 
				390.892,408.462 390.892,219.624 			"/>
		</g>
	</g>
	<g>
		<g>
			<rect x="121.108" y="138.614" fill-rule="evenodd" clip-rule="evenodd" fill="#C9E9ED" width="269.784" height="70.153"/>
		</g>
	</g>
	<g>
		<g>
			<polygon fill-rule="evenodd" clip-rule="evenodd" fill="#0090A6" points="373.377,138.614 303.214,208.79 390.892,208.79 
				390.892,138.614 			"/>
		</g>
	</g>
	<g>
		<g>
			<rect x="161.555" y="103.538" fill-rule="evenodd" clip-rule="evenodd" fill="#006B7A" width="26.979" height="70.153"/>
		</g>
	</g>
	<g>
		<g>
			<rect x="323.432" y="103.538" fill-rule="evenodd" clip-rule="evenodd" fill="#006B7A" width="26.979" height="70.153"/>
		</g>
	</g>
</g>
</svg>
