<?xml version="1.0" encoding="utf-8"?>
<!-- Generator: Adobe Illustrator 16.0.3, SVG Export Plug-In . SVG Version: 6.00 Build 0)  -->
<!DOCTYPE svg PUBLIC "-//W3C//DTD SVG 1.1//EN" "http://www.w3.org/Graphics/SVG/1.1/DTD/svg11.dtd">
<svg version="1.1" id="Layer_1" xmlns="http://www.w3.org/2000/svg" xmlns:xlink="http://www.w3.org/1999/xlink" x="0px" y="0px"
	 width="512px" height="512px" viewBox="0 0 512 512" enable-background="new 0 0 512 512" xml:space="preserve">
<g>
	<g>
		<g>
			<path fill-rule="evenodd" clip-rule="evenodd" fill="#00BAD3" d="M256,1C115.169,1,1,115.158,1,256s114.169,255,255,255
				s255-114.158,255-255S396.831,1,256,1z"/>
		</g>
	</g>
	<g>
		<g>
			<path fill-rule="evenodd" clip-rule="evenodd" fill="#F4EEEB" d="M255.966,273.983c-19.785,0-35.978,16.193-35.978,35.955v71.978
				h71.955V309.96C291.943,290.176,275.75,273.96,255.966,273.983z M363.761,237.926v-71.818h-35.966v35.852l-71.829-71.863
				L112.113,273.983h36.342l-0.49,0.445v107.487h35.966V256.148l72.035-72.069l71.829,71.863v125.972h35.966V273.983h36.114
				L363.761,237.926z"/>
		</g>
	</g>
	<g>
		<g>
			<path fill-rule="evenodd" clip-rule="evenodd" fill="#D8D8D8" d="M147.965,381.915h35.966v-53.869l-35.966,35.978V381.915z
				 M363.761,237.926v-71.818h-17.88l-18.086,18.085v17.767l-8.895-8.872l-26.969,26.969l35.863,35.886v125.972h35.966V273.983
				h36.114L363.761,237.926z M255.966,273.983c-19.785,0-35.978,16.193-35.978,35.955v71.978h71.955V309.96
				C291.943,290.176,275.75,273.96,255.966,273.983z"/>
		</g>
	</g>
</g>
</svg>
