<?xml version="1.0" encoding="utf-8"?>
<!-- Generator: Adobe Illustrator 16.0.3, SVG Export Plug-In . SVG Version: 6.00 Build 0)  -->
<!DOCTYPE svg PUBLIC "-//W3C//DTD SVG 1.1//EN" "http://www.w3.org/Graphics/SVG/1.1/DTD/svg11.dtd">
<svg version="1.1" id="Layer_1" xmlns="http://www.w3.org/2000/svg" xmlns:xlink="http://www.w3.org/1999/xlink" x="0px" y="0px"
	 width="512px" height="512px" viewBox="0 0 512 512" enable-background="new 0 0 512 512" xml:space="preserve">
<g>
	<g>
		<g>
			<path fill-rule="evenodd" clip-rule="evenodd" fill="#00BAD3" d="M256,1C115.146,1,1,115.158,1,256s114.146,255,255,255
				c140.83,0,255-114.158,255-255S396.83,1,256,1z"/>
		</g>
	</g>
	<g>
		<g>
			<path fill-rule="evenodd" clip-rule="evenodd" fill="#00749F" d="M350.875,350.009c-25.27,25.509-58.955,39.558-94.875,39.558
				c-73.619,0-133.555-59.924-133.555-133.578c0-73.643,59.936-133.555,133.555-133.555c26.774,0,52.592,7.891,74.669,22.807
				l7.868-11.643c-24.403-16.5-52.957-25.224-82.537-25.224c-81.396,0-147.627,66.242-147.627,147.616
				c0,81.419,66.23,147.638,147.627,147.638c39.706,0,76.949-15.531,104.864-43.709L350.875,350.009z"/>
		</g>
	</g>
	<g>
		<g>
			<path fill-rule="evenodd" clip-rule="evenodd" fill="#C0E7EF" d="M338.537,133.597l-7.868,11.643
				c36.9,24.916,58.909,66.321,58.909,110.771c0,35.441-13.729,68.831-38.68,93.986l9.966,9.921
				c27.573-27.835,42.763-64.736,42.763-103.907C403.627,206.886,379.292,161.136,338.537,133.597z"/>
		</g>
	</g>
	<g>
		<g>
			<path fill-rule="evenodd" clip-rule="evenodd" fill="#74CEE0" d="M338.537,133.609l-7.868,11.631
				c36.9,24.904,58.909,66.321,58.909,110.76h14.049C403.627,206.886,379.292,161.125,338.537,133.609z"/>
		</g>
	</g>
	<g>
		<g>
			<path fill-rule="evenodd" clip-rule="evenodd" fill="#C0E7EF" d="M257.437,206.784c-27.186,0-49.216,22.042-49.216,49.216
				c0,27.186,22.03,49.205,49.216,49.205c27.163,0,49.194-22.02,49.194-49.205C306.631,228.826,284.6,206.784,257.437,206.784z"/>
		</g>
	</g>
</g>
</svg>
