<?xml version="1.0" encoding="utf-8"?>
<!-- Generator: Adobe Illustrator 16.0.3, SVG Export Plug-In . SVG Version: 6.00 Build 0)  -->
<!DOCTYPE svg PUBLIC "-//W3C//DTD SVG 1.1//EN" "http://www.w3.org/Graphics/SVG/1.1/DTD/svg11.dtd">
<svg version="1.1" id="Layer_1" xmlns="http://www.w3.org/2000/svg" xmlns:xlink="http://www.w3.org/1999/xlink" x="0px" y="0px"
	 width="512px" height="512px" viewBox="0 0 512 512" enable-background="new 0 0 512 512" xml:space="preserve">
<g>
	<g>
		<g>
			<path fill-rule="evenodd" clip-rule="evenodd" fill="#0084C8" d="M256,1C115.146,1,1,115.178,1,256.006
				C1,396.833,115.146,511,256,511c140.83,0,255-114.167,255-254.994C511,115.178,396.83,1,256,1z"/>
		</g>
	</g>
	<g>
		<g>
			<path fill-rule="evenodd" clip-rule="evenodd" fill="#F4EEEB" d="M282.866,256.017l0.046,0.023
				c0-14.904-12.111-26.979-27.003-26.979c-14.87,0.022-26.958,12.076-26.958,26.957c0.023,14.915,12.064,26.979,26.958,26.979
				C270.801,283.02,282.866,270.932,282.866,256.017z M255.954,184.132c-39.66,0-71.909,32.248-71.909,71.885l18.018,0.023
				c0-29.739,24.152-53.948,53.892-53.948c29.74,0.011,53.915,24.208,53.915,53.925l18.018,0.023
				C327.887,216.38,295.615,184.121,255.954,184.132z M263.412,292.005h-14.984c0,0-37.448-0.022-37.448,37.425l0.023,34.483
				c0,9.92,8.005,17.948,17.948,17.948l0.023,18.028h53.938v-17.994c9.897,0,17.926-8.062,17.926-18.005l0.045-34.46
				C300.883,292.005,263.39,291.982,263.412,292.005z M255.954,148.167v0.045c-59.479,0-107.853,48.337-107.853,107.804
				l17.995,0.023c0-49.581,40.299-89.901,89.857-89.901c49.581,0.034,89.882,40.321,89.882,89.878l17.993,0.023
				C363.829,196.55,315.434,148.167,255.954,148.167z M256.022,112.111c-79.366,0.046-143.909,64.542-143.909,143.906l18.04,0.023
				c0-69.399,56.424-125.867,125.801-125.867c69.4,0.034,125.824,56.468,125.824,125.844l18.131,0.023
				C399.863,176.675,335.299,112.134,256.022,112.111z"/>
		</g>
	</g>
	<g>
		<g>
			<path fill-rule="evenodd" clip-rule="evenodd" fill="#D8D8D8" d="M294.064,217.931c9.761,9.761,15.805,23.239,15.805,38.086
				l18.018,0.023c0-19.83-8.074-37.801-21.097-50.823L294.064,217.931z M282.866,256.017l0.046,0.023
				c0-7.446-3.033-14.186-7.892-19.055l-38.133,38.143c4.835,4.858,11.586,7.868,19.021,7.868
				C270.801,283.02,282.866,270.932,282.866,256.017z M263.412,292.005h-14.984c0,0-37.448-0.022-37.448,37.425l0.023,34.483
				c0,9.92,8.005,17.948,17.948,17.948l0.023,18.017h53.938v-17.994c9.897,0,17.926-8.051,17.926-17.994l0.045-34.46
				C300.883,292.005,263.39,291.982,263.412,292.005z M319.471,192.502c16.284,16.272,26.365,38.736,26.365,63.515l17.993,0.023
				c0-29.739-12.087-56.719-31.633-76.241L319.471,192.502z M357.672,154.325L344.9,167.096
				c22.761,22.795,36.878,54.244,36.878,88.921l18.131,0.023C399.887,216.357,383.739,180.392,357.672,154.325z"/>
		</g>
	</g>
</g>
</svg>
