<?xml version="1.0" encoding="utf-8"?>
<!-- Generator: Adobe Illustrator 16.0.3, SVG Export Plug-In . SVG Version: 6.00 Build 0)  -->
<!DOCTYPE svg PUBLIC "-//W3C//DTD SVG 1.1//EN" "http://www.w3.org/Graphics/SVG/1.1/DTD/svg11.dtd">
<svg version="1.1" id="Layer_1" xmlns="http://www.w3.org/2000/svg" xmlns:xlink="http://www.w3.org/1999/xlink" x="0px" y="0px"
	 width="512px" height="512px" viewBox="0 0 512 512" enable-background="new 0 0 512 512" xml:space="preserve">
<g>
	<g>
		<g>
			<path fill-rule="evenodd" clip-rule="evenodd" fill="#9DDAE7" d="M256,1C115.17,1,1,115.168,1,256s114.17,255,255,255
				c140.842,0,255-114.168,255-255S396.842,1,256,1z"/>
		</g>
	</g>
	<g>
		<g>
			<path fill-rule="evenodd" clip-rule="evenodd" fill="#00AFBC" d="M363.91,238.006l35.965-35.965l-35.965-35.943h-89.928v-35.969
				c0-9.966-8.085-18.015-18.017-18.015c-9.897,0.021-17.982,8.049-17.982,17.994l0.022,35.989h-89.904v71.908h89.904v18.019
				h-89.904l-35.965,35.965l35.965,35.988h89.904v71.908h35.977v-71.908h89.928v-71.953h-89.928v-18.019H363.91z"/>
		</g>
	</g>
	<g>
		<g>
			<path fill-rule="evenodd" clip-rule="evenodd" fill="#0099A5" d="M184.045,327.978h53.961v71.908h35.977v-71.908h89.928v-71.953
				h-89.928v-17.996L184.045,327.978z M399.875,202.041l-35.965-35.943h-18.007l-71.898,71.908h89.905L399.875,202.041z
				 M273.982,238.006v0.022l0.022-0.022H273.982z"/>
		</g>
	</g>
</g>
</svg>
