<?xml version="1.0" encoding="utf-8"?>
<!-- Generator: Adobe Illustrator 16.0.3, SVG Export Plug-In . SVG Version: 6.00 Build 0)  -->
<!DOCTYPE svg PUBLIC "-//W3C//DTD SVG 1.1//EN" "http://www.w3.org/Graphics/SVG/1.1/DTD/svg11.dtd">
<svg version="1.1" id="Layer_1" xmlns="http://www.w3.org/2000/svg" xmlns:xlink="http://www.w3.org/1999/xlink" x="0px" y="0px"
	 width="512px" height="512px" viewBox="0 0 512 512" enable-background="new 0 0 512 512" xml:space="preserve">
<g>
	<g>
		<g>
			<path fill-rule="evenodd" clip-rule="evenodd" fill="#BFE2D1" d="M256.006,1C115.156,1,1,115.167,1,256.006
				C1,396.833,115.156,511,256.006,511C396.833,511,511,396.833,511,256.006C511,115.167,396.833,1,256.006,1z"/>
		</g>
	</g>
	<g>
		<g>
			<rect x="229.038" y="229.026" fill-rule="evenodd" clip-rule="evenodd" fill="#0092B8" width="53.936" height="53.948"/>
		</g>
	</g>
	<g>
		<g>
			<rect x="229.038" y="300.991" fill-rule="evenodd" clip-rule="evenodd" fill="#0092B8" width="53.936" height="53.925"/>
		</g>
	</g>
	<g>
		<g>
			<rect x="300.991" y="229.026" fill-rule="evenodd" clip-rule="evenodd" fill="#0092B8" width="53.936" height="53.948"/>
		</g>
	</g>
	<g>
		<g>
			<rect x="157.096" y="300.991" fill-rule="evenodd" clip-rule="evenodd" fill="#0092B8" width="53.982" height="53.925"/>
		</g>
	</g>
	<g>
		<g>
			<rect x="157.096" y="229.026" fill-rule="evenodd" clip-rule="evenodd" fill="#0092B8" width="53.982" height="53.948"/>
		</g>
	</g>
	<g>
		<g>
			<path fill-rule="evenodd" clip-rule="evenodd" fill="#00749F" d="M372.898,148.076l-8.985,0.023v-8.986
				c0-14.847-12.145-26.991-26.991-26.991c-14.812,0.011-26.957,12.133-26.957,26.957v9.02H202.046v-8.986
				c0-14.847-12.133-26.991-26.979-26.991c-14.812,0.011-26.991,12.133-26.991,26.957l0.023,9.02h-8.975
				c-14.892,0-27.002,12.087-27.002,26.957l0.022,197.854c0,14.869,12.087,26.957,26.957,26.957l179.643,0.011
				c4.96,0,11.825-2.862,15.349-6.351l59.41-58.977c3.5-3.455,6.363-10.377,6.363-15.326l0.011-144.134
				C399.877,160.186,387.779,148.076,372.898,148.076z M327.936,139.113c0-4.938,4.048-9.02,8.985-9.02
				c4.96,0.034,9.008,4.048,9.008,8.985l0.023,36.011c0,4.938-4.094,8.952-9.031,8.952c-4.938,0.022-8.985-4.014-8.985-8.986
				V139.113z M166.082,139.113c0-4.938,4.037-9.02,8.985-9.02c4.972,0.034,8.986,4.048,8.986,8.985l0.023,36.011
				c0,4.938-4.06,8.952-9.009,8.952c-4.949,0.022-8.985-4.014-8.985-8.986V139.113z M318.745,381.895v-62.648h63.173
				L318.745,381.895z M381.918,300.979h-80.927v80.916H139.125c-4.972,0-9.02-4.048-9.02-9.02l0.034-170.84h251.779V300.979z"/>
		</g>
	</g>
	<g>
		<g>
			<path fill-rule="evenodd" clip-rule="evenodd" fill="#007FA1" d="M372.91,148.076l-8.997,0.023v-0.023l-17.971,17.971
				l0.011,9.042c0,4.938-4.105,8.952-9.02,8.952c-2.463,0-4.721-1.004-6.363-2.623l-20.605,20.617h71.953v98.933h-80.927v80.927
				H139.125c-2.486,0-4.755-1.015-6.374-2.668l-12.714,12.726c4.88,4.88,11.608,7.914,19.066,7.914l179.643,0.011
				c4.96,0,11.825-2.874,15.337-6.351l59.421-58.977c3.5-3.467,6.363-10.377,6.363-15.337l0.011-144.123
				C399.877,160.209,387.768,148.076,372.91,148.076z M318.745,381.895v-62.637h63.173L318.745,381.895z"/>
		</g>
	</g>
	<g>
		<g>
			<polygon fill-rule="evenodd" clip-rule="evenodd" fill="#00749F" points="157.096,282.974 211.078,282.974 211.078,229.015 			
				"/>
		</g>
	</g>
	<g>
		<g>
			<polygon fill-rule="evenodd" clip-rule="evenodd" fill="#00749F" points="229.038,282.974 282.974,282.974 282.974,229.015 			
				"/>
		</g>
	</g>
	<g>
		<g>
			<polygon fill-rule="evenodd" clip-rule="evenodd" fill="#00749F" points="300.991,282.974 354.927,282.974 354.927,229.015 			
				"/>
		</g>
	</g>
	<g>
		<g>
			<polygon fill-rule="evenodd" clip-rule="evenodd" fill="#00749F" points="229.038,354.904 282.974,354.904 282.974,300.979 			
				"/>
		</g>
	</g>
	<g>
		<g>
			<polygon fill-rule="evenodd" clip-rule="evenodd" fill="#00749F" points="157.096,354.904 211.078,354.904 211.078,300.979 			
				"/>
		</g>
	</g>
</g>
</svg>
