<?xml version="1.0" encoding="utf-8"?>
<!-- Generator: Adobe Illustrator 16.0.3, SVG Export Plug-In . SVG Version: 6.00 Build 0)  -->
<!DOCTYPE svg PUBLIC "-//W3C//DTD SVG 1.1//EN" "http://www.w3.org/Graphics/SVG/1.1/DTD/svg11.dtd">
<svg version="1.1" id="Layer_1" xmlns="http://www.w3.org/2000/svg" xmlns:xlink="http://www.w3.org/1999/xlink" x="0px" y="0px"
	 width="512px" height="512px" viewBox="0 0 512 512" enable-background="new 0 0 512 512" xml:space="preserve">
<g>
	<g>
		<g>
			<path fill-rule="evenodd" clip-rule="evenodd" fill="#00BAD3" d="M256.011,1C115.163,1,0.999,115.17,0.999,256
				s114.164,255,255.012,255c140.825,0,254.988-114.17,254.988-255S396.836,1,256.011,1z"/>
		</g>
	</g>
	<g>
		<g>
			<path fill-rule="evenodd" clip-rule="evenodd" fill="#E1F4FD" d="M255.987,112.113c-79.432,0-143.856,64.406-143.856,143.864
				c0.022,79.48,64.402,143.886,143.856,143.886c79.478,0,143.88-64.405,143.88-143.886
				C399.891,176.52,335.442,112.113,255.987,112.113z M213.113,147.19c-0.41,0.501-0.799,0.935-1.186,1.413
				c-6.547,8.165-12.247,16.991-17.082,26.434l-23.17,0.045C183.215,163.04,197.285,153.438,213.113,147.19z M157.468,193.031
				l29.533,0.022c-6.203,16.877-9.943,35.077-10.787,53.938h-36.739C140.957,227.241,147.365,208.836,157.468,193.031z
				 M139.451,264.963l0.023,0.022h36.739c0.866,18.861,4.516,37.084,10.765,53.938l-29.465,0.023
				C147.388,303.164,140.934,284.736,139.451,264.963z M171.653,336.918l0.022,0.022h23.193
				c4.812,9.442,10.512,18.313,17.059,26.433c0.41,0.479,0.775,0.912,1.186,1.392C197.309,358.561,183.192,348.96,171.653,336.918z
				 M247.002,372.428c-12.269-9.101-23.056-21.21-31.608-35.51l31.608,0.022V372.428z M247.002,318.946h-40.617
				c-6.884-16.3-11.193-34.562-12.176-53.961h-0.002v-0.022c0,0.008,0.001,0.015,0.002,0.022h52.793V318.946z M247.002,246.991
				h-52.795c1.004-19.386,5.291-37.653,12.156-53.96l40.639,0.022V246.991z M247.002,175.082h-31.608
				c8.553-14.322,19.316-26.409,31.608-35.51V175.082z M372.547,246.991H335.83c-0.867-18.838-4.607-37.083-10.811-53.96
				l29.511,0.022C364.633,208.836,371.042,227.241,372.547,246.991z M340.322,175.037l0.045,0.045h-23.192
				c-4.857-9.465-10.582-18.336-17.127-26.479c-0.366-0.479-0.798-0.935-1.163-1.413
				C314.712,153.438,328.783,163.018,340.322,175.037z M265.018,139.596c12.293,9.077,23.035,21.142,31.564,35.441l-31.564,0.045
				V139.596z M265.018,193.054h40.617c6.888,16.284,11.152,34.552,12.133,53.938h-52.75V193.054z M265.018,264.985h52.773
				c-1.004,19.409-5.291,37.654-12.156,53.938l-40.617,0.023V264.985z M265.018,372.369v0.059l-0.045-0.023
				C264.988,372.393,265.002,372.381,265.018,372.369V336.94h31.564C288.063,351.2,277.314,363.273,265.018,372.369z
				 M298.885,364.787c0.41-0.502,0.775-0.935,1.163-1.414c6.567-8.096,12.27-16.99,17.081-26.455l23.238,0.022
				C328.783,348.96,314.666,358.538,298.885,364.787z M354.508,318.923l-29.488,0.023c6.249-16.854,9.898-35.1,10.764-53.983
				l0.047,0.022h36.738C371.087,284.759,364.633,303.142,354.508,318.923z"/>
		</g>
	</g>
	<g>
		<g>
			<path fill-rule="evenodd" clip-rule="evenodd" fill="#B7D7E5" d="M357.723,154.237l-19.088,19.089l1.688,1.711l0.045,0.045
				h-3.466l-27.595,27.597c4.744,13.752,7.663,28.645,8.461,44.312h-52.75v-0.022l-18.038,18.017h0.022v53.961h-40.617
				c-1.345-3.147-2.576-6.386-3.671-9.67l-27.663,27.664h19.818c4.812,9.442,10.512,18.313,17.059,26.433
				c0.41,0.479,0.775,0.912,1.186,1.392c-15.006-5.907-28.553-14.893-39.772-26.113l-19.089,19.065
				c26.044,26.022,61.985,42.146,101.735,42.146c79.478,0,143.857-64.405,143.857-143.886
				C399.867,216.248,383.766,180.282,357.723,154.237z M247.002,372.428c-12.269-9.101-23.056-21.21-31.608-35.51l31.608,0.022
				V372.428z M354.53,193.054c10.103,15.782,16.512,34.188,18.017,53.938H335.83c-0.867-18.838-4.607-37.083-10.811-53.96
				L354.53,193.054z M265.018,264.985h52.773c-1.004,19.409-5.291,37.654-12.156,53.938l-40.617,0.023V264.985z M265.018,372.369
				v0.059l-0.045-0.023C264.988,372.393,265.002,372.381,265.018,372.369V336.94h31.564
				C288.063,351.2,277.293,363.273,265.018,372.369z M298.907,364.787c0.388-0.502,0.753-0.935,1.141-1.414
				c6.567-8.096,12.247-16.99,17.081-26.455l23.238,0.022C328.783,348.96,314.666,358.538,298.907,364.787z M354.508,318.923
				l-29.488,0.023c6.249-16.854,9.898-35.1,10.764-53.983l0.047,0.022h36.738C371.087,284.759,364.633,303.142,354.508,318.923z"/>
		</g>
	</g>
</g>
</svg>
