<?xml version="1.0" encoding="utf-8"?>
<!-- Generator: Adobe Illustrator 16.0.3, SVG Export Plug-In . SVG Version: 6.00 Build 0)  -->
<!DOCTYPE svg PUBLIC "-//W3C//DTD SVG 1.1//EN" "http://www.w3.org/Graphics/SVG/1.1/DTD/svg11.dtd">
<svg version="1.1" id="Layer_1" xmlns="http://www.w3.org/2000/svg" xmlns:xlink="http://www.w3.org/1999/xlink" x="0px" y="0px"
	 width="512px" height="512px" viewBox="0 0 512 512" enable-background="new 0 0 512 512" xml:space="preserve">
<g>
	<g>
		<g>
			<circle fill-rule="evenodd" clip-rule="evenodd" fill="#E1F4FD" cx="256" cy="256" r="255"/>
		</g>
	</g>
	<g>
		<g>
			<path fill-rule="evenodd" clip-rule="evenodd" fill="#56C0E7" d="M172.573,313.792l0.046,0.046
				c-44.495,45.772-63.516,82.217-60.095,85.638c3.397,3.444,39.865-15.554,85.638-60.072l0.069,0.046l29.488-29.512l-25.657-25.635
				L172.573,313.792z M298.181,112.137c-12.988,12.954-13.969,33.343-2.999,47.438l-51.27,51.314
				c-14.117-11.016-34.528-10.012-47.482,2.965l-12.727,12.681l101.729,101.785l12.749-12.749
				c12.942-12.931,13.924-33.389,2.953-47.482l51.27-51.247c14.117,10.971,34.506,9.989,47.483-2.987L298.181,112.137z"/>
		</g>
	</g>
	<g>
		<g>
			<path fill-rule="evenodd" clip-rule="evenodd" fill="#00749F" d="M112.524,399.476c3.443,3.421,39.899-15.576,85.638-60.072
				l0.069,0.046l29.488-29.512l-12.84-12.817L112.524,399.476z M349.028,162.972L234.562,277.438l50.859,50.881l12.748-12.749
				c12.954-12.931,13.958-33.389,2.965-47.482l51.27-51.247c14.117,10.971,34.506,9.989,47.483-2.987L349.028,162.972z"/>
		</g>
	</g>
</g>
</svg>
